<?xml version="1.0" encoding="utf-8"?>
<!-- Generator: Adobe Illustrator 23.0.4, SVG Export Plug-In . SVG Version: 6.00 Build 0)  -->
<svg version="1.1" xmlns="http://www.w3.org/2000/svg" xmlns:xlink="http://www.w3.org/1999/xlink" x="0px" y="0px"
	 viewBox="0 0 1572.3 1004.7" style="enable-background:new 0 0 1572.3 1004.7;" xml:space="preserve">
<style type="text/css">
	.st0{fill:url(#path3808_1_);}
	.st1{fill:url(#path3810_1_);}
	.st2{fill:url(#path3812_1_);}
	.st3{fill:url(#path3814_1_);}
	.st4{fill:url(#path3816_1_);}
	.st5{fill:url(#path3818_1_);}
	.st6{fill:url(#path3820_1_);}
	.st7{fill:url(#path3822_1_);}
	.st8{fill:url(#path3824_1_);}
	.st9{fill:url(#path3826_1_);}
	.st10{fill:url(#path3828_1_);}
	.st11{fill:url(#path3830_1_);}
	.st12{fill:url(#path3832_1_);}
	.st13{fill:url(#path3834_1_);}
	.st14{fill:url(#path3836_1_);}
	.st15{fill:url(#path3838_1_);}
	.st16{fill:url(#path3840_1_);}
	.st17{fill:url(#path3842_1_);}
	.st18{fill:url(#path3844_1_);}
	.st19{fill:url(#path3846_1_);}
	.st20{fill:#FFFFFF;}
	.st21{fill:#00269A;}
</style>
<g id="Layer_1" inkscape:version="0.92.4 (5da689c313, 2019-01-14)" sodipodi:docname="cyphervi-gradient.svg" xmlns:cc="http://creativecommons.org/ns#" xmlns:dc="http://purl.org/dc/elements/1.1/" xmlns:inkscape="http://www.inkscape.org/namespaces/inkscape" xmlns:rdf="http://www.w3.org/1999/02/22-rdf-syntax-ns#" xmlns:sodipodi="http://sodipodi.sourceforge.net/DTD/sodipodi-0.dtd" xmlns:svg="http://www.w3.org/2000/svg">
	
		<sodipodi:namedview  bordercolor="#666666" borderopacity="1" gridtolerance="10" guidetolerance="10" id="namedview3883" inkscape:current-layer="Layer_1" inkscape:cx="848.2202" inkscape:cy="750" inkscape:pageopacity="0" inkscape:pageshadow="2" inkscape:window-height="1377" inkscape:window-maximized="1" inkscape:window-width="2560" inkscape:window-x="-8" inkscape:window-y="-8" inkscape:zoom="4.22" objecttolerance="10" pagecolor="#ffffff" showgrid="false">
		</sodipodi:namedview>
	<title  id="title3804">cyphervi-USETHISONE</title>
	
		<linearGradient id="path3808_1_" gradientUnits="userSpaceOnUse" x1="-251.1461" y1="1673.4479" x2="-251.1461" y2="940.832" gradientTransform="matrix(1 0 0 -1 743 1665.4603)">
		<stop  offset="0" style="stop-color:#64CCC9"/>
		<stop  offset="1" style="stop-color:#00313C"/>
	</linearGradient>
	<path id="path3808" class="st0" d="M399.2,497.5V217.2h185.4v280.4H399.2z M424.9,281.6c16,21.6,31.5,42.6,46.7,63.1h29.5l-45-63.1
		H424.9z M530.1,344.9l28.3-63.7h-30.1l-26.8,63.7H530.1z M494.7,389.8c2.1,14.8,4.1,28.8,6,42.5h26l-6.1-42.5L494.7,389.8z"/>
	
		<linearGradient id="path3810_1_" gradientUnits="userSpaceOnUse" x1="-450.9711" y1="1673.4479" x2="-450.9711" y2="940.832" gradientTransform="matrix(1 0 0 -1 743 1665.4603)">
		<stop  offset="0" style="stop-color:#64CCC9"/>
		<stop  offset="1" style="stop-color:#00313C"/>
	</linearGradient>
	<path id="path3810" class="st1" d="M384.7,217.2v280.4H199.3V217.2H384.7z M323.4,280.3c-8.5-0.5-16.4-1.5-24.3-1.3
		c-31,0.9-55.6,20.6-62.2,49.6c-9.4,40.7,12.9,84,51.8,100.2c17.5,7.3,35.5,9.2,54.7,4.5c-0.6-7.9-1.2-15.6-1.8-22
		c-10.1,0-19.8,1.4-28.9-0.3c-28.2-5.3-48.7-29.8-51.1-59.6c-2.5-31.5,16.5-51,48-48.8c5.2,0.4,10.3,1.5,15.9,2.4
		C324.9,297.1,324.2,289.3,323.4,280.3z"/>
	
		<linearGradient id="path3812_1_" gradientUnits="userSpaceOnUse" x1="348.8989" y1="1673.4479" x2="348.8989" y2="940.832" gradientTransform="matrix(1 0 0 -1 743 1665.4603)">
		<stop  offset="0" style="stop-color:#64CCC9"/>
		<stop  offset="1" style="stop-color:#00313C"/>
	</linearGradient>
	<path id="path3812" class="st2" d="M1184.6,497.6H999.2V217.3h185.4V497.6z M1040.3,304.9h89.1c-1-7.6-2-15.3-3-23.2h-89.5
		C1038.1,289.3,1039.1,296.7,1040.3,304.9z M1058.1,432.7h89.2c-0.9-7.8-1.8-15.3-2.7-23.1h-89.6
		C1056,417.5,1057,424.9,1058.1,432.7L1058.1,432.7z M1049.3,368.9h84.1c-0.8-7.6-1.7-15.3-2.6-23.2h-84.9
		C1047.1,353.4,1048.2,360.9,1049.3,368.9z"/>
	
		<linearGradient id="path3814_1_" gradientUnits="userSpaceOnUse" x1="-51.0111" y1="1673.4479" x2="-51.0111" y2="940.832" gradientTransform="matrix(1 0 0 -1 743 1665.4603)">
		<stop  offset="0" style="stop-color:#64CCC9"/>
		<stop  offset="1" style="stop-color:#00313C"/>
	</linearGradient>
	<path id="path3814" class="st3" d="M599.3,217.1h185.4v280.4H599.3V217.1z M685.4,433.3c-1.2-7.3-2.3-13.7-3.3-20.1
		c-1-6.4-1.9-12.6-2.9-18.8c7.9-0.5,15.4-0.5,22.8-1.5c20.7-3,37.2-17.4,40.6-36.8c4.3-24.4-2.7-45.4-22.5-60.8
		c-24.4-19-52.5-16.7-81.1-12.5c0.7,7.9,1.4,15.5,2.1,23.3c2.7-0.2,4.8-0.5,7-0.6c11.6-0.2,23.4-1.6,34.8-0.3
		c16.4,1.9,29.1,10.3,34.5,27c6.4,20-2,33.8-22.8,36.7c-9.5,1.3-19.2,1-28.9,1.3c-4.7,0.1-9.5,0-14.4,0c2.8,21.2,5.6,42.4,8.3,63.2
		L685.4,433.3z"/>
	
		<linearGradient id="path3816_1_" gradientUnits="userSpaceOnUse" x1="149.0339" y1="1673.4479" x2="149.0339" y2="940.832" gradientTransform="matrix(1 0 0 -1 743 1665.4603)">
		<stop  offset="0" style="stop-color:#64CCC9"/>
		<stop  offset="1" style="stop-color:#00313C"/>
	</linearGradient>
	<path id="path3816" class="st4" d="M984.7,217.2v280.4H799.3V217.2H984.7z M943.9,368.7c-4.2-29.4-8.3-58.4-12.5-87.9l-25.5,1.3
		l9,63h-55.4c-3.1-21.4-6.1-42.6-9-63.3h-25.8c4.2,29.5,8.4,58.2,12.5,87L943.9,368.7z M953,432.8c-1.2-7.9-2.4-15.5-3.5-23.2h-25.5
		c1.1,8,2.2,15.6,3.3,23.2H953z M846.1,432.2h25.7c-1.2-7.9-2.3-15.2-3.4-22.7h-25.6C843.9,417.4,845,424.9,846.1,432.2L846.1,432.2
		z"/>
	
		<linearGradient id="path3818_1_" gradientUnits="userSpaceOnUse" x1="549.0339" y1="1673.4479" x2="549.0339" y2="940.832" gradientTransform="matrix(1 0 0 -1 743 1665.4603)">
		<stop  offset="0" style="stop-color:#64CCC9"/>
		<stop  offset="1" style="stop-color:#00313C"/>
	</linearGradient>
	<path id="path3818" class="st5" d="M1384.7,217.2v280.4h-185.4V217.2H1384.7z M1266.7,371c3.9,0,6.9-0.1,9.8,0
		c11.3,0.3,22.3-1.2,32.5-6.3c10-4.9,17.2-12.4,20-23.6c5.8-23.3-7.8-47.9-31.2-56.3c-15.1-5.4-30.7-5.7-46.4-4.6
		c-7.1,0.5-14.2,1.3-21.6,2c0.7,8.2,1.4,15.7,2.1,23.5c1.8-0.2,3.1-0.4,4.4-0.5c13.5-0.5,27-2,40.3-1.2c12.5,0.7,23.3,5.9,27.5,19.4
		c3.9,12.8-0.6,20.9-13.7,23.7c-5.7,1.2-11.5,1.7-17.3,1.5c-11.3-0.3-22.5-1.2-34.3-1.8c3.9,29,7.8,57.9,11.5,86.1h25.7
		C1273,412,1269.9,391.6,1266.7,371L1266.7,371z M1329.3,433.5h28.3l-26.2-37.1l-22.8,6.7L1329.3,433.5z"/>
	
		<linearGradient id="path3820_1_" gradientUnits="userSpaceOnUse" x1="-229.0611" y1="1673.4479" x2="-229.0611" y2="940.832" gradientTransform="matrix(1 0 0 -1 743 1665.4603)">
		<stop  offset="0" style="stop-color:#64CCC9"/>
		<stop  offset="1" style="stop-color:#00313C"/>
	</linearGradient>
	<path id="path3820" class="st6" d="M585.2,204.7H399l63.3-185.6h166.6L585.2,204.7z"/>
	
		<linearGradient id="path3822_1_" gradientUnits="userSpaceOnUse" x1="326.9689" y1="1673.4479" x2="326.9689" y2="940.832" gradientTransform="matrix(1 0 0 -1 743 1665.4603)">
		<stop  offset="0" style="stop-color:#64CCC9"/>
		<stop  offset="1" style="stop-color:#00313C"/>
	</linearGradient>
	<path id="path3822" class="st7" d="M1184.9,204.8H998.7L955,19.1h166.6L1184.9,204.8z"/>
	
		<linearGradient id="path3824_1_" gradientUnits="userSpaceOnUse" x1="-229.0311" y1="1673.4479" x2="-229.0311" y2="940.832" gradientTransform="matrix(1 0 0 -1 743 1665.4603)">
		<stop  offset="0" style="stop-color:#64CCC9"/>
		<stop  offset="1" style="stop-color:#00313C"/>
	</linearGradient>
	<path id="path3824" class="st8" d="M399,511h186.2c14.5,61.8,29.1,123.7,43.8,185.7H462.3C441.3,635.1,420.2,573.2,399,511z"/>
	
		<linearGradient id="path3826_1_" gradientUnits="userSpaceOnUse" x1="326.9339" y1="1673.4479" x2="326.9339" y2="940.832" gradientTransform="matrix(1 0 0 -1 743 1665.4603)">
		<stop  offset="0" style="stop-color:#64CCC9"/>
		<stop  offset="1" style="stop-color:#00313C"/>
	</linearGradient>
	<path id="path3826" class="st9" d="M955,695.7c14.7-62.3,29.2-123.9,43.7-185.6h186.2c-21.2,62-42.2,123.8-63.3,185.6H955z"/>
	
		<linearGradient id="path3828_1_" gradientUnits="userSpaceOnUse" x1="517.9139" y1="1673.4479" x2="517.9139" y2="940.832" gradientTransform="matrix(1 0 0 -1 743 1665.4603)">
		<stop  offset="0" style="stop-color:#64CCC9"/>
		<stop  offset="1" style="stop-color:#00313C"/>
	</linearGradient>
	<path id="path3828" class="st10" d="M1198.9,204.6l-61.9-185.4h149.2l98.5,185.4L1198.9,204.6z"/>
	
		<linearGradient id="path3830_1_" gradientUnits="userSpaceOnUse" x1="-420.0511" y1="1673.4479" x2="-420.0511" y2="940.832" gradientTransform="matrix(1 0 0 -1 743 1665.4603)">
		<stop  offset="0" style="stop-color:#64CCC9"/>
		<stop  offset="1" style="stop-color:#00313C"/>
	</linearGradient>
	<path id="path3830" class="st11" d="M384.9,203.8H199c33-62.2,65.8-123.9,98.6-185.7h149.2C426.2,80,405.6,141.8,384.9,203.8z"/>
	
		<linearGradient id="path3832_1_" gradientUnits="userSpaceOnUse" x1="517.9139" y1="1673.4479" x2="517.9139" y2="940.832" gradientTransform="matrix(1 0 0 -1 743 1665.4603)">
		<stop  offset="0" style="stop-color:#64CCC9"/>
		<stop  offset="1" style="stop-color:#00313C"/>
	</linearGradient>
	<path id="path3832" class="st12" d="M1286.2,696.7H1137c20.7-62.1,41.4-123.9,62-185.7h185.8L1286.2,696.7z"/>
	
		<linearGradient id="path3834_1_" gradientUnits="userSpaceOnUse" x1="-420.0611" y1="1673.4479" x2="-420.0611" y2="940.832" gradientTransform="matrix(1 0 0 -1 743 1665.4603)">
		<stop  offset="0" style="stop-color:#64CCC9"/>
		<stop  offset="1" style="stop-color:#00313C"/>
	</linearGradient>
	<path id="path3834" class="st13" d="M199,510h185.9l62,185.6H297.6L199,510z"/>
	
		<linearGradient id="path3836_1_" gradientUnits="userSpaceOnUse" x1="-51.2111" y1="1673.4479" x2="-51.2111" y2="940.832" gradientTransform="matrix(1 0 0 -1 743 1665.4603)">
		<stop  offset="0" style="stop-color:#64CCC9"/>
		<stop  offset="1" style="stop-color:#00313C"/>
	</linearGradient>
	<path id="path3836" class="st14" d="M784.6,204.7H599l46-185.7h139.6V204.7z"/>
	
		<linearGradient id="path3838_1_" gradientUnits="userSpaceOnUse" x1="149.0089" y1="1673.4479" x2="149.0089" y2="940.832" gradientTransform="matrix(1 0 0 -1 743 1665.4603)">
		<stop  offset="0" style="stop-color:#64CCC9"/>
		<stop  offset="1" style="stop-color:#00313C"/>
	</linearGradient>
	<path id="path3838" class="st15" d="M799.2,204.5V19.1H939c15.2,61.6,30.5,123.3,45.8,185.4L799.2,204.5z"/>
	
		<linearGradient id="path3840_1_" gradientUnits="userSpaceOnUse" x1="149.0989" y1="1673.4479" x2="149.0989" y2="940.832" gradientTransform="matrix(1 0 0 -1 743 1665.4603)">
		<stop  offset="0" style="stop-color:#64CCC9"/>
		<stop  offset="1" style="stop-color:#00313C"/>
	</linearGradient>
	<path id="path3840" class="st16" d="M938.9,695.7H799.3V510.2h185.5C969.6,572.1,954.3,633.9,938.9,695.7z M880.1,644.5
		c2.4-10,4.5-19,6.7-28.2H869c-2.4,9.3-4.7,18.6-7.1,28.1h-16.5c-1.4,5.5-2.8,10.8-4.2,16.3h51.3c1.4-5.3,2.7-10.4,4.2-16.2H880.1z
		 M918.4,555.1h-51.2c-1.4,5.3-2.7,10.4-4.2,16.2h16.7c-1.1,4.8-2,9-3,13.4h17.8c1.2-4.5,2.3-8.8,3.5-13.3h16.3L918.4,555.1z"/>
	
		<linearGradient id="path3842_1_" gradientUnits="userSpaceOnUse" x1="-51.2211" y1="1673.4479" x2="-51.2211" y2="940.832" gradientTransform="matrix(1 0 0 -1 743 1665.4603)">
		<stop  offset="0" style="stop-color:#64CCC9"/>
		<stop  offset="1" style="stop-color:#00313C"/>
	</linearGradient>
	<path id="path3842" class="st17" d="M599,510.1h185.5v185.4H644.9C629.6,634,614.4,572.2,599,510.1z M714.2,655.4h20l-66.3-100.3
		h-19.2C670.9,589.1,692.7,622.5,714.2,655.4z M724.5,554.9c-1.1,11.9-2.2,23.4-3.3,35.2l16.5,25c1.7-21.2,3.2-40.6,4.7-60.2
		L724.5,554.9z"/>
	
		<linearGradient id="path3844_1_" gradientUnits="userSpaceOnUse" x1="617.5464" y1="1673.4479" x2="617.5464" y2="940.832" gradientTransform="matrix(1 0 0 -1 743 1665.4603)">
		<stop  offset="0" style="stop-color:#64CCC9"/>
		<stop  offset="1" style="stop-color:#00313C"/>
	</linearGradient>
	<path id="path3844" class="st18" d="M1292.2,0h29.7c0.7,1.3,1.5,2.7,2.3,4.1c34.3,65.3,68.5,130.6,102.7,195.9c1.3,2.6,2,5.5,2,8.5
		c0.1,99,0.1,198,0,296.9c0,2.6-0.5,5.2-1.7,7.6c-34.4,65.8-68.8,131.5-103.3,197.2c-0.6,1.2-1.3,2.3-2,3.4h-29.5
		c1.1-2.3,1.9-4.2,2.9-6.1c33.8-64.4,67.5-128.8,101.3-193.2c1.5-2.9,2.3-6.1,2.4-9.4c0.1-98.8,0.1-197.6,0-296.4
		c0-3.1-0.8-6.2-2.2-9c-33.8-64.7-67.7-129.4-101.7-194.1C1294.1,3.9,1293.3,2.3,1292.2,0z"/>
	
		<linearGradient id="path3846_1_" gradientUnits="userSpaceOnUse" x1="-521.6711" y1="1673.4479" x2="-521.6711" y2="940.832" gradientTransform="matrix(1 0 0 -1 743 1665.4603)">
		<stop  offset="0" style="stop-color:#64CCC9"/>
		<stop  offset="1" style="stop-color:#00313C"/>
	</linearGradient>
	<path id="path3846" class="st19" d="M260,1h29.7c-1,2.1-1.8,3.8-2.7,5.5c-33.9,64.6-67.7,129.1-101.5,193.7
		c-1.6,3.1-2.4,6.4-2.5,9.9c-0.1,98.2-0.1,196.3,0,294.5c0,3.4,0.9,6.8,2.4,9.9c33.7,64.6,67.6,129.2,101.5,193.7
		c0.8,1.6,1.6,3.2,2.7,5.3h-29.7c-0.6-1.1-1.5-2.6-2.4-4.2c-34.2-65.1-68.3-130.3-102.5-195.4c-1.3-2.6-2.1-5.5-2.1-8.5
		c-0.1-98.8-0.1-197.6,0-296.5c0.1-3.1,1-6.1,2.5-8.8C189.3,135.5,223.1,71,257,6.4C257.9,4.7,258.9,2.9,260,1z"/>
	<path id="path3848" class="st20" d="M424.9,281.6h31.2l45,63.1h-29.5C456.4,324.2,440.9,303.2,424.9,281.6z"/>
	<path id="path3850" class="st20" d="M530.1,344.9h-28.6l26.8-63.7h30.1L530.1,344.9z"/>
	<path id="path3852" class="st20" d="M494.7,389.8h25.8l6.1,42.5h-25.9C498.8,418.6,496.8,404.5,494.7,389.8z"/>
	<path id="path3854" class="st20" d="M323.4,280.3c0.8,9,1.5,16.8,2.2,24.9c-5.5-0.9-10.7-2-15.9-2.4c-31.5-2.2-50.6,17.3-48,48.8
		c2.4,29.7,22.8,54.3,51.1,59.6c9.1,1.7,18.7,0.3,28.9,0.3c0.5,6.4,1.1,14,1.8,22c-19.2,4.7-37.2,2.8-54.7-4.5
		c-38.9-16.2-61.2-59.5-51.8-100.2c6.7-29,31.2-48.7,62.2-49.6C306.9,278.8,314.9,279.9,323.4,280.3z"/>
	<path id="path3856" class="st20" d="M1040.3,304.9c-1.2-8.1-2.2-15.5-3.3-23.2h89.5c1,7.9,2,15.6,3,23.2H1040.3z"/>
	<path id="path3858" class="st20" d="M1058.1,432.7c-1.1-7.9-2.1-15.2-3.2-23.1h89.6c0.9,7.8,1.8,15.3,2.7,23.1H1058.1z"/>
	<path id="path3860" class="st20" d="M1049.3,368.9c-1.2-8-2.2-15.5-3.4-23.2h84.9c0.9,8,1.8,15.7,2.6,23.2H1049.3z"/>
	<path id="path3862" class="st20" d="M685.4,433.3h-25.8c-2.7-20.8-5.5-42-8.3-63.2c5,0,9.7,0.1,14.4,0c9.6-0.3,19.4,0,28.9-1.3
		c20.7-2.9,29.1-16.7,22.8-36.7c-5.3-16.7-18-25.1-34.5-27c-11.5-1.3-23.2,0.1-34.8,0.3c-2.1,0-4.3,0.4-7,0.6
		c-0.7-7.8-1.4-15.3-2.1-23.3c28.7-4.2,56.7-6.6,81.1,12.5c19.8,15.4,26.8,36.5,22.5,60.8c-3.4,19.3-19.8,33.8-40.6,36.8
		c-7.4,1.1-14.9,1-22.8,1.5c0.9,6.2,1.9,12.5,2.9,18.8S684.2,426,685.4,433.3z"/>
	<path id="path3864" class="st20" d="M943.9,368.7H837.2c-4.1-28.8-8.3-57.5-12.5-87h25.7c3,20.7,6,41.9,9,63.3h55.4l-9-63l25.5-1.3
		C935.6,310.2,939.8,339.3,943.9,368.7z"/>
	<path id="path3866" class="st20" d="M953,432.8h-25.8c-1.1-7.6-2.2-15.2-3.3-23.2h25.5C950.7,417.2,951.8,424.9,953,432.8z"/>
	<path id="path3868" class="st20" d="M846.1,432.2c-1-7.3-2.1-14.8-3.2-22.7h25.6c1.1,7.4,2.2,14.7,3.4,22.7H846.1z"/>
	<path id="path3870" class="st20" d="M1266.7,371c3.2,20.6,6.3,41,9.6,62.1h-25.7c-3.8-28.3-7.7-57.2-11.5-86.1
		c11.8,0.7,23,1.6,34.3,1.8c5.8,0.2,11.6-0.3,17.3-1.5c13.1-2.8,17.6-10.9,13.7-23.7c-4.2-13.5-15-18.7-27.5-19.4
		c-13.4-0.7-26.9,0.7-40.3,1.2c-1.3,0-2.6,0.3-4.4,0.5c-0.7-7.8-1.4-15.3-2.1-23.5c7.4-0.7,14.5-1.5,21.6-2
		c15.7-1.1,31.3-0.8,46.4,4.6c23.4,8.4,37,33,31.2,56.3c-2.8,11.2-10,18.6-20,23.6c-10.2,5-21.2,6.6-32.5,6.3
		C1273.6,371,1270.6,371,1266.7,371z"/>
	<path id="path3872" class="st20" d="M1329.2,433.5l-20.7-30.4l22.8-6.7l26.2,37.1L1329.2,433.5z"/>
	<path id="path3874" class="st20" d="M880.1,644.5h16.6c-1.5,5.8-2.8,10.9-4.2,16.2h-51.3c1.4-5.5,2.8-10.8,4.2-16.3h16.5
		c2.4-9.5,4.7-18.7,7.1-28.1h17.8C884.6,625.5,882.5,634.5,880.1,644.5z"/>
	<path id="path3876" class="st20" d="M918.4,555.1l-4.1,16.3H898c-1.2,4.5-2.3,8.8-3.5,13.3h-17.8c1-4.4,1.9-8.5,3-13.4h-16.8
		c1.5-5.8,2.8-10.9,4.2-16.2H918.4z"/>
	<path id="path3878" class="st20" d="M714.2,655.4c-21.5-32.9-43.4-66.4-65.5-100.3h19.2l66.3,100.3H714.2z"/>
	<path id="path3880" class="st20" d="M724.5,554.9h18c-1.5,19.6-3.1,39.1-4.7,60.2l-16.5-25C722.3,578.3,723.4,566.8,724.5,554.9z"
		/>
</g>
<g id="Layer_2">
	<g>
		<path d="M6.9,886.9h14.8c5.2,0,9.3,1.1,12.3,3.4c3,2.3,4.5,5.7,4.5,10.2c0,4.6-1.5,8-4.5,10.3c-3,2.3-7.1,3.4-12.3,3.4h-9.6v23.7
			H6.9V886.9z M12.1,909.5h8.4c2.3,0,4.3-0.2,5.9-0.7c1.6-0.5,2.9-1.1,3.9-1.9c1-0.8,1.7-1.7,2.1-2.8c0.4-1.1,0.6-2.2,0.6-3.5
			c0-1.2-0.2-2.3-0.6-3.4c-0.4-1.1-1.1-2-2.1-2.8c-1-0.8-2.2-1.5-3.9-1.9c-1.6-0.5-3.6-0.7-5.9-0.7h-8.4V909.5z"/>
		<path d="M67.8,937.9h-5.2v-51h15.7c5.2,0,9.3,1.1,12.3,3.4c3,2.3,4.5,5.7,4.5,10.2c0,3.6-1.1,6.5-3.3,9c-2.2,2.4-5.5,3.8-9.7,4.2
			l14.7,24.2h-6.3l-14-23.7h-8.6V937.9z M67.8,909.5H77c2.3,0,4.3-0.2,5.9-0.7c1.6-0.5,2.9-1.1,3.9-1.9c1-0.8,1.7-1.7,2.1-2.8
			c0.4-1.1,0.6-2.2,0.6-3.5c0-1.2-0.2-2.3-0.6-3.4c-0.4-1.1-1.1-2-2.1-2.8c-1-0.8-2.2-1.5-3.9-1.9c-1.6-0.5-3.6-0.7-5.9-0.7h-9.2
			V909.5z"/>
		<path d="M124.9,933.1h27.3v4.8h-32.5v-51h31.6v4.8h-26.4V909h24.7v4.8h-24.7V933.1z"/>
		<path d="M200.9,895.3c-2.3-3.3-5.5-5-9.9-5c-1.3,0-2.7,0.2-4,0.5c-1.3,0.4-2.5,0.9-3.5,1.7c-1,0.7-1.9,1.7-2.5,2.9
			c-0.6,1.2-0.9,2.6-0.9,4.1c0,2.3,0.6,4.1,1.9,5.4c1.3,1.3,2.9,2.3,4.8,3.1c1.9,0.8,4,1.5,6.3,2.2c2.3,0.6,4.4,1.5,6.3,2.6
			c1.9,1.1,3.5,2.5,4.8,4.3c1.3,1.8,1.9,4.2,1.9,7.3c0,2.3-0.5,4.4-1.5,6.2c-1,1.8-2.3,3.4-3.9,4.6c-1.6,1.2-3.4,2.2-5.4,2.9
			c-2,0.7-4,1-6,1c-3.1,0-6.1-0.6-8.9-1.8c-2.8-1.2-5.2-3.1-7.2-5.8l4.8-3.4c1.1,1.9,2.6,3.4,4.6,4.5c2,1.1,4.3,1.7,7,1.7
			c1.3,0,2.6-0.2,3.9-0.6c1.3-0.4,2.5-1,3.5-1.8s1.9-1.8,2.5-2.9c0.7-1.2,1-2.5,1-4c0-1.8-0.4-3.3-1.1-4.4c-0.7-1.2-1.7-2.2-3-3
			s-2.6-1.5-4.2-2c-1.6-0.5-3.2-1.1-4.8-1.6c-1.7-0.5-3.3-1.1-4.8-1.8c-1.6-0.7-3-1.5-4.2-2.6c-1.2-1-2.2-2.3-3-3.9
			c-0.7-1.6-1.1-3.5-1.1-5.9c0-2.4,0.5-4.6,1.4-6.4c0.9-1.8,2.2-3.3,3.7-4.5c1.6-1.2,3.3-2.1,5.3-2.7c2-0.6,4-0.9,6-0.9
			c2.9,0,5.5,0.5,7.8,1.4c2.4,0.9,4.5,2.5,6.6,4.8L200.9,895.3z"/>
		<path d="M236.4,933.1h27.3v4.8h-32.5v-51h31.6v4.8h-26.4V909h24.7v4.8h-24.7V933.1z"/>
		<path d="M325.2,930.1h0.1v-43.2h5.2v51h-6.5l-30.4-43.6h-0.1v43.6h-5.2v-51h6.5L325.2,930.1z"/>
		<path d="M375.1,937.9h-5.2v-46.2h-17.1v-4.8h39.3v4.8h-17.1V937.9z"/>
		<path d="M419.7,933.1H447v4.8h-32.5v-51h31.6v4.8h-26.4V909h24.7v4.8h-24.7V933.1z"/>
		<path d="M470.9,886.9h16.9c3.2,0,6.3,0.5,9.5,1.6c3.2,1.1,6.1,2.7,8.6,4.8c2.6,2.1,4.6,4.8,6.2,8c1.6,3.2,2.4,6.9,2.4,11.1
			c0,4.3-0.8,8-2.4,11.2s-3.7,5.8-6.2,8c-2.6,2.1-5.4,3.7-8.6,4.8c-3.2,1.1-6.4,1.6-9.5,1.6h-16.9V886.9z M476.1,933.1h10.1
			c3.9,0,7.3-0.6,10.1-1.8c2.9-1.2,5.2-2.7,7.1-4.7c1.9-1.9,3.3-4.2,4.2-6.6c0.9-2.5,1.4-5,1.4-7.7c0-2.6-0.5-5.2-1.4-7.7
			c-0.9-2.5-2.3-4.7-4.2-6.6c-1.9-1.9-4.3-3.5-7.1-4.7c-2.9-1.2-6.2-1.8-10.1-1.8h-10.1V933.1z"/>
		<path d="M573.8,886.9H589c2.1,0,4.2,0.2,6.1,0.6c2,0.4,3.7,1.2,5.3,2.2c1.5,1,2.8,2.3,3.7,4c0.9,1.6,1.4,3.6,1.4,6
			c0,2.8-0.8,5.2-2.3,7.2c-1.6,2-3.8,3.3-6.7,4v0.1c3.6,0.3,6.4,1.5,8.5,3.8c2,2.2,3.1,5.2,3.1,9c0,0.8-0.2,2-0.6,3.6
			c-0.4,1.6-1.3,3.2-2.6,4.7c-1.3,1.6-3.2,2.9-5.6,4.1c-2.4,1.2-5.7,1.7-9.8,1.7h-15.6V886.9z M578.9,909.2h10.4
			c1.2,0,2.5-0.2,3.7-0.5c1.2-0.3,2.3-0.8,3.3-1.5c1-0.7,1.8-1.6,2.4-2.8c0.6-1.1,0.9-2.5,0.9-4.1c0-0.5-0.1-1.3-0.3-2.2
			c-0.2-1-0.7-1.9-1.4-2.9c-0.7-1-1.8-1.8-3.3-2.5c-1.4-0.7-3.4-1-5.8-1h-9.9V909.2z M578.9,933.1h9.9c1.9,0,3.6-0.2,5.3-0.6
			c1.6-0.4,3-1,4.2-1.8c1.2-0.8,2.1-1.8,2.8-3c0.7-1.2,1-2.6,1-4.3c0-3.4-1.1-5.9-3.2-7.5s-5.3-2.4-9.5-2.4h-10.6V933.1z"/>
		<path d="M649.9,937.9h-5.2v-22l-19.1-29h6.5l15.2,24l15.2-24h6.5l-19.1,29V937.9z"/>
	</g>
	<g id="g896_1_" transform="matrix(10.544921,0,0,-10.544921,-12182.9,6882.7342)">
		<g id="g897_1_">
			<g id="g3458_1_" transform="translate(1164.3223,643.6157)">
				<path id="path3456_1_" class="st21" d="M60.3-68.8h2l3.5-4.5v4.5h2v-7.6h-2l-3.5,4.5v-4.5h-2V-68.8z"/>
			</g>
			<g id="g3462_1_" transform="translate(1181.3281,637.1714)">
				<path id="path3460_1_" class="st21" d="M57.5-67.7c0.4,0.4,0.6,1,0.6,1.6c0,0.6-0.2,1.1-0.6,1.5c-0.4,0.4-0.9,0.6-1.6,0.6
					c-0.6,0-1.1-0.2-1.6-0.6c-0.4-0.4-0.6-0.9-0.6-1.6c0-0.6,0.2-1.2,0.6-1.6c0.4-0.4,0.9-0.6,1.6-0.6C56.5-68.3,57-68.1,57.5-67.7
					 M52.9-69c-0.8,0.8-1.2,1.7-1.2,2.9c0,1.2,0.4,2.2,1.2,2.9c0.8,0.7,1.8,1.1,3,1.1s2.2-0.4,3-1.2c0.8-0.8,1.2-1.7,1.2-2.8
					c0-1.2-0.4-2.2-1.2-3c-0.8-0.8-1.8-1.1-3-1.1C54.7-70.2,53.7-69.8,52.9-69"/>
			</g>
			<g id="g3466_1_" transform="translate(1188.8369,639.5215)">
				<path id="path3464_1_" class="st21" d="M56.2-68.1c0.7,0,1,0.3,1,0.9c0,0.6-0.3,0.9-1,0.9h-0.6v-1.9H56.2z M53.6-64.7h3
					c0.8,0,1.4-0.2,1.8-0.6c0.5-0.4,0.8-1,0.8-1.8c0-1-0.4-1.7-1.3-2.1l2-3.1h-2.4L56-69.6h-0.4v-2.7h-2V-64.7z"/>
			</g>
			<g id="g3470_1_" transform="translate(1195.5684,641.2451)">
				<path id="path3468_1_" class="st21" d="M55.1-68.4h-1.6v2h5.2v-2h-1.6V-74h-2V-68.4z"/>
			</g>
			<g id="g3474_1_" transform="translate(1201.3584,643.6157)">
				<path id="path3472_1_" class="st21" d="M54.1-68.8h2v-2.7h2.8v2.7h2v-7.6h-2v2.9h-2.8v-2.9h-2V-68.8z"/>
			</g>
			<g id="g3478_1_" transform="translate(1214.2822,639.5215)">
				<path id="path3476_1_" class="st21" d="M52-68.1c0.7,0,1,0.3,1,0.9c0,0.6-0.3,0.9-1,0.9h-0.6v-1.9H52z M49.4-64.7h3
					c0.8,0,1.4-0.2,1.8-0.6c0.5-0.4,0.8-1,0.8-1.8c0-1-0.4-1.7-1.3-2.1l2-3.1h-2.4l-1.6,2.7h-0.4v-2.7h-2V-64.7z"/>
			</g>
			<g id="g3482_1_" transform="translate(1226.0283,637.1714)">
				<path id="path3480_1_" class="st21" d="M50-67.7c0.4,0.4,0.6,1,0.6,1.6c0,0.6-0.2,1.1-0.6,1.5c-0.4,0.4-0.9,0.6-1.6,0.6
					c-0.6,0-1.1-0.2-1.6-0.6c-0.4-0.4-0.6-0.9-0.6-1.6c0-0.6,0.2-1.2,0.6-1.6c0.4-0.4,0.9-0.6,1.6-0.6C49.1-68.3,49.6-68.1,50-67.7
					 M45.4-69c-0.8,0.8-1.2,1.7-1.2,2.9c0,1.2,0.4,2.2,1.2,2.9c0.8,0.7,1.8,1.1,3,1.1c1.2,0,2.2-0.4,3-1.2c0.8-0.8,1.2-1.7,1.2-2.8
					c0-1.2-0.4-2.2-1.2-3c-0.8-0.8-1.8-1.1-3-1.1C47.2-70.2,46.2-69.8,45.4-69"/>
			</g>
			<g id="g3486_1_" transform="translate(1233.7988,639.4385)">
				<path id="path3484_1_" class="st21" d="M48.7-68.1c0.8,0,1.2,0.3,1.2,1c0,0.7-0.4,1-1.1,1H48v-2H48.7z M46.1-64.6h3.4
					c0.7,0,1.3-0.2,1.7-0.7c0.4-0.5,0.6-1.1,0.6-1.8c0-0.7-0.2-1.3-0.6-1.7c-0.4-0.4-1-0.7-1.7-0.7H48v-2.6h-2V-64.6z"/>
			</g>
		</g>
		<g id="g898_1_">
			<g id="g3442_1_" transform="translate(1175.7617,624.1201)">
				<path id="path3440_1_" class="st21" d="M58.4-65.5c-0.7,0.8-1.1,1.7-1.1,2.9c0,1.1,0.4,2.1,1.1,2.9c0.8,0.8,1.7,1.2,2.8,1.2
					c1.5,0,2.7-0.6,3.4-1.9l-1.6-0.9c0,0.1-0.1,0.2-0.2,0.3c-0.4,0.5-1,0.7-1.6,0.7s-1.1-0.3-1.5-0.8c-0.3-0.4-0.4-1-0.4-1.7
					c0-0.7,0.2-1.2,0.5-1.7c0.4-0.4,0.9-0.7,1.6-0.7c0.4,0,0.8,0.1,1.1,0.4c0.4,0.3,0.6,0.6,0.6,1h-1.7v1.6h3.8v-0.4
					c0-1.3-0.3-2.3-1-3c-0.7-0.8-1.6-1.1-2.9-1.1C60.1-66.7,59.1-66.3,58.4-65.5"/>
			</g>
			<g id="g3502_1_" transform="translate(1188.3262,628.0596)">
				<path id="path3500_1_" class="st21" d="M56.3-66.2c0.7,0,1,0.3,1,0.9c0,0.6-0.3,0.9-1,0.9h-0.6v-1.9H56.3z M53.7-62.8h3
					c0.8,0,1.4-0.2,1.8-0.6c0.5-0.4,0.8-1,0.8-1.8c0-1-0.4-1.7-1.3-2.1l2-3.1h-2.4l-1.6,2.7h-0.4v-2.7h-2V-62.8z"/>
			</g>
			<g id="g3446_1_" transform="translate(1194.8555,623.5264)">
				<path id="path3444_1_" class="st21" d="M55.2-65.4c-0.7,0.5-1,1.2-1,2.1v5.1h2V-63c0-0.9,0.5-1.4,1.4-1.4c0.4,0,0.8,0.1,1,0.3
					c0.2,0.2,0.4,0.5,0.4,0.9v4.8h2v-4.9c0-1-0.3-1.7-1-2.2c-0.6-0.5-1.4-0.7-2.4-0.7C56.6-66.1,55.8-65.9,55.2-65.4"/>
			</g>
			<g id="g3494_1_" transform="translate(1208.7061,627.4556)">
				<path id="path3492_1_" class="st21" d="M52.9-66.1l2.5,3.9h0h2v-7.6h-2v4.4h0l-2-3.1h-1l-2,3.1h0v-4.4h-2v7.6h2L52.9-66.1z"/>
			</g>
			<g id="g3498_1_" transform="translate(1221.4023,627.4556)">
				<path id="path3496_1_" class="st21" d="M50.8-66.1l2.5,3.9h0h2v-7.6h-2v4.4h0l-2-3.1h-1l-2,3.1h0l0-4.4h-2v7.6h2L50.8-66.1z"/>
			</g>
			<g id="g3450_1_" transform="translate(1233.6416,626.5762)">
				<path id="path3448_1_" class="st21" d="M48.7-65.9l-0.8,2.3l-0.8-2.3H48.7z M46.8-61.3h2.3l2.8-7.6h-2.1l-0.5,1.4h-2.6l-0.5-1.4
					H44L46.8-61.3z"/>
			</g>
			<g id="g3454_1_" transform="translate(1238.7461,632.1538)">
				<path id="path3452_1_" class="st21" d="M47.9-66.9h2l3.5-4.5v4.5h2v-7.6h-2l-3.5,4.5v-4.5h-2V-66.9z"/>
			</g>
		</g>
		<g id="g899_1_" transform="translate(1238.7461,643.6157)">
			<path id="path3488_1_" class="st21" d="M47.9-68.8v-2h15.9v-15.1h2v17.1H47.9z"/>
		</g>
	</g>
</g>
</svg>
