<?xml version="1.0" encoding="UTF-8" standalone="no"?>
<!-- Created with Inkscape (http://www.inkscape.org/) -->

<svg
   width="433.88837mm"
   height="348.69574mm"
   viewBox="0 0 433.88837 348.69574"
   version="1.1"
   id="svg5"
   xml:space="preserve"
   inkscape:version="1.2.2 (732a01da63, 2022-12-09)"
   sodipodi:docname="acm bw.svg"
   inkscape:export-filename="acm-logo-2.svg"
   inkscape:export-xdpi="96"
   inkscape:export-ydpi="96"
   xmlns:inkscape="http://www.inkscape.org/namespaces/inkscape"
   xmlns:sodipodi="http://sodipodi.sourceforge.net/DTD/sodipodi-0.dtd"
   xmlns="http://www.w3.org/2000/svg"
   xmlns:svg="http://www.w3.org/2000/svg"><sodipodi:namedview
     id="namedview7"
     pagecolor="#ffffff"
     bordercolor="currentColor"
     borderopacity="0.25"
     inkscape:showpageshadow="2"
     inkscape:pageopacity="0"
     inkscape:pagecheckerboard="0"
     inkscape:deskcolor="#d1d1d1"
     inkscape:document-units="mm"
     showgrid="false"
     inkscape:zoom="0.1767767"
     inkscape:cx="1111.5719"
     inkscape:cy="732.56262"
     inkscape:window-width="1128"
     inkscape:window-height="682"
     inkscape:window-x="-6"
     inkscape:window-y="-6"
     inkscape:window-maximized="1"
     inkscape:current-layer="g469" /><defs
     id="defs2" /><g
     inkscape:label="Layer 1"
     inkscape:groupmode="layer"
     id="layer1"
     transform="translate(209.39335,48.500414)"><g
       id="g469"><path
         id="path5905"
         style="color:currentColor;fill:currentColor;stroke:none;stroke-width:5;stroke-opacity:1;-inkscape-stroke:none;paint-order:markers fill stroke"
         d="m 81.516862,178.36628 -72.9511027,41.8791 0.2790527,23.3748 35.646919,-20.59357 57.171709,-33.02951 z m -149.080306,0.63304 -19.581751,11.84165 12.27832,7.11326 33.292025,19.2872 45.4179001,26.3126 -0.2780192,-23.29728 z m 174.223994,13.88546 -64.990352,37.54551 -32.7571731,18.92494 0.03514,2.93471 -0.015503,-0.009 0.4123779,47.91439 L 150.63978,218.30028 Z M -92.045154,193.78136 -135.5381,219.34104 4.3448283,300.15936 3.9081624,249.37022 -44.082707,221.56778 Z" /><path
         id="path5905-0"
         style="color:currentColor;fill:currentColor;stroke:none;stroke-width:5;stroke-opacity:1;-inkscape-stroke:none;paint-order:markers fill stroke"
         d="M 81.516864,73.328636 8.5657611,31.449536 8.8448141,8.0747364 44.491734,28.668306 101.66344,61.697816 Z m -149.080307,-0.63304 -19.581751,-11.84165 12.27832,-7.11326 33.292025,-19.2872 L 3.8430519,8.1408864 3.5650329,31.438166 Z M 106.66055,58.810136 41.670194,21.264626 8.9130261,2.3396864 l 0.03514,-2.93471002 -0.0155,0.009 L 9.3450441,-48.500414 150.63978,33.394846 Z M -92.045153,57.913556 -135.5381,32.353876 4.3448299,-48.464444 3.9081639,2.3246964 -44.082706,30.127136 Z" /><path
         d="m -127.48107,180.04567 h 8.94445 L -160.27736,71.927729 h -7.53217 l -41.58382,108.117941 h 8.6306 l 14.12281,-36.7193 h 45.03607 z m -56.49123,-43.93762 19.77193,-51.626705 19.77193,51.626705 z"
         style="font-weight:200;font-size:62.6979px;font-family:'Martel Sans';-inkscape-font-specification:'Martel Sans Ultra-Light';text-align:center;text-anchor:middle;fill:currentColor;fill-opacity:1;stroke-width:37.0692;paint-order:markers fill stroke"
         id="path655-0" /><path
         d="m 7.4950355,182.55639 c 18.9873285,0 32.3255325,-9.57213 40.9561385,-20.24269 l -5.335284,-5.17836 c -8.159844,10.1998 -19.301169,18.20273 -35.6208545,18.20273 -27.7748535,0 -42.5253405,-21.02729 -42.5253405,-48.64523 0,-14.64312 4.474276,-27.505662 13.201188,-36.248092 7.452082,-7.465332 18.0050969,-11.926366 31.5210333,-11.926366 11.4551647,0 23.6949287,4.864523 30.5994127,13.338208 l 5.962963,-5.335284 C 37.623689,76.635341 24.128561,71.143127 9.6919163,71.143127 c -36.2485373,0 -53.5097443,26.205664 -53.5097443,55.392793 0,29.34406 16.476607,56.02047 51.3128635,56.02047 z"
         style="font-weight:200;font-size:62.6979px;font-family:'Martel Sans';-inkscape-font-specification:'Martel Sans Ultra-Light';text-align:center;text-anchor:middle;fill:currentColor;fill-opacity:1;stroke-width:37.0692;paint-order:markers fill stroke"
         id="path657-4"
         sodipodi:nodetypes="sccssssccsss" /><path
         d="M 217.2767,73.340032 176.00672,131.71429 134.73666,73.340032 H 127.5183 V 180.04567 h 8.78757 V 89.502787 L 173.496,142.07101 h 5.02144 L 215.7075,89.502787 v 90.542883 h 8.78752 V 73.340032 Z"
         style="font-weight:200;font-size:62.6979px;font-family:'Martel Sans';-inkscape-font-specification:'Martel Sans Ultra-Light';text-align:center;text-anchor:middle;fill:currentColor;fill-opacity:1;stroke-width:37.0692;paint-order:markers fill stroke"
         id="path659-7" /><g
         id="text638"
         style="font-weight:bold;font-size:8.46667px;font-family:'Allerta Stencil';-inkscape-font-specification:'Allerta Stencil Bold';text-align:center;text-anchor:middle;stroke:#819dc7;stroke-width:0.705556;stroke-opacity:0.145098;paint-order:markers fill stroke" /></g></g></svg>
