<?xml version="1.0" encoding="UTF-8" standalone="no"?>
<svg
   width="1178.4102"
   zoomAndPan="magnify"
   viewBox="0 0 883.80762 165.74998"
   height="220.99998"
   preserveAspectRatio="xMidYMid"
   version="1.0"
   id="svg54"
   sodipodi:docname="&amp;hacks.svg"
   inkscape:version="1.2.2 (732a01da63, 2022-12-09)"
   xmlns:inkscape="http://www.inkscape.org/namespaces/inkscape"
   xmlns:sodipodi="http://sodipodi.sourceforge.net/DTD/sodipodi-0.dtd"
   xmlns="http://www.w3.org/2000/svg"
   xmlns:svg="http://www.w3.org/2000/svg">
  <sodipodi:namedview
     id="namedview56"
     pagecolor="#ffffff"
     bordercolor="#000000"
     borderopacity="0.25"
     inkscape:showpageshadow="2"
     inkscape:pageopacity="0.0"
     inkscape:pagecheckerboard="0"
     inkscape:deskcolor="#d1d1d1"
     showgrid="false"
     inkscape:zoom="0.39333333"
     inkscape:cx="544.0678"
     inkscape:cy="222.45763"
     inkscape:window-width="1128"
     inkscape:window-height="682"
     inkscape:window-x="-6"
     inkscape:window-y="-6"
     inkscape:window-maximized="1"
     inkscape:current-layer="svg54" />
  <defs
     id="defs4">
    <g
       id="g2" />
  </defs>
  <path
     id="path6"
     style="fill:currentColor;fill-opacity:1"
     d="m 186.75146,0 v 163.54687 h 49.06201 V 97.46923 c 0,-5.89452 1.54688,-10.5708 4.64062,-14.03174 3.09375,-3.46874 7.36817,-5.20312 12.82911,-5.20312 5.30077,0 9.53515,1.73438 12.70312,5.20312 3.16406,3.46094 4.74902,8.13722 4.74902,14.03174 v 66.07764 h 48.84375 V 91.28173 c 0,-16.35154 -4.01563,-29.31592 -12.04687,-38.89013 -8.03123,-9.58202 -19.19435,-14.37598 -33.4834,-14.37598 -8.84374,0 -16.46876,1.84375 -22.875,5.53125 -6.40624,3.67969 -11.52831,8.46534 -15.36035,14.35986 V 0 Z m 438.92138,0 v 163.54687 h 49.06201 v -49.71826 l 30.71924,49.71826 h 58.56298 l -47.73486,-61.875 46.64062,-62.76562 H 705.89207 L 674.73485,85.53222 V 0 Z M 71.390623,4.2041 c -11.199207,0 -20.851081,1.95313 -28.952636,5.85937 -8.105461,3.90625 -14.257328,9.17871 -18.452636,15.81153 -4.199215,6.62499 -6.297363,13.91895 -6.297363,21.87597 0,9.28124 3.382331,18.12062 10.155761,26.51514 C 18.562508,79.42235 11.598139,85.71924 6.9536134,93.15673 2.3168984,100.59422 0,108.8086 0,117.79687 c 0,9.42968 2.5043994,17.79346 7.5161134,25.09424 5.0078066,7.29296 12.1909256,12.9292 21.5463856,16.90576 9.351554,3.96874 20.367199,5.95312 33.046874,5.95312 18.707013,0 34.98537,-4.12501 48.829097,-12.375 l 10.84277,10.17188 h 53.92237 l -36.90674,-35.79639 c 8.24999,-11.49999 15.17188,-24.61378 20.76562,-39.34424 l 2.21924,-5.74951 H 114.2666 l -0.67237,1.99951 c -1.61719,5 -3.45264,9.49269 -5.51513,13.46924 L 72.484862,63.65624 c -6.480463,-6.18749 -9.719239,-11.64062 -9.719239,-16.35937 0,-2.5 0.843752,-4.44482 2.53125,-5.84326 1.695311,-1.40625 3.726565,-2.10938 6.09375,-2.10938 2.207029,0 4.117678,0.70313 5.734863,2.10938 1.624999,1.39844 2.4375,3.49658 2.4375,6.29736 H 124.2041 c 0,-7.66405 -1.99269,-14.81299 -5.96924,-21.43799 C 114.25439,19.68017 108.28563,14.33641 100.32861,10.28173 92.379403,6.23095 82.734362,4.2041 71.390623,4.2041 Z M 385.6538,37.35937 c -9.71874,0 -18.48438,2.54395 -26.29688,7.62598 -7.80467,5.08593 -13.9541,12.45264 -18.4541,22.10888 -4.49218,9.64843 -6.73388,21.02346 -6.73388,34.125 0,13.11718 2.2417,24.49952 6.73388,34.15576 4.5,9.64843 10.64943,17.01222 18.4541,22.09424 7.8125,5.08594 16.57814,7.62451 26.29688,7.62451 8.10155,0 15.10156,-1.65625 21,-4.96875 5.89452,-3.31249 10.39014,-7.84375 13.48388,-13.59375 v 17.01563 h 48.84375 V 38.90625 h -48.84375 v 17.01562 c -3.09374,-5.74999 -7.58936,-10.28125 -13.48388,-13.59375 -5.89844,-3.3125 -12.89845,-4.96875 -21,-4.96875 z m 162.44091,0 c -12.37498,0 -23.39063,2.57813 -33.04687,7.73438 -9.64843,5.15624 -17.15577,12.5625 -22.53076,22.21874 -5.375,9.64843 -8.0625,20.94973 -8.0625,33.90674 0,12.96874 2.6875,24.28126 8.0625,33.9375 5.37499,9.64843 12.88233,17.04639 22.53076,22.20264 9.65624,5.15624 20.67189,7.73437 33.04687,7.73437 16.20702,0 29.87453,-4.56543 40.99951,-13.70215 11.12499,-9.1328 18.16066,-21.8047 21.10987,-38.01562 h -51.9375 c -1.91797,6.49218 -5.67237,9.73389 -11.26611,9.73389 -3.98047,0 -7.11671,-1.84376 -9.40577,-5.53125 -2.28124,-3.6875 -3.42187,-9.14063 -3.42187,-16.35938 0,-7.21874 1.14063,-12.66357 3.42187,-16.34326 2.28906,-3.6875 5.4253,-5.53125 9.40577,-5.53125 5.59374,0 9.34814,3.24122 11.26611,9.71777 h 51.9375 C 607.25488,72.8672 600.21921,60.19969 589.09422,51.06298 577.96924,41.93018 564.30173,37.35937 548.09471,37.35937 Z m 279.13476,0 c -11.34373,0 -20.99561,1.80958 -28.95263,5.42285 -7.94921,3.60547 -13.94923,8.53858 -18,14.79639 -4.05469,6.26171 -6.07764,13.22608 -6.07764,20.89013 0,8.83594 2.17188,15.75782 6.51563,20.76563 4.34374,5.01171 9.42188,8.54736 15.23437,10.60986 5.82032,2.0625 13.22658,3.97999 22.21875,5.74951 7.36328,1.46875 12.59327,2.79395 15.68701,3.96973 3.10157,1.17969 4.65674,3.167 4.65674,5.96777 0,1.625 -0.74267,2.99268 -2.21924,4.09424 -1.46875,1.10547 -3.46142,1.65674 -5.96924,1.65674 -3.98045,0 -7.26171,-0.87939 -9.84375,-2.64111 -2.5742,-1.76953 -4.15234,-4.49952 -4.73437,-8.18701 h -47.07715 c 0.73829,8.54296 3.75685,16.20215 9.06152,22.98339 5.30079,6.78125 12.48537,12.09083 21.54786,15.92285 9.06249,3.82422 19.48438,5.7334 31.26562,5.7334 10.75781,0 20.15528,-1.69043 28.18652,-5.07715 8.03126,-3.39452 14.18067,-8.03516 18.4541,-13.92187 4.26953,-5.89452 6.40577,-12.52393 6.40577,-19.89111 0,-9.43749 -2.28956,-16.84376 -6.85987,-22.21875 -4.56249,-5.375 -9.93749,-9.16358 -16.125,-11.37451 -6.18749,-2.20703 -13.77686,-4.1958 -22.76513,-5.96924 -6.78125,-1.32031 -11.71876,-2.60987 -14.8125,-3.85987 -3.09375,-1.2578 -4.64063,-3.13965 -4.64063,-5.63964 0,-1.91406 0.66065,-3.35156 1.98487,-4.3125 1.33202,-0.95703 3.24951,-1.43848 5.74951,-1.43848 3.97655,0 7.14404,0.92188 9.49951,2.76562 2.36328,1.84375 3.91455,4.46144 4.65674,7.84424 h 43.53076 c -1.91797,-13.25779 -7.62403,-24.01612 -17.12403,-32.26611 -9.49999,-8.24999 -22.65332,-12.375 -39.4541,-12.375 z m -425.2163,42.87598 c 5.30079,0 9.64455,1.84375 13.03125,5.53125 3.39454,3.67968 5.09326,8.82764 5.09326,15.45263 0,6.63672 -1.69872,11.79737 -5.09326,15.48487 -3.3867,3.67968 -7.73046,5.51513 -13.03125,5.51513 -5.30467,0 -9.65283,-1.83545 -13.04736,-5.51513 -3.38672,-3.6875 -5.07861,-8.84815 -5.07861,-15.48487 0,-6.62499 1.69189,-11.77295 5.07861,-15.45263 3.39453,-3.6875 7.74269,-5.53125 13.04736,-5.53125 z m -347.638171,20.10937 26.078612,24.31201 c -4.574214,1.61719 -9.511724,2.42139 -14.812499,2.42139 -5.898432,0 -10.499515,-1.31983 -13.812012,-3.96826 -3.312496,-2.65625 -4.96875,-5.89795 -4.96875,-9.73389 0,-2.35156 0.625002,-4.67237 1.875,-6.95361 1.249999,-2.28125 3.127932,-4.3042 5.639649,-6.07764 z" />
</svg>
