<?xml version="1.0" encoding="UTF-8" standalone="no"?>
<!-- Created with Inkscape (http://www.inkscape.org/) -->

<svg
   version="1.1"
   id="svg6859"
   width="600"
   height="400"
   viewBox="0 0 599.99999 399.99999"
   sodipodi:docname="logo_c1.svg"
   inkscape:version="1.2.2 (732a01da63, 2022-12-09)"
   xmlns:inkscape="http://www.inkscape.org/namespaces/inkscape"
   xmlns:sodipodi="http://sodipodi.sourceforge.net/DTD/sodipodi-0.dtd"
   xmlns="http://www.w3.org/2000/svg"
   xmlns:svg="http://www.w3.org/2000/svg">
  <defs
     id="defs6863" />
  <sodipodi:namedview
     id="namedview6861"
     pagecolor="#434343"
     bordercolor="#000000"
     borderopacity="0.25"
     inkscape:showpageshadow="2"
     inkscape:pageopacity="0"
     inkscape:pagecheckerboard="0"
     inkscape:deskcolor="#d1d1d1"
     showgrid="false"
     inkscape:zoom="0.57831799"
     inkscape:cx="123.6344"
     inkscape:cy="230.84186"
     inkscape:window-width="1128"
     inkscape:window-height="730"
     inkscape:window-x="-6"
     inkscape:window-y="-6"
     inkscape:window-maximized="1"
     inkscape:current-layer="g6869">
    <inkscape:page
       x="0"
       y="0"
       id="page6865"
       width="600"
       height="400" />
  </sodipodi:namedview>
  <g
     id="g6867"
     inkscape:groupmode="layer"
     inkscape:label="Page 1"
     transform="matrix(1.3333333,0,0,-1.3333333,0,204.04)">
    <g
       id="g6869"
       transform="scale(0.1)">
      <g
         id="g11159"
         transform="matrix(1.0176875,0,0,1.0176875,-6.6012079e-4,-761.89594)">
        <path
           d="m 4084.99,1388.04 c -286.16,315.64 -2127.45,31.72 -2910.48,-139.34 l -18.24,-3.94 c -3.76,-0.67 -6.26,-4.28 -5.63,-8.01 0.66,-3.79 4.23,-6.29 8.03,-5.64 l 18.1,3.53 c 648.73,115.51 1997.81,275.66 2288.11,-12.21 88.58,-87.79 67.44,-200.95 -35.22,-334.41 55.37,-35.586 94.79,-91.524 112.55,-161.524 400.9,266.699 670.28,520.914 542.78,661.544 z M 2893.45,423.469 c -0.18,-0.149 -0.37,-0.289 -0.57,-0.41 C 2711.35,294.551 2496.3,159.551 2264.97,17.8906 l -9.14,-5.3398 c -3.08,-2.1992 -3.88,-6.46096 -1.65,-9.62111 2.16,-3.128909 6.46,-3.871096 9.58,-1.66016 l 7.71,4.0625 C 2467.68,107.73 2693.03,229.289 2919.79,354 c 1.24,0.66 2.42,1.352 3.64,2.012 -12.47,20.429 -22.7,42.847 -29.98,67.457"
           style="fill:#ffffff;fill-opacity:1;fill-rule:nonzero;stroke:none"
           id="path6871" />
        <path
           d="m 2915.42,512.301 c -6.58,189.508 141.91,383.316 357.59,383.316 144.27,0 238.68,-96.133 243.94,-243.34 6.91,-199.879 -131.79,-383.379 -357.58,-383.379 -144.29,0 -238.7,95.942 -243.95,243.403 z m 93.83,-5.961 c 3.71,-111.07 73.93,-201.988 165.6,-201.988 177.6,0 253.2,218.046 247.93,363.765 -3.75,111.328 -75.85,202.071 -167.36,202.071 -152.77,0 -251.38,-217.149 -246.17,-363.848"
           style="fill:#ffffff;fill-opacity:1;fill-rule:nonzero;stroke:none"
           id="path6873" />
        <path
           d="m 1059.78,678.957 c -0.78,-17.422 -3.76,-32.676 -8.43,-59.297 L 1019.6,441.621 c -2.72,-15.781 3.14,-28.23 17.83,-36.699 l -0.97,-6.953 -181.636,0.25 -1.64,45.269 c -26.446,-15.949 -58.364,-29.406 -87.25,-37.297 -28.77,-7.39 -52.071,-10.671 -87.039,-10.671 -58.668,0 -92.29,6.101 -115.45,26.429 -23.582,21 -34.984,34.879 -33.859,63.75 0.902,16.602 9.492,37.91 21.957,52.832 12.578,15.157 29.691,25.039 48.34,33.77 18.738,8.941 40.781,15.387 72.883,20.445 32.132,5.234 76.859,10.43 136.785,15.43 31.48,2.617 50.66,9.922 59.687,13.496 12.516,4.863 17.41,10.234 19.262,20.43 3.355,18.32 -2.5,28.73 -26.781,33.574 -65.457,12.871 -188.074,-8.321 -251.305,-24.141 l 34.367,92.676 c 83.36,12.168 161.52,19.961 243.742,19.961 130.717,0 172.567,-37.305 171.257,-85.215 z M 872.285,562.359 c -7.719,-2.89 -17.66,-5.781 -30,-8.359 -12.301,-2.773 -34.805,-6.777 -67.472,-11.934 -22.5,-3.535 -38.094,-8.242 -47,-14.605 -8.512,-6.332 -13.516,-13.832 -14.958,-22.992 -1.761,-9.789 1.442,-17.598 9.918,-23.707 8.61,-6.024 23.055,-9.121 43.465,-9.121 15.282,0 30.282,2.48 44.797,7.109 14.688,4.801 27.039,11.34 36.602,19.43 6.988,6.039 11.992,13.73 15.726,22.949 2.164,6.051 5.266,19.726 8.922,41.23"
           style="fill:#ffffff;fill-opacity:1;fill-rule:nonzero;stroke:none"
           id="path6875" />
        <path
           d="m 1658.93,836.086 c 5.2,29.238 51.36,52.988 102.92,52.988 51.65,0 89.35,-23.75 84.36,-52.988 -5.44,-29.258 -51.51,-52.949 -103.21,-52.949 -51.82,0 -89.31,23.691 -84.07,52.949 z m -72.68,-438.117 63.04,355.734 h 173.9 l -63.02,-355.734 h -173.92"
           style="fill:#ffffff;fill-opacity:1;fill-rule:nonzero;stroke:none"
           id="path6877" />
        <path
           d="m 2628.25,678.273 c -0.72,-17.46 -3.81,-32.851 -8.59,-59.238 l -31.5,-178.254 c -2.74,-15.711 3.09,-28.07 17.71,-36.82 l -1.08,-6.172 -181.57,-0.348 -1.39,45.368 c -26.55,-16.079 -58.65,-29.45 -87.32,-37.25 -28.91,-7.59 -52.2,-10.7 -87.36,-10.7 -58.61,0 -91.97,5.879 -115.22,26.352 -23.68,21.051 -35.11,34.859 -33.83,63.648 0.64,16.723 9.36,38.161 21.88,52.852 12.58,15.332 29.72,25.039 48.47,33.828 18.72,8.809 40.88,15.328 72.58,20.641 32.29,5 77.17,10.429 137.04,15.429 31.19,2.618 50.39,9.707 59.34,13.145 12.68,4.902 17.68,10.391 19.54,20.625 3.23,17.949 -2.51,28.652 -26.65,33.535 -65.76,12.988 -188.07,-8.34 -251.28,-24.043 l 34.18,92.637 c 83.69,12.226 161.45,20.039 243.79,20.039 130.65,0 172.33,-37.461 171.26,-85.274 z M 2440.81,561.5 c -7.79,-2.656 -17.9,-5.527 -30.18,-8.359 -12.18,-2.911 -34.7,-6.504 -67.56,-11.875 -22.36,-3.555 -38.24,-8.262 -46.82,-14.645 -8.34,-6.121 -13.31,-13.711 -15.08,-22.871 -1.82,-9.852 1.77,-17.781 9.93,-23.68 8.78,-6.031 23.33,-8.98 43.76,-8.98 15.15,0 29.99,2.269 44.6,6.859 14.83,4.961 27.15,11.281 36.77,19.449 6.68,6.032 11.84,13.891 15.47,23.102 2.24,5.961 5.26,19.672 9.11,41"
           style="fill:#ffffff;fill-opacity:1;fill-rule:nonzero;stroke:none"
           id="path6879" />
        <path
           d="m 505.816,525.84 c -56.605,-11.231 -88.453,-15.551 -144.425,-15.551 -83.09,0 -149.078,41.25 -145.508,116.852 2.535,50.351 62.215,156.64 213.808,156.64 47.696,0 85,-8.437 135.176,-37.031 l 22.012,123.555 c -68.203,25.8 -113.383,29.668 -171.938,29.023 C 216.313,897.199 25.3906,806.828 1.76953,623.176 -22.3086,436.539 205.652,389.609 306.855,390.039 c 58.45,0.172 119.18,2.551 175.895,8.43 l 23.066,127.371"
           style="fill:#ffffff;fill-opacity:1;fill-rule:nonzero;stroke:none"
           id="path6881" />
        <path
           d="m 1919.03,755.773 12.5,72.422 181.9,39.59 -19.37,-112.012 h 89.08 l -16.92,-71.66 -86.41,0.196 -52.5,-286.09 c 0,0 -175.12,1.152 -175.74,0 l 52.28,285.406 h -66.12 l 13.42,72.148 h 67.88"
           style="fill:#ffffff;fill-opacity:1;fill-rule:nonzero;stroke:none"
           id="path6883" />
        <path
           d="m 2804.79,398.219 -177.12,-0.25 89.09,496.34 172.55,-4.864 -84.52,-491.226"
           style="fill:#ffffff;fill-opacity:1;fill-rule:nonzero;stroke:none"
           id="path6885" />
        <path
           d="m 1039.59,275.129 84.63,476.816 h 152.73 l -11.83,-60.859 c 13.26,18.164 34.43,33.086 63.64,45.254 29.47,12.051 62.64,20.996 98.65,20.996 39.85,0 64.44,-2.148 94.27,-17.598 29.67,-15.566 50.33,-38.105 61.62,-67.519 11.44,-28.926 13.82,-61.465 7.62,-96.852 -10.32,-58.746 -39,-105.117 -85.95,-139.156 -46.63,-34.031 -88.54,-42.973 -148.47,-43.211 -21.22,0 -38.95,2.211 -53.69,5.801 -14.41,3.769 -25.86,8.34 -34.63,13.91 -8.35,5.629 -17.22,13.398 -28.64,25.859 L 1211.1,275.129 Z m 316.65,395.195 c -22.79,0 -43.41,-6.875 -61.76,-20.703 -18.15,-13.867 -29.71,-34.023 -34.4,-60.918 -5.47,-31.051 -2.26,-53.316 10.03,-67.121 12.44,-13.652 30.3,-20.531 53.77,-20.531 15.8,0 32.21,2.828 44.26,8.789 14.88,7.871 25.15,16.191 34.04,29.258 9.6,13.808 15.89,29.14 19.12,46.949 4.98,28.086 0.77,49.141 -12.26,63.008 -12.67,14.258 -30.13,21.269 -52.8,21.269"
           style="fill:#ffffff;fill-opacity:1;fill-rule:nonzero;stroke:none"
           id="path6887" />
        <path
           d="m 4212.06,407.672 13.78,-9.332 c -34.79,-70.84 -105.7,-127.871 -188.92,-127.871 -68.05,0 -123.84,45.293 -126.8,130.39 -5.5,152.477 137.34,294.133 254.35,294.133 50.18,0 96.7,-21.933 98.78,-75.957 4.32,-121.246 -165.96,-158.336 -278.13,-160.855 -3.66,-12.66 -5.01,-25.41 -4.36,-44.789 1.85,-50.27 32.3,-92.571 95.17,-92.571 54.33,0 108.67,43.75 136.13,86.852 z m -15.27,218.98 c -0.99,28.692 -15.39,47.95 -45,47.95 -71.33,0 -147.18,-139.704 -160.28,-196.051 117.03,0 208.12,69.707 205.28,148.101"
           style="fill:#ffffff;fill-opacity:1;fill-rule:nonzero;stroke:none"
           id="path6889" />
        <path
           d="m 3514.38,630.656 c 12.08,1.602 31.52,3.731 39.92,3.731 12.82,0 24.83,-2.422 25.43,-15.078 0.23,-7.52 -13.33,-61.52 -16.2,-74.059 l -27.12,-119.609 c -10.94,-48.942 -22.84,-100.192 -33.36,-140.68 h 69.68 l 39.16,189.469 c 119.54,124.488 165.52,165.074 193.75,165.074 12.67,0 21.44,-6.66 22.04,-21.856 0.7,-21.914 -12.87,-71.656 -17.6,-85.914 l -39.97,-138.203 c -9.08,-31.051 -15.8,-59.043 -15.18,-79.062 1.22,-30.348 19.56,-43.828 46.79,-43.828 50.94,0 87.88,53.07 120.21,105.218 l -9.46,17.11 c -13.09,-20.981 -43.27,-66.739 -67.1,-66.739 -7.55,0 -14.64,5.02 -14.89,17.649 -0.72,16.172 6.11,40.301 10.79,56.332 l 44.4,161.894 c 11.9,44.586 17.61,73.278 17.32,88.551 -1.11,30.235 -18.77,44.375 -45.8,44.375 -45.81,0 -106.75,-33.496 -235.63,-181.851 h -1.84 l 16.23,72.398 c 8.81,39.59 17.42,80.899 25.79,109.453 -44.56,-16.074 -108.48,-34.043 -147.97,-41.679 l 0.61,-22.696"
           style="fill:#ffffff;fill-opacity:1;fill-rule:nonzero;stroke:none"
           id="path6891" />
        <path
           d="m 4336.48,763.625 c 9.31,0 17.38,0.684 17.38,11.758 0,8.828 -7.87,10.488 -15.55,10.488 h -14.59 v -22.246 z m -12.76,-40.059 h -11.01 v 71.387 h 27.27 c 16.9,0 25.28,-6.211 25.28,-20.215 0,-12.89 -7.95,-18.32 -18.57,-19.765 l 20.36,-31.407 h -12.21 l -18.75,30.977 h -12.37 z m 13.1,-15.996 c 27.92,0 50.06,21.856 50.06,51.875 0,29.297 -22.14,51.407 -50.06,51.407 -28.49,0 -50.45,-22.11 -50.45,-51.407 0,-30.019 21.96,-51.875 50.45,-51.875 z m -62.85,51.875 c 0,35.508 28.69,61.641 62.85,61.641 33.73,0 62.45,-26.133 62.45,-61.641 0,-35.879 -28.72,-62.129 -62.45,-62.129 -34.16,0 -62.85,26.25 -62.85,62.129"
           style="fill:#ffffff;fill-opacity:1;fill-rule:nonzero;stroke:none"
           id="path6893" />
      </g>
    </g>
  </g>
</svg>
