<?xml version="1.0" encoding="UTF-8" standalone="no"?>
<!-- Created with Inkscape (http://www.inkscape.org/) -->

<svg
   width="1200mm"
   height="800mm"
   viewBox="0 0 1200 800.00001"
   version="1.1"
   id="svg5"
   xml:space="preserve"
   inkscape:export-filename="logo_acm.svg"
   inkscape:export-xdpi="96"
   inkscape:export-ydpi="96"
   inkscape:version="1.2.2 (732a01da63, 2022-12-09)"
   sodipodi:docname="logo_ey.svg"
   xmlns:inkscape="http://www.inkscape.org/namespaces/inkscape"
   xmlns:sodipodi="http://sodipodi.sourceforge.net/DTD/sodipodi-0.dtd"
   xmlns="http://www.w3.org/2000/svg"
   xmlns:svg="http://www.w3.org/2000/svg"><sodipodi:namedview
     id="namedview7"
     pagecolor="#115740"
     bordercolor="#000000"
     borderopacity="0.25"
     inkscape:showpageshadow="2"
     inkscape:pageopacity="1"
     inkscape:pagecheckerboard="false"
     inkscape:deskcolor="#d1d1d1"
     inkscape:document-units="mm"
     showgrid="false"
     inkscape:zoom="0.10512065"
     inkscape:cx="1707.5617"
     inkscape:cy="1127.2761"
     inkscape:window-width="1128"
     inkscape:window-height="730"
     inkscape:window-x="-6"
     inkscape:window-y="-6"
     inkscape:window-maximized="1"
     inkscape:current-layer="g3423" /><defs
     id="defs2" /><g
     inkscape:label="Layer 1"
     inkscape:groupmode="layer"
     id="layer1"
     transform="translate(132.34507,-233.36749)"><g
       id="g413"
       style="fill:#ffffff;fill-opacity:1;stroke:none"><g
         id="g3170"><g
           id="g3423"
           transform="matrix(2.6479517,0,0,2.6479517,-505.97105,-97.626471)"><g
             id="g11365"
             transform="matrix(1.2054782,0,0,1.2054782,66.380958,-25.188846)"><g
               fill="#575756"
               id="g3402"
               style="fill:#ffffff;fill-opacity:1"><path
                 d="m 157.3,338.8 c 0,-2.7 -1.8,-3.8 -2.8,-4.3 1.3,-0.7 2.2,-2.2 2.2,-3.8 0,-3.2 -2.2,-5 -5.9,-5 h -8.2 v 19.1 h 8.1 c 4.1,0.1 6.6,-2.2 6.6,-6 z m -6.7,2.9 h -4.5 v -5.4 h 4.5 c 1.9,0 2.9,0.9 2.9,2.7 0,1.7 -1,2.7 -2.9,2.7 z m 0,-8.6 h -4.5 V 329 h 4.3 c 1.7,0 2.5,0.7 2.5,2.1 0,0.9 -0.4,2 -2.3,2 z m 14.4,12.1 c 1.4,0 2.5,-0.5 3.3,-1.4 v 1.101 h 3.5 v -14 h -3.5 v 7.699 c 0,2.301 -0.9,3.4 -2.6,3.4 -1.8,0 -2.6,-1.1 -2.6,-3.4 v -7.7 h -3.5 v 7.899 c 0.1,2.401 0.8,6.401 5.4,6.401 z m 47.4,-8 c 0,-2.2 0.9,-3.4 2.7,-3.4 1.7,0 2.5,1.101 2.5,3.4 v 7.7 h 3.5 V 337 c 0,-4.2 -1.8,-6.4 -5.1,-6.4 -1.4,0 -2.7,0.5 -3.5,1.5 v -1.2 H 209 v 14 h 3.5 v -7.7 z m -37.5,-6.3 h 3.5 v 14 h -3.5 z m 6.6,14 h 3.4 v -19.8 l -3.4,1.7 z m 14.4,-13 c -0.8,-0.9 -1.9,-1.301 -3.1,-1.301 -3.4,0 -5.5,2.7 -5.5,7.101 0,4.7 2,7.399 5.4,7.399 1.2,0 2.2,-0.399 3.2,-1.399 v 1.1 h 3.4 V 325 l -3.4,1.7 z m -2.4,10.1 c -1.2,0 -2.6,-0.8 -2.6,-4.3 0,-3.2 1.4,-3.9 2.6,-3.9 1.3,0 2.1,0.8 2.5,1.4 v 5.5 c -0.6,0.6 -1.3,1.3 -2.5,1.3 z m 77.7,-11.4 c -1.101,0 -2.2,0.5 -3.101,1.301 v -6.5 l -3.5,1.699 v 17.7 h 3.5 v -1 c 0.9,0.9 1.9,1.3 3.2,1.3 3.4,0 5.4,-2.699 5.4,-7.399 C 276.7,333.4 274.6,330.6 271.2,330.6 Z m -0.7,3.2 c 1.3,0 2.6,1 2.6,3.9 0,2.899 -0.8,4.3 -2.5,4.3 -1.3,0 -2.199,-0.9 -2.5,-1.3 v -5.5 c 0.6,-0.9 1.4,-1.4 2.4,-1.4 z m -38.6,-1.9 a 4.384,4.384 0 0 0 -3.1,-1.301 c -3.4,0 -5.5,2.7 -5.5,7.101 0,4.7 2,7.399 5.4,7.399 1.2,0 2.3,-0.5 3.2,-1.399 v 0.3 c 0,1.5 0,3.6 -4.5,3.7 h -0.2 l 1.2,2.7 h 0.1 c 4.6,-0.101 6.8,-2.4 6.8,-7 v -12.7 h -3.4 z m 0,3.2 v 5.5 c -0.5,0.7 -1.2,1.4 -2.4,1.4 -1.2,0 -2.6,-0.8 -2.6,-4.3 0,-3.2 1.4,-3.9 2.6,-3.9 1.3,0 2,0.7 2.4,1.3 z m 14.2,-0.8 c 1.1,-0.6 2.1,-1 3.6,-1 1.6,0 2.5,0.7 2.5,2 v 0.9 c -0.8,-0.4 -1.9,-0.7 -3,-0.7 -2.6,0 -5.6,1.2 -5.6,4.6 0,3.601 2.8,4.9 5.2,4.9 1,0 2.4,-0.4 3.4,-1.4 v 1.101 h 3.399 v -9.4 c 0,-3 -2.1,-4.899 -5.6,-4.899 -1.9,0 -3.6,0.399 -5.2,1.399 z m 1,6 c 0,-1.2 0.9,-2 2.4,-2 1,0 1.9,0.2 2.7,0.7 v 1.9 c -0.4,0.699 -1.4,1.5 -2.7,1.5 -1.5,-0.1 -2.4,-0.9 -2.4,-2.1 z m 40.7,0.5 c -0.6,0.601 -1.5,1.2 -2.8,1.2 -0.7,0 -2.9,-0.2 -3.1,-3 h 8.6 v -1 c 0,-4.4 -2.3,-7.3 -5.9,-7.3 -3.6,0 -6.3,3.1 -6.3,7.3 0,4.4 2.601,7.3 6.601,7.3 1.8,0 3.6,-0.7 4.899,-2.2 z m -5.9,-4.4 c 0.1,-1.7 1.1,-2.9 2.6,-2.9 1.8,0 2.6,1.5 2.6,2.9 z m 39.2,4.4 c -0.6,0.601 -1.5,1.2 -2.8,1.2 -0.7,0 -2.899,-0.2 -3.1,-3 h 8.6 v -1 c 0,-4.4 -2.3,-7.3 -5.899,-7.3 -3.601,0 -6.301,3.1 -6.301,7.3 0,4.4 2.601,7.3 6.601,7.3 1.8,0 3.6,-0.7 4.899,-2.2 z m -5.8,-4.4 c 0.101,-1.7 1.101,-2.9 2.601,-2.9 1.8,0 2.6,1.5 2.6,2.9 z m -8.4,-2.2 H 310 V 331 h -3.1 v -5.3 l -3.5,1.7 v 3.6 h -2.1 v 3.2 h 2.101 v 6.8 c 0,2 1,4.3 3.699,4.3 1.101,0 2.101,-0.2 2.9,-0.6 l 0.4,-3.3 c -0.601,0.3 -1.4,0.6 -2.101,0.6 -1,0 -1.5,-0.6 -1.5,-1.9 v -5.9 z m -6.3,7.1 c -0.6,0.3 -1.399,0.601 -2.1,0.601 -1,0 -1.5,-0.601 -1.5,-1.9 v -5.9 h 2.9 V 330.9 H 297 v -5.3 l -3.5,1.7 v 3.601 h -2.2 v 3.199 h 2.2 v 6.801 c 0,2 1,4.3 3.7,4.3 1.1,0 2.1,-0.2 2.899,-0.601 z m 34.6,-9.8 c -0.7,-0.5 -1.7,-0.8 -2.601,-0.8 -1.199,0 -2.3,0.5 -3.1,1.5 V 331 H 326 v 14 h 3.5 v -7.6 c 0,-2.2 0.8,-3.301 2.5,-3.301 0.8,0 1.6,0.301 2.3,0.801 z m -160.3,-6 h 3.4 v 3.4 h -3.4 z m 27.5,5.4 h 3.5 v 14 h -3.5 z m 0,-5.4 h 3.4 v 3.4 h -3.4 z"
                 id="path3396"
                 style="fill:#ffffff;fill-opacity:1" /><g
                 id="g3400"
                 style="fill:#ffffff;fill-opacity:1"><path
                   d="m 300.7,356.3 c -0.8,-0.899 -1.9,-1.3 -3.101,-1.3 -3.399,0 -5.5,2.7 -5.5,7.1 0,4.7 2,7.4 5.4,7.4 1.2,0 2.2,-0.4 3.2,-1.4 v 1.101 h 3.399 v -19.8 L 300.7,351.1 Z m -2.4,10.1 c -1.2,0 -2.6,-0.801 -2.6,-4.301 0,-3.199 1.399,-3.899 2.6,-3.899 1.3,0 2.101,0.8 2.5,1.399 v 5.5 c -0.6,0.601 -1.3,1.301 -2.5,1.301 z m -114,-10.5 c -0.7,-0.5 -1.7,-0.801 -2.6,-0.801 -1.2,0 -2.3,0.5 -3.1,1.5 V 355.4 h -3.5 v 14 h 3.5 v -7.6 c 0,-2.2 0.8,-3.3 2.5,-3.3 0.8,0 1.6,0.3 2.3,0.8 z m -29.3,4.6 c -0.3,1.3 -0.6,2.6 -0.7,3.5 -0.2,-1.1 -0.6,-2.6 -0.8,-3.5 l -1.5,-5.1 h -3 l -1.5,5.1 c -0.3,1 -0.6,2.5 -0.8,3.5 -0.2,-1.1 -0.5,-2.6 -0.7,-3.4 l -1.3,-5.199 h -3.6 L 145,369.3 v 0.101 h 3 l 1.5,-5.7 c 0.3,-0.9 0.6,-2.601 0.8,-3.2 0.2,0.8 0.5,2 0.8,3 l 1.6,5.8 h 3 l 3.9,-14 h -3.4 z m 11.7,-5.5 c -3.7,0 -6.4,3.1 -6.4,7.3 0,4.2 2.7,7.3 6.4,7.3 3.7,0 6.4,-3.1 6.4,-7.3 0,-4.2 -2.7,-7.3 -6.4,-7.3 z m 0,11.4 c -1.7,0 -2.8,-1.601 -2.8,-4 0,-2.5 1.1,-4 2.8,-4 1.7,0 2.8,1.6 2.8,4 0,2.4 -1.1,4 -2.8,4 z m 117.9,-10.5 c -0.699,-0.5 -1.699,-0.801 -2.6,-0.801 -1.2,0 -2.3,0.5 -3.1,1.5 V 355.4 h -3.5 v 14 h 3.5 v -7.6 c 0,-2.2 0.8,-3.3 2.5,-3.3 0.8,0 1.6,0.3 2.3,0.8 z m -29.3,4.6 c -0.3,1.3 -0.6,2.6 -0.7,3.5 -0.199,-1.1 -0.6,-2.6 -0.8,-3.5 l -1.5,-5.1 h -2.9 l -1.5,5.1 c -0.3,1 -0.6,2.5 -0.8,3.5 -0.2,-1.1 -0.5,-2.6 -0.7,-3.4 l -1.3,-5.199 h -3.6 l 3.9,13.899 v 0.101 h 3 l 1.5,-5.7 c 0.3,-0.9 0.6,-2.601 0.8,-3.2 0.2,0.8 0.5,2 0.8,3 l 1.6,5.8 h 3 l 3.9,-14 h -3.4 z M 267,355 c -3.7,0 -6.4,3.1 -6.4,7.3 0,4.2 2.7,7.3 6.4,7.3 3.7,0 6.4,-3.1 6.4,-7.3 -0.1,-4.2 -2.8,-7.3 -6.4,-7.3 z m 0,11.4 c -1.7,0 -2.8,-1.601 -2.8,-4 0,-2.5 1.1,-4 2.8,-4 1.7,0 2.8,1.6 2.8,4 0,2.4 -1.1,4 -2.8,4 z m -69.6,-11.1 h -4 l -2.8,3.601 c -0.4,0.5 -0.9,1.1 -1.3,1.8 V 349.6 l -3.4,1.7 v 18 h 3.4 v -4.2 l 1.8,-2.3 2.9,6.5 h 3.8 l -4.3,-9.399 z m 12.7,6.3 c 0,-2.199 0.9,-3.399 2.7,-3.399 1.7,0 2.5,1.1 2.5,3.399 v 7.7 h 3.5 v -7.9 c 0,-4.2 -1.8,-6.4 -5.1,-6.4 -1.4,0 -2.7,0.5 -3.5,1.5 v -1.2 h -3.5 v 14 h 3.5 v -7.7 z m 19.5,-5.3 c -0.8,-0.8 -1.9,-1.3 -3.1,-1.3 -3.4,0 -5.5,2.7 -5.5,7.1 0,4.7 2,7.4 5.4,7.4 1.2,0 2.3,-0.5 3.2,-1.4 v 0.301 c 0,1.5 0,3.6 -4.5,3.699 h -0.2 l 1.2,2.7 h 0.1 c 4.6,-0.1 6.8,-2.399 6.8,-7 v -12.7 h -3.4 z m 0,3.3 v 5.5 c -0.6,0.7 -1.2,1.4 -2.4,1.4 -1.2,0 -2.6,-0.8 -2.6,-4.3 0,-3.2 1.4,-3.9 2.6,-3.9 1.2,-0.1 2,0.7 2.4,1.3 z m -29.5,-4.3 h 3.5 v 14 h -3.5 z m 0,-5.4 h 3.4 v 3.399 h -3.4 z m 86.1,19.4 h 3.5 v -19.8 l -3.5,1.8 z"
                   id="path3398"
                   style="fill:#ffffff;fill-opacity:1" /></g></g><path
               fill="#ffe400"
               d="M 141.2,204.4 358.8,125 v 41 z"
               id="path3404"
               style="fill:#ffffff;fill-opacity:1" /><g
               fill="#575756"
               id="g3408"
               style="fill:#ffffff;fill-opacity:1"><path
                 d="m 166.1,275.6 h 28.5 v -16.5 h -28.5 v -13 h 31.5 L 187.2,228 h -44.6 v 78.6 h 62.8 V 288.5 H 166.1 Z M 247.3,228 234,253.7 220.6,228 h -26 l 27.4,47.6 v 31 h 23.5 v -31 L 273,228 Z"
                 id="path3406"
                 style="fill:#ffffff;fill-opacity:1" /></g></g></g></g></g></g></svg>
