<?xml version="1.0" encoding="UTF-8" standalone="no"?>
<!-- Created with Inkscape (http://www.inkscape.org/) -->

<svg
   width="88.806168mm"
   height="59mm"
   viewBox="0 0 88.806165 58.999998"
   version="1.1"
   id="svg16797"
   xml:space="preserve"
   inkscape:version="1.2.2 (732a01da63, 2022-12-09)"
   sodipodi:docname="logo_igem.svg"
   xmlns:inkscape="http://www.inkscape.org/namespaces/inkscape"
   xmlns:sodipodi="http://sodipodi.sourceforge.net/DTD/sodipodi-0.dtd"
   xmlns="http://www.w3.org/2000/svg"
   xmlns:svg="http://www.w3.org/2000/svg"><sodipodi:namedview
     id="namedview16799"
     pagecolor="#ffffff"
     bordercolor="#000000"
     borderopacity="0.25"
     inkscape:showpageshadow="2"
     inkscape:pageopacity="0.0"
     inkscape:pagecheckerboard="0"
     inkscape:deskcolor="#d1d1d1"
     inkscape:document-units="mm"
     showgrid="false"
     inkscape:zoom="0.2973261"
     inkscape:cx="677.70707"
     inkscape:cy="116.03421"
     inkscape:window-width="1128"
     inkscape:window-height="730"
     inkscape:window-x="-6"
     inkscape:window-y="-6"
     inkscape:window-maximized="1"
     inkscape:current-layer="layer1" /><defs
     id="defs16794" /><g
     inkscape:label="Layer 1"
     inkscape:groupmode="layer"
     id="layer1"
     transform="translate(69.490099,115.8978)"><path
       style="fill:#ffffff;stroke:#ffffff;stroke-width:0.2;stroke-dasharray:none;stroke-opacity:1;fill-opacity:1"
       d="m -54.168908,-58.796287 c -0.09306,-0.09306 -0.169196,-7.159462 -0.169196,-15.70312 0,-13.302187 -0.05555,-15.580022 -0.386629,-15.854798 -0.650413,-0.539795 -0.758252,-1.326411 -0.25767,-1.879547 0.521097,-0.575807 1.438815,-0.668189 1.914299,-0.192706 0.450361,0.45036 0.396514,1.785453 -0.07937,1.968068 -0.234523,0.09 -0.396875,0.487387 -0.396875,0.971437 v 0.819139 l 1.058333,-1.033436 1.058334,-1.033436 v -5.835783 c 0,-5.549241 -0.02598,-5.852011 -0.529167,-6.166261 -0.714141,-0.44598 -0.714141,-1.79587 0,-2.17806 0.482974,-0.25848 0.529167,-0.55399 0.529167,-3.38525 0,-2.8155 -0.04888,-3.13257 -0.529167,-3.43252 -0.733136,-0.45785 -0.712732,-1.79663 0.03347,-2.19598 0.872464,-0.46693 1.818615,0.0732 1.818615,1.03818 0,0.42186 -0.178593,0.91524 -0.396875,1.0964 -0.311475,0.2585 -0.396875,0.99678 -0.396875,3.43097 0,2.76558 0.05733,3.15348 0.529167,3.58049 0.291042,0.26339 0.529167,0.68011 0.529167,0.92604 0,0.24593 -0.238125,0.66265 -0.529167,0.92604 -0.460905,0.41711 -0.529167,0.81491 -0.529167,3.083722 0,1.43265 0.10537,2.604823 0.234154,2.604823 0.418338,0 1.20096,-1.438693 1.123064,-2.064533 -0.09824,-0.789232 0.400153,-1.375052 1.169823,-1.375052 0.684284,0 1.44171,0.63544 1.44171,1.209522 0,0.52897 -1.018858,1.491939 -1.357247,1.282804 -0.153786,-0.09505 -0.804288,0.342119 -1.445559,0.971479 l -1.165945,1.144291 v 2.799128 2.799127 l -1.322916,1.303026 -1.322917,1.303025 v 1.989095 1.989096 l 2.513542,-2.503091 c 2.391717,-2.381774 2.513541,-2.557844 2.513541,-3.632796 0,-0.761772 -0.114236,-1.129704 -0.350755,-1.129704 -0.641564,0 -1.501328,-1.190922 -1.501328,-2.079602 0,-1.125923 1.010118,-2.153732 2.116667,-2.153732 1.087728,0 2.116667,1.028938 2.116667,2.116667 0,0.805291 -0.97608,2.116667 -1.575475,2.116667 -0.152136,0 -0.276609,0.383513 -0.276609,0.852252 v 0.852252 l 1.719792,-1.704504 1.719792,-1.704504 v -3.059391 -3.059395 l -1.455209,-1.437132 -1.455208,-1.43713 v -1.92727 c 0,-1.0616 -0.11466,-1.92726 -0.255275,-1.92726 -0.413655,0 -0.846093,-1.0351 -0.667505,-1.59778 0.271601,-0.85574 1.115613,-1.15593 1.866565,-0.66389 0.793586,0.51998 0.853516,1.59699 0.114548,2.05848 -0.441632,0.27581 -0.529166,0.61702 -0.529166,2.06271 0,1.72715 0.0039,1.73605 1.314878,3.02735 1.26859,1.249512 1.332905,1.278792 1.826927,0.831712 0.460023,-0.416322 0.474628,-0.535482 0.143743,-1.172762 -1.068459,-2.05786 1.810568,-3.97168 3.473352,-2.30889 1.395384,1.39538 0.250034,3.691042 -1.768808,3.545282 -0.672042,-0.0485 -1.165331,0.0869 -1.534981,0.42144 -0.484245,0.43824 -0.544695,0.80246 -0.544695,3.281963 v 2.789021 l 0.879256,-0.852208 c 0.672806,-0.65211 0.854202,-1.022908 0.772554,-1.579213 -0.0738,-0.502806 0.0686,-0.88565 0.461743,-1.241441 0.521031,-0.471527 0.627621,-0.481327 1.277967,-0.117491 1.220173,0.682623 0.994026,2.363632 -0.317982,2.363632 -0.37942,0 -2.026827,1.462892 -5.000474,4.440404 l -4.434641,4.440405 0.942458,0.913466 c 0.696706,0.675272 1.134922,0.893278 1.680554,0.836046 0.905859,-0.09502 1.424467,0.471636 1.310288,1.431682 -0.116057,0.975818 -0.776012,1.35931 -1.652217,0.960085 -0.498134,-0.226964 -0.682006,-0.511794 -0.682006,-1.056468 0,-0.518337 -0.314984,-1.053301 -1.032999,-1.754423 l -1.032999,-1.008697 -1.348251,1.355365 -1.348251,1.355368 v 12.019437 c 0,6.610689 -0.102456,12.082757 -0.227679,12.16015 -0.125224,0.07739 -0.303818,0.06457 -0.396875,-0.02848 z m 1.852083,0 c -0.09306,-0.09306 -0.169196,-4.197478 -0.169196,-9.120935 0,-5.076449 -0.102286,-8.951735 -0.236276,-8.951735 -0.466759,0 -0.561454,-0.88056 -0.160502,-1.492489 0.475603,-0.725863 0.983556,-0.793353 1.568504,-0.208404 0.522316,0.522314 0.528475,1.021228 0.0189,1.530803 -0.218282,0.218281 -0.396875,0.731313 -0.396875,1.140071 0,0.671473 0.383,0.360833 3.96875,-3.21894 l 3.96875,-3.962133 v -2.363727 c 0,-1.830284 -0.09904,-2.473161 -0.438854,-2.848652 -0.940856,-1.039635 0.715201,-2.48185 1.708854,-1.488197 0.434877,0.434877 0.39851,1.137973 -0.07937,1.534584 -0.289192,0.240008 -0.396875,0.876003 -0.396875,2.34402 v 2.014641 l 1.197951,-1.197951 1.197954,-1.197952 -0.414043,-0.829966 c -0.514647,-1.031634 -0.29794,-2.020443 0.597095,-2.724478 0.937163,-0.737172 1.828488,-0.656156 2.733062,0.248417 0.939009,0.939006 0.989788,1.855941 0.156437,2.824769 -0.447235,0.519946 -0.885761,0.726593 -1.594083,0.751191 -0.905406,0.03144 -1.403855,0.460336 -6.791373,5.843678 l -5.814251,5.809745 v 7.725704 c 0,7.008866 -0.107281,8.355207 -0.624554,7.837936 z m -3.873363,-5.420443 v -4.589788 l -3.509276,-3.502052 c -1.930102,-1.926129 -3.578591,-3.502054 -3.663308,-3.502054 -0.320387,0 -0.06245,1.220142 0.407811,1.929067 0.401015,0.604543 0.435469,0.857766 0.19001,1.396489 -0.359326,0.788636 -0.87162,1.022001 -1.756174,0.799992 -1.131921,-0.284094 -1.225144,-2.324574 -0.122196,-2.674636 0.367892,-0.116764 0.515633,-0.403347 0.515633,-1.000205 0,-0.827032 -0.0264,-0.810273 -2.320339,1.473039 -1.276186,1.270272 -2.40728,2.309588 -2.513542,2.309588 -0.396553,0 -0.169436,-0.464294 0.593198,-1.212673 0.742831,-0.728949 0.786807,-0.890953 0.79375,-2.924085 0.0068,-1.999653 -0.03893,-2.182705 -0.6448,-2.579688 -1.328551,-0.8705 -1.493379,-2.250528 -0.399454,-3.344453 0.73027,-0.730268 2.128364,-0.686271 2.857566,0.08993 0.990304,1.054131 0.643296,2.877854 -0.640451,3.365934 -0.611257,0.232399 -0.651272,0.362378 -0.606997,1.971709 0.02607,0.9476 0.119428,1.721062 0.207463,1.718805 0.08803,-0.0024 0.725611,-0.58561 1.416835,-1.296339 l 1.256771,-1.292236 v -2.874254 c 0,-2.726933 -0.03051,-2.887641 -0.595313,-3.135431 -0.904472,-0.396814 -0.949568,-1.767967 -0.08063,-2.451476 0.440905,-0.346816 0.67594,-0.792533 0.67594,-1.281848 0,-0.704006 -0.14598,-0.604851 -2.372965,1.611815 -1.305131,1.299083 -2.457852,2.277084 -2.561603,2.173333 -0.103751,-0.103751 0.190177,-0.579475 0.653173,-1.057167 0.805085,-0.830636 0.841366,-0.960324 0.831619,-2.972599 -0.01006,-2.077355 -0.02098,-2.110833 -0.859895,-2.636737 -1.745273,-1.094087 -0.934485,-3.832958 1.134671,-3.832958 1.087728,0 2.116666,1.028938 2.116666,2.116666 0,0.805292 -0.97608,2.116667 -1.575473,2.116667 -0.164054,0 -0.27661,0.699805 -0.27661,1.719792 0,0.945885 0.09377,1.719792 0.208384,1.719792 0.114611,0 0.769454,-0.569638 1.455208,-1.26586 l 1.246825,-1.265859 v -3.106314 c 0,-3.049302 -0.01185,-3.110818 -0.645371,-3.351684 -1.301251,-0.494737 -1.637734,-2.419369 -0.594347,-3.399581 1.235964,-1.161129 3.192962,-0.486609 3.521577,1.213776 0.144896,0.749752 0.044,0.978815 -0.768727,1.745321 l -0.935514,0.882304 -0.02841,2.994342 -0.02842,2.994346 3.705885,3.727 3.705884,3.727001 0.0025,-2.518768 0.0025,-2.518767 -2.513542,-2.503091 -2.513541,-2.503091 v -4.490545 -4.490547 l -0.818087,-0.844052 c -0.704788,-0.72716 -0.954666,-0.82573 -1.804282,-0.71178 -2.068036,0.27739 -3.267608,-2.01467 -1.846237,-3.52765 1.644656,-1.75065 4.558846,0.39862 3.421631,2.52352 -0.197683,0.36938 -0.08372,0.63555 0.519601,1.21357 0.646359,0.61925 0.839335,0.68521 1.179266,0.4031 0.310823,-0.25796 0.406441,-0.90146 0.406441,-2.73527 0,-2.07986 -0.07449,-2.47723 -0.561526,-2.99566 -0.74579,-0.79386 -0.504404,-1.87154 0.474215,-2.11715 0.384109,-0.0964 0.888312,-0.0564 1.12045,0.0888 0.584853,0.36594 0.711573,1.88679 0.174385,2.09293 -0.328268,0.12597 -0.413774,0.60243 -0.413774,2.30564 v 2.14686 l 1.719792,-1.7045 c 2.049501,-2.03128 2.184042,-2.67227 0.793742,-3.78159 -0.772607,-0.61647 -0.926034,-0.90918 -0.926034,-1.76674 0,-1.8702 1.908851,-2.73313 3.334056,-1.50722 1.011728,0.87025 0.9527,2.16966 -0.143058,3.14921 l -0.809748,0.72388 v 3.51287 c 0,3.38698 0.02129,3.52222 0.59414,3.774042 0.900743,0.39595 1.317013,1.467971 0.963642,2.481656 -0.630741,1.809342 -3.267505,1.8777 -3.865419,0.100208 -0.355051,-1.0555 -0.0384,-1.977904 0.887482,-2.585274 0.777228,-0.509852 0.806505,-0.599182 0.802088,-2.447402 -0.0025,-1.05502 -0.07548,-1.91822 -0.162121,-1.91822 -0.08664,0 -1.137173,0.98475 -2.334507,2.18834 l -2.176972,2.188342 v 4.107959 4.107963 l 1.058334,1.033436 1.058333,1.033436 V -91.1714 c 0,-1.423297 -0.08868,-1.765223 -0.529167,-2.040313 -0.685555,-0.428136 -0.676742,-1.433333 0.01808,-2.062142 0.499626,-0.452154 0.608992,-0.460708 1.256771,-0.09831 0.896069,0.501303 1.034407,1.377288 0.328918,2.082779 -0.451068,0.451067 -0.545437,0.879041 -0.545437,2.473611 v 1.928175 l 1.325331,1.305404 1.325331,1.305401 -0.06856,13.214726 c -0.05337,10.287374 -0.141824,13.239137 -0.39929,13.324929 -0.256108,0.08534 -0.330729,-0.925365 -0.330729,-4.479582 z m -2.503982,-12.976085 -2.523101,-2.444023 v -2.772093 -2.77209 l -0.979739,-1.003345 c -0.538856,-0.551839 -1.048669,-1.003342 -1.132917,-1.003342 -0.398755,0 -0.197072,1.305629 0.266487,1.725144 0.661057,0.59825 0.667595,1.459574 0.01735,2.286223 -0.424053,0.539096 -0.506587,1.090308 -0.51015,3.407114 l -0.0042,2.763969 3.619004,3.653441 3.619003,3.653441 0.07571,-2.52521 0.07571,-2.525209 -2.523102,-2.44402 z m 1.589452,-3.889145 -0.937553,-0.937554 v 2.231954 c 0,2.159434 0.02794,2.260825 0.859896,3.120554 l 0.859896,0.8886 0.07766,-2.183 0.07766,-2.183001 z m -1.46672,0.782627 c 0,-1.97997 -0.04968,-2.164038 -0.821159,-3.042709 -0.451637,-0.514387 -0.927887,-0.935249 -1.058333,-0.935249 -0.130446,0 -0.237175,0.917715 -0.237175,2.039366 0,1.994964 0.02133,2.06121 0.979739,3.042708 0.538856,0.551839 1.015106,1.003343 1.058333,1.003343 0.04323,0 0.07859,-0.948357 0.07859,-2.107459 z m 26.722918,14.542876 c 0,-0.145521 0.178594,-0.264583 0.396876,-0.264583 0.615883,0 0.571939,-3.653597 -0.0468,-3.891029 -0.396991,-0.152342 -0.39003,-0.19127 0.06615,-0.369975 1.103715,-0.432374 1.171282,-0.321805 1.171282,1.916732 0,1.740802 0.08876,2.221021 0.46302,2.505125 0.40593,0.308145 0.308058,0.352521 -0.79375,0.3599 -0.691224,0.0046 -1.256771,-0.110649 -1.256771,-0.25617 z m 5.107605,-0.252941 c -1.61285,-0.983417 -2.263746,-2.81227 -1.665402,-4.679355 0.824305,-2.572184 3.418042,-3.740688 5.493881,-2.475048 1.051692,0.641215 1.049771,0.641112 1.200282,0.06516 0.06655,-0.254661 0.130151,0.191823 0.141338,0.992188 0.0199,1.424805 0.01302,1.438624 -0.330034,0.661458 -0.691721,-1.567069 -1.987619,-2.207495 -3.474132,-1.716902 -1.531126,0.505317 -2.342061,2.945334 -1.731931,5.211183 0.514874,1.912094 2.475992,2.80135 3.930772,1.782384 0.831098,-0.582123 0.826502,-2.155158 -0.0073,-2.490295 -0.438838,-0.17639 -0.108501,-0.238805 1.25677,-0.237461 1.156256,0.0011 1.653276,0.07883 1.322917,0.206774 -0.380206,0.147254 -0.566407,0.525251 -0.661458,1.342793 -0.126161,1.085117 -0.187465,1.154266 -1.322917,1.492231 -1.683888,0.501203 -3.167301,0.445799 -4.152813,-0.155106 z m 7.206401,0.235339 c 0.09592,-0.155202 0.240821,-0.215768 0.322001,-0.134589 0.08118,0.08118 0.307382,0.015 0.502671,-0.147084 0.260255,-0.215993 0.353991,-1.11623 0.351023,-3.371141 -0.0041,-3.133392 -0.08902,-3.542925 -0.7897,-3.809649 -0.218281,-0.08309 0.873588,-0.160475 2.426372,-0.171963 l 2.82325,-0.02089 0.178494,0.812671 c 0.237794,1.082675 -0.0016,1.261104 -0.445339,0.331859 -0.315397,-0.660559 -0.518541,-0.756971 -1.743837,-0.827628 l -1.386856,-0.07997 v 1.601327 1.601328 h 0.88561 c 0.65695,0 0.959737,-0.153705 1.172719,-0.595313 0.243779,-0.505473 0.287107,-0.375706 0.287107,0.859896 0,1.197044 -0.04889,1.354169 -0.275603,0.88568 -0.252818,-0.522441 -1.614292,-0.988441 -1.939047,-0.663689 -0.07193,0.07193 -0.130786,0.828265 -0.130786,1.680739 0,1.446975 0.04834,1.568447 0.727604,1.828358 1.120828,0.428871 2.568168,-0.0993 2.977036,-1.0864 0.467662,-1.129033 0.679778,-0.98094 0.570103,0.398021 l -0.09469,1.190625 h -3.296264 c -2.267218,0 -3.241821,-0.0881 -3.121864,-0.282186 z m 7.794329,-0.237369 c 0.615447,-0.472466 0.667814,-0.693872 0.752827,-3.182898 0.109672,-3.210959 -0.0281,-3.893079 -0.819409,-4.057015 -0.327181,-0.06778 -0.0076,-0.105802 0.710104,-0.08449 l 1.3049813,0.03875 1.3143416,2.976563 c 0.7228867,1.637109 1.3957936,2.976562 1.4953484,2.976562 0.099552,0 0.766326,-1.368308 1.4817197,-3.040684 l 1.3007129,-3.040685 1.3229167,0.02434 c 0.9817842,0.01807 1.1523505,0.07179 0.6614584,0.208341 l -0.6614584,0.183994 v 3.41984 c 0,3.382203 0.00728,3.423523 0.6614584,3.754485 0.5931456,0.30008 0.4633489,0.335045 -1.2567709,0.338543 -1.1761524,0.0024 -1.9182293,-0.104497 -1.9182293,-0.276299 0,-0.15411 0.094983,-0.221496 0.2110714,-0.149749 0.1160886,0.07175 0.3839792,0.02376 0.5953125,-0.106643 0.2920021,-0.180179 0.3986133,-0.938155 0.4441111,-3.157543 0.03293,-1.606249 -0.026601,-2.918897 -0.1322917,-2.916997 -0.1056878,0.0019 -0.5983658,0.984165 -1.0948379,2.182812 -0.4964722,1.198648 -1.1706835,2.715142 -1.4982456,3.369985 l -0.5955665,1.190625 -0.7811559,-1.719791 c -0.4296358,-0.945886 -1.1441722,-2.493698 -1.5878547,-3.439584 l -0.8067015,-1.719792 -0.02275,2.690339 c -0.02453,2.900011 0.0941,3.527378 0.6670119,3.527378 0.2027106,0 0.3685673,0.119062 0.3685673,0.264583 0,0.145521 -0.6250782,0.261935 -1.3890632,0.258699 l -1.389062,-0.0059 0.661458,-0.507789 z m -19.490313,-6.774273 c -0.220519,-0.574664 0.339312,-1.115089 0.740027,-0.714375 0.338677,0.338677 0.128865,1.129036 -0.299715,1.129036 -0.154654,0 -0.352796,-0.186598 -0.440312,-0.414661 z m -14.46764,-4.037944 c -0.854427,-0.944131 -0.20484,-2.426563 1.063297,-2.426563 1.114317,0 1.875888,1.808766 1.091737,2.592917 -0.474461,0.474462 -1.657768,0.38312 -2.155034,-0.166354 z m 15.282388,-3.067227 c -0.923439,-0.402066 -1.896989,-1.521979 -2.129949,-2.450169 -0.212961,-0.848508 0.329467,-2.056223 1.111504,-2.474754 0.506156,-0.270888 0.644009,-0.556601 0.644009,-1.33477 0,-1.841087 2.434357,-3.087836 3.572849,-1.829819 0.420912,0.465103 0.436605,0.619493 0.127741,1.256771 l -0.352121,0.72653 -0.152882,-0.763931 c -0.09496,-0.474531 -0.386389,-0.850128 -0.76927,-0.99146 -0.499354,-0.184325 -0.763109,-0.08082 -1.389063,0.545142 -0.961898,0.961895 -1.005337,1.796346 -0.111212,2.136291 0.363802,0.138316 0.661458,0.373496 0.661458,0.522618 0,0.345747 -0.424175,0.34594 -1.069663,5.29e-4 -0.396097,-0.211984 -0.626692,-0.149664 -1.063868,0.287512 -0.710917,0.710917 -0.515179,1.664126 0.567018,2.761261 0.73284,0.742958 0.910984,0.79375 2.78393,0.79375 1.925518,0 2.030111,-0.03259 2.773037,-0.864071 0.778687,-0.871501 0.995267,-1.744866 0.507463,-2.046346 -0.145521,-0.08994 -0.264583,-0.290137 -0.264583,-0.444886 0,-0.177427 0.146608,-0.159692 0.396875,0.04801 0.56167,0.466146 0.492151,2.033466 -0.128879,2.905625 -0.99872,1.402573 -3.878617,2.015509 -5.714394,1.216211 z m 11.144126,-0.140259 c 1.096706,-0.444539 1.201148,-0.854342 1.123416,-4.407993 -0.07269,-3.323066 -0.08835,-3.402438 -0.735727,-3.729514 -0.618173,-0.312316 -0.573345,-0.334441 0.685054,-0.338087 l 1.346512,-0.0039 1.530249,3.439583 c 0.841637,1.891771 1.605222,3.439584 1.696853,3.439584 0.09163,0 0.825791,-1.518047 1.63146,-3.373438 l 1.464858,-3.373438 1.4449034,-0.04803 c 0.9654938,-0.03209 1.2254363,0.01577 0.7834445,0.144219 l -0.6614583,0.192251 v 3.944893 3.944893 l 0.6614583,0.183994 c 0.3773832,0.104973 -0.3043978,0.179842 -1.5875001,0.174334 -1.2369278,-0.0053 -1.9746518,-0.0621 -1.6393908,-0.126188 0.340456,-0.06508 0.720082,-0.407207 0.859896,-0.774943 0.304504,-0.800908 0.337826,-6.653179 0.03587,-6.299278 -0.117956,0.138245 -0.912423,1.831999 -1.765488,3.7639 -0.853064,1.9319 -1.658099,3.476855 -1.788964,3.433233 -0.130866,-0.04362 -0.973506,-1.740887 -1.872533,-3.771699 l -1.634596,-3.692385 -0.07718,3.169571 c -0.07613,3.126407 -0.06782,3.177675 0.610066,3.764881 l 0.687245,0.595312 -1.668402,-0.01677 c -1.147845,-0.01154 -1.500428,-0.08485 -1.130046,-0.234985 z m 12.5064848,-0.211264 c 0.2946638,-0.254662 1.1204047,-1.870792 1.8349808,-3.591402 0.7145761,-1.720606 1.386295,-3.149356 1.4927052,-3.175 0.1064127,-0.02564 0.7892785,1.382131 1.5174834,3.128381 0.7282021,1.74625 1.56818549,3.383359 1.86662493,3.638021 0.52692038,0.449628 0.49776065,0.462132 -1.00804933,0.432329 -0.8528659,-0.01688 -1.3423054,-0.08514 -1.087644,-0.151693 0.562536,-0.147006 0.5736908,-0.363493 0.079648,-1.545905 -0.3652203,-0.874094 -0.4462172,-0.917544 -1.7104838,-0.917544 -1.0412836,0 -1.3860966,0.110223 -1.6010018,0.511773 -0.3760179,0.702596 -0.3442626,1.796984 0.056838,1.958832 0.1819011,0.0734 -0.1884759,0.142852 -0.8230606,0.15434 -1.1258735,0.02037 -1.1408278,0.0097 -0.6180408,-0.442132 z m 3.6809312,-3.770313 c -0.3074035,-0.727604 -0.638474,-1.322917 -0.7357111,-1.322917 -0.09724,0 -0.4241985,0.595313 -0.7265776,1.322917 l -0.5497777,1.322917 h 1.2854914 1.2854914 z m 4.4408992,4.039743 c 0.8307917,-0.207565 0.9176756,-0.546962 0.921991,-3.601492 0.00374,-2.64831 -0.036661,-2.879688 -0.525116,-3.007421 -1.12778382,-0.294923 -0.4445106,-0.60583 1.3314152,-0.60583 2.2758825,0 3.6118273,0.499872 3.8477113,1.439701 0.1636792,0.652156 -0.4295643,1.994324 -0.8857457,2.003933 -0.1057857,0.0021 -0.3535151,0.106186 -0.550508,0.231013 -0.3739462,0.236956 -0.3908875,0.210206 1.6276533,2.570115 0.4071753,0.476033 1.0024878,0.916364 1.3229168,0.978512 0.3204289,0.06215 0.026548,0.129211 -0.6530685,0.149029 -1.2276032,0.0358 -1.2439042,0.02482 -2.4984235,-1.683761 -1.6038778,-2.184371 -2.0075976,-2.228805 -1.9015076,-0.209288 0.071197,1.35531 0.1473094,1.529297 0.7408069,1.693418 0.3954648,0.10936 -0.1365197,0.181179 -1.3229168,0.178596 -1.0914063,-0.0024 -1.7462501,-0.06381 -1.4552084,-0.136525 z m 3.7775862,-3.922453 c 1.287788,-0.902002 0.4518686,-3.027707 -1.1906251,-3.027707 -0.5652559,0 -0.602586,0.106543 -0.602586,1.719792 0,1.613249 0.03733,1.719792 0.602586,1.719792 0.331425,0 0.8672063,-0.185346 1.1906251,-0.411877 z m 5.2843936,3.843216 c 1.009221,-0.405657 0.813956,-2.04475 -0.5088441,-4.271352 -0.6072849,-1.022212 -1.32166,-1.994402 -1.5875001,-2.160423 -0.8105511,-0.506198 -0.5504127,-0.684567 0.9718649,-0.666385 0.8003643,0.0096 1.4552083,0.124132 1.4552083,0.254601 0,0.130471 -0.178594,0.23722 -0.396875,0.23722 -0.5590936,0 -0.5177392,0.14351 0.584165,2.027187 l 0.981041,1.677064 0.865066,-1.389105 c 0.865291,-1.389462 1.110165,-2.315146 0.612436,-2.315146 -0.14552,0 -0.264583,-0.106186 -0.264583,-0.235964 0,-0.12978 0.47625,-0.225491 1.058333,-0.212688 1.179656,0.02596 1.301708,0.169373 0.545836,0.641424 -0.281877,0.176033 -0.996252,1.134333 -1.5875,2.129555 -1.297237,2.183569 -1.487086,3.879088 -0.47969,4.284012 0.445765,0.179176 0.163282,0.239287 -1.124479,0.239287 -1.287762,0 -1.5702438,-0.06011 -1.124479,-0.239287 z m -38.563024,-2.373006 c -0.688985,-0.688985 -0.66752,-1.132562 0.09786,-2.022369 0.538001,-0.625465 0.895244,-0.753549 2.516116,-0.902118 2.072058,-0.189926 2.942276,-0.703789 2.942276,-1.737418 0,-0.348719 -0.236953,-0.737958 -0.551829,-0.906474 -0.645419,-0.345418 -0.884438,-0.180774 -0.895432,0.616813 -0.0095,0.690777 -0.862544,0.947698 -1.099171,0.331057 -0.220861,-0.575558 0.627144,-1.464908 1.396814,-1.464908 0.799344,0 1.678784,0.882232 1.678784,1.68411 0,1.491814 -1.71464,2.480202 -4.01366,2.313639 -1.362192,-0.09869 -2.124017,0.363032 -2.021467,1.225164 0.09954,0.836877 0.74346,1.14468 0.74346,0.355385 0,-0.658527 0.735651,-0.745903 0.977334,-0.116078 0.102233,0.266409 -0.02318,0.574188 -0.323455,0.79375 -0.649928,0.47524 -0.822124,0.454951 -1.447629,-0.170553 z m -1.813144,-12.766146 c -0.146675,-0.472943 -0.701461,-2.288646 -1.232856,-4.034894 -0.6493,-2.133712 -1.154295,-3.324932 -1.539774,-3.632142 -0.558406,-0.44503 -0.528045,-0.45707 1.146191,-0.45461 1.558285,0.002 1.672243,0.0385 1.213469,0.38568 -0.494223,0.37399 -0.485264,0.45301 0.375026,3.307502 0.484743,1.608391 0.966885,2.831174 1.07143,2.717292 0.104545,-0.113882 0.646671,-1.607202 1.204725,-3.318494 0.558054,-1.71129 1.123265,-3.07523 1.256027,-3.03098 0.132765,0.0443 0.731565,1.4646 1.330669,3.15632 0.599104,1.691722 1.17075,3.15698 1.270328,3.256125 0.09958,0.09914 0.30616,-0.278241 0.459076,-0.838634 0.152919,-0.560393 0.510247,-1.825089 0.794068,-2.810431 l 0.516035,-1.79154 -0.561983,-0.52357 -0.561983,-0.52356 h 1.290405 c 1.259785,0 1.278165,0.0114 0.774647,0.4805 -0.316489,0.29485 -0.964747,2.03266 -1.677866,4.497912 -0.639159,2.209582 -1.246142,4.017419 -1.348851,4.017419 -0.102706,0 -0.758034,-1.552929 -1.45628,-3.450952 -0.698246,-1.898027 -1.345951,-3.356539 -1.439346,-3.241149 -0.09339,0.11539 -0.634694,1.668322 -1.202889,3.450955 -0.568193,1.782631 -1.118693,3.241146 -1.223333,3.241146 -0.10464,0 -0.310261,-0.386953 -0.456935,-0.859895 z m 9.684499,0.587068 c 0.572963,-0.230304 0.595313,-0.363768 0.595313,-3.555106 0,-2.771008 -0.06521,-3.315818 -0.396875,-3.315818 -0.218282,0 -0.396751,-0.0893 -0.396598,-0.19844 1.54e-4,-0.10914 0.714529,-0.21454 1.5875,-0.23423 0.872972,-0.0197 1.587223,0.0696 1.587223,0.19844 0,0.12882 -0.238125,0.23423 -0.529167,0.23423 -0.501018,0 -0.529167,0.17639 -0.529167,3.315818 0,3.191338 0.02236,3.324802 0.595313,3.555106 0.439274,0.176567 0.109863,0.239286 -1.256771,0.239286 -1.366634,0 -1.696045,-0.06272 -1.256771,-0.239286 z m 4.034896,0.0365 c 0.654238,-0.181578 0.662271,-0.219085 0.735928,-3.435802 0.07049,-3.078472 0.04575,-3.259732 -0.463021,-3.392782 -1.010597,-0.26428 -0.538586,-0.47574 0.98392,-0.4408 1.94565,0.0446 2.205207,0.10708 1.389007,0.33411 -0.660302,0.18368 -0.661459,0.18976 -0.661459,3.479366 v 3.295364 l 1.11437,0.08086 c 1.358733,0.0986 2.132991,-0.27913 2.350773,-1.146834 0.254486,-1.013955 0.635899,-0.771329 0.635899,0.404511 v 1.058333 l -3.373438,-0.02638 c -1.85539,-0.0145 -3.075781,-0.108988 -2.711979,-0.209958 z m 6.9453134,-0.07119 0.7276042,-0.265745 v -3.17772 c 0,-2.955209 -0.037055,-3.187419 -0.5291667,-3.316109 -1.0463059,-0.27361 -0.4977157,-0.4953 1.1244792,-0.4544 1.9492358,0.0491 2.143522,0.10323 1.2567709,0.34989 -0.6603021,0.18368 -0.6614583,0.18976 -0.6614583,3.479364 v 3.295364 l 1.1143695,0.08086 c 1.3587334,0.0986 2.1329916,-0.27913 2.3507728,-1.146834 0.2544868,-1.013955 0.6358996,-0.771329 0.6358996,0.404511 v 1.058333 l -3.3734377,-0.02088 c -2.5839263,-0.01601 -3.2031519,-0.08308 -2.6458335,-0.286631 z m 6.5484379,0.123904 c 0.8495454,-0.30362 1.0583413,-0.971288 1.0547218,-3.372684 -0.00412,-2.736454 -0.1674997,-3.587454 -0.6887051,-3.587454 -0.2013083,0 -0.3660167,-0.0993 -0.3660167,-0.22059 0,-0.27237 2.79060029,-0.2522 3.06483829,0.0221 0.10909565,0.10914 -0.0596133,0.19844 -0.37490667,0.19844 -0.55746918,1e-5 -0.57326481,0.0914 -0.57326481,3.31583 0,3.191338 0.0223573,3.324802 0.59531254,3.555106 0.43828496,0.176167 0.10678055,0.238199 -1.25677095,0.235169 -1.0186459,-0.0024 -1.6734897,-0.06795 -1.4552084,-0.145957 z m 4.1867669,-0.279405 c 0.2976722,-0.254662 1.1592693,-1.978843 1.9146627,-3.831511 0.7553934,-1.852672 1.4587592,-3.315772 1.5630315,-3.251322 0.1042749,0.0644 0.7633441,1.52073 1.4645985,3.236202 0.7012543,1.715465 1.514692,3.386917 1.807636,3.714339 l 0.5326301,0.595312 -1.5674764,-0.01677 c -1.219163,-0.01304 -1.4338195,-0.07045 -0.9659991,-0.258337 0.5820225,-0.233754 0.5884387,-0.272756 0.1984375,-1.206164 -0.2216706,-0.530529 -0.4030372,-1.009589 -0.4030372,-1.064577 0,-0.05499 -0.6605905,-0.09998 -1.4679798,-0.09998 -1.4053318,0 -1.4834739,0.0367 -1.8309909,0.859896 -0.316574,0.749906 -0.3096948,0.919123 0.053779,1.322917 0.3904377,0.433747 0.3454321,0.46302 -0.7118641,0.46302 -1.10469635,0 -1.11716351,-0.0098 -0.587428,-0.46302 z m 4.0667996,-2.68818 c 0.2300235,-0.02979 -0.8506064,-2.669633 -1.0928245,-2.669633 -0.1605254,0 -1.0797514,2.286352 -1.0766346,2.677864 0.00106,0.131902 1.1201242,0.127656 2.1694591,-0.0082 z m 4.3875619,2.739324 c 0.5518493,-0.38653 0.5880383,-0.606362 0.5880383,-3.571875 0,-2.983612 -0.02954,-3.160002 -0.5291659,-3.160002 -0.2910417,0 -0.5291667,-0.10042 -0.5291667,-0.22315 0,-0.12273 0.4987237,-0.20878 1.1082736,-0.19121 l 1.108276,0.0319 1.31668,2.978542 c 0.724175,1.638199 1.402668,2.885101 1.50776,2.770894 0.10509,-0.114205 0.699847,-1.373293 1.321681,-2.797974 0.621832,-1.424682 1.250919,-2.664682 1.397969,-2.755562 0.43153,-0.2667 2.028944,-0.30479 2.028944,-0.0484 0,0.12919 -0.241681,0.23489 -0.537072,0.23489 -0.515414,0 -0.534086,0.13557 -0.463021,3.361897 0.07343,3.333901 0.07956,3.363423 0.73551,3.545502 0.404754,0.112352 -0.108651,0.187335 -1.322917,0.193209 -1.451615,0.007 -1.822971,-0.05522 -1.383197,-0.231852 0.828204,-0.332639 0.884963,-0.587288 0.798036,-3.580294 l -0.0763,-2.627002 -1.428116,3.241147 c -0.78546,1.782631 -1.511014,3.241146 -1.612339,3.241146 -0.101325,0 -0.76836,-1.367049 -1.482301,-3.037885 -0.713944,-1.670836 -1.387375,-3.040058 -1.496516,-3.042708 -0.230846,-0.006 -0.263747,4.090485 -0.03957,4.925931 0.08341,0.310819 0.409202,0.689713 0.723993,0.841988 0.475736,0.230127 0.327943,0.279882 -0.875589,0.294767 -1.3839503,0.01712 -1.4219471,-2.64e-4 -0.8598953,-0.393969 z"
       id="path16932" /></g></svg>
