<?xml version="1.0" encoding="UTF-8" standalone="no"?>
<!-- Created with Inkscape (http://www.inkscape.org/) -->

<svg
   width="600mm"
   height="399.83572mm"
   viewBox="0 0 599.99999 399.83573"
   version="1.1"
   id="svg5"
   xml:space="preserve"
   inkscape:export-filename="logo_acm.svg"
   inkscape:export-xdpi="96"
   inkscape:export-ydpi="96"
   sodipodi:docname="logo_acm.svg"
   inkscape:version="1.2.2 (732a01da63, 2022-12-09)"
   xmlns:inkscape="http://www.inkscape.org/namespaces/inkscape"
   xmlns:sodipodi="http://sodipodi.sourceforge.net/DTD/sodipodi-0.dtd"
   xmlns="http://www.w3.org/2000/svg"
   xmlns:svg="http://www.w3.org/2000/svg"><sodipodi:namedview
     id="namedview7"
     pagecolor="#115740"
     bordercolor="#000000"
     borderopacity="0.25"
     inkscape:showpageshadow="2"
     inkscape:pageopacity="1"
     inkscape:pagecheckerboard="false"
     inkscape:deskcolor="#d1d1d1"
     inkscape:document-units="mm"
     showgrid="false"
     inkscape:zoom="0.1561683"
     inkscape:cx="387.40256"
     inkscape:cy="758.79674"
     inkscape:window-width="1128"
     inkscape:window-height="730"
     inkscape:window-x="-6"
     inkscape:window-y="-6"
     inkscape:window-maximized="1"
     inkscape:current-layer="layer1" /><defs
     id="defs2" /><g
     inkscape:label="Layer 1"
     inkscape:groupmode="layer"
     id="layer1"
     transform="translate(133.4789,79.256505)"><g
       id="g413"
       style="fill:#ffffff;fill-opacity:1;stroke:none"
       transform="translate(90.207473,-1.5131453e-4)"><g
         id="g3170"><path
           style="fill:#ffffff;fill-opacity:1;stroke:#ffffff;stroke-width:1;stroke-dasharray:none;stroke-opacity:1"
           d="m -102.78147,197.85178 c -0.31006,-0.19669 -30.20869,-92.59169 -30.21445,-93.37098 -0.002,-0.24833 0.88516,-0.33072 3.56012,-0.33072 3.12588,0 3.59174,0.0567 3.80053,0.46302 0.13087,0.25466 3.29013,10.28567 7.02057,22.29114 14.28056,45.95834 18.81543,60.19271 19.176562,60.19271 0.236651,0 2.107435,-5.57496 5.637924,-16.80104 2.906062,-9.24058 8.623824,-27.33808 12.706138,-40.21667 4.082311,-12.87859 7.592089,-23.98117 7.799506,-24.67239 l 0.377121,-1.25677 h 3.540469 3.540469 l 0.764802,2.44739 c 15.153388,48.49138 25.376358,80.63177 25.646738,80.63177 0.182206,0 0.574043,-0.80367 0.870755,-1.78594 0.296711,-0.98226 6.120079,-19.64531 12.94082,-41.47343 l 12.401348,-39.6875 h 3.6729856 c 3.5275334,0 3.6693103,0.0209 3.5801722,0.52916 -0.1900343,1.08345 -29.7316858,92.61713 -29.9938818,92.9349 -0.405969,0.49201 -6.385356,0.46079 -6.797239,-0.0355 -0.265646,-0.32007 -9.711808,-29.48718 -22.289038,-68.8223 -2.186892,-6.83948 -4.082891,-12.54655 -4.213333,-12.68236 -0.13044,-0.13582 -0.30651,-0.17761 -0.391264,-0.0928 -0.08475,0.0848 -5.97301,18.39142 -13.085013,40.68147 -7.112005,22.29006 -13.071879,40.69723 -13.244165,40.90482 -0.2388,0.28773 -1.044437,0.3765 -3.389706,0.37341 -1.69205,-0.003 -3.23057,-0.10182 -3.41894,-0.22133 z M 83.170126,196.4682 c -7.052463,-0.79426 -12.673112,-3.28486 -17.302781,-7.66723 -4.931404,-4.66799 -7.876359,-10.77251 -8.678946,-17.99032 -1.32587,-11.92387 4.97723,-22.56763 18.238749,-30.79902 1.346068,-0.8355 2.447396,-1.69472 2.447396,-1.90938 0,-0.21466 -0.519097,-1.06585 -1.153546,-1.89154 -4.421214,-5.7539 -7.244628,-11.59486 -8.129892,-16.81879 -0.460877,-2.71963 -0.178292,-8.04424 0.549132,-10.34705 2.225363,-7.04485 7.071167,-11.50289 14.422847,-13.268737 2.757249,-0.662282 8.339667,-0.592246 11.1125,0.139414 5.594795,1.476287 9.846915,4.836483 12.116915,9.575303 1.54921,3.23407 2.04607,5.2422 2.22525,8.99344 0.2441,5.11011 -0.89474,9.08158 -3.75272,13.08667 -2.29505,3.2162 -7.606454,7.63197 -13.599901,11.30658 -0.890852,0.54619 -1.617133,1.1415 -1.613932,1.32291 0.0098,0.55899 25.672013,30.22775 26.145643,30.22775 0.82593,0 5.60518,-10.2385 7.0707,-15.1474 0.0727,-0.24341 1.04381,-0.33073 3.6789,-0.33073 2.99321,0 3.58018,0.0646 3.58018,0.3937 0,0.60323 -1.52863,5.25473 -2.67451,8.13835 -1.21589,3.05977 -3.79039,8.25706 -5.41994,10.94144 -0.64127,1.05641 -1.16596,2.09185 -1.16596,2.30101 0,0.20915 3.39423,4.40679 7.54274,9.32815 5.29386,6.28004 7.44352,9.01088 7.2099,9.15918 -0.37841,0.24024 -8.14938,0.29999 -8.75568,0.0673 -0.21799,-0.0837 -2.69142,-2.8221 -5.49653,-6.08542 -2.80508,-3.26334 -5.20906,-5.93333 -5.34215,-5.93333 -0.13308,0 -1.43171,1.13125 -2.88583,2.51388 -7.32801,6.96773 -15.478631,10.48936 -25.080783,10.8366 -1.67349,0.0605 -4.052967,-0.004 -5.287751,-0.14277 z m 8.877009,-7.40603 c 4.462065,-0.62064 8.820365,-2.29818 12.731355,-4.90046 2.5437,-1.69254 6.96592,-5.77474 6.95624,-6.42141 -0.009,-0.60777 -28.274779,-33.75162 -28.872023,-33.85486 -0.593204,-0.10253 -4.049355,1.95516 -7.093087,4.22304 -5.635882,4.19925 -9.110636,8.81988 -10.656567,14.17076 -0.495631,1.71551 -0.596498,2.71058 -0.598072,5.9 -0.0016,3.2861 0.08703,4.12112 0.618032,5.82083 1.862127,5.96061 6.360927,11.02773 11.815489,13.30807 4.447003,1.85909 9.839298,2.48552 15.098633,1.75403 z m -3.900567,-55.88573 c 7.009183,-4.01245 11.45368,-8.22872 13.051582,-12.38136 0.77078,-2.00317 0.93466,-5.37268 0.38954,-8.00864 -1.40724,-6.80466 -5.910843,-10.48845 -12.822659,-10.48845 -3.917949,0 -7.265256,1.38495 -9.697936,4.01254 -2.410611,2.60374 -3.558728,5.57329 -3.563421,9.21663 -0.0034,2.65232 0.560623,4.89251 1.99341,7.91715 1.871062,3.94985 6.947381,11.13285 7.867734,11.13285 0.184177,0 1.435973,-0.63032 2.78175,-1.40072 z m 112.141872,62.07848 c -0.097,-0.097 -0.1764,-21.23059 -0.1764,-46.96354 v -46.78714 h 3.70472 3.7047 l 1.12395,1.54201 c 0.61814,0.8481 8.44626,12.21946 17.39579,25.26968 9.31238,13.57935 16.42018,23.69854 16.61861,23.65957 0.19069,-0.0375 8.11364,-11.37907 17.60654,-25.20355 l 17.2598,-25.13542 3.8916,-0.0732 3.89157,-0.0732 -0.0669,46.90448 -0.0669,46.90446 h -3.3073 -3.30729 l -0.13229,-40.52538 c -0.0728,-22.28894 -0.21368,-40.60672 -0.31313,-40.70617 -0.0995,-0.0995 -0.29393,-0.11091 -0.43215,-0.0255 -0.13824,0.0854 -8.0247,11.28923 -17.52552,24.89733 -9.50079,13.60809 -17.40257,24.7384 -17.5595,24.73398 -0.15692,-0.004 -8.08392,-11.19447 -17.61553,-24.8668 -9.53161,-13.67233 -17.47904,-24.86059 -17.66094,-24.86281 -0.26315,-0.003 -0.33073,8.28725 -0.33073,40.58119 0,36.76436 -0.0394,40.60037 -0.41851,40.74583 -0.56941,0.21852 -6.06378,0.20471 -6.28425,-0.0159 z M 83.95996,-32.663411 c -9.054377,-1.165588 -14.790072,-7.122171 -16.282378,-16.909423 -0.441751,-2.897203 -0.497141,-8.547345 -0.110239,-11.244791 1.105678,-7.70869 4.390059,-12.891391 9.945793,-15.694302 4.880597,-2.462299 12.414766,-2.834208 19.591879,-0.967113 1.336172,0.347602 2.854219,0.809501 3.373435,1.026438 0.90564,0.378402 0.94401,0.44876 0.94401,1.730851 0,1.600912 -0.0451,1.611019 -2.989448,0.670687 -4.617006,-1.474491 -11.149039,-1.934802 -15.257488,-1.075195 -8.900837,1.862317 -13.134816,9.042736 -12.632891,21.424158 0.252029,6.217086 1.649688,10.233953 4.692761,13.487011 2.022832,2.162413 4.775941,3.605315 8.178413,4.286302 4.125172,0.82563 11.897333,0.187516 16.123681,-1.323797 1.778822,-0.63609 1.884972,-0.586735 1.884972,0.876522 0,0.710877 -0.14854,1.412758 -0.33073,1.562671 -0.57946,0.476843 -5.36313,1.654104 -8.320881,2.04778 -3.108748,0.413769 -6.119336,0.448691 -8.810889,0.102201 z m -61.246093,-0.497256 c -0.193067,-0.312385 17.778112,-44.50959 18.209925,-44.784367 0.495935,-0.315582 2.417332,-0.230497 2.888988,0.127931 0.556295,0.422746 18.265629,44.061288 18.07864,44.548571 -0.09302,0.242414 -0.583562,0.364448 -1.464971,0.364448 -1.086075,0 -1.393151,-0.107392 -1.702232,-0.595313 -0.207412,-0.327422 -1.470511,-3.33375 -2.80689,-6.680729 -1.336381,-3.346979 -2.60092,-6.353307 -2.810089,-6.680729 l -0.380309,-0.595312 H 42.46485 c -7.813624,0 -10.360345,0.07891 -10.673926,0.330729 -0.226515,0.181901 -1.582719,3.307292 -3.013784,6.945312 -1.431068,3.638021 -2.77953,6.763411 -2.996586,6.945312 -0.464333,0.389128 -2.836571,0.446485 -3.066687,0.07415 z m 28.644769,-17.536646 c 0.349935,-0.425802 -8.430101,-22.517665 -8.994714,-22.632028 -0.446889,-0.09052 -9.381098,22.197506 -9.088016,22.671724 0.274026,0.443381 17.717195,0.40509 18.08273,-0.0397 z m 59.125804,17.624186 c -0.47249,-0.199493 -0.48551,-44.284911 -0.0132,-44.757205 0.49223,-0.492242 2.70891,-0.395465 3.33311,0.145521 0.29385,0.254661 4.07946,5.642239 8.41248,11.972395 4.33303,6.330156 8.0051,11.594753 8.16018,11.699102 0.15507,0.104349 0.47789,-0.01471 0.71739,-0.264584 0.2395,-0.249869 3.96658,-5.602977 8.28236,-11.89579 4.3158,-6.292815 8.07084,-11.561331 8.34456,-11.707812 0.54911,-0.293886 2.36825,-0.357484 3.02432,-0.105733 0.37705,0.144688 0.41851,2.37005 0.41851,22.461275 0,20.091224 -0.0415,22.316587 -0.41851,22.461274 -0.71216,0.273283 -2.36956,0.177096 -2.70357,-0.1569 -0.24109,-0.241097 -0.3175,-4.92615 -0.3175,-19.468922 0,-15.202675 -0.0682,-19.12903 -0.33073,-19.042818 -0.1819,0.05973 -3.9389,5.278641 -8.3489,11.59757 -4.40999,6.31893 -8.17128,11.523813 -8.35845,11.566406 -0.19182,0.04366 -3.8925,-5.01151 -8.48265,-11.587403 -4.47828,-6.415667 -8.27743,-11.61983 -8.44259,-11.564807 -0.21862,0.07285 -0.33618,5.343207 -0.43251,19.392613 l -0.13229,19.292569 -1.19063,0.05144 c -0.65484,0.02829 -1.33945,-0.0114 -1.52135,-0.08819 z"
           id="path429" /><path
           style="fill:#ffffff;fill-opacity:1;stroke:#ffffff;stroke-width:1;stroke-dasharray:none;stroke-opacity:1"
           d="m 84.600993,260.41513 c -4.875019,-2.87549 -5.856941,-3.44316 -15.986865,-9.24224 -4.147344,-2.37424 -9.088437,-5.21438 -10.980208,-6.3114 -1.891771,-1.09704 -5.820833,-3.3678 -8.73125,-5.04613 -2.910416,-1.67833 -6.779947,-3.91533 -8.598958,-4.9711 -1.81901,-1.05579 -7.53401,-4.35615 -12.699999,-7.33414 -5.165989,-2.97799 -10.46427,-6.10349 -11.773958,-6.94555 -2.42476,-1.55901 -7.7139873,-4.56727 -10.5833326,-6.0193 -0.8731249,-0.44185 -2.7185936,-1.55017 -4.1010414,-2.46293 -1.38244787,-0.91276 -4.2399477,-2.53986 -6.3499997,-3.61582 -4.6269881,-2.35937 -4.8196553,-2.51359 -3.7952096,-3.03816 0.4138744,-0.21193 1.9431263,-1.07746 3.3983346,-1.92344 2.5351077,-1.47378 11.5774041,-6.69861 17.2422677,-9.96296 1.4796,-0.85262 2.90835,-1.54879 3.175,-1.54705 0.266647,0.003 0.961065,0.27808 1.543148,0.61405 0.582083,0.33597 4.213489,2.4298 8.069791,4.65296 13.529217,7.79957 15.756924,9.08606 17.462499,10.08446 0.945886,0.55369 5.172604,2.99789 9.392708,5.43158 4.220104,2.43369 9.637448,5.56091 12.038541,6.94941 10.132033,5.85912 12.88161,7.44461 18.785416,10.8321 3.419739,1.9622 6.345634,3.61688 6.502003,3.6771 0.156342,0.0602 1.763686,-0.74811 3.571875,-1.79626 11.281145,-6.53944 23.780165,-13.75958 36.360495,-21.00381 2.32833,-1.34075 6.79318,-3.92102 9.92187,-5.73395 3.1287,-1.8129 9.77292,-5.65414 14.76494,-8.53609 l 9.07638,-5.23989 0.58092,0.52996 c 0.31948,0.29147 2.18823,1.45547 4.15276,2.58665 1.96453,1.1312 5.06016,2.91317 6.87917,3.95991 12.13588,6.98365 12.43542,7.16545 12.43542,7.54753 0,0.20807 -5.10821,3.23294 -15.61042,9.24393 -3.1287,1.79073 -7.05776,4.05853 -8.73125,5.03957 -6.37143,3.7351 -13.70764,7.90459 -15.74271,8.94731 -1.16416,0.59648 -2.89057,1.55903 -3.83646,2.13903 -0.94588,0.57996 -2.49369,1.49651 -3.43958,2.03676 -1.78459,1.01928 -2.82104,1.62695 -7.27604,4.26582 -4.16258,2.46568 -27.12019,15.78962 -34.792707,20.19271 -2.110052,1.21092 -4.726543,2.71526 -5.81443,3.34298 -1.087887,0.62773 -2.049568,1.14134 -2.137093,1.14134 -0.08752,0 -2.054939,-1.11824 -4.372027,-2.48494 z m -187.922503,-62.801 c -0.41134,-0.79462 -29.94144,-92.79483 -29.94144,-93.28172 0,-0.42079 0.34005,-0.45467 3.89254,-0.38784 l 3.89253,0.0732 4.97598,16.00729 c 4.91535,15.81222 18.57254,59.48431 20.08533,64.22761 0.4293,1.34606 0.873985,2.44739 0.988182,2.44739 0.114197,0 2.386248,-6.93539 5.049001,-15.41198 8.249597,-26.26172 20.900693,-66.18178 21.171939,-66.80729 0.249388,-0.57509 0.379111,-0.59531 3.820086,-0.59531 2.215536,0 3.627217,0.10563 3.734641,0.27945 0.09499,0.1537 5.971577,18.7492 13.059084,41.32334 7.087504,22.57415 12.999703,41.08109 13.138218,41.12654 0.138515,0.0455 6.015042,-18.40124 13.058952,-40.99261 7.043906,-22.5914 12.922312,-41.22409 13.063124,-41.40599 0.304546,-0.39342 7.4772672,-0.47807 7.7164479,-0.0911 0.081468,0.13181 -6.1067369,19.68783 -13.7515649,43.4578 -16.525723,51.38327 -16.233753,50.49419 -16.582161,50.49419 -0.189183,0 -0.189855,-0.10324 -0.0021,-0.33072 0.262197,-0.31777 29.8038479,-91.85145 29.9938822,-92.9349 0.089138,-0.50821 -0.052639,-0.52916 -3.5801722,-0.52916 h -3.672985 l -12.401349,39.6875 c -6.820741,21.82812 -12.644108,40.49117 -12.94082,41.47343 -0.296712,0.98227 -0.688549,1.78594 -0.870754,1.78594 -0.270381,0 -10.493351,-32.14039 -25.646739,-80.63177 l -0.764802,-2.44739 h -3.540469 -3.540468 l -0.377122,1.25677 c -0.207417,0.69122 -3.717194,11.7938 -7.799506,24.67239 -4.082314,12.87859 -9.800076,30.97609 -12.706137,40.21667 -3.530489,11.22608 -5.401273,16.80104 -5.637924,16.80104 -0.361133,0 -4.896004,-14.23437 -19.176564,-60.19271 -3.73043,-12.00547 -6.88969,-22.03648 -7.02057,-22.29114 -0.20879,-0.40627 -0.67464,-0.46302 -3.80052,-0.46302 -2.67497,0 -3.56196,0.0824 -3.56012,0.33072 0.006,0.77929 29.90438,93.17429 30.21445,93.37098 0.25105,0.15928 0.25667,0.21836 0.0211,0.22133 -0.17678,0.003 -0.42928,-0.20432 -0.5611,-0.45898 z m 7.314936,0.12862 c 0.190849,-0.23127 6.16591,-18.65781 13.277915,-40.94787 7.112003,-22.29005 13.000259,-40.59671 13.085013,-40.68147 0.08475,-0.0848 0.260824,-0.043 0.391264,0.0928 0.130442,0.13581 2.026441,5.84288 4.213333,12.68236 12.970057,40.56369 22.028442,68.50861 22.322786,68.86535 0.278834,0.33792 0.271015,0.38721 -0.04486,0.28278 -0.336823,-0.11131 -4.295116,-12.27262 -25.412998,-78.07782 -0.595424,-1.85539 -1.167334,-3.37344 -1.27091,-3.37344 -0.103579,0 -6.026843,18.29763 -13.162809,40.66138 -8.464208,26.52641 -13.108537,40.70572 -13.360111,40.78888 -0.32286,0.1067 -0.329147,0.059 -0.03863,-0.293 z m 176.589088,-1.3847 c -9.359145,-1.69653 -16.591287,-6.99606 -20.58201,-15.08194 -1.629251,-3.30115 -2.687037,-6.72303 -2.885048,-9.33301 -0.13344,-1.75885 -0.130668,-1.75342 0.239302,0.46947 1.08666,6.52899 3.978666,12.09665 8.512587,16.3884 4.641255,4.39333 10.368457,6.92502 17.302781,7.64868 1.873911,0.19555 2.004483,0.23614 0.789834,0.24556 -0.800364,0.006 -2.320216,-0.14552 -3.377446,-0.33716 z m 9.859738,0.21066 c 4.603538,-0.42013 9.286557,-1.77175 13.426198,-3.87514 3.66051,-1.85994 6.44377,-3.85141 9.67021,-6.9192 1.45412,-1.38263 2.75275,-2.51388 2.88583,-2.51388 0.13309,0 2.53984,2.67324 5.34834,5.94053 2.80853,3.26731 5.24246,5.99633 5.40875,6.06454 0.21375,0.0877 0.20817,0.1301 -0.019,0.14489 -0.17677,0.0114 -2.60641,-2.62827 -5.39922,-5.86611 -2.79284,-3.23784 -5.18033,-5.92735 -5.30559,-5.9767 -0.12525,-0.0493 -1.48674,1.11234 -3.02551,2.58149 -5.67928,5.42234 -12.49097,8.96977 -19.605964,10.21053 -1.244468,0.21702 -2.753095,0.37458 -3.352509,0.3501 l -1.089819,-0.0445 z m 45.576598,-1.35681 c 0.23362,-0.1483 -1.91604,-2.87914 -7.2099,-9.15918 -4.14851,-4.92136 -7.54274,-9.119 -7.54274,-9.32815 0,-0.20916 0.52469,-1.2446 1.16596,-2.30101 1.62955,-2.68438 4.20405,-7.88167 5.41994,-10.94144 1.14588,-2.88362 2.67451,-7.53512 2.67451,-8.13835 0,-0.32914 -0.58697,-0.3937 -3.58018,-0.3937 -2.63509,0 -3.60624,0.0873 -3.6789,0.33073 -1.46552,4.9089 -6.24477,15.1474 -7.0707,15.1474 -0.47363,0 -26.135774,-29.66876 -26.145643,-30.22775 -0.0032,-0.18141 0.72308,-0.77672 1.613932,-1.32291 5.987362,-3.67088 11.321921,-8.10449 13.575901,-11.28309 2.62223,-3.69786 3.55947,-6.49316 3.86866,-11.53813 l 0.2027,-3.30729 -0.0888,3.43959 c -0.10033,3.88823 -0.4993,5.6711 -1.8946,8.46666 -2.30765,4.62352 -6.70724,8.81523 -14.306023,13.63005 -1.489313,0.94368 -2.709015,1.81426 -2.710444,1.93461 -0.0026,0.19796 7.647172,9.17433 20.870307,24.4904 l 4.8859,5.65923 0.51252,-0.63215 c 1.17266,-1.44632 4.36457,-8.4007 5.75488,-12.53839 0.34226,-1.01864 0.73239,-2.00091 0.8669,-2.18281 0.17524,-0.23694 1.2858,-0.33073 3.91637,-0.33073 4.35321,0 4.12408,-0.3406 2.71764,4.03979 -1.6477,5.13167 -4.57354,11.56676 -7.23927,15.92207 -0.58684,0.95882 -1.06664,1.89002 -1.06616,2.06936 0,0.17933 3.39373,4.35147 7.54062,9.27137 4.14687,4.91992 7.53978,9.05735 7.53978,9.19427 0,0.13695 -0.20836,0.24715 -0.46302,0.24492 -0.33287,-0.003 -0.36946,-0.0634 -0.13017,-0.21537 z m 63.89401,-46.81026 0.0669,-47.02969 3.87572,-0.0731 3.87575,-0.0731 16.21284,23.62098 c 20.80797,30.31571 18.47705,27.07387 19.04373,26.48602 0.25649,-0.26609 7.93594,-11.37801 17.06549,-24.69316 9.12953,-13.31516 16.84383,-24.48031 17.14289,-24.81146 0.52474,-0.58103 0.67839,-0.59954 4.39388,-0.52917 l 3.85011,0.0729 0.0669,47.02969 c 0.0368,25.86632 -0.0228,47.02968 -0.1323,47.02968 -0.10956,0 -0.16875,-21.13677 -0.13157,-46.9706 l 0.0676,-46.97064 -3.89231,0.0732 -3.89232,0.0732 -17.2598,25.13542 c -9.4929,13.82448 -17.41585,25.16608 -17.60654,25.20355 -0.19843,0.039 -7.30623,-10.08022 -16.61861,-23.65957 -8.94953,-13.05022 -16.77765,-24.42158 -17.39579,-25.26968 l -1.12395,-1.54201 h -3.70616 -3.70617 l 0.0676,46.96354 c 0.0372,25.82995 -0.022,46.96354 -0.13158,46.96354 -0.10954,0 -0.16907,-21.16336 -0.13229,-47.02968 z m 6.80715,46.85551 c 0.18343,-0.091 0.27119,-13.26886 0.27119,-40.72599 0,-32.29897 0.0676,-40.59068 0.33073,-40.58747 0.1819,0.002 8.12933,11.19049 17.66094,24.86282 9.53161,13.67233 17.45861,24.86238 17.61553,24.8668 0.15693,0.004 8.05871,-11.12589 17.5595,-24.73399 9.50082,-13.6081 17.38728,-24.81189 17.52552,-24.89732 0.13822,-0.0854 0.33269,-0.074 0.43215,0.0255 0.24836,0.24832 0.49458,81.36387 0.24698,81.36387 -0.10914,-3e-5 -0.20026,-18.12729 -0.20248,-40.28284 -0.003,-22.15554 -0.0993,-40.43285 -0.21572,-40.61624 -0.13999,-0.22052 -6.0762,8.0666 -17.52917,24.47121 -9.5246,13.64255 -17.50581,24.84091 -17.736,24.88525 -0.29186,0.0562 -5.49068,-7.18949 -17.17855,-23.94205 -9.218,-13.21245 -17.06432,-24.43011 -17.43628,-24.92811 l -0.67627,-0.90547 -0.13229,40.57094 c -0.10626,32.5855 -0.1987,40.58435 -0.46964,40.63925 -0.18552,0.0376 -0.21529,0.008 -0.0661,-0.0661 z M 80.638008,188.56261 c -7.577611,-1.98732 -13.260209,-7.2852 -15.437053,-14.39196 -0.305567,-0.99761 -0.549021,-2.06917 -0.541009,-2.38125 0.008,-0.3121 0.247695,0.32306 0.53263,1.41147 2.133798,8.15081 8.551923,13.90698 17.270266,15.489 1.211527,0.21984 1.560301,0.34705 0.967952,0.35301 -0.509323,0.005 -1.766078,-0.21101 -2.792786,-0.48027 z m 12.255635,0.14462 c 4.442565,-0.85638 8.868147,-2.68298 12.239117,-5.05159 2.2284,-1.56577 5.99864,-5.01589 6.21038,-5.68309 0.13095,-0.41251 -2.79693,-4.00388 -14.018918,-17.1959 -7.933954,-9.32675 -14.372853,-16.67449 -14.612037,-16.67449 -1.14809,0 -7.496203,4.49347 -10.62016,7.51742 -5.061878,4.89982 -7.024203,9.12442 -7.446181,16.03049 l -0.21825,3.57188 0.08336,-3.57188 c 0.06205,-2.65885 0.226854,-4.06752 0.64475,-5.5109 1.510318,-5.21655 5.031499,-9.87126 10.613919,-14.03069 3.043732,-2.26788 6.499883,-4.32557 7.093087,-4.22304 0.597244,0.10324 28.86291,33.24709 28.87202,33.85486 0.01,0.64667 -4.41254,4.72887 -6.95624,6.42141 -3.83239,2.54998 -8.808534,4.48337 -12.322095,4.7875 -1.393058,0.12058 -1.365991,0.1056 0.437251,-0.24198 z m -36.03392,-21.71862 c 0.06356,-1.74625 0.230735,-3.59171 0.371509,-4.10104 0.224941,-0.81386 0.236754,-0.76575 0.0975,0.39688 -0.08715,0.7276 -0.254328,2.57307 -0.37151,4.10104 l -0.213061,2.77812 z m 0.65202,-5.44374 c -0.0177,-0.72933 1.20142,-4.00815 2.307228,-6.20525 2.797471,-5.55826 9.001902,-11.74139 15.80807,-15.75376 1.090607,-0.64294 1.98292,-1.31121 1.98292,-1.48506 0,-0.17384 -0.700622,-1.24614 -1.556941,-2.38288 -1.955191,-2.59548 -4.347969,-6.50995 -5.365295,-8.77738 -1.079558,-2.40613 -2.13715,-5.76193 -1.991561,-6.31931 0.101002,-0.38668 0.12627,-0.37459 0.151855,0.0726 0.05648,0.98724 1.389748,4.73162 2.488975,6.99009 1.150583,2.36399 3.464743,6.02896 5.384004,8.52675 0.634449,0.82569 1.153546,1.67688 1.153546,1.89154 0,0.21466 -1.101328,1.07388 -2.447396,1.90938 -3.477585,2.15852 -6.062075,4.1454 -8.761094,6.73522 -4.086752,3.92144 -6.841149,8.16832 -8.409141,12.96572 -0.404281,1.23693 -0.739606,2.06145 -0.74517,1.8323 z m 26.0356,-28.75365 c -3.548605,-4.27463 -6.822176,-10.0863 -7.642982,-13.5688 -0.463891,-1.96819 -0.521925,-5.1424 -0.125473,-6.8629 0.765177,-3.3207 3.440924,-6.91336 6.273281,-8.42299 2.221031,-1.18379 4.260889,-1.64551 7.056609,-1.59724 l 2.391807,0.0413 -3.042708,0.19347 c -4.327684,0.27517 -6.443178,1.14004 -8.970518,3.66738 -1.597255,1.59725 -2.963555,4.0375 -3.456191,6.17284 -0.337481,1.46282 -0.333674,4.77103 0.0072,6.28789 0.869979,3.87091 4.386577,10.10745 8.262366,14.65296 1.06463,1.24859 1.051295,1.25141 4.791657,-1.01668 6.890199,-4.17809 10.686335,-8.0221 12.107229,-12.25984 0.33991,-1.01384 0.45881,-1.20497 0.36245,-0.58269 -0.50178,3.23999 -4.054924,7.49742 -9.242662,11.07466 -2.312485,1.59458 -6.498537,4.00659 -6.953488,4.00659 -0.184812,0 -1.003194,-0.80367 -1.818614,-1.78594 z M 68.256107,119.04104 c -0.09093,-0.55019 -0.146762,-2.31003 -0.124077,-3.91076 l 0.04125,-2.91041 0.177665,3.83645 c 0.09772,2.11006 0.153551,3.8699 0.124077,3.91076 -0.02948,0.0409 -0.127985,-0.37585 -0.218911,-0.92604 z m 33.483513,-2.5044 c -0.1855,-7.17435 -3.35082,-11.95154 -9.018486,-13.61099 -1.214543,-0.35561 -1.215337,-0.35661 -0.162216,-0.20392 2.930922,0.42494 6.269117,3.10432 7.760152,6.22866 1.08558,2.27472 1.68164,5.19458 1.56511,7.66704 l -0.092,1.95244 z m 7.12186,-4.43216 c -0.0701,-1.47204 -0.94601,-4.27336 -2.06801,-6.61363 -2.62345,-5.47218 -8.050234,-9.195269 -14.647461,-10.049021 -1.381918,-0.178837 -1.49934,-0.226822 -0.621612,-0.254037 1.651318,-0.05119 5.015071,0.898094 7.516812,2.121328 1.797311,0.878806 2.706821,1.556584 4.528931,3.37499 1.92677,1.92288 2.4666,2.6647 3.4849,4.78888 1.23447,2.57517 2.19398,5.88299 1.96538,6.77544 -0.1011,0.39462 -0.13475,0.36415 -0.15894,-0.14395 z m -40.482945,-0.63934 c -0.04349,-1.13232 1.455227,-5.35603 2.525932,-7.1186 1.993847,-3.28223 5.395483,-6.199884 8.954452,-7.680421 2.029896,-0.844441 5.364083,-1.58193 6.51547,-1.441151 0.868256,0.106164 0.863706,0.110445 -0.165471,0.155425 -1.436899,0.0628 -4.187226,0.71823 -5.953124,1.418693 -6.054103,2.401427 -10.320573,7.634204 -11.618579,14.250054 -0.174389,0.88885 -0.236672,0.98901 -0.25868,0.416 z M 185.29537,90.248656 c -1.81901,-1.074716 -4.20026,-2.506728 -5.29166,-3.182247 -1.09141,-0.675518 -3.11547,-1.850239 -4.49792,-2.61049 -3.25874,-1.792094 -9.00081,-5.066305 -16.27188,-9.27849 -3.20145,-1.854625 -8.32114,-4.800295 -11.37708,-6.545926 -3.05594,-1.745633 -6.09203,-3.500988 -6.74687,-3.900789 -0.65485,-0.399804 -4.04813,-2.36896 -7.54063,-4.375906 -3.4925,-2.006944 -10.39812,-5.99195 -15.34583,-8.85557 -4.94771,-2.863617 -13.10349,-7.565815 -18.12396,-10.449329 -5.020466,-2.883514 -9.507137,-5.522314 -9.97037,-5.864 -1.068414,-0.788074 -1.755748,-0.784206 -2.81342,0.01582 -0.803963,0.608119 -6.287971,3.835157 -11.954748,7.03471 -1.455208,0.821634 -3.776927,2.154618 -5.159374,2.962185 -1.382448,0.807566 -4.954323,2.868726 -7.9375,4.580352 -2.983177,1.711627 -6.793177,3.917172 -8.466666,4.901211 -3.526568,2.073682 -12.63496,7.308217 -16.668749,9.579424 -1.527969,0.860316 -3.313907,1.900277 -3.96875,2.311022 -0.654844,0.410744 -4.048125,2.383297 -7.540625,4.383449 -3.4925,2.000152 -8.016875,4.609285 -10.054166,5.798071 -2.037292,1.188786 -4.716198,2.741658 -5.9531248,3.450828 -1.236927,0.709168 -4.8088018,2.767655 -7.9374996,4.574416 -10.4748192,6.049004 -11.5830873,6.672677 -11.8573256,6.672677 -0.150098,0 -0.609465,-0.274029 -1.02081,-0.608952 -0.411347,-0.334922 -4.438843,-2.734294 -8.949988,-5.331938 -4.511146,-2.597645 -9.571302,-5.518597 -11.244791,-6.491007 -4.236712,-2.461813 -11.882943,-6.878386 -22.437439,-12.960193 -2.679866,-1.544217 -3.760528,-2.30415 -3.702809,-2.60386 0.04483,-0.232778 1.450115,-1.212302 3.122856,-2.176724 1.672743,-0.964425 6.136976,-3.538125 9.920517,-5.719334 3.783542,-2.181211 11.165416,-6.445943 16.404166,-9.477184 5.23875,-3.031241 11.43,-6.605751 13.758333,-7.943355 4.4265686,-2.543018 14.25422239,-8.224636 18.7854155,-10.86033 1.4552082,-0.846463 3.1816144,-1.835253 3.8364581,-2.197314 0.6548437,-0.362059 2.5598434,-1.45787 4.2333334,-2.435133 1.673489,-0.977264 3.497728,-2.031584 4.053863,-2.342932 0.556136,-0.311352 2.877855,-1.657432 5.159375,-2.991295 2.281521,-1.333865 4.922126,-2.860878 5.868011,-3.393363 0.945885,-0.532487 3.624791,-2.074114 5.953125,-3.425838 C 39.481745,7.0515953 44.994613,3.8626414 52.07767,-0.22217057 55.424649,-2.15238 60.484805,-5.0727422 63.322461,-6.711865 c 2.837656,-1.6391227 7.123906,-4.110717 9.525,-5.49243 2.401093,-1.381714 4.722812,-2.718374 5.159375,-2.970352 0.436562,-0.251981 2.678458,-1.545029 4.981998,-2.873441 2.303515,-1.328412 4.492466,-2.65461 4.864311,-2.947104 0.371845,-0.292497 0.782743,-0.53181 0.913104,-0.53181 0.265244,0 1.288758,0.576858 9.613502,5.418273 3.201459,1.86187 7.011459,4.065447 8.466669,4.896839 3.9406,2.2513446 24.85342,14.3291446 35.05729,20.246667 1.81901,1.054896 5.74807,3.316824 8.73125,5.026506 4.82139,2.763181 7.16621,4.119618 13.49375,7.805941 0.94588,0.551056 5.70838,3.296314 10.58333,6.100572 4.87495,2.804258 11.42338,6.585529 14.55208,8.402822 3.1287,1.817296 8.42698,4.87408 11.77396,6.792854 3.34698,1.918774 7.5737,4.35519 9.39271,5.414256 1.81901,1.059066 3.70268,2.152084 4.18592,2.428928 0.48326,0.276841 2.44779,1.41325 4.36562,2.525352 1.91786,1.112099 6.58262,3.799956 10.36616,5.973011 3.78355,2.173057 7.04427,4.108722 7.24607,4.301477 0.54163,0.517342 0.18386,1.114128 -0.9507,1.585806 -0.55203,0.229502 -1.77761,0.870929 -2.72349,1.42539 -6.74465,3.953602 -10.28941,6.010756 -12.7,7.37027 -1.52797,0.86174 -5.04031,2.877619 -7.80521,4.479729 -8.42907,4.8842 -13.02348,7.542738 -17.72708,10.257686 -2.47385,1.427925 -4.73276,2.758728 -5.01981,2.957341 -0.28704,0.198609 -0.64423,0.35185 -0.79375,0.340537 -0.14951,-0.01132 -1.76014,-0.899882 -3.57915,-1.974599 z M 83.975994,-32.397921 c -4.269973,-0.552579 -8.213886,-2.36533 -10.886514,-5.003789 -4.131757,-4.078938 -6.064892,-9.864325 -6.056052,-18.124248 0.0062,-5.802434 0.686736,-9.183835 2.682634,-13.329517 1.687806,-3.505748 4.01271,-5.955184 7.240314,-7.628139 2.309027,-1.196832 6.040051,-2.294289 7.201731,-2.118341 0.718396,0.108815 0.717312,0.11077 -0.08218,0.149897 -0.445532,0.0218 -1.739254,0.283022 -2.874938,0.580488 -7.711818,2.019916 -12.300572,7.759858 -13.633646,17.053945 -0.652996,4.552633 -0.157231,11.792598 1.059127,15.467049 2.762271,8.344455 8.396714,12.308305 18.402048,12.945903 3.138144,0.19998 3.221514,0.217935 1.032484,0.22239 -1.309688,0.0027 -3.147933,-0.09437 -4.085008,-0.215638 z m 9.026022,-0.359478 c 2.773151,-0.401252 7.555994,-1.616808 8.089714,-2.055993 0.18219,-0.149913 0.33073,-0.851794 0.33073,-1.562671 0,-1.459918 -0.10528,-1.509959 -1.868091,-0.887997 -1.432587,0.505441 -4.369805,1.192765 -4.961361,1.160973 -0.245612,-0.0132 0.446379,-0.231267 1.537785,-0.484587 1.091406,-0.25332 2.613872,-0.670274 3.38328,-0.926568 1.915587,-0.638099 2.172967,-0.485852 2.172967,1.285253 0,1.167381 -0.10102,1.508273 -0.51223,1.728337 -1.05484,0.564539 -6.630935,1.837259 -8.64362,1.972877 l -2.088938,0.140753 z m -70.682799,-0.477415 c 0.01794,-0.827629 18.149045,-44.74645 18.513662,-44.845494 0.266753,-0.07246 0.296561,-0.03604 0.09091,0.111078 -0.442216,0.316367 -18.399147,44.502395 -18.209925,44.808563 0.08722,0.141121 0.03249,0.256583 -0.121621,0.256583 -0.15411,0 -0.276971,-0.148828 -0.273029,-0.33073 z m 3.461337,0 c 0.217056,-0.181901 1.565518,-3.307291 2.996586,-6.945312 1.431065,-3.63802 2.787269,-6.763411 3.013784,-6.945312 0.313581,-0.25182 2.860302,-0.330729 10.673926,-0.330729 h 10.262079 l 0.380309,0.595312 c 0.209169,0.327422 1.473708,3.33375 2.810089,6.680729 1.336379,3.346979 2.599478,6.353307 2.80689,6.680729 0.20741,0.327422 0.264137,0.595313 0.126059,0.595313 -0.257601,0 -0.47702,-0.506754 -3.952386,-9.128125 l -2.02647,-5.027083 -10.287857,-0.06929 c -7.204201,-0.04852 -10.393245,0.01818 -10.639459,0.222519 -0.193383,0.160494 -1.507111,3.227766 -2.919396,6.816162 -2.627029,6.674865 -2.86566,7.185813 -3.356044,7.185813 -0.155516,0 -0.105166,-0.148828 0.11189,-0.33073 z m 36.110866,-0.03372 c 0.186989,-0.487283 -17.522345,-44.125825 -18.07864,-44.548571 -0.391853,-0.297783 -0.393094,-0.330729 -0.01246,-0.330729 0.2756,0 0.698375,0.66771 1.214567,1.918229 4.861094,11.776363 17.249242,42.595626 17.249242,42.912679 0,0.227062 -0.115327,0.41284 -0.256281,0.41284 -0.140951,0 -0.193344,-0.164002 -0.116428,-0.364448 z m 48.11952,0.03372 c -0.0694,-0.181901 -0.0954,-10.322062 -0.0578,-22.533693 0.0599,-19.465792 0.11724,-22.217913 0.46519,-22.324218 0.32031,-0.09786 0.33306,-0.05362 0.0662,0.22932 -0.25916,0.274706 -0.33073,5.143942 -0.33073,22.500607 0,17.472464 0.0699,22.178216 0.33073,22.283485 0.25905,0.104527 0.25725,0.137981 -0.008,0.15434 -0.18646,0.01148 -0.39579,-0.127939 -0.46519,-0.309841 z m 3.31777,-19.027956 c 0.0963,-14.098799 0.21386,-19.385957 0.43251,-19.458804 0.16516,-0.05501 3.96431,5.149156 8.44259,11.564823 4.59015,6.575893 8.29083,11.631061 8.48265,11.587403 0.18717,-0.04259 3.94846,-5.247476 8.35845,-11.566406 4.41,-6.318929 8.167,-11.537835 8.3489,-11.59757 0.26255,-0.08621 0.33073,3.840143 0.33073,19.042818 0,14.542772 0.0764,19.227825 0.3175,19.468922 0.21241,0.212412 0.22177,0.3175 0.0283,0.3175 -0.15907,0 -0.36147,-0.188331 -0.44979,-0.418516 -0.0884,-0.230182 -0.1606,-8.862213 -0.1606,-19.18229 0,-10.320075 -0.0893,-18.760394 -0.19844,-18.756262 -0.10914,0.0041 -3.35359,4.542631 -7.2099,10.085554 -10.02212,14.405485 -9.21432,13.354415 -9.80643,12.75952 -0.27115,-0.272415 -3.97992,-5.4864 -8.24172,-11.586633 -4.2618,-6.100235 -7.89755,-11.140548 -8.07945,-11.200695 -0.26254,-0.08681 -0.33073,3.849576 -0.33073,19.094983 0,10.562386 -0.0893,19.20436 -0.19844,19.204384 -0.10914,2.6e-5 -0.1389,-8.711404 -0.0661,-19.358731 z m 37.56422,19.184502 c 0.182,-0.09026 0.27119,-7.473277 0.27119,-22.44769 0,-14.974413 -0.0892,-22.357428 -0.27119,-22.447691 -0.14915,-0.07397 -0.11938,-0.103738 0.0661,-0.06615 0.27022,0.05475 0.33735,4.534852 0.33735,22.513837 0,17.978984 -0.0671,22.459086 -0.33735,22.513836 -0.18552,0.03759 -0.21529,0.0078 -0.0661,-0.06615 z m -67.859011,-2.906016 c -6.068478,-1.28188 -10.061911,-5.300353 -11.794802,-11.868758 -0.442354,-1.67672 -0.575831,-3.079049 -0.642178,-6.746875 l -0.08376,-4.630208 0.218184,4.630208 c 0.249184,5.288174 0.764058,7.72374 2.293223,10.847916 1.318622,2.694022 3.535047,4.900086 6.172871,6.144014 2.83717,1.337932 4.100963,1.593239 8.863542,1.790586 l 4.233333,0.175416 -3.704167,0.02447 c -2.349394,0.0155 -4.381552,-0.118626 -5.556249,-0.366762 z M 33.275906,-50.657617 c -0.293082,-0.474218 8.641127,-22.762244 9.088016,-22.671724 0.564613,0.114363 9.344649,22.206226 8.994714,22.632028 -0.365535,0.444786 -17.808704,0.483077 -18.08273,0.0397 z m 17.967398,-0.172413 c 0.195302,-0.316008 -8.661368,-22.10387 -8.955217,-22.030284 -0.349625,0.08755 -8.90798,21.678607 -8.716115,21.989051 0.178374,0.288613 17.493471,0.329015 17.671332,0.04123 z m 79.133676,-3.183284 c -0.15508,-0.104349 -3.82715,-5.368946 -8.16018,-11.699102 -4.33302,-6.330156 -8.11863,-11.717734 -8.41248,-11.972395 -0.29382,-0.254662 -0.41198,-0.463021 -0.26257,-0.463021 0.41399,0 1.22492,1.125529 9.29341,12.89922 4.11398,6.003165 7.57677,10.974686 7.69512,11.047819 0.11832,0.07314 3.93797,-5.285028 8.48809,-11.907032 5.05958,-7.36342 8.43415,-12.036882 8.68799,-12.031961 0.35309,0.0069 0.34745,0.04746 -0.0377,0.272005 -0.24905,0.145179 -3.98213,5.410072 -8.29579,11.699766 -4.31366,6.289693 -8.03897,11.640248 -8.27847,11.890117 -0.2395,0.24987 -0.56232,0.368933 -0.71739,0.264584 z m -59.491979,-6.893602 c 0.327113,-3.865653 2.160934,-7.864694 4.743818,-10.344906 2.673281,-2.567017 7.010315,-4.29296 10.580099,-4.210389 1.099344,0.02543 0.971154,0.06771 -0.758533,0.250209 -8.115673,0.856265 -12.828005,5.407897 -14.326184,13.837625 -0.366221,2.060591 -0.375555,2.078829 -0.2392,0.467461 z m 28.2885,-12.644382 c -1.89349,-0.703598 -5.373793,-1.43743 -7.8731,-1.660069 -1.993291,-0.177565 -2.170668,-0.224592 -0.958956,-0.254246 1.907858,-0.04669 5.461079,0.574473 8.091567,1.414549 2.938118,0.938329 2.989448,0.927206 2.989448,-0.647877 0,-1.550376 -0.014,-1.561094 -3.300995,-2.513605 -3.224133,-0.93432 -5.25735,-1.245137 -9.531297,-1.457055 l -3.704166,-0.183666 2.846017,-0.04416 c 3.333432,-0.05172 7.063978,0.457491 10.389711,1.418174 3.35806,0.970018 3.56531,1.139129 3.56531,2.90939 0,1.408978 -0.0201,1.448594 -0.7276,1.430467 -0.40018,-0.01027 -1.203856,-0.195611 -1.785939,-0.411906 z"
           id="path427" /><path
           style="fill:#ffffff;fill-opacity:1;stroke:#ffffff;stroke-width:1;stroke-dasharray:none;stroke-opacity:1"
           d="m 85.126508,261.09259 c -3.625077,-2.1473 -5.382932,-3.16457 -11.749881,-6.7996 -5.401796,-3.08401 -14.193336,-8.15168 -31.88229,-18.37772 -5.966354,-3.44919 -13.705416,-7.91626 -17.197915,-9.92682 -3.4925,-2.01057 -7.183438,-4.214 -8.202083,-4.89649 -1.767065,-1.18396 -6.2323902,-3.7239 -11.3764588,-6.47115 -1.3093435,-0.69927 -3.3929371,-1.95506 -4.63020809,-2.79067 -1.23727101,-0.83558 -3.14255131,-1.93453 -4.23395751,-2.44208 -2.760964,-1.28397 -6.1183016,-3.25233 -5.9072886,-3.46334 0.096692,-0.0967 0.3640616,-0.006 0.5941512,0.2013 0.2300896,0.20738 2.1447521,1.25902 4.2548041,2.33693 2.110052,1.07791 4.96755183,2.70663 6.3499997,3.61939 1.3824478,0.91276 3.2279165,2.02108 4.1010414,2.46293 2.8693453,1.45203 8.1585726,4.46029 10.5833326,6.0193 1.309688,0.84206 6.607969,3.96756 11.773958,6.94555 5.165989,2.97799 10.880989,6.27835 12.699999,7.33414 1.819011,1.05577 5.688542,3.29277 8.598958,4.9711 2.910417,1.67833 6.839479,3.94909 8.73125,5.04613 1.891771,1.09702 6.832864,3.93716 10.980208,6.3114 10.129924,5.79908 11.111846,6.36675 15.986865,9.24224 2.317088,1.3667 4.284503,2.48494 4.372027,2.48494 0.08752,0 1.049206,-0.51361 2.137093,-1.14134 1.087887,-0.62772 3.704378,-2.13206 5.81443,-3.34298 7.672517,-4.40309 30.630127,-17.72703 34.792707,-20.19271 4.455,-2.63887 5.49145,-3.24654 7.27604,-4.26582 0.94589,-0.54025 2.4937,-1.4568 3.43958,-2.03676 0.94589,-0.58 2.6723,-1.54255 3.83646,-2.13903 2.03507,-1.04272 9.37128,-5.21221 15.74271,-8.94731 1.67349,-0.98104 5.60255,-3.24884 8.73125,-5.03957 10.23702,-5.85919 15.61042,-9.03406 15.61042,-9.2234 0,-0.10234 -0.14883,-0.34441 -0.33073,-0.53792 -0.1819,-0.19352 -0.004,-0.14478 0.3946,0.10832 0.39893,0.25307 0.66709,0.55441 0.59589,0.66958 -0.0712,0.11517 -1.64775,1.09532 -3.50345,2.1781 -5.51691,3.21903 -11.65471,6.77312 -14.61881,8.46503 -1.52797,0.87217 -3.75783,2.17506 -4.95525,2.89531 -1.19743,0.72025 -2.98336,1.75879 -3.96875,2.30788 -0.98539,0.54909 -2.74468,1.58969 -3.90951,2.31246 -1.16483,0.72276 -2.47452,1.49838 -2.91042,1.7236 -4.5154,2.33291 -10.16241,5.38837 -11.29382,6.11081 -0.77274,0.4934 -2.83371,1.71326 -4.57996,2.71082 -1.74625,0.99753 -6.21109,3.62333 -9.92188,5.83515 -3.71078,2.21181 -9.24718,5.44615 -12.30312,7.18745 -5.30696,3.02393 -9.87742,5.66233 -20.820246,12.01886 -2.71989,1.57996 -4.992899,2.87263 -5.05116,2.87263 -0.05823,0 -1.881003,-1.05148 -4.050586,-2.33664 z M 188.27982,92.476614 c -0.41966,-0.419658 -8.32813,-5.136959 -11.58341,-6.909352 -1.60073,-0.871546 -3.02948,-1.675921 -3.175,-1.787504 -0.14552,-0.111583 -4.78895,-2.799601 -10.31875,-5.973376 -5.52979,-3.173775 -11.42338,-6.562563 -13.09687,-7.530642 -6.09222,-3.52422 -14.04048,-8.108952 -20.6375,-11.904175 -3.71078,-2.134785 -11.68797,-6.739008 -17.72708,-10.231603 -6.03912,-3.492596 -13.42099,-7.753575 -16.404167,-9.468842 -2.983177,-1.715267 -5.611918,-3.281389 -5.841656,-3.480271 -0.599519,-0.518991 -1.048252,-0.449617 -1.816788,0.280876 -0.371766,0.353362 -3.414368,2.214219 -6.761347,4.135237 -8.680481,4.982209 -11.307055,6.501434 -14.155208,8.187435 -1.382447,0.818359 -4.180416,2.419953 -6.217708,3.559098 -2.037291,1.139145 -4.894791,2.789545 -6.349999,3.667554 -1.455209,0.878009 -3.836458,2.268106 -5.291667,3.089103 -5.754695,3.24668 -9.979543,5.67614 -17.594791,10.117719 -8.456617,4.932304 -13.22852,7.693448 -22.7541651,13.166123 -15.9995571,9.192072 -17.5942166,10.115489 -17.9139312,10.373378 -0.1755245,0.141584 -0.4508446,0.176028 -0.6118198,0.07654 -0.1660579,-0.102629 0.544359,-0.664959 1.6420544,-1.299773 1.0641065,-0.615387 4.0778639,-2.350138 6.6972388,-3.855003 4.9360955,-2.835852 9.1421898,-5.267425 17.7270829,-10.248154 2.764895,-1.604118 7.467864,-4.313271 10.451041,-6.020339 2.983177,-1.707068 5.959739,-3.439697 6.614583,-3.850285 0.654843,-0.410589 2.440781,-1.45042 3.96875,-2.310736 4.033789,-2.271207 13.142181,-7.505742 16.668749,-9.579424 1.673489,-0.984039 5.483489,-3.189584 8.466666,-4.901211 2.983177,-1.711626 6.555052,-3.772786 7.9375,-4.580352 1.382447,-0.807567 3.704166,-2.140551 5.159374,-2.962185 5.666777,-3.199553 11.150785,-6.426591 11.954748,-7.03471 1.057672,-0.800036 1.745006,-0.803904 2.81342,-0.01582 0.463233,0.341686 4.949904,2.980486 9.97037,5.864 5.02047,2.883514 13.17625,7.585712 18.12396,10.449329 4.94771,2.86362 11.85333,6.848626 15.34583,8.85557 3.4925,2.006946 6.88578,3.976102 7.54063,4.375906 0.65484,0.399801 3.69093,2.155156 6.74687,3.900789 3.05594,1.745631 8.17563,4.6913 11.37708,6.545926 7.27107,4.212185 13.01314,7.486396 16.27188,9.27849 1.38245,0.760251 3.40651,1.934872 4.49792,2.610265 4.71855,2.919987 8.83361,5.194972 9.16606,5.067401 0.52935,-0.203131 0.4363,0.05021 -0.1297,0.353131 -0.32565,0.174276 -0.57922,0.170908 -0.76025,-0.01011 z"
           id="path425" /><path
           style="fill:#ffffff;fill-opacity:1;stroke:#ffffff;stroke-width:1;stroke-dasharray:none;stroke-opacity:1"
           d="m 83.563085,231.32993 c -2.619375,-1.50079 -6.727031,-3.86572 -9.128124,-5.25542 -2.401094,-1.38967 -6.687344,-3.86736 -9.525,-5.50597 -15.303896,-8.83733 -29.684941,-17.14114 -35.189581,-20.319 -12.195114,-7.04027 -14.401437,-8.2578 -14.964291,-8.2578 -0.313605,0 -1.629074,0.6115 -2.923262,1.3589 -10.1115698,5.83946 -12.988297,7.49879 -17.1881762,9.91431 -4.4222932,2.54343 -6.1587988,3.26001 -5.8621108,2.41897 0.06417,-0.1819 0.335336,-0.31033 0.602594,-0.2854 0.6548304,0.061 0.77139,-0.003 13.6058929,-7.43119 6.181095,-3.57762 11.4555241,-6.50476 11.7209511,-6.50476 0.670163,0 0.512569,-0.0874 16.46361,9.12903 7.858124,4.54035 17.383124,10.03927 21.166665,12.2198 3.783542,2.18051 13.521256,7.8019 21.639365,12.49196 l 14.760209,8.52741 4.554379,-2.62614 c 3.824049,-2.20504 11.418014,-6.59382 24.133544,-13.94746 1.30969,-0.75742 4.82203,-2.78082 7.80521,-4.49644 2.98318,-1.71561 8.10286,-4.66984 11.37708,-6.56494 3.27422,-1.89511 7.44141,-4.30057 9.26042,-5.34549 1.81901,-1.04489 6.01339,-3.46694 9.32087,-5.38228 7.60077,-4.40158 7.28107,-4.25588 7.83542,-3.57119 0.24117,0.29784 3.77225,2.4552 7.84683,4.79409 16.52064,9.48322 16.65187,9.56112 16.44864,9.76432 -0.0735,0.0735 -3.68551,-1.91955 -8.02661,-4.42913 -4.34107,-2.50957 -9.73685,-5.6225 -11.9906,-6.91761 -2.25377,-1.29511 -4.2872,-2.52621 -4.51876,-2.73576 -0.23154,-0.20955 -0.49517,-0.381 -0.58582,-0.381 -0.0907,0 -1.56956,0.81724 -3.28646,1.8161 -1.71691,0.99885 -5.86008,3.39616 -9.20705,5.32736 -3.34698,1.93119 -7.63323,4.40708 -9.525,5.50193 -1.89177,1.09487 -4.92787,2.84784 -6.74688,3.89554 -1.81901,1.04767 -4.8551,2.79844 -6.74687,3.89062 -1.89177,1.09214 -5.76131,3.32541 -8.59896,4.96278 -2.83766,1.63738 -7.48109,4.3183 -10.31875,5.95763 -15.983082,9.23343 -18.614575,10.71671 -19.011106,10.71589 -0.239686,0 -2.578894,-1.22883 -5.198269,-2.72966 z M -103.27503,198.40296 c -0.16878,-0.10739 -7.12287,-21.37592 -15.45352,-47.26339 -14.36161,-44.62862 -15.12131,-47.08666 -14.65766,-47.42569 0.66268,-0.48456 7.23514,-0.50699 7.86274,-0.0268 0.26503,0.20278 3.13878,9.03162 7.42791,22.82032 13.29118,42.72854 18.559497,59.3799 18.72751,59.19133 0.09275,-0.10408 2.858254,-8.76175 6.145559,-19.23925 13.761211,-43.86055 19.736125,-62.43469 20.190917,-62.76724 0.640919,-0.46865 6.694675,-0.46529 7.336567,0.004 0.31455,0.23001 4.613987,13.55537 13.293336,41.2004 7.05563,22.47325 12.873187,40.90521 12.927908,40.95996 0.117108,0.1171 -0.815101,3.07194 13.992275,-44.35171 6.466408,-20.70999 11.838162,-37.73593 11.937229,-37.83542 0.233839,-0.23483 6.8791271,-0.40508 7.7064501,-0.19744 0.4107047,0.10308 0.6331902,0.34983 0.6331902,0.70224 0,0.97772 -29.9546233,93.75942 -30.3806503,94.10128 -0.282919,0.22702 -1.50614,0.33073 -3.901061,0.33073 -2.471026,0 -3.567525,-0.0965 -3.758372,-0.33073 -0.148206,-0.1819 -5.411512,-16.34463 -11.696239,-35.91718 -6.284724,-19.57255 -12.117683,-37.72958 -12.962127,-40.34896 -0.844447,-2.61937 -1.603738,-4.5839 -1.687314,-4.36562 -0.08358,0.21828 -5.882815,18.37531 -12.887192,40.34895 -7.004378,21.97365 -12.857657,40.10091 -13.007284,40.28281 -0.30167,0.36674 -7.235792,0.48012 -7.790172,0.12737 z m 20.661693,-41.13778 c 7.138992,-22.37383 13.06473,-40.67969 13.168309,-40.67969 0.103576,0 0.675486,1.51805 1.27091,3.37344 0.595424,1.85539 6.4732,20.16125 13.06173,40.67968 l 11.979142,37.30625 3.72646,0.0733 3.72646,0.0733 1.206093,-3.64514 c 5.15925,-15.59269 28.9743049,-90.13184 28.8573379,-90.32109 -0.2391807,-0.38701 -7.4119019,-0.30236 -7.7164479,0.0911 -0.140812,0.1819 -6.019218,18.81459 -13.063124,41.40599 -7.04391,22.59137 -12.920437,41.03807 -13.058952,40.99261 -0.138515,-0.0455 -6.050714,-18.55239 -13.138218,-41.12654 -7.087507,-22.57414 -12.964093,-41.16964 -13.059084,-41.32334 -0.107424,-0.17382 -1.519105,-0.27945 -3.734641,-0.27945 -3.440975,0 -3.570698,0.0202 -3.820086,0.59531 -0.271246,0.62551 -12.922342,40.54557 -21.171939,66.80729 -2.662753,8.47659 -4.934804,15.41198 -5.049001,15.41198 -0.114197,0 -0.558882,-1.10133 -0.988182,-2.44739 -1.51279,-4.7433 -15.16998,-48.41539 -20.08533,-64.22761 l -4.97598,-16.00729 -3.89253,-0.0732 c -3.55249,-0.0668 -3.89254,-0.0329 -3.89254,0.38784 0,0.48999 29.53162,92.4902 29.94528,93.28892 0.21879,0.42241 0.62359,0.46273 3.983939,0.39688 l 3.74041,-0.0734 z m 163.398297,39.5021 c -6.462852,-1.18213 -11.630871,-3.79582 -15.934395,-8.05876 -9.05416,-8.96879 -11.07558,-23.9668 -4.695238,-34.83654 3.036203,-5.17258 8.801507,-10.68708 15.205675,-14.54425 1.018646,-0.61352 1.887228,-1.14501 1.930181,-1.18109 0.04295,-0.0361 -0.627904,-1.00281 -1.490792,-2.14828 -2.007455,-2.66484 -4.382527,-6.56502 -5.526492,-9.07521 -3.74717,-8.22239 -3.420251,-17.10823 0.867581,-23.58136 3.883163,-5.862214 10.714289,-9.004679 18.771605,-8.635333 6.112589,0.280199 10.105545,1.923848 13.905895,5.724183 3.99878,3.99879 5.83707,8.75022 5.8407,15.09652 0.003,4.98124 -1.20034,8.7797 -3.96134,12.50596 -2.36564,3.19267 -7.415268,7.45697 -12.448912,10.51279 -1.318393,0.80036 -2.37027,1.6007 -2.337541,1.77852 0.03276,0.17782 5.703808,6.89259 12.602343,14.92171 11.66228,13.57358 12.56932,14.56317 12.9205,14.09647 1.16396,-1.54678 4.26471,-8.40602 5.66203,-12.52508 0.41675,-1.22846 0.90636,-2.32796 1.08807,-2.44335 0.18169,-0.11536 1.88516,-0.21159 3.7855,-0.21381 4.68009,-0.006 4.63333,-0.0459 3.6884,3.19154 -1.57107,5.38255 -4.81258,12.68846 -7.77896,17.53251 -0.94184,1.53804 -1.05704,1.87481 -0.76578,2.23866 0.18856,0.23556 3.64683,4.35258 7.68503,9.14895 4.0382,4.79639 7.34219,8.87664 7.34219,9.06724 0,0.55565 -0.91207,0.64421 -5.81232,0.56431 l -4.62168,-0.0754 -5.03561,-5.86717 c -2.76958,-3.22691 -5.13762,-5.87605 -5.26235,-5.88697 -0.1247,-0.0109 -1.421,1.11574 -2.88067,2.50364 -5.32678,5.06489 -11.64532,8.4505 -18.588412,9.96013 -3.602143,0.78322 -10.515017,0.89528 -14.155208,0.22945 z m 13.117353,-0.4209 c 7.034817,-1.22676 13.875177,-4.79835 19.529897,-10.19725 1.53877,-1.46915 2.90026,-2.63083 3.02551,-2.58149 0.12526,0.0493 2.51275,2.73886 5.30559,5.9767 l 5.07783,5.88698 h 4.88545 c 2.87621,0 4.88545,-0.10239 4.88545,-0.24897 0,-0.13692 -3.39291,-4.27435 -7.53978,-9.19427 -4.14689,-4.9199 -7.54017,-9.09204 -7.54062,-9.27137 0,-0.17934 0.47932,-1.11054 1.06616,-2.06936 2.66573,-4.35531 5.59157,-10.7904 7.23927,-15.92207 1.40644,-4.38039 1.63557,-4.03979 -2.71764,-4.03979 -2.63057,0 -3.74113,0.0938 -3.91637,0.33073 -0.13451,0.1819 -0.52464,1.16417 -0.8669,2.18281 -1.39031,4.13769 -4.58222,11.09207 -5.75488,12.53839 l -0.51252,0.63215 -4.8859,-5.65923 C 97.959725,149.39427 90.310198,140.4179 90.312553,140.21994 c 0.0026,-0.12035 1.221131,-0.99093 2.710444,-1.93461 7.598123,-4.8144 11.996653,-9.00492 14.306633,-13.63005 1.53953,-3.08247 1.8887,-4.7756 1.88253,-9.12812 -0.006,-4.56438 -0.39163,-6.35731 -2.15984,-10.05417 -1.01741,-2.12711 -1.55274,-2.86335 -3.48218,-4.78888 -3.939862,-3.931866 -8.195949,-5.563284 -14.583097,-5.589896 -5.284575,-0.02201 -8.728969,0.916268 -12.476368,3.398697 -3.471645,2.299759 -5.951455,5.624579 -7.387497,9.904839 -0.708088,2.11053 -0.859711,3.01837 -0.974947,5.83747 -0.148677,3.6372 0.11371,5.71099 1.135409,8.97376 1.237406,3.95163 3.56974,8.26148 6.76938,12.50894 0.856319,1.13674 1.556941,2.20904 1.556941,2.38288 0,0.17385 -0.892313,0.84212 -1.98292,1.48506 -4.871699,2.87197 -10.159635,7.49995 -13.163227,11.52043 -6.624192,8.86679 -7.526006,19.91193 -2.46331,30.16982 5.142682,10.41996 15.656157,16.12731 28.697217,15.57859 1.65989,-0.0699 4.001955,-0.29858 5.204592,-0.50832 z m -11.439471,-7.65651 c -8.839628,-1.60404 -15.207199,-7.39365 -17.319775,-15.74776 -0.480057,-1.89836 -0.542893,-2.72272 -0.422817,-5.54683 0.276693,-6.50753 2.324634,-10.89014 7.371775,-15.7757 3.123957,-3.02395 9.47207,-7.51742 10.62016,-7.51742 0.239184,0 6.678083,7.34774 14.612037,16.67449 11.133798,13.08835 14.149228,16.78535 14.020828,17.18992 -0.2077,0.65442 -3.71578,3.90467 -5.90966,5.47532 -3.60804,2.58307 -8.122624,4.4523 -12.667477,5.24486 -2.72087,0.47448 -7.699216,0.47598 -10.305071,0.003 z m 10.686123,-0.42915 c 5.913914,-1.06694 11.362425,-3.94595 16.053175,-8.48249 l 2.09592,-2.02703 -2.11453,-2.47089 c -1.163,-1.35898 -7.55708,-8.87047 -14.209098,-16.69222 -6.652022,-7.82174 -12.168981,-14.22135 -12.259918,-14.22135 -0.336815,0 -4.253722,2.53442 -6.559762,4.24447 -2.589366,1.92016 -5.675555,4.93202 -7.182566,7.00958 -4.073866,5.61623 -5.156171,13.75788 -2.652782,19.95567 1.1039,2.73299 2.334038,4.54798 4.675974,6.89914 2.562812,2.57292 5.562964,4.32157 9.061023,5.28124 3.757827,1.03095 9.043487,1.23436 13.092564,0.50388 z m -9.802441,-56.13096 c -4.958437,-6.36484 -7.270226,-11.18716 -7.521554,-15.68975 -0.157977,-2.83017 0.151527,-4.4875 1.286727,-6.89015 2.094728,-4.4335 6.44062,-6.99168 11.864789,-6.98414 6.562831,0.009 10.954067,3.58764 12.309524,10.03131 1.39528,6.63288 -0.72879,11.42798 -7.271884,16.41646 -3.002491,2.28909 -7.947871,5.29908 -8.706352,5.29908 -0.143404,0 -1.025975,-0.98226 -1.96125,-2.18281 z m 8.154061,-1.74255 c 3.563302,-2.35354 7.422118,-6.19566 8.566545,-8.52953 2.43655,-4.96894 1.08146,-12.72432 -2.822203,-16.15178 -3.437652,-3.01828 -9.705181,-3.70319 -14.28324,-1.56086 -2.209093,1.03376 -4.483271,3.33673 -5.573376,5.64393 -2.898433,6.13456 -1.025869,12.77163 6.231739,22.08767 l 1.709446,2.19428 1.762628,-0.96808 c 0.96946,-0.53244 2.953253,-1.75448 4.408461,-2.71563 z M 199.59218,195.4487 c -0.18584,-0.34721 -0.27389,-15.52545 -0.27389,-47.2092 0,-42.09946 0.0409,-46.7384 0.41576,-47.11323 0.3347,-0.33468 1.07008,-0.41507 3.77032,-0.41217 1.84499,0.002 3.62238,0.0754 3.94975,0.16313 0.42251,0.11323 5.59824,7.44596 17.83964,25.27438 13.84622,20.16572 17.3088,25.04768 17.571,24.77386 0.1796,-0.18756 7.96671,-11.47336 17.30468,-25.07956 10.56536,-15.39465 17.19505,-24.8201 17.55253,-24.95447 0.31594,-0.11875 2.21613,-0.17829 4.22262,-0.13229 2.88943,0.0662 3.70025,0.16618 3.89856,0.48051 0.36081,0.57196 0.34559,93.53449 -0.0153,94.20904 -0.25053,0.46816 -0.58616,0.51179 -3.93634,0.51179 -2.74997,0 -3.73626,-0.0889 -3.95859,-0.35682 -0.21492,-0.25895 -0.31451,-11.3388 -0.36314,-40.39909 l -0.067,-40.04232 -17.19792,24.65791 c -13.66999,19.59969 -17.30351,24.64403 -17.71271,24.59026 -0.35187,-0.0462 -5.87817,-7.74713 -17.4625,-24.33399 -9.32125,-13.34649 -17.09653,-24.41335 -17.27843,-24.59302 -0.26456,-0.26133 -0.33073,7.69236 -0.33073,39.75769 0,30.82396 -0.0733,40.15772 -0.3175,40.40188 -0.21503,0.21502 -1.45021,0.3175 -3.82714,0.3175 -3.19911,0 -3.53389,-0.0453 -3.78355,-0.51179 z m 7.66361,-40.74263 0.13229,-40.59297 0.67627,0.90547 c 0.37196,0.498 8.21828,11.71566 17.43628,24.92811 11.68787,16.75255 16.88669,23.99825 17.17855,23.94205 0.23019,-0.0443 8.2114,-11.2427 17.736,-24.88525 11.45297,-16.40461 17.38918,-24.69173 17.52917,-24.47121 0.11642,0.18338 0.2135,18.46069 0.21572,40.61624 l 0.004,40.28281 h 3.7049 3.70489 l -0.0669,-47.02968 -0.0669,-47.02969 -3.85011,-0.0729 c -3.71549,-0.0704 -3.86914,-0.0519 -4.39388,0.52917 -0.29906,0.33115 -8.01336,11.4963 -17.14289,24.81146 -9.12955,13.31515 -16.809,24.42707 -17.06549,24.69316 -0.56668,0.58785 1.76424,3.82969 -19.04373,-26.48602 l -16.21284,-23.62098 -3.87575,0.0731 -3.87572,0.0731 -0.0669,47.03715 -0.0669,47.03717 3.63873,-0.0736 3.63877,-0.0736 z M 189.13183,92.396983 c 0.83611,-0.672021 1.87931,-1.283978 21.69583,-12.727344 6.83948,-3.949565 14.8762,-8.596098 17.85938,-10.325629 2.98317,-1.729528 5.99625,-3.424184 6.69573,-3.765899 1.48132,-0.723664 1.77614,-1.240247 1.08008,-1.892588 -0.27488,-0.257622 -3.77399,-2.350551 -7.77581,-4.650954 -7.84757,-4.51108 -13.65867,-7.862512 -28.31042,-16.327432 -11.42547,-6.600962 -21.47445,-12.401718 -29.23646,-16.876664 -3.20145,-1.845707 -8.49973,-4.905536 -11.77395,-6.799622 -8.50048,-4.917403 -11.62794,-6.723655 -24.73854,-14.2877028 -3.78355,-2.1828785 -9.61761,-5.55127822 -12.96459,-7.4853294 -3.34698,-1.9340511 -7.57369,-4.3732818 -9.3927,-5.4205105 -1.81901,-1.0472287 -4.79558,-2.7675813 -6.61459,-3.8230043 -9.961877,-5.780063 -16.628874,-9.541306 -16.912507,-9.541306 -0.176398,0 -0.699717,0.283068 -1.16295,0.629042 -0.463232,0.345972 -2.806779,1.756915 -5.207873,3.135429 -2.401093,1.378513 -11.747499,6.768636 -20.76979,11.9780517 -9.022292,5.20941544 -17.892447,10.3267717 -19.711458,11.3719023 -1.81901,1.0451306 -5.986197,3.4511772 -9.260416,5.346769 -3.274218,1.895591 -7.917656,4.576645 -10.318749,5.9579 -2.401094,1.381255 -10.616406,6.123238 -18.2562495,10.537745 -7.6398434,4.414507 -16.0932805,9.296479 -18.7854155,10.848826 -28.608567,16.496358 -42.772937,24.700166 -42.9845,24.896034 -0.159102,0.147296 -0.06006,0.418846 0.264583,0.725405 0.285382,0.269492 4.864658,2.988617 10.176168,6.042507 34.746177,19.977543 37.3062485,21.492817 37.3062485,22.081068 0,0.243816 -1.0831165,-0.362381 -1.9843745,-1.110612 -0.291042,-0.241626 -2.196042,-1.39192 -4.233334,-2.556214 -2.037291,-1.164291 -7.990416,-4.596558 -13.229166,-7.62726 -5.238749,-3.030698 -10.596561,-6.125051 -11.906249,-6.876338 -8.275282,-4.747011 -15.200764,-8.760766 -15.935337,-9.235534 -1.518254,-0.981282 -1.427374,-1.566725 0.395885,-2.55033 1.320112,-0.712165 8.304339,-4.736583 34.192576,-19.702289 4.729427,-2.73403 13.9567703,-8.061809 20.5052075,-11.839511 6.5484372,-3.7777 13.8112495,-7.96866 16.1395825,-9.313246 2.328333,-1.344586 9.650677,-5.57045 16.271874,-9.390808 C 36.870744,8.0011743 44.907462,3.3572555 48.10892,1.5017141 51.310379,-0.35382723 56.787253,-3.5171881 60.279753,-5.5279737 74.50312,-13.716999 80.035843,-16.919855 83.504507,-18.97264 c 2.005091,-1.186617 4.042621,-2.387822 4.52784,-2.669342 l 0.882253,-0.511857 6.584659,3.803742 c 3.621564,2.092061 10.692311,6.176097 15.712781,9.0756394 5.02047,2.8995421 12.99766,7.5068612 17.72708,10.2384855 12.44709,7.1891865 23.45413,13.5442901 27.25209,15.7344581 1.81901,1.048967 4.8551,2.801855 6.74687,3.895309 1.89177,1.093452 6.53521,3.773779 10.31875,5.956279 3.78354,2.1825 10.7487,6.201256 15.47813,8.930573 4.72942,2.729315 12.52802,7.227297 17.3302,9.995519 4.80219,2.768221 10.10047,5.831609 11.77396,6.807527 1.67349,0.975921 5.90021,3.417414 9.39271,5.425538 10.32589,5.937202 10.05416,5.758749 10.05416,6.603039 0,0.645465 -0.24608,0.869971 -1.97995,1.806282 -1.08897,0.58806 -6.92304,3.922381 -12.96458,7.409603 -6.04155,3.487221 -15.33041,8.839712 -20.64192,11.894425 -5.31151,3.054715 -10.35063,6.017744 -11.19804,6.58451 -1.69643,1.134634 -2.62522,1.399016 -1.36967,0.389893 z M 82.769335,-32.223386 c -7.325457,-1.422836 -12.306283,-5.675857 -14.557337,-12.430198 -1.353965,-4.062608 -1.896845,-9.329716 -1.463638,-14.200459 1.276874,-14.356458 9.447157,-21.303355 23.88545,-20.30894 3.262497,0.224698 6.208209,0.807051 9.068858,1.792867 l 2.116662,0.72943 v 1.958406 c 0,1.919488 -0.0132,1.95789 -0.66145,1.93249 -0.36381,-0.01426 -1.731596,-0.34603 -3.039564,-0.737283 -3.897788,-1.16595 -6.948751,-1.558115 -10.851064,-1.394766 -3.919379,0.164062 -5.84731,0.611676 -8.404111,1.951198 -3.219212,1.686566 -5.812853,5.234601 -6.920576,9.467183 -0.769345,2.939645 -1.073283,7.519455 -0.734754,11.071508 0.838581,8.798943 4.060304,13.447614 10.725036,15.475314 1.900933,0.578347 2.666108,0.658693 6.392738,0.671261 4.567026,0.0154 7.132558,-0.353851 11.044475,-1.58963 1.30442,-0.412062 2.20967,-0.573881 2.36146,-0.422116 0.13536,0.135366 0.2105,1.067271 0.16695,2.070904 l -0.0791,1.824787 -1.59998,0.569325 c -4.674106,1.663176 -13.075315,2.418429 -17.450015,1.568719 z m 9.072404,-0.161004 c 2.614929,-0.278929 7.427753,-1.344231 8.985411,-1.988894 0.82494,-0.341418 0.85989,-0.415912 0.85989,-1.832895 0,-1.79587 -0.25175,-1.947569 -2.172967,-1.30932 -3.186377,1.058558 -5.680604,1.472769 -9.752224,1.619538 -3.274113,0.118023 -4.57782,0.05651 -6.35,-0.299632 -6.291013,-1.264251 -10.197152,-5.08739 -11.910533,-11.657449 -0.778801,-2.986365 -0.982072,-9.6188 -0.402825,-13.143669 1.293529,-7.871488 5.246621,-12.41287 12.077033,-13.874307 4.065428,-0.869844 10.590053,-0.406059 15.257488,1.084538 1.134877,0.362436 2.331298,0.660495 2.658718,0.662352 0.54531,0.0031 0.59531,-0.118337 0.59531,-1.445731 0,-1.770687 -0.20661,-1.939096 -3.571872,-2.911514 -3.846433,-1.111457 -7.439607,-1.545643 -11.377083,-1.374767 -4.134379,0.179419 -6.798101,0.826077 -9.789384,2.376519 -5.25185,2.722142 -8.560493,8.094345 -9.645941,15.661996 -0.386358,2.693646 -0.331729,8.344614 0.108704,11.244791 1.916634,12.620709 10.518058,18.672426 24.430275,17.188444 z m -69.768167,-0.355944 c -0.237519,-0.286192 1.678125,-5.229087 8.835787,-22.798793 5.02648,-12.338359 9.270605,-22.591891 9.431392,-22.785627 0.379077,-0.456758 3.416909,-0.47321 3.973592,-0.02151 0.336939,0.273391 18.013962,43.452214 18.425154,45.006247 0.07132,0.269555 -0.03622,0.595154 -0.23899,0.723553 -0.559332,0.354179 -3.517215,0.287989 -3.985101,-0.08918 -0.225656,-0.181901 -1.630082,-3.396588 -3.120948,-7.143749 l -2.710667,-6.813026 -10.357228,0.004 -10.357225,0.004 -2.74547,6.991995 c -1.510009,3.845597 -2.918733,7.058482 -3.130494,7.139744 -0.804209,0.308602 -3.71379,0.151051 -4.019802,-0.21767 z m 4.130596,-0.49448 c 0.139012,-0.181901 1.408255,-3.266688 2.82054,-6.855083 1.412285,-3.588396 2.726013,-6.655668 2.919396,-6.816162 0.246214,-0.20434 3.435258,-0.271036 10.639459,-0.222519 l 10.287857,0.06929 2.02647,5.027083 c 1.11456,2.764896 2.403316,5.949817 2.863903,7.077604 l 0.837433,2.050521 h 1.832451 c 1.483952,0 1.832451,-0.07852 1.832451,-0.41284 0,-0.317236 -12.397004,-31.158245 -17.253814,-42.92368 l -0.796391,-1.929228 -1.882473,0.07714 -1.882476,0.07715 -9.061294,22.224998 c -4.983709,12.22375 -9.064518,22.373827 -9.068463,22.555728 -0.0051,0.23322 0.52933,0.33073 1.812517,0.33073 1.144561,0 1.913459,-0.122704 2.072434,-0.33073 z m 7.367804,-17.636449 c -0.191865,-0.310444 8.36649,-21.901501 8.716115,-21.989051 0.293849,-0.07359 9.150519,21.714276 8.955217,22.030284 -0.177861,0.287782 -17.492958,0.24738 -17.671332,-0.04123 z m 17.223681,-0.674772 c -1.208717,-3.149865 -8.229539,-20.437551 -8.359497,-20.583969 -0.152164,-0.171436 -8.482443,20.228581 -8.482443,20.772654 0,0.10836 3.822737,0.197017 8.494974,0.197017 7.333024,0 8.474728,-0.05276 8.346966,-0.385702 z m 59.146387,18.853617 c -0.46006,-0.460044 -0.46006,-45.207037 0,-45.667081 0.45416,-0.454152 3.77939,-0.416152 4.24402,0.0485 0.20133,0.201298 3.97521,5.627531 8.38645,12.058295 4.41124,6.430761 8.10773,11.59411 8.21441,11.474106 0.10668,-0.120005 3.73613,-5.39741 8.06545,-11.727566 4.32933,-6.330156 8.05987,-11.658203 8.29011,-11.840104 0.54113,-0.427513 3.80881,-0.437726 4.23331,-0.01323 0.24201,0.242004 0.3175,5.708708 0.3175,22.990441 0,20.430682 -0.0414,22.688824 -0.41852,22.833541 -0.80552,0.309107 -3.47657,0.171275 -3.78063,-0.195088 -0.20963,-0.25259 -0.31488,-5.786342 -0.36311,-19.091774 l -0.0679,-18.73609 -7.9375,11.352715 c -5.44994,7.794828 -8.10334,11.375688 -8.46666,11.426028 -0.42619,0.05904 -2.07391,-2.143874 -8.46667,-11.319372 l -7.9375,-11.392685 -0.13229,18.727702 c -0.0728,10.300239 -0.22863,18.876533 -0.34634,19.058434 -0.2799,0.432467 -3.40405,0.443246 -3.83408,0.01323 z m 3.65125,-19.416005 c 0,-15.245407 0.0682,-19.181796 0.33073,-19.094983 0.1819,0.06015 3.81765,5.10046 8.07945,11.200695 4.2618,6.100233 7.97057,11.314218 8.24172,11.586633 0.59211,0.594895 -0.21569,1.645965 9.80643,-12.75952 3.85631,-5.542923 7.10076,-10.081421 7.2099,-10.085554 0.10914,-0.0041 0.20026,8.475689 0.20249,18.844048 0.003,10.368359 0.10236,19.006562 0.22254,19.196006 0.15171,0.2392 0.7366,0.320046 1.91418,0.264584 l 1.69569,-0.07986 V -55.525958 -78.01554 l -1.99557,-0.07629 -1.99559,-0.07628 -8.27993,12.050145 c -4.55395,6.627582 -8.37673,11.99031 -8.49505,11.917174 -0.11835,-0.07313 -3.58114,-5.044654 -7.69512,-11.047819 -4.11395,-6.003165 -7.83077,-11.366264 -8.25952,-11.918 l -0.7796,-1.003154 -1.88732,0.07711 -1.8873,0.07711 -0.0683,22.224998 c -0.0376,12.22375 -0.0116,22.373827 0.0578,22.555728 0.0831,0.217948 0.71546,0.33073 1.85425,0.33073 h 1.7281 z"
           id="path423"
           sodipodi:nodetypes="ssssssssccsssscsssssssssssssssssssscsssssssssssssssssssssssssssssscccssssssssssssscsssccssssssssssscssssssscsssssscsssssscssscsssccssssscscsscsssssssssssssccssssssssccsscsssssssssssscsssssssssscsscsssssssssssssscsssssssccccsssssscccccsssssccccccccsssssssssssssssssssssssssssssssssssssssscssssssssssssssssssssscsssssssssssccssssssssssssssssssssssssssssscccsssssssscsscssscccscssssssssssssssssssssssssscsssccssssssssscsscccccssssccccsscs" /><path
           style="fill:#ffffff;fill-opacity:1;stroke:#ffffff;stroke-width:1;stroke-dasharray:none;stroke-opacity:1"
           d="m 89.0688,320.2485 c -0.117714,-0.1819 -0.235427,-12.95135 -0.261541,-28.37656 l -0.04749,-28.04583 -0.613965,-0.48324 c -0.645213,-0.50781 -2.544366,-1.66338 -5.641049,-3.43238 -1.018646,-0.5819 -3.015633,-1.75464 -4.437748,-2.60609 -1.422116,-0.85143 -2.661025,-1.54808 -2.753132,-1.54808 -0.09211,0 -2.083715,-1.11686 -4.425794,-2.48187 -7.859151,-4.58058 -12.628162,-7.33978 -17.852672,-10.3291 -2.855089,-1.63359 -7.750913,-4.46299 -10.87961,-6.28756 -3.128698,-1.82456 -9.781789,-5.66242 -14.784646,-8.52857 -5.002858,-2.86613 -9.943952,-5.78149 -10.980208,-6.47857 -2.034,-1.36823 -6.238497,-3.78232 -10.8799362,-6.24689 -1.6007291,-0.84997 -3.8033853,-2.14632 -4.89479146,-2.88078 -1.74350614,-1.17329 -4.73559954,-2.80051 -10.18319814,-5.53799 -0.8713312,-0.43786 -1.4358092,-0.84559 -1.2543922,-0.90607 0.181414,-0.0605 1.6086983,0.60746 3.1717375,1.48426 1.5630419,0.8768 3.4301508,1.8451 4.1491322,2.15172 0.7189813,0.30666 2.3266055,1.24987 3.5724992,2.09603 1.2458938,0.84617 3.3365438,2.11061 4.6458873,2.80988 5.1440686,2.74725 9.6093938,5.28719 11.3764588,6.47115 1.018645,0.68249 4.709583,2.88592 8.202083,4.89649 3.492499,2.01056 11.231561,6.47763 17.197915,9.92682 17.688954,10.22604 26.480494,15.29371 31.88229,18.37772 1.236927,0.70617 3.499115,1.99773 5.027084,2.87009 1.527968,0.87236 4.325937,2.50439 6.217708,3.62675 1.89177,1.12234 3.70742,2.17951 4.034763,2.34926 0.530675,0.27517 1.13284,-0.004 5.55625,-2.57326 10.943855,-6.35724 15.525325,-9.00199 20.836065,-12.02809 3.05594,-1.7413 8.59234,-4.97564 12.30312,-7.18745 3.71079,-2.21182 8.17563,-4.83762 9.92188,-5.83515 1.74625,-0.99756 3.80722,-2.21742 4.57996,-2.71082 1.13141,-0.72244 6.77842,-3.7779 11.29382,-6.11081 0.4359,-0.22522 1.74559,-1.00034 2.91042,-1.72249 1.16483,-0.72218 3.0526,-1.83571 4.19507,-2.47452 1.14245,-0.63884 2.80932,-1.61287 3.70417,-2.16453 0.89482,-0.55168 2.87713,-1.69891 4.4051,-2.54942 1.52797,-0.85047 3.07578,-1.74619 3.43958,-1.99043 0.3638,-0.24424 3.51896,-2.08156 7.01146,-4.08292 3.4925,-2.00139 6.8421,-3.96891 7.44352,-4.37229 l 1.09355,-0.73343 3.27208,1.91469 c 1.79967,1.05307 7.26069,4.21235 12.13564,7.02064 4.87495,2.80828 10.64948,6.13936 12.83229,7.40238 2.18281,1.26304 5.99281,3.46519 8.46667,4.89368 11.70675,6.75992 12.43541,7.2092 12.43541,7.66794 0,0.3203 -1.56913,1.36144 -5.15937,3.42331 -2.83766,1.62965 -6.40953,3.68845 -7.9375,4.5751 -4.84333,2.81051 -8.92339,5.16852 -16.40417,9.48062 -7.40825,4.2703 -16.64633,9.60205 -24.73854,14.27779 -7.8174,4.517 -10.95081,6.32587 -18.00227,10.39257 -10.6239,6.12698 -20.09643,11.59838 -23.00814,13.28965 -3.5578,2.06656 -16.06635,9.28524 -25.00312,14.42932 -4.00183,2.30346 -9.77636,5.63557 -12.8323,7.40465 -11.099422,6.42549 -13.541526,7.80341 -13.83008,7.80341 -0.161634,0 -0.390208,-0.14883 -0.507947,-0.33073 z M 13.448505,105.73228 C 13.011943,105.44024 7.5729327,102.26164 1.3618154,98.668724 -8.190116,93.143259 -9.8625155,92.088452 -9.4861007,91.826798 -9.0209103,91.503432 -5.7428129,89.607642 8.5537139,81.393994 18.079359,75.921319 22.851262,73.160175 31.307879,68.227871 38.923127,63.786292 43.147975,61.356832 48.90267,58.110152 c 1.455209,-0.820997 3.836458,-2.211094 5.291667,-3.089103 1.455208,-0.878009 4.312708,-2.528409 6.349999,-3.667554 2.037292,-1.139145 4.835261,-2.740739 6.217708,-3.559098 2.848153,-1.686001 5.474727,-3.205226 14.155208,-8.187435 3.346979,-1.921018 6.389581,-3.781875 6.761347,-4.135237 0.768536,-0.730493 1.217269,-0.799867 1.816788,-0.280876 0.229738,0.198882 2.858479,1.765004 5.841656,3.480271 2.983177,1.715267 10.365047,5.976246 16.404167,9.468842 6.03911,3.492595 14.0163,8.096818 17.72708,10.231603 6.59702,3.795223 14.54528,8.379955 20.6375,11.904175 1.67349,0.968079 7.56708,4.356867 13.09687,7.530642 5.5298,3.173775 10.17323,5.861793 10.31875,5.973376 0.14552,0.111583 1.57427,0.915157 3.175,1.785718 1.60073,0.870564 4.63683,2.621248 6.74688,3.890409 4.89939,2.946913 5.09476,3.073043 4.96329,3.204501 -0.11882,0.11883 -6.92494,-3.88916 -8.82941,-5.199462 -0.64175,-0.441536 -1.61197,-0.98784 -2.15609,-1.214011 -0.54409,-0.226169 -2.23941,-1.154517 -3.76737,-2.062993 -1.52797,-0.908476 -5.15938,-2.993565 -8.0698,-4.633532 -2.91041,-1.639964 -6.24416,-3.54176 -7.40833,-4.22621 -3.11645,-1.832253 -8.47317,-4.933807 -12.83229,-7.429897 -4.81526,-2.757289 -11.31035,-6.504373 -14.41979,-8.318933 -1.30969,-0.764289 -5.89359,-3.411818 -10.18646,-5.883404 -17.61103,-10.139429 -25.703897,-14.816259 -28.810317,-16.64938 -1.802897,-1.063913 -3.380475,-1.871059 -3.505729,-1.793655 -0.125228,0.0774 -0.227701,6.499003 -0.227701,14.270222 v 14.12949 l -3.108854,1.820902 c -2.726364,1.596875 -14.216461,8.234939 -24.143228,13.948042 -12.520694,7.205972 -18.016145,10.379789 -22.886457,13.217733 -3.055937,1.780704 -8.354218,4.845529 -11.773958,6.810719 -9.528637,5.475743 -10.959999,6.313933 -11.231562,6.577123 -0.372954,0.36145 -0.719809,0.29843 -1.600729,-0.29086 z"
           id="path419" /><path
           style="fill:#ffffff;fill-opacity:1;stroke:#ffffff;stroke-width:1;stroke-dasharray:none;stroke-opacity:1"
           d="m 88.429963,319.83887 c -0.379148,-0.39317 -1.867429,-1.38689 -3.307291,-2.20831 -1.439863,-0.8214 -6.785107,-3.903 -11.878336,-6.84803 -5.093229,-2.94502 -11.165416,-6.45207 -13.49375,-7.79346 -8.381451,-4.82864 -14.857925,-8.56562 -17.065624,-9.84702 C 39.635936,291.37236 29.436013,285.4785 21.386005,280.8348 17.747984,278.73617 12.390172,275.64396 9.4797556,273.96317 6.569339,272.2824 1.509183,269.36339 -1.7650355,267.47651 -18.519235,257.82126 -21.985657,255.81937 -24.783784,254.18308 c -1.67349,-0.97864 -4.769115,-2.7704 -6.879167,-3.98166 -4.576741,-2.62726 -11.531896,-6.65348 -19.314582,-11.18087 -3.128698,-1.82007 -6.194557,-3.56399 -6.813021,-3.87543 -0.689782,-0.34732 -1.124479,-0.74832 -1.124479,-1.03725 0,-0.33083 1.279554,-1.20713 4.299479,-2.94449 2.364714,-1.36041 5.668698,-3.27478 7.342187,-4.25418 1.67349,-0.97939 3.518959,-2.04698 4.101042,-2.37242 0.582083,-0.32543 4.392083,-2.52791 8.466666,-4.89442 4.074583,-2.36648 9.849114,-5.69883 12.832291,-7.40518 2.983177,-1.70635 6.078802,-3.48761 6.879166,-3.95835 3.231015,-1.9004 3.941617,-2.25756 4.072001,-2.04658 0.07496,0.12128 -0.780804,0.73906 -1.901706,1.37281 -1.120902,0.63373 -4.597847,2.63517 -7.726544,4.44762 -5.818886,3.37087 -11.059924,6.39358 -18.785416,10.83429 -2.401094,1.38018 -5.318125,3.06999 -6.482291,3.7551 -5.017529,2.95288 -9.115081,5.31895 -10.715625,6.1876 -0.945885,0.51335 -1.719791,1.055 -1.719791,1.2037 0,0.14867 1.428749,1.08997 3.174999,2.09174 1.74625,1.00176 5.496719,3.16817 8.334375,4.81425 2.837656,1.64605 5.933281,3.43027 6.879166,3.96489 1.956102,1.10561 11.110283,6.38016 14.684375,8.461 1.309687,0.7625 5.595937,3.23784 9.524999,5.50072 3.929062,2.26287 7.5009373,4.32215 7.9374997,4.57612 0.4365625,0.254 2.2224999,1.28702 3.9687499,2.29561 1.7462499,1.00859 5.8539059,3.38526 9.1281245,5.28148 3.2742186,1.89621 7.5009369,4.34035 9.3927079,5.43144 1.891771,1.09109 4.630208,2.67354 6.085416,3.51655 4.547942,2.63467 15.983225,9.23198 19.579166,11.29573 1.891771,1.08571 5.701771,3.28699 8.466666,4.89175 2.764896,1.60475 8.241771,4.76676 12.170833,7.02667 3.929062,2.25988 11.608593,6.69433 17.065624,9.8543 5.457031,3.15997 10.097823,5.774 10.312876,5.80898 0.215053,0.0349 0.467916,0.43955 0.561896,0.8991 0.09401,0.45953 0.156157,0.82979 0.138165,0.82278 -0.01799,-0.007 -0.342953,-0.33441 -0.722101,-0.72761 z M 221.2787,244.82622 c 0,-0.1126 2.74707,-1.74064 7.34219,-4.35128 0.61846,-0.35137 1.12448,-0.58682 1.12448,-0.52322 0,0.0636 -1.39898,0.92716 -3.10885,1.919 -4.92895,2.85917 -5.35782,3.09573 -5.35782,2.9555 z m -23.37519,-32.06146 c -4.63563,-2.69436 -6.10521,-3.63776 -4.00918,-2.57374 2.67584,1.3584 9.38485,5.40144 8.85031,5.3335 -0.0655,-0.008 -2.24398,-1.25021 -4.84113,-2.75976 z m -34.9703,-105.59683 c -1.01698,-0.52761 -4.74379,-2.65117 -9.38784,-5.34923 -6.49075,-3.770945 -8.82576,-5.12027 -17.72708,-10.243886 -4.72943,-2.722266 -12.34943,-7.124604 -16.93333,-9.782974 -4.58391,-2.658369 -10.77516,-6.235702 -13.75833,-7.94963 -2.98318,-1.713926 -7.983806,-4.589272 -11.112504,-6.389658 -4.195127,-2.414059 -5.860864,-3.242784 -6.344972,-3.156707 -0.622644,0.110712 -0.630264,0.09758 -0.147876,-0.255151 0.279718,-0.204525 0.590233,-0.371866 0.690033,-0.371866 0.265325,0 8.908759,4.894426 17.047609,9.653383 2.03729,1.191244 4.23995,2.467829 4.89479,2.836857 0.65484,0.369025 3.75047,2.156634 6.87917,3.972467 3.12869,1.81583 10.80822,6.256943 17.06562,9.869141 26.72532,15.427684 29.13597,16.795234 29.60589,16.795234 0.24231,0 1.24056,-0.45919 2.21838,-1.02042 2.17614,-1.24905 8.6892,-4.9921 15.93302,-9.156723 2.98318,-1.71509 5.63306,-3.301129 5.88859,-3.524536 0.56023,-0.489751 0.98893,-0.193728 0.44567,0.307732 -0.32721,0.302024 -6.68161,4.008509 -17.18218,10.022267 -1.52797,0.87508 -3.43297,1.97677 -4.23333,2.44821 -2.86004,1.68463 -3.00016,1.73189 -3.84133,1.29549 z m -151.6478,-2.43498 c -1.6262643,-0.97543 -3.0550142,-1.87892 -3.1750001,-2.00777 -0.3245988,-0.34859 0.7971498,0.26096 3.7318891,2.02788 2.831434,1.70473 2.54322,1.67024 4.318185,0.51677 0.327422,-0.21278 0.595313,-0.32983 0.595313,-0.26013 0,0.19966 -1.984534,1.52303 -2.26318,1.50918 -0.137699,-0.007 -1.580941,-0.81051 -3.207207,-1.78593 z M 2.7328809,99.745843 c -2.69213529,-1.545688 -5.2519789,-3.031506 -5.6885414,-3.30182 -0.4365625,-0.270314 -0.9723437,-0.569315 -1.1906249,-0.664448 -0.6690254,-0.291574 -4.7624998,-2.80624 -4.7624998,-2.925651 0,-0.06169 0.089297,-0.06192 0.1984375,-5.3e-4 3.2495647,1.828287 16.1453875,9.317566 16.3247909,9.480666 0.546383,0.49672 -0.1705663,0.11659 -4.8815623,-2.58823 z m 30.5593731,-4.24929 c 0.226119,-0.227547 8.731435,-5.20935 11.509375,-6.741366 2.604677,-1.436463 -0.753615,0.690557 -4.596918,2.911522 -5.854515,3.383203 -7.220937,4.140269 -6.912457,3.829844 z M 63.851628,77.843948 c 0,-0.08314 5.242819,-3.179596 7.739062,-4.570762 0.109141,-0.06082 0.198437,-0.05397 0.198437,0.01524 0,0.0692 -1.398984,0.926121 -3.108854,1.904272 -1.709869,0.978149 -3.42489,2.000121 -3.811156,2.271046 -0.687157,0.48196 -1.017489,0.605399 -1.017489,0.380204 z m 8.202083,-4.750483 c 0,-0.06544 0.506015,-0.404061 1.124479,-0.752491 0.618463,-0.348432 3.56526,-2.03999 6.548437,-3.759017 6.358228,-3.663878 6.030515,-3.483649 5.688541,-3.128465 -0.14552,0.151138 -2.943489,1.818185 -6.217708,3.704548 -6.666922,3.84099 -7.143749,4.103669 -7.143749,3.935425 z"
           id="path417" /><path
           style="fill:#ffffff;fill-opacity:1;stroke:#ffffff;stroke-width:1;stroke-dasharray:none;stroke-opacity:1"
           d="M 81.711002,315.10696 C 63.064085,304.31643 45.47688,294.15664 40.436004,291.26319 c -3.617664,-2.07653 -15.08217,-8.69088 -19.579166,-11.29602 -1.455208,-0.84301 -4.193645,-2.42546 -6.085416,-3.51655 -1.891771,-1.09109 -6.1184893,-3.53523 -9.3927079,-5.43144 -3.2742186,-1.89622 -7.3818746,-4.27289 -9.1281245,-5.28148 -1.74625,-1.00859 -3.5321874,-2.04161 -3.9687499,-2.29561 -0.4365624,-0.25397 -4.0084377,-2.31325 -7.9374997,-4.57612 -3.929062,-2.26288 -8.215312,-4.73822 -9.524999,-5.50072 -3.574092,-2.08084 -12.728273,-7.35539 -14.684375,-8.461 -0.945885,-0.53462 -4.04151,-2.31884 -6.879166,-3.96489 -2.837656,-1.64608 -6.588125,-3.81249 -8.334375,-4.81425 -1.74625,-1.00177 -3.174999,-1.94307 -3.174999,-2.09174 0,-0.1487 0.773906,-0.69035 1.719791,-1.2037 1.600544,-0.86865 5.698096,-3.23472 10.715625,-6.1876 1.982425,-1.16668 6.619237,-3.84201 14.406757,-8.31241 1.826178,-1.04831 5.642044,-3.25409 8.4797,-4.9017 9.2614,-5.37744 11.945897,-6.88419 12.25924,-6.88081 0.169657,0.003 1.2609675,0.53825 2.4251341,1.19201 1.1641666,0.65375 3.0691665,1.64406 4.2333331,2.20069 1.1641666,0.55661 3.12869779,1.69979 4.36562482,2.5404 1.23692698,0.84058 3.20145818,2.00559 4.36562478,2.58889 3.3592636,1.68315 8.4609332,4.60667 11.9062492,6.82289 1.74625,1.12329 7.520781,4.51885 12.832291,7.54571 5.31151,3.02686 11.50276,6.5949 13.758333,7.92901 2.255573,1.33408 6.065573,3.53779 8.466666,4.89714 2.401094,1.35932 5.913437,3.38161 7.805208,4.49398 1.891771,1.11236 4.570677,2.6621 5.953125,3.44387 1.382448,0.78176 3.525573,2.01636 4.7625,2.74357 1.236927,0.72718 3.260989,1.87811 4.497916,2.55762 3.421824,1.87976 7.802509,4.40676 10.451041,6.02871 1.309688,0.80206 2.650331,1.62018 2.979208,1.81806 l 0.597959,0.35978 -0.01032,27.49791 c -0.0056,15.12384 -0.09612,27.54952 -0.201083,27.6126 -0.104961,0.0631 -3.167407,-1.60779 -6.805427,-3.71303 z M 157.64641,103.57848 c -3.05593,-1.7619 -7.04453,-4.059973 -8.86354,-5.106818 -6.96052,-4.005791 -26.31006,-15.182904 -31.74999,-18.340127 -3.1287,-1.815833 -6.22433,-3.603794 -6.87917,-3.973253 -0.65484,-0.369456 -3.33375,-1.915173 -5.95313,-3.434924 -2.61937,-1.519753 -5.595933,-3.242873 -6.614579,-3.829158 -1.018646,-0.586282 -2.506927,-1.44944 -3.307291,-1.918126 -0.800365,-0.468685 -2.495894,-1.426387 -3.767852,-2.128226 l -2.312617,-1.276075 0.01455,-13.989195 c 0.01191,-11.453388 0.07887,-14.013912 0.369782,-14.125542 0.195421,-0.07499 0.812879,0.152204 1.372129,0.504875 0.559223,0.352671 3.040856,1.808218 5.51471,3.234547 2.473854,1.426329 6.760108,3.900956 9.524998,5.499168 2.7649,1.598216 7.34881,4.243938 10.18646,5.879383 18.02294,10.387279 22.52874,12.987459 26.19375,15.115759 2.25557,1.309825 5.11307,2.957097 6.35,3.660605 3.01091,1.712463 8.31575,4.804072 9.78958,5.70525 1.28294,0.784461 13.95243,7.965601 17.85938,10.122799 1.30968,0.723136 2.97656,1.679321 3.70416,2.124858 0.72761,0.445535 2.87073,1.735379 4.7625,2.866319 1.89177,1.130937 3.61818,2.167501 3.83646,2.303475 0.35277,0.219753 0.35277,0.290862 0,0.639975 -0.21828,0.216011 -2.83765,1.79457 -5.82083,3.507906 -2.98318,1.713336 -7.38849,4.244195 -9.78958,5.624135 -2.4011,1.37994 -5.16565,2.96817 -6.14344,3.5294 -0.97782,0.56123 -1.98986,1.01728 -2.24896,1.01343 -0.25914,-0.004 -2.97146,-1.44854 -6.0274,-3.21044 z"
           id="path415" /></g></g></g></svg>
