<?xml version="1.0" encoding="UTF-8" standalone="no"?>
<!-- Created with Inkscape (http://www.inkscape.org/) -->

<svg
   version="1.1"
   id="svg12656"
   width="269.272"
   height="180"
   viewBox="0 0 269.272 180"
   sodipodi:docname="airintechlogo_2023.png"
   inkscape:export-filename="..\..\..\..\..\..\..\Users\School Account\code\cypher\img\sponsors\logo_airin.svg"
   inkscape:export-xdpi="96"
   inkscape:export-ydpi="96"
   xmlns:inkscape="http://www.inkscape.org/namespaces/inkscape"
   xmlns:sodipodi="http://sodipodi.sourceforge.net/DTD/sodipodi-0.dtd"
   xmlns:xlink="http://www.w3.org/1999/xlink"
   xmlns="http://www.w3.org/2000/svg"
   xmlns:svg="http://www.w3.org/2000/svg">
  <defs
     id="defs12660">
    <linearGradient
       inkscape:collect="always"
       id="linearGradient13372">
      <stop
         style="stop-color:#000000;stop-opacity:0;"
         offset="0"
         id="stop13368" />
      <stop
         style="stop-color:#ffffff;stop-opacity:1;"
         offset="1"
         id="stop13370" />
    </linearGradient>
    <radialGradient
       inkscape:collect="always"
       xlink:href="#linearGradient13372"
       id="radialGradient13374"
       cx="178.1479"
       cy="59.086826"
       fx="178.1479"
       fy="59.086826"
       r="134.63593"
       gradientTransform="matrix(-0.38304928,-0.00125463,0.00134081,-0.40936051,246.3082,132.6439)"
       gradientUnits="userSpaceOnUse" />
  </defs>
  <sodipodi:namedview
     id="namedview12658"
     pagecolor="#115740"
     bordercolor="#000000"
     borderopacity="0.25"
     inkscape:showpageshadow="2"
     inkscape:pageopacity="0"
     inkscape:pagecheckerboard="0"
     inkscape:deskcolor="#d1d1d1"
     showgrid="false" />
  <g
     inkscape:groupmode="layer"
     inkscape:label="Image"
     id="g12662"
     transform="translate(-11.728152,-19.862519)">
    <path
       style="fill:url(#radialGradient13374);fill-opacity:1"
       d="m 12.502682,149.0597 c 1.491476,-9.14777 4.142991,-16.80338 5.982395,-25.54661 0.485348,-2.307 1.477766,-9.28817 2.088117,-11.82025 0.434782,-1.86072 0.90166,-3.83314 1.037506,-4.38314 0.557526,-2.25724 2.500332,-11.138966 2.843645,-12.999996 0.342358,-1.855852 2.058973,-9.353708 3.205265,-14 0.271382,-1.1 0.684629,-3.125 0.918325,-4.5 0.481163,-2.831016 0.902501,-4.517679 1.935996,-7.75 0.699794,-2.188651 1.092476,-2.25 14.40189,-2.25 h 13.68248 c 21.230886,86.147916 0.17875,-0.103321 20.370392,84.999996 0.532739,0 0.709594,0.675 0.393011,1.5 -0.770722,2.00847 -19.402712,1.43374 -24.171362,1.57433 -1.621355,-3.9421 0.308231,-12.20468 -2.560323,-14.27807 -1.020171,-0.70475 -5.784733,-0.46002 -7.731812,-0.46002 -2.02961,0 -6.973713,-0.17021 -7.693535,0.43847 -1.946737,5.2946 -1.280914,8.95371 -2.427176,14.22529 H 23.252863 11.72823 Z m 36.212369,-37.86942 c -0.176616,-1.29707 -1.113282,-7.69308 -1.778596,-11.13058 -0.665315,-3.437496 -1.598174,-6.249996 -2.07302,-6.249996 -0.921239,0 -0.972694,0.14745 -1.395846,4 -0.151026,1.375 -0.523466,4.074996 -0.827645,5.999996 -0.304179,1.925 -0.821673,5.3 -1.149987,7.5 -0.328314,2.2 -0.833602,5.2375 -1.122862,6.75 -0.519315,2.71543 -0.460422,2.75 4.68437,2.75 h 5.210298 c -0.786896,-4.6936 -1.169204,-6.84701 -1.546712,-9.61942 z m 31.785027,-1.3812 V 65.809185 l 11.25,2.59e-4 11.250002,2.6e-4 v 43.999996 44 l -11.250002,-3.6e-4 -11.25,-3.6e-4 z m 30.500002,-0.0681 V 65.672223 l 22.25,0.31874 c 16.75468,-0.604641 23.19185,0.05974 28.91607,5.649247 3.43848,3.357563 5.32879,8.986755 5.33117,17.169492 0.003,11.190328 -1.79678,16.064148 -7.08533,19.184468 l -3.41331,2.01391 3.2507,2.16401 c 5.52993,3.6813 7.0288,8.25965 7.55299,23.07089 0.30992,8.75683 0.91355,13.71733 1.83008,15.03923 0.7522,1.08487 1.36763,2.33623 1.36763,2.78078 0,0.44455 -5.47028,0.68192 -12.15617,0.52749 -14.27162,-0.32964 -12.72412,1.71365 -13.68658,-18.07146 -0.7426,-15.26551 -0.93236,-15.66756 -7.40725,-15.694 l -3.75,-0.0153 v 17 17 h -11.5 -11.5 z m 31.55924,-9.22856 c 2.60365,-2.239562 3.33343,-6.252741 2.3664,-13.013204 -0.31738,-2.218803 -5.27137,-4.923271 -8.24332,-4.500174 -2.01798,0.287285 -2.20439,0.944482 -2.47545,8.727092 -0.16122,4.629025 -0.0628,9.016526 0.21861,9.749996 0.80068,2.08654 5.1926,1.56617 8.13376,-0.96371 z m 49.44076,9.2973 V 65.809704 h 11 11 v 43.999996 44 h -11 -11 z m 30,0 V 65.809704 h 12.8865 12.8865 l 0.53119,2.75 c 2.93119,14.907752 7.53204,28.969736 10.61898,42.005836 0.70947,1.21794 1.02519,-5.27054 1.04642,-21.505836 l 0.0304,-23.25 h 10.5 10.5 v 43.999996 44 h -12.09362 c -11.25262,0 -2.96157,0.26841 -11.39417,0.24117 -5.82778,-18.2175 -7.0096,-24.06501 -11.80262,-41.24117 -0.32587,-0.825 -0.79164,-2.4 -1.03504,-3.5 -0.2434,-1.1 -0.49475,8.4625 -0.55855,21.25 l -0.116,23.25 h -11 -11 z"
       id="path12848"
       sodipodi:nodetypes="sscssssssccsccsccccssssssssscsccccccccccccscscssssssscccccccsssscscccccccccccccccscccccsccsscccc" />
  </g>
</svg>
