<?xml version="1.0" encoding="UTF-8" standalone="no"?>
<!-- Created with Inkscape (http://www.inkscape.org/) -->

<svg
   version="1.1"
   id="svg24642"
   width="670.66101"
   height="449"
   viewBox="0 0 670.66101 449"
   sodipodi:docname="office-career_FullLogo_Vertical_full-color.png"
   inkscape:export-filename="..\..\..\..\..\..\..\Users\School Account\code\cypher\img\sponsors\logo_wmcdpe.svg"
   inkscape:export-xdpi="96"
   inkscape:export-ydpi="96"
   inkscape:version="0.0"
   xmlns:inkscape="http://www.inkscape.org/namespaces/inkscape"
   xmlns:sodipodi="http://sodipodi.sourceforge.net/DTD/sodipodi-0.dtd"
   xmlns="http://www.w3.org/2000/svg"
   xmlns:svg="http://www.w3.org/2000/svg">
  <defs
     id="defs24646" />
  <sodipodi:namedview
     id="namedview24644"
     pagecolor="#ffffff"
     bordercolor="#000000"
     borderopacity="0.25"
     inkscape:showpageshadow="2"
     inkscape:pageopacity="0.0"
     inkscape:pagecheckerboard="0"
     inkscape:deskcolor="#d1d1d1"
     showgrid="false"
     inkscape:zoom="0.85161664"
     inkscape:cx="477.32745"
     inkscape:cy="226.04067"
     inkscape:window-width="1128"
     inkscape:window-height="730"
     inkscape:window-x="-6"
     inkscape:window-y="-6"
     inkscape:window-maximized="1"
     inkscape:current-layer="g24648" />
  <g
     inkscape:groupmode="layer"
     inkscape:label="Image"
     id="g24648"
     transform="translate(137.327,86.413558)">
    <path
       style="fill:#ffffff;fill-opacity:1;stroke-width:0.32"
       d="m -100.58576,275.92986 c -4.4071,-0.73737 -7.01699,-3.44149 -7.03297,-7.28692 -0.012,-2.87907 1.12985,-4.8276 3.72277,-6.35288 l 1.32981,-0.78226 -1.07078,-1.59118 c -1.95725,-2.90846 -1.76393,-6.19155 0.49104,-8.33883 3.414976,-3.2519 10.769037,-2.61225 12.960553,1.12729 0.874429,1.4921 1.074557,3.89711 0.459949,5.52731 -0.408294,1.08296 -1.992953,2.78278 -3.418428,3.66684 l -1.038055,0.64379 1.328147,1.5751 c 0.73048,0.8663 1.440781,1.5751 1.578445,1.5751 0.137667,0 0.783594,-0.864 1.435392,-1.92 l 1.185091,-1.92 h 3.312602 3.312601 l -2.752419,3.71981 -2.752419,3.71982 3.148333,3.16018 3.148329,3.16019 h -3.691222 -3.691226 l -1.085545,-1.12 c -1.243459,-1.28292 -1.603418,-1.36021 -2.373222,-0.50959 -1.349351,1.49102 -5.521917,2.44564 -8.506776,1.94623 z m 5.043537,-5.53472 0.826554,-0.82656 -2.164458,-2.4184 -2.164454,-2.4184 -0.960159,0.56072 c -2.10655,1.2302 -2.42119,3.42456 -0.73307,5.11267 1.05706,1.05706 1.229792,1.11816 2.74849,0.97224 1.181517,-0.11353 1.844464,-0.37964 2.447097,-0.98227 z m -0.873065,-11.58734 c 0.924633,-0.47814 1.909526,-1.93034 1.909526,-2.81553 0,-0.24901 -0.298451,-0.83216 -0.663225,-1.29589 -0.486016,-0.61787 -0.956279,-0.84316 -1.76,-0.84316 -2.304224,0 -3.179063,2.51743 -1.54833,4.45545 0.965574,1.14752 0.858374,1.12157 2.062029,0.49913 z m 89.5895177,17.00437 c -6.7912997,-1.97526 -10.7879697,-8.3111 -9.6374097,-15.27801 1.01041,-6.11824 5.05912,-9.97099 11.4582797,-10.90368 5.98530001,-0.87236 12.15496,1.86778 14.48382,6.43273 1.6955503,3.32356 2.0437503,8.15717 0.8320203,11.55001 -1.2566103,3.51854 -4.2024103,6.45874 -7.7687803,7.75402 -2.28642999,0.83042 -7.23452,1.06543 -9.36793,0.44493 z m 7.40905001,-5.99466 c 2.40655999,-1.20574 3.79094999,-3.76358 3.79094999,-7.00429 0,-3.29927 -1.3752,-5.78255 -3.92172999,-7.0817 -1.05113,-0.53624 -1.74547001,-0.64062 -3.62888001,-0.54551 -1.96774,0.0994 -2.54316,0.26793 -3.70922,1.08662 -0.75909,0.53295 -1.74017,1.61062 -2.18017,2.3948 -0.67876,1.20971 -0.8,1.838 -0.8,4.14579 0,2.40401 0.10429,2.89742 0.89769,4.24716 1.96883,3.34941 6.02961,4.5216 9.55136001,2.75713 z m 66.26460029,5.9602 c -1.97982,-0.55722 -3.34626,-1.21492 -4.82475,-2.32228 l -1.0711,-0.80223 2.01283,-2.03088 2.01283,-2.03089 1.0584,0.80727 c 3.43026,2.6164 8.04751,2.1788 8.08796,-0.76652 0.0227,-1.65305 -1.14097,-2.56152 -4.78982,-3.73934 -4.06365,-1.31172 -6.05248,-2.85677 -6.70592,-5.20956 -1.02023,-3.67349 0.48179,-7.17546 3.79846,-8.85614 3.96346,-2.00844 9.3952,-1.66345 12.81512,0.81393 l 1.3724,0.99416 -2.01399,2.03204 -2.01398,2.03204 -0.92046,-0.77452 c -2.68639,-2.26044 -7.07829,-1.56028 -7.07829,1.12843 0,1.42873 0.65641,1.89524 4.68769,3.33151 5.33669,1.90136 6.94574,3.66972 6.93194,7.61821 -0.0119,3.41183 -1.6712,5.87464 -4.92676,7.31265 -2.0461,0.90379 -6.07817,1.12475 -8.43256,0.46212 z m 22.99983,-0.0309 c -1.89942,-0.51079 -4.55019,-1.85018 -5.29883,-2.67741 -0.43411,-0.47968 -0.28406,-0.72339 1.58738,-2.57819 l 2.0668,-2.04844 0.88559,0.84825 c 2.49272,2.38762 7.36381,2.43438 7.95563,0.0764 0.50796,-2.02385 -0.58234,-3.11606 -4.35005,-4.35767 -4.47862,-1.4759 -6.16734,-2.80019 -7.03975,-5.52056 -0.7456,-2.32496 0.17594,-5.80767 1.96861,-7.43984 3.56206,-3.24313 11.2825,-3.34762 15.01934,-0.20328 l 0.97822,0.82312 -1.99717,2.01507 -1.99716,2.01508 -0.92046,-0.77453 c -2.83631,-2.38659 -7.15152,-1.52062 -6.90986,1.38666 0.11445,1.3769 0.64895,1.72114 5.0997,3.28445 2.96289,1.04071 5.04774,2.53076 5.93109,4.23895 0.32994,0.63804 0.51092,1.77232 0.5023,3.14817 -0.0109,1.7417 -0.18668,2.46964 -0.92416,3.82725 -1.98894,3.66135 -7.34118,5.33922 -12.55722,3.93655 z m 41.32673,0.012 c -6.49175,-1.74808 -9.92292,-6.69374 -9.62222,-13.86941 0.15567,-3.71464 1.02074,-5.88418 3.33111,-8.35414 4.30034,-4.59742 12.86738,-5.43823 18.59161,-1.82468 1.84882,1.16711 3.81142,3.54212 4.64048,5.61561 0.60094,1.50293 0.72391,2.42643 0.73067,5.48707 0.008,3.47616 -0.048,3.7984 -1.00451,5.81747 -1.80518,3.81034 -4.53326,6.07313 -8.59854,7.132 -2.31139,0.60204 -5.82462,0.60033 -8.0686,-0.004 z m 7.19227,-5.81156 c 1.62544,-0.75532 3.2001,-2.73479 3.79015,-4.7645 1.13285,-3.89685 -0.41116,-7.71162 -3.83342,-9.47121 -1.8377,-0.94488 -5.31762,-0.72739 -7.01927,0.4387 -5.36464,3.67621 -3.96243,12.83342 2.19067,14.30628 1.50849,0.36108 3.43148,0.16007 4.87187,-0.50927 z m 167.53215,5.83407 c -6.6136,-1.86549 -10.39024,-7.17063 -9.9152,-13.92806 0.23584,-3.35462 1.20896,-5.71775 3.27226,-7.94637 2.03488,-2.1979 4.07497,-3.37532 7.06912,-4.07986 3.80956,-0.89642 8.89648,-0.0492 11.98787,1.99657 1.42355,0.94208 1.43833,0.88262 -0.85447,3.4363 l -1.6358,1.8219 -1.67536,-1.04147 c -1.47984,-0.91992 -1.9425,-1.04206 -3.96423,-1.04654 -2.68749,-0.006 -4.39645,0.73305 -5.89261,2.54819 -1.20678,1.46403 -1.67622,3.05246 -1.67622,5.67186 0,2.86818 1.16755,5.12565 3.34861,6.47448 1.41814,0.87704 1.8104,0.96494 4.30582,0.96494 3.88634,0 3.86557,0.0154 3.86557,-2.86996 v -2.41004 h -2.4 -2.4 v -2.4 -2.4 h 5.28637 5.28637 l -0.0864,6.8 -0.0864,6.8 -2.72,0.91719 c -3.36595,1.13501 -8.42582,1.44951 -11.11536,0.69087 z m 56.39536,0.0446 c -6.5289,-1.70397 -10.08,-6.28397 -10.08,-13.00061 0,-3.2943 0.75568,-5.82936 2.41161,-8.09024 3.75479,-5.12642 11.88884,-6.81259 18.27722,-3.78882 3.01955,1.42923 3.05773,1.59574 0.92323,4.02696 -1.00438,1.14403 -1.87961,2.08006 -1.94493,2.08006 -0.0653,0 -0.64886,-0.35977 -1.29683,-0.79949 -3.97648,-2.69851 -9.07702,-1.36099 -11.19981,2.93695 -0.89718,1.81652 -0.84108,5.88707 0.10576,7.67159 0.90605,1.70764 2.65549,3.14147 4.44394,3.6422 1.38784,0.38857 5.12998,0.29217 5.8464,-0.15061 0.20666,-0.12771 0.35341,-1.20726 0.35341,-2.59953 v -2.38111 h -2.4 -2.4 v -2.4 -2.4 h 5.28 5.28 v 6.71178 6.71178 l -0.88,0.45345 c -2.88119,1.48463 -9.54224,2.205 -12.72,1.37564 z m -428.319983,-13.0127 v -12.8 l 5.04,0.003 c 8.006732,0.004 11.335833,0.88502 13.033065,3.44971 1.714419,2.59066 1.663286,6.82148 -0.109076,9.02481 -1.971568,2.45097 -3.788531,3.17578 -8.60399,3.43226 l -3.279999,0.1747 v 4.75805 4.75805 h -3.04 -3.04 v -12.8 z m 11.777218,-2.36753 c 1.05505,-0.54559 1.342781,-1.07694 1.342781,-2.47968 0,-2.11498 -1.228387,-2.83279 -4.84775,-2.83279 h -2.192249 v 2.82667 c 0,1.55466 0.108,2.93857 0.24,3.07534 0.37568,0.38925 4.406495,-0.0462 5.457218,-0.58954 z m 13.182781,2.36753 v -12.8 h 5.221224 c 6.9798,0 10.02851,0.63046 12.17283,2.51728 1.9458,1.71215 2.55399,6.02076 1.21493,8.60701 -0.69338,1.33919 -2.92624,3.27571 -3.777,3.27571 -0.23759,0 -0.43198,0.16319 -0.43198,0.36264 0,0.19945 1.43882,2.71945 3.19739,5.6 l 3.1974,5.23736 h -3.62099 -3.62099 l -2.74774,-5.04 c -2.55828,-4.69249 -2.81591,-5.04692 -3.73641,-5.14028 l -0.98866,-0.10027 v 5.14027 5.14028 h -3.040004 -3.04 z m 11.829234,-2.39444 c 1.13516,-0.58701 1.77087,-2.2628 1.31412,-3.46414 -0.4929,-1.29642 -1.87859,-1.82142 -4.80746,-1.82142 h -2.57589 v 2.88 2.88 h 2.57589 c 1.65037,0 2.90553,-0.17046 3.49334,-0.47444 z m 46.16709,2.47444 0.0837,-12.72 8.4,-0.0853 8.4,-0.0853 v 2.72529 2.72531 h -5.44 -5.44 v 2.56 2.56 h 4.96 4.96 v 2.56 2.56 h -4.96 -4.96 v 4.96 4.96 h -3.04367 -3.04367 z m 22.64367,-0.08 v -12.8 h 8.48 8.48 v 2.72 2.72 h -5.61402 -5.61402 l 0.094,2.32 0.094,2.32 5.2,0.0879 5.2,0.0879 v 2.39208 2.39207 h -5.29294 -5.29294 l 0.0929,2.64 0.0929,2.64 5.84,0.0872 5.84,0.0872 v 2.55278 2.55278 h -8.8 -8.8 z m 69.76,0 v -12.8 h 3.04 3.04 v 12.8 12.8 h -3.04 -3.04 z m 45.76,0 v -12.8 h 3.44142 3.44143 l 5.09258,8.32 c 2.80092,4.576 5.15621,8.32 5.23398,8.32 0.0778,0 0.0895,-3.708 0.026,-8.24 l -0.11539,-8.24 2.96,-0.092 2.96,-0.092 v 12.81199 12.81201 h -3.48831 -3.48831 l -5.15169,-8.38713 -5.15169,-8.38712 v 8.38712 8.38713 h -2.88 -2.88 z m 27.2,12.55256 c 0,-0.1484 2.35648,-5.87744 5.23664,-12.73119 l 5.23667,-12.46137 h 3.00237 3.00239 l 5.00093,12.0218 c 2.7505,6.61198 5.10064,12.33598 5.22253,12.72 0.21811,0.68721 0.16893,0.6982 -3.124,0.6982 h -3.3456 l -1.03194,-2.56 -1.03193,-2.56 h -4.88234 -4.88233 l -0.93267,2.48 -0.93268,2.48 -3.26902,0.0912 c -1.79795,0.0502 -3.26902,-0.0302 -3.26902,-0.17863 z m 16.31999,-9.96596 c 0,-0.48437 -2.57526,-7.5257 -2.8558,-7.8084 -0.19658,-0.1981 -3.22419,7.28383 -3.22419,7.96775 0,0.0737 1.368,0.13405 3.04,0.13405 1.672,0 3.03999,-0.13203 3.03999,-0.2934 z m 14.72,-2.5866 v -12.8 h 3.04 3.04 v 10.08 10.08 h 4.96 4.96 v 2.72 2.72 h -8 -8 z m 30.72,0 v -12.8 h 8.48 8.48 v 2.72 2.72 h -5.6 -5.6 v 2.4 2.4 h 5.28 5.28 v 2.4 2.4 h -5.28 -5.28 v 2.72 2.72 h 5.92 5.92 v 2.56 2.56 h -8.8 -8.8 z m 23.68,0 v -12.8 h 3.33821 c 3.95158,0 2.78771,-1.1608 8.98352,8.96 2.42422,3.96 4.54765,7.344 4.71866,7.52 0.2014,0.20727 0.2702,-2.61085 0.19529,-8 l -0.11568,-8.32 2.96,-0.092 2.96,-0.092 v 12.81199 12.81201 h -3.49577 -3.49578 l -5.06422,-8.23602 -5.06423,-8.23602 -0.0854,8.23602 -0.0854,8.23602 h -2.8746 -2.87459 z m 55.52611,11.6 c 0.2721,-0.66 2.68115,-6.42 5.35344,-12.8 l 4.85872,-11.6 h 2.93146 2.93145 l 0.6505,1.52 c 0.87248,2.03865 9.34243,22.44797 9.69453,23.36 0.27772,0.71944 0.27526,0.71999 -3.15415,0.71294 l -3.43206,-0.007 -0.96,-2.47295 -0.96,-2.47294 h -4.94832 -4.94835 l -0.93335,2.48 -0.93337,2.48 h -3.32259 -3.3226 l 0.49469,-1.2 z m 16.15389,-8.85405 c 0,-0.67334 -3.02554,-8.16625 -3.21728,-7.96775 -0.30544,0.31624 -2.86272,7.23208 -2.86272,7.74188 0,0.2413 1.00189,0.35992 3.04,0.35992 1.672,0 3.04,-0.0603 3.04,-0.13405 z m 43.27632,-2.66595 0.0837,-12.72 8.56,-0.0852 8.56,-0.0852 v 2.72517 2.72523 h -5.6 -5.6 v 2.4 2.4 h 5.28 5.28 v 2.4 2.4 h -5.28 -5.28 v 2.72 2.72 h 5.92 5.92 v 2.56 2.56 h -8.96368 -8.96365 z m 23.68,0 0.0837,-12.72 4.33657,-0.0886 4.33658,-0.0886 2.67462,7.60862 c 1.47104,4.18474 2.81507,7.88755 2.98672,8.22846 0.25034,0.49724 0.86096,-0.99021 3.08707,-7.52 l 2.77498,-8.13984 4.38173,-0.089 4.38172,-0.089 v 12.80893 12.80903 h -2.875 -2.87504 l -0.085,-8.95233 -0.085,-8.95232 -3.24755,8.87232 -3.24758,8.87233 -2.19242,0.0921 -2.19244,0.0921 -2.69946,-7.61209 c -4.19894,-11.84038 -3.81142,-11.70992 -3.83795,-1.2921 l -0.0226,8.88 h -2.88368 -2.88365 z m 36.15999,0 0.0837,-12.72 8.56,-0.0852 8.56,-0.0852 v 2.72517 2.72523 h -5.6 -5.6 v 2.4 2.4 h 5.28 5.28 v 2.4 2.4 h -5.28 -5.28 v 2.72 2.72 h 5.92 5.92 v 2.56 2.56 h -8.96368 -8.96364 z m 23.68,0 0.0837,-12.72 h 3.49687 3.49689 l 4.98311,8.06354 c 2.74073,4.43495 5.05513,8.13118 5.14313,8.21385 0.088,0.0827 0.11325,-3.58193 0.0561,-8.14355 l -0.10393,-8.29384 h 3.06391 3.0639 v 12.81048 12.81048 l -3.57958,-0.0905 -3.57962,-0.0905 -4.98038,-8.08906 -4.98042,-8.08905 -0.0854,8.16905 -0.0854,8.16906 h -3.03828 -3.03823 z m 35.12368,2.64 v -10.08 h -3.68 -3.68 v -2.72 -2.72 h 10.24 10.24 v 2.72 2.72 h -3.52 -3.52 v 10.08 10.08 h -3.04 -3.04 z m -629.80598,-28.74119 c -2.64726,-0.90233 -4.51182,-2.17443 -6.06546,-4.13814 -3.26838,-4.13107 -3.72784,-10.9659 -1.04492,-15.54396 4.15352,-7.08744 15.59384,-8.54188 21.82334,-2.77446 6.35745,5.88587 5.20589,17.0291 -2.20876,21.37352 -3.28423,1.92431 -8.66804,2.39062 -12.5042,1.08304 z m 8.30387,-5.62711 c 4.89616,-2.49783 5.28059,-10.63981 0.64715,-13.70607 -1.53425,-1.01532 -4.60174,-1.35377 -6.52297,-0.7197 -1.6171,0.53369 -3.74081,2.71903 -4.22849,4.3512 -0.5025,1.68174 -0.50355,4.31821 -0.002,6.00574 0.51449,1.7325 2.91839,4.15112 4.58726,4.61537 1.68462,0.46863 3.97391,0.24194 5.51945,-0.54654 z m 83.50346,6.04098 c -3.794624,-0.95644 -7.557647,-4.15617 -8.930601,-7.59375 -0.614269,-1.53801 -0.735789,-2.44113 -0.742589,-5.51893 -0.0077,-3.47854 0.04748,-3.79739 1.007674,-5.82423 1.91127,-4.03443 5.481753,-6.57429 10.277366,-7.31082 3.87556,-0.59521 9.24313,0.79 11.08652,2.86112 l 0.6197,0.69625 -2.03365,2.05189 -2.03365,2.05188 -0.89792,-0.75554 c -3.20161,-2.69398 -8.5674,-1.50168 -10.580024,2.35093 -0.738752,1.41414 -0.892928,2.10846 -0.887123,3.99506 0.0087,2.83112 0.693917,4.45794 2.545027,6.04242 1.52942,1.30913 3.86987,1.98079 5.73241,1.64508 1.46616,-0.26427 2.21813,-0.63958 3.29767,-1.64589 l 0.86212,-0.80365 2.09788,1.84183 c 1.15382,1.013 2.09786,1.95332 2.09786,2.0896 0,0.51154 -2.43502,2.35876 -4.13568,3.13735 -1.44355,0.66088 -2.3493,0.8247 -4.9746,0.89976 -1.76534,0.0505 -3.74912,-0.0442 -4.40839,-0.21036 z m 60.42974,-0.3104 c -4.80462,-1.53454 -8.01355,-5.34639 -8.87086,-10.53762 -1.55407,-9.41023 6.15504,-16.87188 15.92944,-15.41812 7.51928,1.11836 12.06378,6.67585 11.54091,14.11346 -0.41405,5.88959 -3.71716,10.17559 -9.13069,11.84766 -2.68759,0.83011 -6.86031,0.82774 -9.4688,-0.005 z m 6.77837,-5.17818 c 1.89759,-0.47782 4.23826,-2.73158 4.79942,-4.62123 1.09688,-3.69362 -0.0546,-7.68778 -2.75642,-9.56089 -1.26808,-0.87914 -1.61454,-0.96198 -4.02337,-0.96198 -2.33448,0 -2.78659,0.0998 -3.95475,0.87284 -1.83854,1.21668 -2.9915,3.30711 -3.18788,5.7799 -0.33049,4.16159 1.41211,7.1501 4.89207,8.38978 1.56971,0.55919 2.34015,0.57768 4.23093,0.10158 z m 59.78824,5.47695 c -2.01792,-0.50132 -4.90398,-2.20782 -6.3057,-3.72852 -0.71868,-0.77967 -1.76238,-2.37945 -2.31933,-3.55505 -0.95425,-2.01421 -1.01265,-2.34971 -1.01265,-5.81748 0,-3.47288 0.0574,-3.80112 1.01941,-5.83193 3.16416,-6.6794 11.74704,-9.42196 18.86942,-6.0295 1.02914,0.49019 2.15003,1.20456 2.49087,1.5875 l 0.61969,0.69625 -2.04497,2.0633 c -2.03751,2.05579 -2.04736,2.06105 -2.70406,1.44412 -3.42394,-3.21663 -9.58106,-1.43167 -11.35248,3.29109 -0.44503,1.1865 -0.43073,4.155 0.0274,5.68404 1.43041,4.77428 7.82597,6.55798 11.40455,3.18069 l 0.72979,-0.68875 1.5102,1.26597 c 0.83062,0.69628 1.78677,1.57248 2.12479,1.94711 0.60977,0.6758 0.60729,0.68876 -0.31695,1.65346 -0.51235,0.53477 -1.86057,1.42968 -2.99606,1.98868 -1.855,0.91321 -2.39115,1.02352 -5.28305,1.087 -1.77019,0.0389 -3.77757,-0.0682 -4.46085,-0.23798 z m 285.19629,-0.40224 c -5.32038,-1.81349 -8.41629,-5.93182 -8.82454,-11.73881 -0.39898,-5.67543 2.32643,-10.59579 7.11056,-12.83718 5.36368,-2.51291 12.3135,-1.64885 16.34048,2.03157 6.67478,6.10037 5.10518,18.04447 -2.86688,21.81585 -3.56624,1.6871 -8.11984,1.96922 -11.75962,0.72857 z m 8.26413,-5.61 c 2.70329,-1.38613 3.77536,-3.3971 3.77913,-7.08881 0.003,-2.37839 -0.10521,-2.90367 -0.85702,-4.18246 -1.2752,-2.16914 -3.0688,-3.28228 -5.54243,-3.43979 -2.60695,-0.166 -4.10509,0.35222 -5.73386,1.98344 -1.48745,1.48968 -2.10393,3.14193 -2.10393,5.63881 0,2.58173 0.6063,4.14326 2.24953,5.79364 2.24119,2.25093 5.37904,2.74602 8.20858,1.29517 z m -487.57809,-7.09412 v -12.80532 l 8.399998,0.0853 8.4,0.0853 0.09294,2.64 0.09294,2.64 h -5.45294 -5.452941 v 2.56 2.56 h 4.96 4.96 v 2.56 2.56 h -4.96 -4.96 v 4.96 4.96 h -3.039997 -3.04 z m 22.719997,0.005 v -12.8 h 8.32 8.32 v 2.72 2.72 h -5.28 -5.28 v 2.56 2.56 h 4.8 4.8 v 2.56 2.56 h -4.8 -4.8 v 4.96 4.96 h -3.04 -3.04 z m 22.399999,0 v -12.8 h 3.04 3.04 v 12.8 12.8 h -3.04 -3.04 z m 40.076324,0.08 0.0837,-12.72 8.5599997,-0.0852 8.56,-0.0852 v 2.72522 2.72523 h -5.6 -5.5999997 v 2.4 2.4 h 5.2799997 5.28 v 2.4 2.4 h -5.28 -5.2799997 v 2.72 2.72 h 5.9199997 5.92000001 v 2.56 2.56 H -9.7094103 -18.67308 Z m 66.88,0 0.0837,-12.72 h 8.32 8.32 l 0.0929,2.64 0.0929,2.64 h -5.45294 -5.45294 v 2.56 2.56 h 4.96 4.96 v 2.56 2.56 h -4.96 -4.96 v 4.96 4.96 h -3.04367 -3.04367 z m 57.52367,12.56549 c 0,-0.13516 8.0601,-19.45111 9.93919,-23.81917 l 0.69962,-1.62601 h 2.82934 c 2.50995,0 2.86833,0.0729 3.17482,0.64556 0.52558,0.98205 10.23703,24.418 10.23703,24.70428 0,0.13759 -1.50295,0.25016 -3.33988,0.25016 h -3.33987 l -0.89251,-2.4 -0.89252,-2.4 h -5.02748 -5.02749 l -0.89251,2.4 -0.89252,2.4 h -3.28761 c -1.80819,0 -3.28761,-0.0695 -3.28761,-0.15451 z m 15.61703,-12.40518 c -0.53805,-1.452 -1.20348,-3.324 -1.47873,-4.16 -0.27526,-0.836 -0.58939,-1.52 -0.69807,-1.52 -0.10869,0 -0.8372,1.74928 -1.61892,3.8873 -0.78172,2.13801 -1.46931,4.01001 -1.52798,4.16 -0.0587,0.14998 1.33528,0.2727 3.09765,0.2727 h 3.20431 z m 14.78297,-0.24 v -12.8 l 4.56,0.01 c 10.19433,0.0221 13.58186,1.45329 14.63228,6.18204 0.75151,3.38312 -0.72326,6.46753 -3.86867,8.09116 l -1.1564,0.59692 3.2949,5.36 3.29489,5.36 h -3.63805 -3.63804 l -2.66046,-4.95228 -2.66045,-4.95228 -1.2,-0.008 -1.2,-0.008 v 4.96 4.96 h -2.88 -2.88 z m 11.76802,-2.36278 c 2.06839,-1.0696 1.90327,-4.19932 -0.26135,-4.95392 -0.5732,-0.19981 -2.10069,-0.3633 -3.39442,-0.3633 h -2.35225 v 2.82667 c 0,1.55466 0.108,2.9387 0.24,3.07563 0.38472,0.39909 4.71406,-0.0401 5.76802,-0.58508 z m 13.83198,2.36278 v -12.8 h 8.48 8.48 v 2.72 2.72 h -5.6 -5.6 v 2.4 2.4 h 5.44 5.44 v 2.4 2.4 h -5.45294 -5.45295 l 0.0929,2.64 0.0929,2.64 5.84,0.0872 5.84,0.0872 v 2.55278 2.55278 h -8.8 -8.8 z m 23.68,0 v -12.8 h 8.48 8.47999 v 2.72 2.72 h -5.59999 -5.6 v 2.4 2.4 h 5.28 5.27999 v 2.4 2.4 h -5.29292 -5.29296 l 0.093,2.64 0.0929,2.64 5.84,0.0872 5.83999,0.0872 v 2.55278 2.55278 h -8.79999 -8.8 z m 23.67999,0 v -12.8 l 4.56,0.01 c 10.25495,0.0222 13.57946,1.43032 14.6369,6.19953 0.7224,3.25818 -0.74275,6.44044 -3.66509,7.96041 l -1.36541,0.71018 3.2953,5.36 3.2953,5.36 h -3.62903 -3.62905 l -2.66944,-4.95622 c -2.59959,-4.82646 -2.69671,-4.95632 -3.70948,-4.96 l -1.04,-0.004 v 4.96 4.96 h -3.04 -3.04 z m 11.77607,-2.36694 c 1.33273,-0.68918 1.88521,-2.35695 1.212,-3.65877 -0.62819,-1.21482 -1.92349,-1.65429 -4.87581,-1.65429 h -2.35226 v 2.82667 c 0,1.55466 0.108,2.9387 0.24,3.07563 0.38621,0.40065 4.71597,-0.0411 5.77607,-0.58924 z m 24.70393,2.3202 v -12.84674 l 6.16,0.19115 c 3.89831,0.12097 6.91351,0.37623 8.21229,0.69522 5.77562,1.41858 8.89578,5.14561 9.2311,11.02648 0.25437,4.46126 -0.86316,7.41235 -3.84662,10.1579 -3.18198,2.92825 -5.80989,3.61143 -13.91677,3.618 l -5.84,0.005 z m 12.60288,7.01319 c 1.78442,-0.53317 3.89229,-2.68213 4.37283,-4.45805 0.60269,-2.22746 0.21956,-5.22616 -0.86486,-6.76911 -1.44973,-2.06274 -3.41798,-2.89527 -7.20451,-3.04735 l -3.14634,-0.12638 v 7.39722 7.39722 h 2.76288 c 1.51959,0 3.35559,-0.1771 4.08,-0.39355 z m 16.19712,-6.97168 v -12.80522 l 8.56,0.0852 8.56,0.0852 v 2.56 2.56 l -5.52,0.0876 -5.52,0.0875 v 2.39245 2.39244 h 5.28 5.28 v 2.4 2.4 h -5.28 -5.28 v 2.72 2.72 h 5.92 5.92 v 2.56 2.56 h -8.96 -8.96 z m 30.08,12.69136 c 0,-0.0626 -1.74272,-4.70662 -3.87274,-10.32 -2.12998,-5.61337 -4.28636,-11.32213 -4.79193,-12.68613 l -0.91923,-2.48 h 3.45353 3.45354 l 3.00189,9.2 3.00188,9.2 2.99853,-9.2 2.99853,-9.2 h 3.37222 c 3.07351,0 3.35476,0.0496 3.17492,0.56 -0.10855,0.308 -2.31085,6.068 -4.89402,12.8 l -4.69667,12.24 h -3.14023 c -1.72713,0 -3.14022,-0.0512 -3.14022,-0.11387 z m 19.91632,-12.60613 0.0837,-12.72 8.56,-0.0852 8.56,-0.0852 v 2.72522 2.72523 h -5.6 -5.6 v 2.4 2.4 h 5.28 5.28 v 2.4 2.4 h -5.28 -5.28 v 2.72 2.72 h 5.92 5.92 v 2.56 2.56 h -8.96368 -8.96365 z m 23.68,0 0.0837,-12.72 h 3.04 3.04 l 0.0845,10 0.0846,10 h 4.79542 4.79546 v 2.72 2.72 h -8.00368 -8.00365 z m 52.08368,-0.12434 v -12.84434 l 6.16,0.17424 c 6.49808,0.1838 8.32867,0.5149 10.29468,1.86204 2.23831,1.5337 3.236,4.36804 2.70964,7.69771 -0.37914,2.39854 -1.57844,3.924 -4.03623,5.13396 -1.84025,0.90596 -2.4375,1.03057 -5.55501,1.15902 l -3.49308,0.14392 v 4.75889 4.7589 h -3.04 -3.04 z m 10.51545,-1.75475 c 2.49696,-0.49939 3.51085,-3.31774 1.77895,-4.94513 -0.71197,-0.66903 -1.19632,-0.79131 -3.52,-0.88862 l -2.6944,-0.11283 v 3.07283 3.07284 h 1.72 c 0.94601,0 2.16796,-0.0896 2.71545,-0.19909 z m 14.44454,1.79909 v -12.8 h 4.28576 c 3.78445,0 4.31152,0.0655 4.50602,0.56 0.12115,0.308 1.36067,3.77698 2.7545,7.70884 1.39382,3.93187 2.65635,7.36712 2.80566,7.63389 0.24045,0.42965 2.42954,-5.4349 5.30902,-14.22273 l 0.55047,-1.68 h 4.4543 4.45427 v 12.8 12.8 h -3.03494 -3.03494 l -0.0851,-8.7799 -0.0851,-8.7799 -3.2,8.78961 -3.2,8.78962 -2.22096,-0.0897 -2.22096,-0.0897 -3.05904,-8.5366 c -1.68246,-4.69512 -3.14796,-8.62404 -3.25664,-8.73092 -0.10867,-0.10688 -0.12396,3.77059 -0.034,8.6166 l 0.16362,8.81092 h -2.92602 -2.92602 z m 36.16,0 v -12.8 h 8.48 8.48 v 2.72 2.72 h -5.6 -5.6 v 2.4 2.4 h 5.28 5.28 v 2.4 2.4 h -5.29293 -5.29296 l 0.093,2.64 0.0929,2.64 5.84,0.0872 5.84,0.0872 v 2.55278 2.55278 h -8.8 -8.8 z m 23.68,0 v -12.8 l 3.44,0.004 3.44,0.004 5.09354,8.31635 c 2.80147,4.57399 5.14793,8.31635 5.21437,8.31635 0.0664,0 0.10009,-3.708 0.0747,-8.24 l -0.046,-8.24 2.91168,-0.092 2.91168,-0.092 v 12.81129 12.81201 h -3.49577 -3.49578 l -5.06422,-8.23602 -5.06423,-8.23602 -0.0854,8.23602 -0.0854,8.23602 h -2.8746 -2.87459 v -12.8 z m 34.88,2.72 v -10.08 h -3.52 -3.52 v -2.72 -2.72 h 10.24 10.24 v 2.72 2.72 h -3.68 -3.68 v 10.08 10.08 h -3.04 -3.04 z M 233.01422,176.5933 c -5.51878,-1.28023 -10.11024,-4.76293 -12.39334,-9.40054 -0.9903,-2.01158 -1.04666,-2.316 -1.04666,-5.6528 0,-3.21463 0.0766,-3.67182 0.86487,-5.1662 1.44569,-2.74058 4.10573,-4.68833 7.34224,-5.37618 l 0.84713,-0.18004 -0.6343,-2.00215 c -0.79792,-2.51873 -0.64646,-5.31895 0.40573,-7.5016 1.00937,-2.09378 3.57277,-4.58105 5.89433,-5.71924 1.66714,-0.81734 2.27824,-0.94132 4.64,-0.94132 2.3993,0 2.89876,0.10508 4.23607,0.89118 2.11385,1.24259 3.12393,2.82458 3.12393,4.89277 0,2.05437 -1.12003,4.32519 -2.34697,4.7584 -1.30429,0.46052 -1.52909,-0.0376 -0.95111,-2.10756 0.47482,-1.70053 0.46906,-1.87629 -0.0989,-3.03109 -1.72605,-3.50918 -7.16678,-3.33674 -10.8473,0.34379 -0.81328,0.81327 -1.75385,2.08479 -2.09014,2.82559 -0.79302,1.74681 -0.82445,4.7906 -0.065,6.29607 0.5039,0.99898 0.7502,1.14313 2.47948,1.45126 1.056,0.18816 2.1089,0.45903 2.33975,0.60194 0.72643,0.44967 1.03894,1.72653 0.63795,2.60659 -0.69469,1.52472 -1.91917,1.3523 -4.70502,-0.66255 -3.27386,-2.36777 -7.39268,0.81618 -7.39268,5.71472 0,5.57091 6.04592,11.71732 12.96,13.1754 8.17079,1.72309 17.83402,-1.89001 20.52823,-7.67554 1.53628,-3.29908 0.7566,-7.33134 -1.84887,-9.56153 -3.34125,-2.85997 -9.58605,-2.7632 -12.96192,0.20087 -1.4808,1.30013 -2.03744,2.46287 -2.03744,4.2558 0,1.27158 0.16157,1.64946 1.1114,2.59928 1.47376,1.47377 2.53132,1.38797 2.65497,-0.21539 0.14061,-1.82299 0.37334,-2.53972 1.04176,-3.20814 0.79354,-0.79352 2.55856,-0.82814 3.49658,-0.0686 0.96956,0.7851 1.176,2.79864 0.43206,4.21398 -1.57981,3.00548 -5.44269,3.41063 -8.33187,0.87387 -2.69402,-2.36537 -2.71158,-6.44101 -0.0429,-9.94485 2.35117,-3.08693 4.77232,-3.95651 12.11798,-4.35227 5.93751,-0.31989 8.13693,-0.69969 10.2688,-1.77325 3.60583,-1.81579 5.052,-5.54245 3.4112,-8.79036 -0.95619,-1.89278 -2.45753,-2.87039 -4.40813,-2.87039 -2.1455,0 -2.54035,0.56948 -1.64201,2.36824 0.92137,1.84483 0.87043,2.6207 -0.24525,3.73637 -1.63955,1.63955 -4.16067,1.1967 -5.02986,-0.88352 -1.648,-3.94428 3.85501,-7.94307 8.96295,-6.51294 4.28912,1.20089 6.48979,6.2517 4.8608,11.15616 -0.63303,1.90584 -2.58759,4.23273 -4.49379,5.34986 -1.55716,0.91255 -5.0081,1.73203 -7.32848,1.74027 l -1.56381,0.006 1.50643,1.61049 c 2.2441,2.39913 2.8993,4.06148 2.89978,7.35726 3.2e-4,2.42233 -0.11408,2.95977 -1.02183,4.8 -2.07622,4.20905 -6.12694,7.62896 -10.88601,9.19081 -2.16567,0.71073 -3.15911,0.8311 -7.61079,0.92217 -3.57798,0.0732 -5.69824,-0.0294 -7.04,-0.34066 z M -24.5401,174.91142 c -0.27382,-0.846 -2.73984,-8.77875 -5.48004,-17.62832 -2.7402,-8.84958 -5.26793,-16.85386 -5.61718,-17.78729 -0.79703,-2.13027 -1.800828,-3.08613 -3.476992,-3.31094 -1.116592,-0.14977 -1.311452,-0.28851 -1.311452,-0.93377 v -0.75787 h 7.680004 7.67999 v 0.75838 c 0,0.66245 -0.18379,0.7791 -1.45298,0.92216 -2.10878,0.23769 -2.80836,0.99222 -2.63102,2.83773 0.14516,1.51071 7.94499,27.47765 8.25441,27.48028 0.0937,6.4e-4 0.69592,-1.61855 1.33823,-3.59855 0.64232,-1.98 2.98423,-9.18 5.20426,-16 l 4.03642,-12.4 h 0.9105997 c 0.75613,0 0.98959,0.20356 1.37625,1.2 0.25611,0.66 2.89621,7.86 5.86688,16 2.97068001,8.14 5.47677,14.79904 5.56909,14.79787 0.29226,-0.004 7.0636903,-24.08129 7.2634503,-25.82707 0.31848,-2.78328 -0.9484903,-4.5708 -3.2397003,-4.5708 -0.65695,0 -0.81589,-0.15585 -0.81589,-0.8 v -0.8 h 5.6000003 5.6 v 0.76439 c 0,0.62701 -0.21112,0.80399 -1.17475,0.98477 -1.58871,0.29804 -2.75513,1.63506 -3.7907,4.34511 -0.471,1.2326 -3.0520203,9.76164 -5.7356003,18.95341 -4.66042,15.96288 -4.91449,16.71659 -5.66555,16.80744 -0.76051999,0.092 -0.98532999,-0.44603 -6.84986,-16.39423 -3.33495,-9.06914 -6.1450197,-16.49195 -6.2446097,-16.49512 -0.0996,-0.003 -2.56337,7.37423 -5.47505,16.39423 -5.06667,15.6958 -5.3289,16.40422 -6.10717,16.49819 -0.71705,0.0866 -0.87204,-0.0837 -1.31104,-1.44 z m 42.35433,0.86181 c 0,-0.53418 0.21334,-0.64 1.29028,-0.64 1.96412,0 3.36111,-0.7133 3.78642,-1.93333 0.49864,-1.43041 0.50733,-27.31802 0.01,-28.74567 -0.45686,-1.31059 -1.12237,-1.641 -3.30529,-1.641 -1.68644,0 -1.78104,-0.0425 -1.78104,-0.8 v -0.8 h 8 8 v 0.8 c 0,0.75437 -0.0984,0.8 -1.72455,0.8 -2.34322,0 -3.10131,0.64407 -3.42279,2.908 -0.31733,2.2348 -0.32119,23.92314 -0.005,26.14776 0.32035,2.25135 1.03459,2.92883 3.33848,3.16661 1.48763,0.15353 1.81351,0.29413 1.81351,0.7824 0,0.56443 -0.4139,0.59523 -8,0.59523 -7.78666,0 -8,-0.0171 -8,-0.64 z m 18.88,0.0448 c 0,-0.48834 0.326,-0.62888 1.81532,-0.78259 1.36655,-0.14104 2.01918,-0.39114 2.64,-1.01168 l 0.82468,-0.82432 0.10203,-12.87309 c 0.0561,-7.0802 0.008,-13.64093 -0.10632,-14.5794 -0.28993,-2.37457 -0.92948,-2.93369 -3.35571,-2.93369 -1.83804,0 -1.92,-0.0344 -1.92,-0.80531 v -0.80532 l 8.4,0.0853 c 8.15823,0.0829 8.4,0.10373 8.4,0.72531 0,0.57077 -0.26666,0.65731 -2.4652,0.8 -1.35585,0.088 -2.62705,0.32239 -2.82487,0.52088 -0.19782,0.19848 -0.48905,0.91848 -0.64717,1.6 -0.32526,1.40192 -0.4132,26.36689 -0.0984,27.94079 0.33338,1.66692 1.34438,2.08205 5.38128,2.20964 7.55485,0.23878 9.67681,-1.03288 11.87314,-7.11542 0.55014,-1.52357 0.86708,-1.97994 1.4339,-2.06472 0.72666,-0.10868 0.72737,-0.10453 0.51915,3.04 -0.11467,1.73186 -0.20924,4.12083 -0.21015,5.30883 l -0.002,2.16 h -14.88 c -14.29361,0 -14.88,-0.0235 -14.88,-0.59523 z m 31.68,-3.2e-4 c 0,-0.49673 0.32603,-0.62512 1.96483,-0.77372 1.40553,-0.12745 2.15703,-0.37029 2.64,-0.85309 0.66427,-0.66404 0.67661,-0.9091 0.76447,-15.17935 0.10455,-16.98114 0.31307,-15.91902 -3.17987,-16.19686 -1.76229,-0.14018 -2.02943,-0.24568 -2.02943,-0.80143 0,-0.62158 0.24177,-0.64245 8.4,-0.72531 l 8.4,-0.0853 v 0.80532 c 0,0.78248 -0.0625,0.80531 -2.20455,0.80531 -1.69346,0 -2.37969,0.14177 -2.96,0.61153 l -0.75545,0.61153 -0.0893,14.55977 -0.0893,14.55977 0.78144,0.9087 0.78144,0.9087 h 4.7479 c 2.61134,0 5.14752,-0.11165 5.63596,-0.24812 2.10995,-0.58951 4.72216,-4.06469 5.65256,-7.51995 0.27089,-1.00601 0.52464,-1.35193 0.9917,-1.35193 0.5982,0 0.62767,0.24792 0.62767,5.28 v 5.28 h -15.04 c -14.45254,0 -15.04,-0.0233 -15.04,-0.59556 z m 31.68,0 c 0,-0.49673 0.32603,-0.62512 1.96483,-0.77372 2.73739,-0.24822 3.2344,-0.81112 3.5239,-3.99111 0.29261,-3.21423 0.29278,-21.26325 2.2e-4,-24.47647 -0.28384,-3.11756 -0.6659,-3.548 -3.34018,-3.76315 -1.72211,-0.13854 -1.98877,-0.24581 -1.98877,-0.8 0,-0.62084 0.24183,-0.64256 8.08,-0.72549 l 8.08,-0.0855 v 0.8055 c 0,0.76417 -0.0914,0.80549 -1.78104,0.80549 -2.18292,0 -2.84843,0.33041 -3.3053,1.641 -0.56638,1.62471 -0.48402,27.50757 0.0919,28.88598 0.50049,1.19784 1.74932,1.79302 3.76217,1.79302 1.01891,0 1.23225,0.1108 1.23225,0.64 0,0.62327 -0.21334,0.64 -8.16,0.64 -7.74368,0 -8.16,-0.0304 -8.16,-0.59555 z m 18.56,-9.6e-4 c 0,-0.41253 0.44587,-0.76681 1.4455,-1.14857 2.46441,-0.94117 1.80606,0.40351 13.40283,-27.37491 2.04683,-4.90289 2.74135,-6.25974 3.24118,-6.33214 0.55338,-0.0802 1.27885,1.4393 5.57666,11.68 9.37578,22.34035 8.9684,21.53721 11.27466,22.22818 0.83868,0.25127 1.21917,0.54919 1.21917,0.95462 0,0.55418 -0.41044,0.58934 -6.88,0.58934 -6.49499,0 -6.88,-0.0333 -6.88,-0.59542 0,-0.47756 0.32343,-0.63374 1.63388,-0.78894 1.87066,-0.22155 2.53058,-0.64517 2.5156,-1.61482 -0.006,-0.37445 -0.84428,-2.69682 -1.86333,-5.16082 l -1.85281,-4.48 h -6.65148 -6.65147 l -1.29335,3.2 c -2.12677,5.26206 -1.79115,7.45942 1.22579,8.0254 0.78963,0.14812 1.09717,0.37523 1.09717,0.8102 0,0.5681 -0.31704,0.60439 -5.28,0.60439 -4.9384,0 -5.28,-0.0386 -5.28,-0.59652 z m 22.07689,-13.72352 c -0.004,-0.30575 -5.61693,-13.8067 -5.82773,-14.0175 -0.11654,-0.11654 -4.336,9.75552 -5.92289,13.8575 -0.1204,0.31121 1.16691,0.4 5.79949,0.4 3.27483,0 5.95284,-0.108 5.95113,-0.24 z m 16.64311,13.71799 c 0,-0.44727 0.37359,-0.69609 1.45341,-0.96799 2.04241,-0.51428 3.65502,-2.07732 4.00276,-3.87969 0.39918,-2.069 0.37336,-24.84709 -0.0298,-26.29875 -0.42064,-1.5146 -0.66701,-1.65776 -3.18635,-1.85156 -1.81334,-0.13949 -2.08,-0.24205 -2.08,-0.8 0,-0.61462 0.21333,-0.64 5.37954,-0.64 h 5.37954 l 6.26649,14.16 c 3.44657,7.788 6.35378,14.15652 6.46046,14.15228 0.10668,-0.004 2.91624,-6.23225 6.24344,-13.84 3.32723,-7.60776 6.18886,-14.01228 6.3592,-14.23228 0.22537,-0.29111 1.73635,-0.4 5.55049,-0.4 h 5.24083 v 0.8 c 0,0.76986 -0.077,0.8 -2.04454,0.8 -1.53626,0 -2.23235,0.15208 -2.8,0.61173 l -0.75546,0.61172 v 14.73939 c 0,14.62033 0.005,14.7449 0.68276,15.42213 0.51014,0.51016 1.21795,0.72571 2.8,0.8527 1.79123,0.14378 2.11724,0.26175 2.11724,0.76614 0,0.5663 -0.41712,0.59619 -8.31999,0.59619 -8.10666,0 -8.32,-0.0164 -8.32,-0.64 0,-0.53418 0.21334,-0.64 1.29027,-0.64 1.80934,0 3.44902,-0.75867 3.83526,-1.77452 0.20154,-0.5301 0.29031,-5.77195 0.23795,-14.05235 l -0.0835,-13.20686 -6.69037,15.15686 c -5.87868,13.31795 -6.77507,15.15687 -7.38833,15.15687 -0.61245,0 -1.49335,-1.79318 -7.1919,-14.64 -3.57167,-8.052 -6.69241,-15 -6.93497,-15.44 -0.37956,-0.68852 -0.42896,0.98376 -0.35446,12 0.0771,11.39531 0.14695,12.91103 0.6369,13.81174 0.74464,1.36896 1.99412,2.29649 3.65798,2.71545 1.01908,0.25661 1.38515,0.50789 1.38515,0.9508 0,0.56928 -0.34796,0.60201 -6.4,0.60201 -6.05205,0 -6.4,-0.0327 -6.4,-0.60201 z m 123.83999,-0.12226 c 0,-0.61003 0.26499,-0.78683 1.68,-1.12088 2.63936,-0.62309 4.18855,-2.06952 4.7336,-4.41961 0.42022,-1.81179 0.38666,-30.39342 -0.0375,-31.9208 -0.42426,-1.52784 -1.68774,-2.13444 -4.44586,-2.13444 -1.84563,0 -1.93027,-0.0351 -1.93027,-0.8 v -0.8 l 6.48,0.004 6.48,0.004 7.49091,16.95582 c 4.12,9.32571 7.58864,16.95583 7.70816,16.95583 0.11949,0 3.57319,-7.632 7.67491,-16.96 l 7.45767,-16.96 h 6.51417 6.51418 v 0.8 c 0,0.77117 -0.0778,0.80115 -2.16,0.8319 -2.94643,0.0435 -3.63174,0.29034 -4.38666,1.57992 -0.619,1.05747 -0.65363,1.7305 -0.75667,14.70818 -0.0594,7.48 0.0269,15.16007 0.19178,17.06681 0.26989,3.12185 0.38441,3.5515 1.15078,4.31786 0.75219,0.75222 1.14774,0.86453 3.40589,0.96707 2.44944,0.11124 2.55488,0.14764 2.55488,0.88214 v 0.76612 h -10.08 -10.08 v -0.8 c 0,-0.76052 0.0908,-0.80003 1.84,-0.8005 2.52166,-6.4e-4 3.96157,-0.75672 4.48301,-2.35386 0.30662,-0.93918 0.38313,-4.99244 0.32,-16.94977 l -0.083,-15.71541 -8.04371,18.22977 c -7.84819,17.78664 -8.06531,18.22977 -8.93248,18.22977 -0.86643,0 -1.09216,-0.45741 -8.97882,-18.19584 -4.4495,-10.00772 -8.18275,-18.28772 -8.29613,-18.4 -0.11337,-0.11229 -0.15724,6.63989 -0.0975,15.00485 l 0.10864,15.209 0.80662,1.591 c 0.65383,1.28957 1.13453,1.75771 2.53738,2.47099 0.95194,0.484 2.06493,0.88 2.47338,0.88 0.57878,0 0.74262,0.17648 0.74262,0.8 v 0.8 h -7.52 -7.52 v -0.72427 z m 58.56,0.10909 c 0,-0.42924 0.36272,-0.73133 1.2,-0.99942 1.41232,-0.45221 2.50406,-1.37295 3.2079,-2.7054 0.27891,-0.528 3.34615,-7.728 6.81607,-16 5.01593,-11.95763 6.43628,-15.05956 6.9304,-15.13543 0.5374,-0.0825 1.527,2.05862 7.31356,15.82435 3.68064,8.75588 7.0266,16.3201 7.43543,16.80939 0.40886,0.48928 1.30886,1.04187 2,1.22798 0.92006,0.24775 1.25664,0.50649 1.25664,0.96604 0,0.6041 -0.2584,0.62767 -6.88,0.62767 -6.49498,0 -6.88,-0.0333 -6.88,-0.59543 0,-0.47756 0.32342,-0.63373 1.63389,-0.78893 3.12009,-0.36953 3.17686,-0.96976 0.65587,-6.93564 l -1.82551,-4.32 -6.60534,-0.0864 -6.60538,-0.0864 -1.29385,3.30924 c -1.80285,4.61113 -1.92483,5.59558 -0.85146,6.87122 0.52029,0.61833 1.2776,1.09075 1.95107,1.21709 0.79287,0.14875 1.10071,0.37553 1.10071,0.81088 0,0.5681 -0.31706,0.60439 -5.28,0.60439 -4.99568,0 -5.28,-0.0331 -5.28,-0.61518 z m 22.08,-13.73615 c 0,-0.37519 -5.44899,-13.59215 -5.72519,-13.88687 -0.17203,-0.1836 -2.79638,5.8322 -6.06147,13.8948 -0.0587,0.14487 2.56931,0.2634 5.84,0.2634 3.27066,0 5.94666,-0.1221 5.94666,-0.27133 z m 16.96,13.71133 c 0,-0.5259 0.21392,-0.64032 1.2,-0.64179 0.66,-9.6e-4 1.704,-0.14203 2.32,-0.31346 2.09814,-0.58388 2.06905,-0.38971 2.18201,-14.56475 0.0561,-7.04 0.0118,-13.5399 -0.0986,-14.44421 -0.29376,-2.40815 -0.70326,-2.80414 -3.09677,-2.99455 -1.75961,-0.13999 -2.02668,-0.24558 -2.02668,-0.80124 0,-0.58384 0.2808,-0.65776 3.2,-0.84241 5.6831,-0.35948 13.33113,-0.27468 15.85609,0.17581 4.02125,0.71744 7.13607,2.71361 8.40416,5.38587 0.34445,0.72589 0.53866,1.93045 0.53674,3.32909 -0.005,4.03719 -2.39063,6.85385 -6.93613,8.19116 l -2.30669,0.67863 1.77082,1.78093 c 0.97392,0.97951 3.03437,3.43692 4.57875,5.46092 4.90026,6.42209 7.07261,8.24259 10.49626,8.7963 1.04915,0.16968 1.36,0.35981 1.36,0.83183 0,0.57598 -0.28877,0.61187 -4.9233,0.61187 h -4.92333 l -1.88163,-2.01148 c -1.03491,-1.10631 -3.36237,-4.05908 -5.17219,-6.56172 -1.80979,-2.50264 -4.03959,-5.34433 -4.95504,-6.31486 -1.45232,-1.53966 -1.86189,-1.79024 -3.21261,-1.96563 l -1.54813,-0.20101 0.10845,6.84735 c 0.0735,4.64317 0.23491,7.06828 0.50134,7.53369 0.49869,0.8711 1.98884,1.39366 3.97418,1.39366 1.33891,0 1.55226,0.088 1.55226,0.64 0,0.6239 -0.21335,0.64 -8.48,0.64 -8.26666,0 -8.48,-0.0161 -8.48,-0.64 z m 18.3928,-18.25901 c 1.72492,-0.50316 3.53059,-2.37226 4.01168,-4.15259 0.21776,-0.8059 0.32502,-2.49062 0.24614,-3.86578 -0.18538,-3.23062 -1.25862,-5.17674 -3.37002,-6.11071 -1.44214,-0.63793 -5.36032,-1.1445 -7.3606,-0.95163 l -1.04,0.10027 v 7.86626 7.86626 l 3.12,-0.19041 c 1.716,-0.10472 3.69276,-0.35748 4.3928,-0.56167 z m 24.1672,18.25901 c 0,-0.5192 0.21334,-0.64 1.13027,-0.64 0.62166,0 1.61971,-0.2045 2.21792,-0.45444 1.47299,-0.61545 1.7678,-1.83132 1.77001,-7.29971 l 0.003,-4.39415 -4.53257,-7.44585 c -5.20944,-8.55778 -7.13107,-11.54112 -7.78173,-12.08112 -0.25331,-0.21024 -1.04224,-0.46028 -1.75315,-0.55563 -1.10074,-0.14764 -1.29255,-0.28675 -1.29255,-0.93736 v -0.76398 l 7.12,0.0861 c 6.86141,0.083 7.12,0.1092 7.12,0.72174 0,0.34959 -0.216,0.664 -0.48,0.69869 -3.45308,0.45374 -3.91401,0.94867 -2.85097,3.06114 0.84912,1.68737 8.25763,14.01506 8.75228,14.56372 0.27572,0.30581 1.19485,-1.0041 3.92941,-5.6 3.72413,-6.25902 4.87043,-8.48103 4.88224,-9.46378 0.0125,-1.03556 -1.72713,-2.45539 -3.00835,-2.45539 -1.00758,0 -1.14461,-0.0958 -1.14461,-0.8 v -0.8 h 5.76 5.76 v 0.73363 c 0,0.59595 -0.26265,0.80388 -1.39949,1.10794 -2.11558,0.56583 -3.75299,2.64889 -9.1672,11.66222 l -4.79472,7.97967 0.008,4.37827 c 0.008,4.80581 0.30743,6.70927 1.15108,7.32615 0.30464,0.22276 1.24854,0.49716 2.09756,0.60979 1.22199,0.1621 1.54372,0.32957 1.54372,0.80356 0,0.56804 -0.38592,0.59877 -7.52,0.59877 -7.30666,0 -7.52,-0.0181 -7.52,-0.64 z M 188.09557,108.91878 c -0.23338,-0.14423 -0.37229,-0.53298 -0.30867,-0.8639 0.0923,-0.48032 0.51059,-0.64532 2.07421,-0.81818 2.09878,-0.23202 6.42947,-1.58151 9.55311,-2.97682 l 1.92,-0.85766 -1.47849,-0.75953 -1.47847,-0.75952 -1.68505,0.64027 c -4.93962,1.8769 -10.77376,2.43155 -13.33677,1.26791 -2.47002,-1.12143 -3.02697,-3.893324 -1.17142,-5.830102 2.21945,-2.316614 6.12125,-2.066707 13.04902,0.835786 l 3.38538,1.418346 1.51302,-0.669284 c 1.15523,-0.511011 1.40067,-0.735977 1.03789,-0.95135 -0.26131,-0.155142 -2.41911,-1.371494 -4.7951,-2.703002 -2.376,-1.33151 -7.18477,-4.311366 -10.68618,-6.6219 l -6.36615,-4.200976 -0.51384,0.777939 c -5.08685,7.701389 -13.58901,10.847513 -18.72601,6.929337 -1.40602,-1.072425 -2.75976,-3.710505 -2.97519,-5.797878 -0.33096,-3.206685 1.7481,-6.171603 5.56193,-7.931779 1.26277,-0.582803 2.10147,-0.711267 4.58544,-0.702359 2.99237,0.01072 4.56259,0.452909 9.1361,2.572746 0.91516,0.424182 4.38813,-9.882864 5.89391,-17.49191 0.35341,-1.78592 0.35117,-1.794999 -1.70862,-6.932797 -1.13438,-2.829495 -3.04025,-7.185079 -4.23527,-9.679075 -2.11876,-4.421824 -2.19487,-4.530119 -3.06195,-4.356701 -1.40814,0.281629 -3.2909,1.698217 -4.04841,3.046022 -0.84337,1.500579 -0.9348,4.27913 -0.19879,6.041091 1.01917,2.439812 3.54953,4.204173 6.06303,4.227594 1.56624,0.01459 2.1818,0.368147 2.02044,1.160474 -0.10705,0.525667 -0.39357,0.592828 -2.26863,0.531776 -2.74287,-0.08931 -4.95504,-1.0281 -6.58214,-2.793293 -1.54966,-1.681191 -2.0838,-3.22489 -2.10957,-6.096829 -0.0342,-3.806589 1.7825,-6.355283 5.59143,-7.844512 0.91792,-0.35889 1.16849,-0.599475 0.96586,-0.927341 -0.22864,-0.369949 -0.73914,-0.323494 -3.10551,0.282579 -3.86226,0.989207 -9.7021,1.22585 -12.72108,0.515485 -5.9431,-1.398403 -9.08263,-5.139331 -8.19724,-9.767468 0.52013,-2.71888 1.79412,-4.407567 4.27954,-5.672582 5.07237,-2.581709 10.72188,-1.054066 16.3937,4.432899 1.6138,1.561209 3.56048,3.698598 4.32595,4.74975 0.76547,1.051155 1.57657,1.91119 1.80244,1.91119 1.14332,0 12.24481,-6.376201 12.24481,-7.032876 0,-0.120437 -0.35303,-0.407912 -0.78452,-0.638833 -0.70374,-0.376641 -1.02489,-0.301497 -3.12,0.730071 -4.6076,2.268652 -8.01766,2.309862 -10.41548,0.125869 -1.36484,-1.24312 -0.65963,-3.400999 1.39154,-4.258034 1.76047,-0.735571 6.284,-0.567451 8.92337,0.331644 l 2.23494,0.761318 1.38624,-0.812399 c 1.07792,-0.631701 1.47053,-0.726748 1.76509,-0.427319 0.29283,0.297665 0.17904,0.558146 -0.50118,1.14747 -0.484,0.419315 -0.88,0.8376 -0.88,0.929522 0,0.09192 0.39696,0.37241 0.88214,0.623306 0.81264,0.420226 0.95763,0.395782 1.84,-0.310192 1.79853,-1.438975 2.80246,-0.760886 1.25885,0.850277 l -0.81898,0.854844 2.01898,1.618539 c 2.63715,2.114083 5.41795,4.993993 8.19744,8.48966 1.23452,1.552579 2.31305,2.848579 2.39676,2.88 0.0837,0.03142 0.85002,-0.878867 1.70288,-2.022867 1.90848,-2.559958 7.38464,-8.252938 9.46378,-9.838513 l 1.53741,-1.172435 -0.97882,-0.894021 c -1.63542,-1.493723 -0.44553,-2.152329 1.4009,-0.775404 0.996,0.742742 1.03901,0.746982 1.93437,0.190775 l 0.91571,-0.568852 -0.83571,-0.547578 c -0.45965,-0.301168 -0.83572,-0.738519 -0.83572,-0.97189 0,-0.823749 0.69101,-0.833382 1.91008,-0.02663 l 1.23316,0.816057 1.86838,-0.679922 c 1.28314,-0.466943 2.87075,-0.719697 5.06838,-0.806898 2.86336,-0.113617 3.35108,-0.04901 4.63591,0.614166 1.08157,0.558256 1.50867,1.001639 1.73078,1.796807 0.41715,1.49341 -0.48038,2.612384 -2.71286,3.382209 -1.48871,0.513353 -2.02531,0.549843 -3.79562,0.258121 -1.13398,-0.186864 -3.09808,-0.851907 -4.36464,-1.477874 -2.65363,-1.311502 -2.6295,-1.307398 -3.61821,-0.614862 l -0.74707,0.523259 2.88845,1.877526 c 2.79792,1.818679 8.95302,5.075956 9.59174,5.075956 0.1729,0 1.33568,-1.279034 2.58397,-2.842298 5.10055,-6.387473 9.8704,-9.386555 14.92755,-9.38585 3.72797,5.12e-4 6.86432,1.555343 8.39047,4.159515 1.23632,2.1096 1.38694,5.461427 0.33388,7.428633 -0.95923,1.791904 -3.32771,3.62192 -5.84435,4.515638 -2.99763,1.064532 -8.66422,1.188935 -12.8,0.281012 -1.76,-0.386372 -3.54595,-0.723677 -3.96876,-0.749572 -1.3538,-0.08291 -1.06208,0.638916 0.4992,1.235175 1.99801,0.763046 4.10652,2.749427 4.77417,4.497629 0.68544,1.794844 0.50858,5.859036 -0.3264,7.500118 -1.37846,2.709219 -4.01475,4.288771 -7.82221,4.68673 -1.48288,0.154992 -1.89808,0.08866 -2.27305,-0.363178 -0.40397,-0.486739 -0.38599,-0.606035 0.1503,-0.998179 0.33498,-0.244957 1.06407,-0.445373 1.62016,-0.445373 4.31939,0 7.58035,-4.254918 6.73098,-8.782563 -0.36103,-1.924477 -3.37015,-4.657434 -5.12807,-4.657434 -0.60771,0 -2.30534,3.337347 -5.4136,10.642458 -3.73209,8.771312 -3.6183,8.318585 -2.92963,11.654361 1.21408,5.880659 4.4201,15.727453 5.29719,16.269523 0.15715,0.09713 0.97875,-0.174585 1.82579,-0.603814 4.58854,-2.325181 8.83261,-2.677258 12.43404,-1.031498 5.56922,2.54497 7.13472,8.272452 3.39309,12.413968 -2.16189,2.39297 -5.01798,3.225466 -8.55606,2.493927 -3.82947,-0.791792 -7.94522,-3.691831 -10.42294,-7.34424 -0.59632,-0.878999 -1.17658,-1.601895 -1.28951,-1.606432 -0.11293,-0.0045 -3.21385,1.971747 -6.89097,4.391747 -3.67712,2.42 -8.66058,5.48 -11.07434,6.8 l -4.38867,2.4 1.55421,0.72054 1.55417,0.720544 2.15008,-0.974889 c 6.06567,-2.750304 10.17786,-3.471081 12.85843,-2.253795 1.68573,0.76552 2.3624,1.749194 2.3624,3.434254 0,1.68554 -1.14585,3.15707 -2.82057,3.6222 -2.74707,0.76298 -7.62269,0.17203 -12.53943,-1.51985 -1.72265,-0.59278 -1.78886,-0.59289 -3.12,-0.005 -0.748,0.33023 -1.36,0.7074 -1.36,0.83816 0,0.48809 8.26583,3.44564 10.41322,3.72589 2.70349,0.35284 3.02678,0.47076 3.02678,1.10402 0,0.83634 -0.65875,1.00361 -2.66598,0.67693 -2.7648,-0.44998 -4.25706,-0.91419 -8.94189,-2.78162 l -4.4079,-1.75703 -2.9521,1.26524 c -5.53708,2.37311 -11.33536,3.91773 -12.35078,3.29017 z m 4.38938,-6.77669 c 3.96355,-0.90744 4.08729,-1.04881 1.80928,-2.06688 -3.5089,-1.568192 -5.92202,-2.381984 -7.0632,-2.381984 -1.94231,0 -3.6568,1.253891 -3.6568,2.674414 0,0.72071 1.52729,2.38566 2.33091,2.54101 1.07683,0.20815 3.61309,-0.0873 6.57981,-0.76656 z m 29.80927,0.0753 c 1.40496,-1.03336 1.26404,-3.05759 -0.27619,-3.96743 -1.2151,-0.717779 -2.71414,-0.705161 -4.87369,0.04102 -2.15732,0.745398 -6.05012,2.50384 -6.05012,2.73293 0,0.30113 4.289,1.48539 6.4194,1.7725 2.51577,0.33904 3.73283,0.19163 4.7806,-0.57902 z m -17.42124,-0.37224 c 1.66803,-0.715 1.66096,-0.80393 -0.12756,-1.60467 -1.19251,-0.533914 -1.29008,-0.530184 -2.7584,0.10542 l -1.52214,0.6589 1.39466,0.72974 c 0.76707,0.40135 1.41875,0.73624 1.44816,0.74419 0.0294,0.008 0.73379,-0.27716 1.56528,-0.63358 z m 1.18835,-5.154822 c 4.09808,-2.059014 8.55129,-4.835747 14.47289,-9.024345 2.992,-2.116365 5.56768,-3.956909 5.72375,-4.090096 0.15705,-0.134064 -0.32451,-1.628983 -1.07882,-3.348919 -0.74937,-1.708716 -1.89709,-4.703532 -2.55043,-6.655148 l -1.18797,-3.548394 -1.15453,3.67488 c -0.635,2.021184 -1.59648,5.253174 -2.1366,7.182198 -0.54013,1.929028 -1.11485,3.640148 -1.27722,3.802493 -0.72986,0.729866 -1.19581,-0.16167 -1.75405,-3.356128 -0.55702,-3.187313 -2.54502,-10.895198 -3.49577,-13.553643 l -0.4578,-1.28 -0.38352,0.96 c -1.53683,3.846803 -4.27673,14.993459 -5.71091,23.233635 -0.78563,4.513994 -0.91609,4.934723 -1.55856,5.026234 -0.57437,0.08181 -0.73197,-0.09171 -0.87177,-0.96 -1.47856,-9.182967 -3.42714,-17.872435 -5.50842,-24.564413 -0.81337,-2.615322 -1.21901,-3.522845 -1.41664,-3.169642 -0.89885,1.606106 -3.80534,13.27962 -4.21136,16.914186 -0.0608,0.544518 -0.31366,0.831914 -0.79168,0.899936 -0.58605,0.08339 -0.76361,-0.128483 -1.0728,-1.28 -1.80297,-6.714874 -4.05862,-13.650438 -4.24752,-13.059936 -1.39712,4.367834 -2.75168,8.039024 -3.77182,10.222506 -0.98618,2.110803 -1.16893,2.754934 -0.83469,2.941984 0.23536,0.131715 2.29112,1.56344 4.56837,3.181609 6.57616,4.672925 8.48384,5.906413 13.33363,8.621421 2.50774,1.403862 4.60041,2.55248 4.65043,2.55248 0.05,0 1.27571,-0.595286 2.72381,-1.322858 z m -38.66018,-5.099734 c 2.11986,-0.793139 4.82395,-3.161706 6.60672,-5.786957 1.89852,-2.795686 1.90812,-2.704825 -0.39915,-3.778787 -3.97858,-1.851901 -7.54766,-2.377648 -9.78755,-1.441763 -2.87759,1.202336 -4.31708,3.186982 -4.29588,5.922819 0.0136,1.757923 0.54602,2.962458 1.86037,4.208931 1.75654,1.665834 3.30234,1.890877 6.01549,0.875757 z m 77.80587,-0.460723 c 2.06682,-1.576435 2.91127,-4.635114 1.92883,-6.986387 -0.55961,-1.339376 -2.86422,-3.319623 -4.3407,-3.729786 -2.44841,-0.68016 -5.54691,-0.156608 -9.45779,1.598086 -1.47677,0.66258 -2.05331,1.076992 -1.88867,1.357559 4.36944,7.445833 10.00403,10.624077 13.75833,7.760528 z M 206.51208,64.448442 c 1.11219,-2.35663 2.02214,-4.478662 2.02214,-4.715626 0,-0.555004 -4.47702,-10.319977 -4.83209,-10.539417 -0.28867,-0.178419 -2.58899,4.21952 -4.32256,8.264217 l -1.06483,2.484394 1.99964,4.075606 c 1.09978,2.241588 2.25844,4.72361 2.57476,5.51561 l 0.5751,1.44 0.51286,-1.12 c 0.28205,-0.616 1.42279,-3.048154 2.53498,-5.404784 z m -14.78029,-0.881958 c 0.79335,-1.697709 1.43927,-3.317709 1.4354,-3.6 -0.0128,-0.944765 -3.68212,-7.970778 -3.99773,-7.655159 -0.0592,0.05919 -0.40928,1.963581 -0.77799,4.231978 l -0.67033,4.124361 1.15961,2.992781 c 0.63776,1.646029 1.21562,2.992781 1.2841,2.992781 0.0685,0 0.7736,-1.389034 1.56694,-3.086742 z m 26.43677,0.12576 1.15434,-2.959018 -0.67357,-4.24 c -0.37043,-2.332 -0.76141,-4.24 -0.8688,-4.24 -0.10739,0 -1.07959,1.710912 -2.16045,3.802029 l -1.96515,3.802025 1.51942,3.397975 c 0.83568,1.868883 1.59152,3.397529 1.67965,3.396989 0.0881,-6.4e-4 0.67968,-1.332538 1.31456,-2.96 z m -21.43184,-10.26073 c 0.37037,-0.736058 1.6095,-2.89959 2.75366,-4.80785 l 2.08032,-3.469564 -2.8111,-4.176816 c -1.78736,-2.65578 -3.98627,-5.386621 -6.03821,-7.49897 l -3.22716,-3.322148 -3.60148,2.379025 c -1.9808,1.308464 -4.96204,3.054272 -6.62499,3.879574 l -3.02356,1.500551 0.70501,1.105875 c 0.55641,0.872765 1.15608,1.262941 2.84492,1.851017 4.35926,1.517956 9.29082,5.643911 13.52816,11.318234 1.2009,1.608186 2.30893,2.846438 2.46227,2.751667 0.15335,-0.09477 0.58183,-0.774537 0.95216,-1.510595 z m 16.92563,-1.178288 c 2.51712,-3.431382 7.30378,-8.139898 9.75559,-9.596333 1.0336,-0.613981 2.80147,-1.426675 3.92857,-1.805984 1.56768,-0.527568 2.19248,-0.925081 2.6585,-1.691401 0.33507,-0.550964 0.60921,-1.061204 0.60921,-1.133872 0,-0.07267 -1.6048,-0.965936 -3.56624,-1.985044 -1.96144,-1.019107 -4.86835,-2.740835 -6.45984,-3.82606 l -2.89356,-1.97314 -1.39181,1.163389 c -1.75808,1.469597 -4.27216,4.320109 -6.53402,7.408445 -1.82073,2.486042 -4.11453,6.091738 -4.11453,6.467754 0,0.118323 0.76746,1.483481 1.70544,3.033689 0.93802,1.550205 2.19568,3.719335 2.79482,4.820285 0.59917,1.10095 1.18461,1.96495 1.30099,1.92 0.11639,-0.04495 1.10947,-1.305728 2.20688,-2.801728 z m -29.48598,-4.374944 0.0379,-1.974944 -1.99734,-1.305056 c -1.09857,-0.717779 -2.15175,-1.305056 -2.34045,-1.305056 -0.1887,0 0.6021,1.871587 1.75733,4.159085 2.31878,4.591504 2.46224,4.615536 2.54256,0.425971 z m 41.13206,-0.323514 c 1.15255,-2.23215 2.03923,-4.114768 1.9704,-4.183593 -0.17779,-0.177815 -1.72473,0.664781 -3.22461,1.756416 l -1.28,0.931606 0.10352,2.777015 c 0.0569,1.527356 0.15562,2.777014 0.2193,2.777014 0.0637,0 1.05882,-1.826304 2.21139,-4.058458 z m -58.8992,-8.755536 c 1.32072,-0.183696 3.00218,-0.507958 3.73657,-0.720582 l 1.33525,-0.386589 -1.71341,-2.559417 c -2.32446,-3.472173 -6.04371,-7.16605 -8.35077,-8.293794 -1.59967,-0.781957 -2.12515,-0.881883 -4.06196,-0.772443 -1.89094,0.106847 -2.4073,0.271059 -3.44264,1.094809 -2.27473,1.809842 -3.28103,5.051309 -2.20661,7.107901 1.89454,3.626448 7.89933,5.476499 14.70357,4.530115 z m 83.66947,-0.651184 c 2.49453,-0.850339 4.43402,-2.297568 5.28343,-3.942422 0.57513,-1.113798 0.60486,-1.435344 0.27705,-2.998131 -0.69597,-3.318161 -3.01341,-5.176463 -6.46496,-5.184115 -2.41747,-0.0054 -4.53302,1.047432 -7.24419,3.605026 -2.01446,1.90035 -5.55971,6.388785 -6.04486,7.653054 -0.1921,0.500598 0.94736,0.85831 5.28905,1.660409 1.82336,0.336851 6.92064,-0.117561 8.90448,-0.793821 z m -67.8191,-9.745037 c 1.07504,-0.482452 1.95463,-0.98553 1.95463,-1.11795 0,-0.550311 -4.13167,-1.345658 -6.34171,-1.22078 -2.47625,0.139921 -3.68138,0.830013 -3.51238,2.011289 0.23367,1.633339 4.5874,1.813805 7.89946,0.327441 z m 49.12582,0.682866 c 0.58887,-0.246042 1.16692,-0.603066 1.28455,-0.793387 0.35616,-0.576283 -0.3809,-1.550564 -1.45674,-1.925605 -1.84694,-0.643846 -6.59766,-0.272246 -7.95901,0.622552 -0.41331,0.271661 -0.39283,0.370264 0.1474,0.709644 1.21561,0.763688 4.50672,1.817273 5.70288,1.825659 0.66566,0.0047 1.69206,-0.192821 2.28092,-0.438863 z m -38.3943,-4.137467 c -0.0897,-0.23365 -0.0131,-0.819024 0.17005,-1.300832 0.55894,-1.470171 0.39702,-2.583022 -0.49741,-3.418572 -0.98749,-0.922481 -2.30854,-3.09903 -2.8671,-4.723731 -0.26464,-0.769811 -0.60083,-1.168419 -0.98669,-1.169861 -0.32189,-0.0012 -0.63418,-0.254188 -0.69398,-0.562188 -0.0754,-0.38822 0.0948,-0.56 0.55478,-0.56 0.37642,0 0.66346,-0.207675 0.66346,-0.48 0,-0.264 -0.216,-0.48 -0.48,-0.48 -0.27549,0 -0.48,-0.288591 -0.48,-0.677322 0,-0.519664 0.14889,-0.638385 0.63968,-0.510042 0.81372,0.212795 1.2215,-0.401033 0.52524,-0.790673 -0.2887,-0.161571 -0.52492,-0.5206092 -0.52492,-0.7978642 0,-0.384854 0.21814,-0.460468 0.9222,-0.319654 1.07949,0.215893 1.45632,-0.03197 0.9592,-0.630927 -0.4768,-0.574508 -0.11315,-1.431667 0.50647,-1.193886 0.27069,0.103862 0.49213,0.384915 0.49213,0.624562 0,0.252048 0.19846,0.359566 0.47078,0.255062 0.25894,-0.09936 0.43894,-0.484941 0.4,-0.856841 -0.0444,-0.423621 0.13837,-0.719726 0.48922,-0.792762 0.39075,-0.08135 0.56,0.08394 0.56,0.546884 0,0.867429 0.83411,0.859374 1.06153,-0.01025 0.22442,-0.858123 1.02695,-0.61075 0.99306,0.3061 -0.0173,0.469707 0.16608,0.687613 0.57888,0.687613 0.33235,0 0.51469,-0.145016 0.40512,-0.32226 -0.10954,-0.177243 0.0405,-0.414226 0.33341,-0.526629 0.6456,-0.24773 1.20095,0.511309 0.76153,1.040786 -0.20886,0.251669 -0.15939,0.431107 0.15181,0.550527 0.25392,0.09744 0.54109,-0.02974 0.63814,-0.282629 0.20506,-0.534416 1.02455,-0.612196 1.32519,-0.125777 0.11353,0.18371 0.051,0.521334 -0.13904,0.750277 -0.26676,0.321413 0.0102,0.609873 1.21574,1.2659832 0.85869,0.467347 1.97376,0.847267 2.47792,0.844266 1.27085,-0.0076 4.06774,-1.6754902 3.59773,-2.1455042 -0.19427,-0.194301 -0.25651,-0.509822 -0.13827,-0.701157 0.32668,-0.528561 1.13724,-0.415387 1.13724,0.158784 0,0.278667 0.18,0.445949 0.4,0.371739 0.22,-0.07421 0.4,-0.479529 0.4,-0.900707 0,-0.474294 0.21316,-0.807429 0.56,-0.875202 0.38624,-0.07547 0.56,0.09334 0.56,0.543997 0,0.460064 0.14749,0.596827 0.4984,0.46217 0.27412,-0.105188 0.43143,-0.365727 0.3496,-0.578976 -0.0818,-0.213249 -0.0326,-0.57565 0.10932,-0.805336 0.35068,-0.56745 1.40176,-0.136231 1.16592,0.478346 -0.12349,0.321844 0.0188,0.477302 0.43676,0.477302 0.41802,0 0.56026,-0.155458 0.43677,-0.477303 -0.23584,-0.614577 0.81523,-1.045796 1.16592,-0.478345 0.14195,0.229685 0.184,0.610669 0.0935,0.846629 -0.0926,0.241186 0.0455,0.429019 0.31533,0.429019 0.264,0 0.56196,-0.213572 0.66215,-0.474605 0.10361,-0.270058 0.39421,-0.393218 0.67421,-0.285763 0.58025,0.222653 0.65536,0.972622 0.11545,1.152587 -0.70435,0.234788 0.0836,0.893209 0.84138,0.703027 0.93971,-0.235856 1.43254,0.455989 0.70419,0.9885772 -0.7528,0.550449 -0.65424,1.122147 0.17798,1.032404 0.45546,-0.04911 0.74836,0.122961 0.82346,0.483773 0.0813,0.390754 -0.0839,0.56 -0.54688,0.56 -0.37642,0 -0.66346,0.207675 -0.66346,0.48 0,0.264 0.27949,0.48 0.62112,0.48 0.3416,0 0.6921,0.114876 0.77888,0.255279 0.26852,0.434444 -0.34972,1.127833 -0.8384,0.940315 -0.33401,-0.128171 -0.60854,0.28228 -0.98547,1.473371 -0.30105,0.95134 -1.21059,2.499837 -2.14614,3.65391 l -1.62368,2.002874 0.44669,1.753935 c 0.24569,0.964665 0.37328,1.827371 0.28352,1.917126 -0.0897,0.08975 -4.82372,0.16319 -10.51991,0.16319 -8.31283,0 -10.38886,-0.08384 -10.51971,-0.424816 z m 18.88426,-1.635695 c -0.53018,-0.393056 -0.56218,-0.55711 -0.21844,-1.12 l 0.40269,-0.659489 h -8.48269 c -4.6655,0 -8.48271,0.1152 -8.48271,0.256 0,0.1408 0.18,0.438494 0.4,0.661543 0.3206,0.325043 0.2767,0.496545 -0.22116,0.864 -0.54444,0.401833 0.48084,0.458457 8.30115,0.458457 7.83757,0 8.84682,-0.05599 8.30116,-0.460511 z m -14.1137,-0.360998 c -0.26669,-0.695028 0.4104,-1.348645 0.89504,-0.864 0.4096,0.40961 0.15584,1.365509 -0.3625,1.365509 -0.18704,0 -0.42668,-0.225679 -0.53254,-0.501509 z m 3.52,0 c -0.26669,-0.695028 0.4104,-1.348645 0.89504,-0.864 0.4096,0.40961 0.15584,1.365509 -0.3625,1.365509 -0.18704,0 -0.42668,-0.225679 -0.53254,-0.501509 z m 3.30579,0.0449 c -0.23219,-0.605148 0.48682,-1.181816 1.04413,-0.837387 0.52986,0.327475 0.22131,1.293996 -0.41309,1.293996 -0.25069,0 -0.53465,-0.205472 -0.63104,-0.456604 z m 3.41008,-0.05569 c -0.24541,-0.639538 0.53293,-1.169175 1.06691,-0.726003 0.48423,0.401868 0.20423,1.238302 -0.41452,1.238302 -0.25069,0 -0.54426,-0.230533 -0.65239,-0.512296 z m -12.90332,-2.576785 c 0,-0.114994 -0.72672,-0.97747 -1.61492,-1.916613 -1.92675,-2.037267 -2.54508,-3.382952 -2.54508,-5.53898 0,-1.321739 0.16499,-1.789789 0.93417,-2.650277 0.82051,-0.9178842 1.12227,-1.0418182 2.48,-1.0185012 0.88627,0.01522 2.0929,0.308264 2.828,0.686808 1.22717,0.6319212 3.86979,3.1966612 5.03504,4.8866442 l 0.55158,0.8 -0.31081,-0.891417 c -0.34877,-1.000253 0.0285,-1.319761 1.33875,-1.133564 0.5929,0.08426 0.73078,0.285676 0.6816,0.995584 -0.0548,0.791584 0.0928,0.680139 1.33574,-1.008252 3.17965,-4.3192612 7.80288,-5.7192372 9.68592,-2.933035 1.45568,2.15386 0.68128,5.125009 -2.08339,7.993304 -1.45232,1.506738 -1.67785,2.251919 -0.55065,1.819379 0.96192,-0.369129 3.3087,-4.044411 3.70057,-5.795492 0.33728,-1.507141 0.31523,-1.937194 -0.16352,-3.190771 -1.28723,-3.3706272 -3.52323,-3.6212282 -8.70605,-0.975736 -1.89641,0.968 -3.78716,1.76 -4.20166,1.76 -0.41453,0 -2.16541,-0.735479 -3.89091,-1.634397 -4.79594,-2.4985212 -7.38243,-2.4784232 -8.68125,0.06746 -1.24115,2.43285 -0.42029,5.778629 2.10301,8.5716 1.04893,1.161024 2.07386,1.70776 2.07386,1.106259 z m 6.47999,-1.326739 c 1.18919,-1.113402 1.15677,-1.703533 -0.08,-1.45618 -0.91718,0.183436 -0.96,0.143111 -0.96,-0.904 0,-0.6028 0.14778,-1.24377 0.32839,-1.424379 0.44806,-0.448057 -1.45424,-2.817177 -3.20758,-3.994735 -2.70416,-1.8161412 -4.98634,-1.6080282 -5.71895,0.521512 -0.66557,1.934769 -0.0906,3.55888 2.09629,5.920947 1.84,1.987403 2.72806,2.310789 2.82234,1.027754 0.0689,-0.937207 -0.70714,-1.650725 -0.99095,-0.911139 -0.32189,0.838862 -0.82048,0.588762 -0.71078,-0.356545 0.0557,-0.479922 0.38925,-1.019922 0.74125,-1.2 0.38371,-0.196304 0.60313,-0.584629 0.54793,-0.969737 -0.0507,-0.353277 0.11376,-0.923842 0.36535,-1.267921 0.38912,-0.532146 0.53433,-0.561798 0.97209,-0.198496 0.28304,0.234907 0.51462,0.831768 0.51462,1.326357 0,0.618211 0.20004,0.962737 0.64,1.102382 0.45796,0.145349 0.64,0.484171 0.64,1.19116 0,0.964293 -0.0154,0.974261 -0.63334,0.414878 -0.68282,-0.617948 -0.60573,-0.683601 -1.11504,0.949834 -0.1904,0.61075 1.37082,1.474338 2.22838,1.23262 0.352,-0.09922 1.036,-0.551156 1.52,-1.004312 z m 6.8888,0.717675 c 0.71645,-0.501826 0.97117,-1.86342 0.41309,-2.208323 -0.16393,-0.101332 -0.50605,0.11266 -0.76022,0.475536 -0.4145,0.591774 -0.48346,0.60417 -0.66915,0.120273 -0.39872,-1.039034 0.18486,-1.922388 1.16748,-1.767236 0.132,0.02084 0.24,-0.438582 0.24,-1.020943 0,-0.582362 0.18759,-1.315365 0.41684,-1.628896 0.38918,-0.532244 0.4464,-0.534428 0.86262,-0.03292 0.24518,0.295425 0.43187,1.028113 0.41485,1.628195 -0.017,0.600081 0.0776,1.023986 0.21024,0.94201 0.13264,-0.08198 0.49961,0.03993 0.81549,0.270912 0.4414,0.32276 0.5184,0.635162 0.33267,1.34975 -0.23402,0.900415 -0.25027,0.907211 -0.51488,0.215119 -0.37498,-0.980686 -1.15472,-0.606358 -1.18816,0.570391 -0.0173,0.608309 0.13235,0.944279 0.42061,0.944279 0.6824,0 2.71363,-1.909553 3.72582,-3.50265 1.79952,-2.832267 0.87594,-6.101744 -1.72154,-6.094347 -1.45344,0.0041 -4.11868,1.608233 -5.5263,3.32602 -1.00835,1.230557 -1.1215,1.525655 -0.80899,2.1096 0.19984,0.373403 0.27197,1.094923 0.16029,1.603378 -0.18592,0.846585 -0.26871,0.89454 -0.98266,0.569251 -0.42877,-0.195368 -0.8625,-0.272317 -0.96381,-0.170997 -0.34483,0.344825 0.95296,1.923583 1.93168,2.349901 1.23875,0.539576 1.18282,0.540911 2.02403,-0.0483 z m -4.195,-2.886668 c 0.10656,-0.277647 -0.0214,-0.719933 -0.28432,-0.982857 -0.42407,-0.424059 -0.53588,-0.420211 -0.99018,0.03407 -0.28166,0.281665 -0.43082,0.723951 -0.33146,0.982857 0.24036,0.626359 1.36167,0.602568 1.60596,-0.03407 z m -2.4538,-6.855184 c -1.05417,-1.0541622 -0.77187,-1.2800002 1.6,-1.2800002 2.39396,0 2.80736,0.347357 1.65482,1.3904042 -0.80515,0.728654 -2.47232,0.672104 -3.25482,-0.110404 z m -0.32393,-2.5526662 c 0.18624,-0.347966 0.62329,-0.785033 0.97126,-0.971259 0.56563,-0.302715 0.63267,-0.235679 0.63267,0.632666 0,0.868346 -0.10291,0.971259 -0.97126,0.971259 -0.86835,0 -0.93539,-0.06704 -0.63267,-0.632666 z m 2.24393,-0.327334 c 0,-1.11859 0.38512,-1.214872 1.28,-0.32 0.89488,0.894873 0.7986,1.28 -0.32,1.28 -0.85334,0 -0.96,-0.106666 -0.96,-0.96 z m -1.18396,-1.479618 c -0.2634,-0.111833 -0.29495,-0.397228 -0.10045,-0.908803 0.36329,-0.955486 0.15209,-1.145113 -1.01533,-0.911631 -0.92816,0.18563 -0.94246,0.167699 -0.84221,-1.055555 0.0854,-1.042266 0.20592,-1.226589 0.74195,-1.134783 0.352,0.06029 0.784,0.132286 0.96,0.16 0.176,0.02772 0.27069,-0.23761 0.2104,-0.58961 -0.0603,-0.35200002 -0.13228,-0.78400002 -0.16,-0.96000002 -0.0278,-0.176 0.4536,-0.32 1.0696,-0.32 1.06692,0 1.11616,0.04929 1.03879,1.04 -0.091,1.16540102 -0.10445,1.15557602 1.00339,0.73438402 0.6625,-0.251885 0.83722,-0.200408 0.99376,0.292786 0.10445,0.329122 0.0987,0.961977 -0.0128,1.406346 -0.17763,0.707697 -0.30093,0.77063 -0.99376,0.507214 -1.09325,-0.415651 -1.08141,-0.42448 -0.99053,0.73927 0.0706,0.90411 -0.0234,1.048063 -0.71878,1.101706 -0.44,0.03394 -0.9728,-0.01166 -1.18397,-0.101324 z m 1.71776,-2.545195 c 0.10656,-0.277647 -0.0214,-0.719933 -0.28432,-0.982857 -0.42407,-0.424059 -0.53588,-0.420211 -0.99018,0.03407 -0.28166,0.281665 -0.43082,0.72395 -0.33146,0.982857 0.24036,0.626358 1.36167,0.602567 1.60596,-0.03407 z"
       id="path24769" />
  </g>
</svg>
