<?xml version="1.0" encoding="UTF-8" standalone="no"?>
<!-- Created with Inkscape (http://www.inkscape.org/) -->

<svg
   version="1.1"
   id="svg26637"
   width="2501"
   height="1669"
   viewBox="0 0 2501 1669"
   sodipodi:docname="W&amp;M IT Logo transparent v02 (1).png"
   xmlns:inkscape="http://www.inkscape.org/namespaces/inkscape"
   xmlns:sodipodi="http://sodipodi.sourceforge.net/DTD/sodipodi-0.dtd"
   xmlns="http://www.w3.org/2000/svg"
   xmlns:svg="http://www.w3.org/2000/svg">
  <defs
     id="defs26641" />
  <sodipodi:namedview
     id="namedview26639"
     pagecolor="#ffffff"
     bordercolor="#000000"
     borderopacity="0.25"
     inkscape:showpageshadow="2"
     inkscape:pageopacity="0.0"
     inkscape:pagecheckerboard="0"
     inkscape:deskcolor="#d1d1d1"
     showgrid="false" />
  <g
     inkscape:groupmode="layer"
     inkscape:label="Image"
     id="g26643"
     transform="translate(806.67697,-64.241785)">
    <path
       style="fill:#ffffff;fill-opacity:1"
       d="m 393.32305,1733.7361 c -5.775,-0.4215 -17.05079,-0.8216 -25.05731,-0.889 -30.69892,-0.2584 -84.11421,-8.9683 -135.44269,-22.0854 -170.160765,-43.4848 -322.536325,-140.5045 -436.31814,-277.8098 -92.90548,-112.1131 -155.75949,-250.4432 -179.58205,-395.2273 -6.49396,-39.4677 -8.09881,-66.91269 -8.09881,-138.50002 0,-71.58733 1.60485,-99.03232 8.09881,-138.5 C -341.82413,510.00531 -188.07878,291.46596 34.812835,166.72025 119.38047,119.39029 216.21422,86.058402 312.15944,71.252643 c 36.74158,-5.669766 62.03683,-7.016691 131.66361,-7.010839 85.52817,0.0072 114.76658,2.470135 173,14.572952 143.6388,29.852854 274.47879,95.880264 385.99995,194.791944 16.7056,14.81675 51.8011,49.91224 66.6179,66.61788 106.7298,120.33606 175.5498,264.10832 201.2823,420.5 6.494,39.46768 8.0988,66.91267 8.0988,138.5 0,71.58733 -1.6048,99.03232 -8.0988,138.50002 -32.7856,199.2576 -136.1152,378.5237 -293.40016,509.0189 -72.07769,59.801 -159.73259,109.6045 -249.5638,141.7965 -68.8324,24.6668 -149.75541,41.9476 -207.4362,44.2972 -30.69815,1.2504 -114.09662,1.8407 -126.99999,0.8989 z m 82.3565,-112.5192 c 101.53158,-3.2735 213.949,-34.0831 307.139,-84.1759 211.5312,-113.7053 353.33565,-322.5482 379.43675,-558.81642 3.1382,-28.40668 4.1598,-47.80855 4.1598,-79 0,-31.19145 -1.0216,-50.59332 -4.1598,-79 -35.519,-321.52024 -283.69355,-582.48139 -603.43225,-634.52261 -21.08164,-3.43128 -47.67947,-6.47063 -69.60613,-7.95392 -20.08475,-1.3587 -70.70299,-1.3587 -90.78774,0 -55.54175,3.75728 -109.49396,13.50119 -161.60613,29.18646 -277.197815,83.43393 -479.72791,326.30028 -511.43231,613.29007 -3.13815,28.40668 -4.15976,47.80855 -4.15976,79 0,31.19145 1.02161,50.59332 4.15976,79 36.65661,331.81742 299.398575,597.67852 630.93231,638.42232 31.95785,3.9274 71.46049,6.2238 93.5,5.4354 4.95,-0.1771 16.58542,-0.5665 25.8565,-0.8654 z M 250.32305,1166.2246 V 977.72458 h 27 27 v 188.50002 188.5 h -27 -27 z m 257,24.5 v -164 h -61.5 -61.5 v -24.5 -24.50002 h 150 150 v 24.50002 24.5 h -61.5 -61.5 v 164 164 h -27 -27 z m 54,-429.88339 c 0,-7.41023 0.55196,-8.06608 6.81952,-8.10298 5.00309,-0.0294 17.58667,-6.21986 22.1982,-10.92027 10.64189,-10.84699 11.34857,-19.16041 10.70835,-125.97369 -0.48095,-80.24025 -0.53125,-81.07325 -5.28425,-87.52107 -2.83219,-3.84207 -10.25534,-5.59862 -23.65975,-5.59862 h -10.78207 v -7.5 -7.5 h 41.85917 41.85913 l 4.5247,10.75 c 7.7962,18.52282 20.8639,48.28352 26.35519,60.02193 1.87101,3.99957 3.40181,7.4772 3.40181,7.72807 0,0.25087 1.56469,3.79811 3.47699,7.88274 1.9124,4.08464 4.34301,9.60701 5.40141,12.27194 1.0584,2.66492 3.2791,7.77032 4.9349,11.34532 3.7249,8.04205 10.0342,22.31529 15.6923,35.5 2.3602,5.5 6.40159,14.725 8.9807,20.5 2.5791,5.775 6.4109,14.55 8.5151,19.5 4.1909,9.85912 8.0858,17.74819 8.5368,17.29159 0.1584,-0.16038 1.7164,-3.89159 3.4623,-8.29159 1.7458,-4.4 3.5527,-8.45723 4.0152,-9.01606 0.4625,-0.55883 2.40039,-4.83383 4.3064,-9.5 1.906,-4.66617 4.5851,-10.95894 5.9535,-13.98394 1.3684,-3.025 6.4469,-14.5 11.2856,-25.5 4.8387,-11 9.0839,-20.225 9.43369,-20.5 0.34981,-0.275 2.13611,-4.325 3.96971,-9 1.8335,-4.675 4.131,-9.85 5.10559,-11.5 0.97451,-1.65 2.72871,-5.475 3.89811,-8.5 1.1693,-3.025 3.2129,-7.75 4.54129,-10.5 3.28941,-6.80986 10.9314,-24.17207 15.18521,-34.5 1.9255,-4.675 3.86279,-8.95 4.3052,-9.5 0.44239,-0.55 2.3508,-4.825 4.241,-9.5 1.8901,-4.675 4.96499,-11.7625 6.8331,-15.75 l 3.39659,-7.25 h 42.2647 42.2646 v 7.39315 7.39315 l -15.25,0.41469 c -19.4118,0.52787 -21.734,1.393 -25.5395,9.5145 l -2.7105,5.78451 v 99 99 l 2.7994,5.70061 c 2.3978,4.88285 3.5576,6.07158 8.0848,8.28654 4.6133,2.25708 7.0233,2.66448 18.9506,3.20361 l 13.6652,0.61768 v 6.84578 6.84578 h -64.5 -64.5 v -7 -7 l 7.25,-0.0198 c 9.4077,-0.0257 19.50121,-1.51049 23.3624,-3.4367 4.0637,-2.02727 5.855,-4.12692 8.5994,-10.08003 l 2.2882,-4.96347 0.2875,-90 c 0.2449,-76.63695 0.083,-89.70304 -1.0885,-88 -0.75679,1.1 -3.22269,6.275 -5.47959,11.5 -6.69421,15.49731 -12.24041,28.13869 -14.917,34 -1.3814,3.025 -4.08901,9.325 -6.0168,14 -1.9278,4.675 -3.83761,8.95 -4.24401,9.5 -0.40639,0.55 -2.125,4.375 -3.819,8.5 -1.694,4.125 -4.87099,11.1 -7.06,15.5 -2.189,4.4 -5.18319,10.925 -6.6538,14.5 -1.47059,3.575 -3.9265,9.2 -5.4575,12.5 -1.53109,3.3 -3.1279,7.125 -3.5486,8.5 -0.4207,1.375 -2.2908,5.54581 -4.1557,9.26846 -1.86489,3.72266 -4.2493,8.89766 -5.29869,11.5 -1.04941,2.60235 -4.89371,11.25654 -8.54301,19.23154 -3.6492,7.975 -8.261,18.55 -10.2485,23.5 -1.98749,4.95 -3.88329,9.225 -4.2128,9.5 -0.3296,0.275 -1.4426,2.4125 -2.4735,4.75 l -1.8742,4.25 -7.59819,-0.0123 -7.59811,-0.0123 -2.8789,-7.23768 c -1.5834,-3.98073 -3.973,-9.46605 -5.31019,-12.18962 -1.33721,-2.72357 -4.02101,-8.79857 -5.96411,-13.5 -1.9431,-4.70143 -3.8917,-8.99806 -4.3301,-9.54806 -0.4384,-0.55 -2.3962,-4.825 -4.3506,-9.5 -1.9544,-4.675 -6.1064,-14.125 -9.22669,-21 -3.1203,-6.875 -7.59371,-17 -9.9409,-22.5 -6.7867,-15.90231 -19.47191,-44.59222 -28.51881,-64.5 -2.8743,-6.325 -6.98229,-15.65672 -9.12899,-20.73716 -2.1466,-5.08044 -4.7359,-10.70544 -5.75391,-12.5 -1.01799,-1.79456 -3.1023,-6.52534 -4.63189,-10.51284 -1.5295,-3.9875 -3.1598,-7.25 -3.6229,-7.25 -1.1341,0 -1.0262,134.69734 0.1225,153 0.915,14.57874 2.6688,25 4.2072,25 0.4556,0 0.8339,0.5625 0.8408,1.25 0.02,2.05239 7.4774,9.45132 11.6262,11.53579 5.1078,2.56629 12.7463,4.90388 18.6113,5.69558 l 4.75,0.64118 v 6.93872 6.93873 h -48.5 -48.5 v -6.88337 z m -493.478855,4.63337 c -0.22884,-0.6875 -1.98921,-5.975 -3.91192,-11.75 -1.92272,-5.775 -4.46576,-14.1 -5.65121,-18.5 -1.18545,-4.4 -2.75896,-9.35 -3.4967,-11 -0.73774,-1.65 -3.23169,-9.75 -5.54211,-18 -2.31042,-8.25 -4.52542,-15.45 -4.92224,-16 -0.39681,-0.55 -2.42045,-7.075 -4.49697,-14.5 -2.07652,-7.425 -4.10961,-13.95 -4.51798,-14.5 -0.40837,-0.55 -2.63034,-7.69797 -4.9377,-15.88438 -2.30737,-8.18641 -4.60476,-15.61141 -5.10531,-16.5 -0.50055,-0.88859 -2.52086,-7.45477 -4.48958,-14.59151 -1.96871,-7.13674 -3.92123,-13.43674 -4.33893,-14 -0.4177,-0.56326 -1.50469,-3.72411 -2.41554,-7.02411 -4.39236,-15.9135 -7.1467,-25.04549 -7.69116,-25.5 -0.32943,-0.275 -2.09875,-5.675 -3.93183,-12 -3.45776,-11.93092 -8.76496,-23.84392 -12.37058,-27.76807 -2.4715,-2.68984 -10.37964,-5.23193 -16.2759,-5.23193 -4.9773,0 -5.42549,-0.75023 -5.42549,-9.08179 v -5.91821 h 49.5 49.5 l -0.0153,6.25 c -0.008,3.4375 -0.34592,6.74471 -0.75,7.34936 -0.40408,0.60464 -3.93688,1.3609 -7.85067,1.68058 -9.71328,0.79337 -14.08525,2.76076 -15.92621,7.1668 -1.32832,3.17911 -1.27968,4.36491 0.50394,12.28599 2.9025,12.89003 5.00055,20.5143 5.97415,21.70997 0.47352,0.58152 2.29861,6.4573 4.05576,13.0573 1.75716,6.6 3.80677,13.35 4.55469,15 0.74793,1.65 3.22821,9.75 5.51174,18 2.28353,8.25 4.50557,15.45 4.93786,16 0.43229,0.55 2.48193,7.3 4.55474,15 2.07282,7.7 4.11121,14.22951 4.52975,14.51002 0.41855,0.28051 1.0759,1.85551 1.46078,3.5 1.89112,8.08023 7.73433,28.10922 8.45746,28.98998 0.45156,0.55 1.25129,2.575 1.77716,4.5 l 0.95613,3.5 0.78799,-3 c 0.43339,-1.65 1.08607,-3.225 1.45039,-3.5 0.36433,-0.275 2.36553,-6.35 4.44711,-13.5 2.08159,-7.15 4.582815,-14.8 5.558285,-17 0.97547,-2.2 3.25047,-9.175 5.05555,-15.5 1.80508,-6.325 3.61036,-11.95 4.01173,-12.5 0.40137,-0.55 2.6047,-7.3 4.8963,-15 2.29159,-7.7 4.77576,-15.35 5.52038,-17 0.74461,-1.65 2.76835,-7.95 4.4972,-14 1.72885,-6.05 3.9693,-12.8 4.97879,-15 1.00949,-2.2 3.34131,-9.4 5.18183,-16 1.84052,-6.6 3.62163,-12.225 3.95802,-12.5 0.33639,-0.275 2.28024,-6.125 4.31968,-13 2.03943,-6.875 4.35981,-13.91801 5.15641,-15.65113 0.7966,-1.73312 1.44836,-3.64562 1.44836,-4.25 -1e-5,-0.71016 2.93352,-1.09887 8.2929,-1.09887 h 8.29292 l 1.86743,5.75 c 1.02708,3.1625 2.40054,6.65 3.05213,7.75 0.65159,1.1 2.88968,7.175 4.97352,13.5 2.08385,6.325 4.15929,11.97288 4.61211,12.55084 0.45281,0.57796 2.66185,6.63008 4.90898,13.44916 2.24713,6.81908 4.45613,12.8712 4.90889,13.44916 0.45276,0.57796 2.75077,6.90084 5.1067,14.05084 2.35592,7.15 4.57668,13.225 4.93502,13.5 0.35834,0.275 2.15909,5.225 4.00166,11 1.84257,5.775 3.88732,11.4 4.54389,12.5 0.65657,1.1 3.13083,7.85 5.49834,15 2.36752,7.15 4.62182,13.225 5.00956,13.5 0.38774,0.275 2.11463,4.8994 3.83752,10.27644 1.72289,5.37705 3.98676,11.67705 5.03083,14 1.04406,2.32296 2.93881,7.48714 4.21055,11.47596 1.27174,3.98881 2.63464,6.91381 3.02867,6.5 0.39404,-0.41382 2.16014,-6.3774 3.92468,-13.2524 1.76453,-6.875 3.56476,-12.95 4.0005,-13.5 0.43574,-0.55 2.67803,-8.425 4.98287,-17.5 2.30483,-9.075 4.59329,-16.65 5.08546,-16.83333 0.49217,-0.18334 0.89486,-0.97709 0.89486,-1.76391 0,-1.8817 4.52082,-18.82394 7.68262,-28.79144 2.82428,-8.90345 4.33897,-14.36516 7.38007,-26.61132 1.16095,-4.675 2.47641,-8.95 2.92324,-9.5 1.36785,-1.68368 5.01467,-20.59788 5.0043,-25.95475 -0.006,-3.18686 -0.87962,-6.91331 -2.37129,-10.11674 -2.02372,-4.34604 -3.0859,-5.3831 -7.42561,-7.25 -2.78525,-1.19818 -6.35346,-2.17851 -7.92935,-2.17851 -1.57589,0 -4.07645,-0.5625 -5.55681,-1.25 -2.50019,-1.16112 -2.69212,-1.69439 -2.69937,-7.5 l -0.008,-6.25 h 37.04381 37.04381 l -0.29381,7.25 c -0.27989,6.90652 -0.41225,7.26244 -2.79381,7.51266 -10.76803,1.13134 -17.07368,5.43854 -21.44114,14.64579 -6.66525,14.05131 -8.32853,18.24033 -10.95543,27.59155 -1.46778,5.225 -3.07188,10.4 -3.56466,11.5 -1.30997,2.92418 -3.5635,10.5932 -6.61156,22.5 -1.47836,5.775 -3.0557,10.96772 -3.50521,11.53937 -0.4495,0.57165 -1.24093,2.82165 -1.75874,5 -2.45768,10.33912 -7.43484,28.06666 -8.13095,28.96063 -0.74013,0.95049 -1.37755,3.22503 -6.16534,22 -1.12204,4.4 -2.41008,8.45 -2.86233,9 -0.45224,0.55 -2.70433,8.2 -5.00464,17 -2.30031,8.8 -4.54156,16.45 -4.98056,17 -0.439,0.55 -2.50631,7.75 -4.59402,16 -2.08772,8.25 -4.09043,15.225 -4.45048,15.5 -0.63334,0.48374 -4.2039,13.06361 -6.17333,21.75 l -0.96358,4.25 h -7.19161 c -7.10634,0 -7.2113,-0.0385 -8.85207,-3.25 -0.91325,-1.7875 -3.29645,-8.19108 -5.29599,-14.23019 -1.99955,-6.0391 -3.9945,-11.4391 -4.43323,-12 -0.43873,-0.56089 -2.27429,-5.51981 -4.07904,-11.01981 -1.80474,-5.5 -4.28281,-12.25 -5.50681,-15 -1.224,-2.75 -3.45904,-8.825 -4.96676,-13.5 -1.50772,-4.675 -3.29346,-9.4 -3.9683,-10.5 -0.67485,-1.1 -3.14068,-7.84959 -5.47963,-14.99909 -2.33895,-7.14951 -4.54783,-13.22451 -4.90862,-13.5 -0.36078,-0.2755 -2.41005,-5.67591 -4.55392,-12.00091 -2.14387,-6.325 -4.17978,-11.725 -4.52424,-12 -0.34446,-0.275 -2.61637,-6.575 -5.04867,-14 -2.43231,-7.425 -4.72407,-13.725 -5.09279,-14 -0.36873,-0.275 -2.3215,-5.39786 -4.33949,-11.38413 -2.018,-5.98628 -4.48652,-12.73628 -5.4856,-15 -0.99909,-2.26373 -2.13417,-5.00878 -2.5224,-6.10012 -0.64168,-1.80382 -0.83228,-1.71288 -2.09587,1 -0.76449,1.64134 -2.98998,8.38425 -4.94555,14.98425 -1.95556,6.6 -3.95614,12.9 -4.44573,14 -1.39499,3.13424 -3.62624,10.13596 -6.69212,21 -1.55212,5.5 -3.13824,10.22622 -3.5247,10.50271 -0.38647,0.27649 -2.56277,7.00339 -4.83622,14.94867 -2.27345,7.94528 -4.53519,14.92991 -5.02608,15.5214 -0.4909,0.5915 -2.53677,6.91459 -4.54639,14.05133 -2.00961,7.13674 -4.02231,13.42589 -4.47267,13.97589 -0.45036,0.55 -2.72109,7.525 -5.0461,15.5 -2.324985,7.975 -4.564115,14.95 -4.975825,15.5 -0.41172,0.55 -2.42744,6.78519 -4.47937,13.85598 -2.05194,7.07079 -4.3265,14.00418 -5.05457,15.40754 -0.72807,1.40336 -1.84653,4.73067 -2.48545,7.39402 l -1.16169,4.84246 h -7.43165 c -5.05673,0 -7.5646,-0.39946 -7.84772,-1.25 z m 311.554035,-9.83726 c -19.67066,-3.85931 -42.86338,-18.27525 -53.75522,-33.41274 -2.37445,-3.3 -4.73368,-6.50698 -5.24275,-7.12662 -0.50905,-0.61964 -2.42161,-4.44464 -4.25012,-8.5 l -3.32456,-7.37338 -9.9e-4,-19.5 -10e-4,-19.5 4,-7.35554 c 6.94628,-12.7734 19.71737,-22.61763 32.94044,-25.3912 l 5.28344,-1.10821 -1.75802,-5.07253 c -2.43308,-7.02037 -3.33754,-19.64517 -2.00072,-27.92637 2.49693,-15.46745 15.20195,-31.70409 30.97944,-39.59079 10.6457,-5.32148 15.04145,-6.2519 27.81496,-5.88742 10.41724,0.29725 12.44177,0.65878 17.96283,3.2077 8.6098,3.97489 15.60091,11.48871 17.83278,19.16605 3.14599,10.82181 -0.1619,25.27181 -7.19977,31.45114 -3.84843,3.37898 -6.59433,4.29632 -11.46701,3.83085 -3.2693,-0.31231 -3.39894,-0.48743 -3.68948,-4.98348 -0.17003,-2.63139 0.37409,-6.27578 1.25,-8.37213 3.95458,-9.46463 0.23606,-18.20637 -9.532,-22.40848 -6.55198,-2.81858 -12.63921,-2.90063 -20.08474,-0.27071 -14.09216,4.97764 -25.6697,17.60878 -29.36656,32.03899 -1.81135,7.07036 -1.05485,13.13659 2.50948,20.12327 1.93667,3.79619 2.13695,3.90084 8.75349,4.57382 13.75648,1.3992 19.11905,6.26275 17.98629,16.31258 -0.74779,6.63433 -4.24764,9.66246 -11.16769,9.66246 -4.78733,0 -6.07473,-0.4888 -11.22726,-4.26283 -3.20094,-2.34455 -7.70891,-5.23532 -10.01772,-6.42392 -3.79138,-1.95184 -4.60679,-2.03856 -8.42154,-0.89563 -2.82024,0.84496 -6.13643,3.17817 -9.98,7.02174 -4.61029,4.61029 -6.09452,6.91974 -7.45517,11.60021 -4.15287,14.28537 2.51609,31.49447 18.33129,47.30354 11.48627,11.48182 23.88513,18.61169 38.89038,22.3636 12.69268,3.17369 33.03289,3.12476 46.33286,-0.11146 28.07994,-6.83255 49.1389,-24.34406 53.97248,-44.88066 3.0688,-13.03855 -4.92627,-29.51743 -17.69194,-36.46538 -13.5541,-7.37707 -29.05729,-7.45668 -43.33325,-0.2225 -10.00117,5.06798 -17.91114,15.13195 -17.93752,22.82216 -0.0136,3.95914 2.66649,9.20094 6.24304,12.2104 4.71269,3.96546 6.14019,2.99621 6.90145,-4.68596 1.18093,-11.91721 5.78632,-16.86266 15.70959,-16.86957 6.52263,-0.005 12.2214,2.88248 14.67196,7.4329 1.3037,2.42082 1.6126,4.95324 1.31737,10.79983 -0.32939,6.52276 -0.82117,8.25185 -3.36942,11.84673 -1.71603,2.42082 -5.30293,5.51279 -8.44221,7.2773 -4.91543,2.76286 -6.30815,3.06688 -14,3.05607 -7.0201,-0.01 -9.52121,-0.46443 -14.04154,-2.55196 -6.95517,-3.21197 -12.63605,-8.8651 -15.77274,-15.69567 -2.20227,-4.79574 -2.40996,-6.36134 -2.0683,-15.59107 0.3485,-9.41466 0.68207,-10.87046 4.04843,-17.66894 4.75918,-9.6113 13.69929,-18.77516 22.26503,-22.82228 11.9054,-5.62503 26.53081,-8.06095 48.52758,-8.08247 25.70509,-0.0251 45.00587,-5.72718 54.70114,-16.1604 2.96604,-3.1918 6.17644,-10.6715 6.92525,-16.13476 1.42632,-10.40609 -6.28803,-22.39196 -16.28185,-25.29724 -5.65773,-1.64474 -11.11536,-1.17259 -11.96246,1.03491 -0.26552,0.69196 0.66488,3.41654 2.06756,6.05464 4.36352,8.20664 2.93395,18.69197 -3.20704,23.52248 -6.11275,4.80829 -17.81211,4.8922 -23.42649,0.168 -6.01043,-5.05744 -8.27489,-14.39764 -5.7208,-23.59655 1.46681,-5.28295 9.65215,-13.73307 16.71687,-17.25763 5.40305,-2.69583 6.36189,-2.83763 19.18728,-2.83763 12.73942,0 13.78864,0.15226 18.62319,2.70259 7.31254,3.85751 15.94537,13.73211 18.11636,20.72226 0.95234,3.06633 2.07553,5.72515 2.49598,5.90848 0.42046,0.18334 0.75498,4.90834 0.74338,10.5 -0.017,8.20025 -0.49574,11.51192 -2.4751,17.12184 -4.58119,12.98416 -14.48476,24.30121 -25.96886,29.67527 -6.87153,3.21558 -22.33038,6.83493 -29.28495,6.85642 -2.3375,0.007 -4.25,0.37895 -4.25,0.82605 0,0.4471 1.36847,2.12398 3.04104,3.72641 4.30314,4.12267 8.60197,11.14085 11.05085,18.04141 2.858,8.05338 3.09063,25.42266 0.4476,33.41927 -7.4596,22.56936 -26.31741,42.47639 -49.30169,52.04478 -13.8765,5.7768 -22.5243,6.94134 -50.7378,6.83252 -13.75,-0.053 -26.99117,-0.48709 -29.42482,-0.96456 z"
       id="path26764" />
  </g>
</svg>
