<?xml version="1.0" encoding="UTF-8" standalone="no"?>
<!-- Created with Inkscape (http://www.inkscape.org/) -->

<svg
   version="1.1"
   id="svg22669"
   width="2655.0955"
   height="1779"
   viewBox="0 0 2655.0955 1779.0001"
   xmlns="http://www.w3.org/2000/svg"
   xmlns:svg="http://www.w3.org/2000/svg">
  <defs
     id="defs22673" />
  <g
     id="g22675"
     transform="translate(474.29736,-77.134355)">
    <path
       style="fill:#ffffff;fill-opacity:1"
       d="m 1332.7981,1615.3881 c -3.575,-0.4585 -9.425,-1.5797 -13,-2.4916 -13.8413,-3.5303 -32,-14.8472 -32,-19.9431 0,-1.4908 3.7278,-6.1719 11.0869,-13.9222 12.8115,-13.4924 14.4441,-14.1395 20.9173,-8.2914 8.1277,7.3429 20.7343,12.2935 27.9691,10.9834 11.4329,-2.0703 17.359,-10.8621 11.9536,-17.734 -3.2023,-4.0711 -9.5701,-7.3183 -23.5766,-12.0229 -22.2194,-7.4631 -30.5342,-12.8505 -36.1793,-23.4418 -6.0744,-11.3969 -6.3804,-30.4796 -0.688,-42.9134 3.1531,-6.8872 12.3491,-15.9704 19.8101,-19.5672 10.042,-4.841 19.4841,-6.6889 34.1785,-6.6889 19.1712,0 32.4215,3.9674 45.7784,13.7068 7.132,5.2004 6.7706,6.332 -6.5,20.3523 -12.5485,13.2575 -13.9448,13.8999 -19.0703,8.7745 -1.7415,-1.7415 -6.017,-4.5004 -9.5012,-6.1308 -7.2257,-3.3813 -14.973,-3.8947 -19.9483,-1.3218 -3.4975,1.8086 -8.2302,7.1251 -8.2302,9.2454 0,5.4102 6.4986,10.2011 19.5,14.3759 22.1491,7.1122 33.7461,13.4781 39.9503,21.9301 4.6225,6.2971 6.5081,11.8083 7.2313,21.1363 2.0509,26.4507 -12.3933,46.4893 -37.7462,52.3657 -8.2135,1.9038 -23.5651,2.6723 -31.9354,1.5987 z M 301.79807,1537.355 v -75 h 20 20 v 57 57 h 28 28 v 18 18 h -48 -48 z m 117,0 v -75 h 20.5 20.5 v 75 75 h -20.5 -20.5 z m 76,0 v -75 l 32.75,0.01 c 45.9859,0.01 56.5262,1.909 67.8045,12.2167 6.733,6.1535 9.0229,10.3955 10.4799,19.4134 2.5521,15.7952 -1.7767,28.8172 -12.0542,36.2622 l -4.0124,2.9066 4.4823,2.1699 c 2.4653,1.1934 6.7097,4.6069 9.432,7.5854 7.5354,8.245 10.1521,18.7685 8.1845,32.9152 -2.8336,20.3722 -16.7855,32.0489 -42.389,35.4763 -4.3023,0.576 -22.8648,1.0472 -41.25,1.0472 h -33.4276 v -75 z m 65.4775,39.9336 c 2.1876,-0.6343 5.6751,-2.8509 7.75,-4.9258 3.1186,-3.1186 3.7725,-4.473 3.7725,-7.8134 0,-9.2803 -7.9151,-13.1944 -26.6815,-13.1944 h -11.3185 v 14.1486 14.1486 l 11.25,-0.6052 c 6.1875,-0.3329 13.0399,-1.1242 15.2275,-1.7584 z m -5.5774,-57.9968 c 13.4569,-3.1021 16.9128,-15.3799 5.9255,-21.0521 -3.4947,-1.8043 -6.4865,-2.3199 -15.5756,-2.6848 l -11.25,-0.4516 v 12.6259 12.6258 l 8.25,-0.024 c 4.5375,-0.014 10.23,-0.4809 12.6501,-1.0388 z m 86.0999,17.9699 v -75.0933 l 36.75,0.4308 c 33.6449,0.3944 37.4102,0.6114 44.564,2.5687 15.467,4.2319 25.1404,11.5242 30.5256,23.012 2.4973,5.3272 2.6604,6.5641 2.6604,20.1751 0,13.6688 -0.155,14.8308 -2.7038,20.2699 -3.3208,7.0867 -10.902,14.6562 -18.3073,18.2793 -5.2248,2.5563 -5.4687,2.8367 -4.2043,4.8323 14.6921,23.1868 33.7154,55.907 33.7154,57.9906 v 2.6279 h -22.8349 -22.8348 l -15.7788,-29 -15.7789,-29 h -3.3863 -3.3863 v 29 29 h -19.5 -19.5 z m 66.0921,-15.6027 c 11.3897,-5.0892 12.3016,-16.6204 1.8034,-22.804 -2.8051,-1.6522 -5.6126,-2.0609 -16.1455,-2.3504 l -12.75,-0.3504 v 14.2262 14.2263 l 11.25,-0.4479 c 8.4578,-0.3367 12.3897,-0.9571 15.8421,-2.4998 z m 60.9079,88.6696 c 0,-1.1145 13.7922,-34.8737 30.6494,-75.0206 l 30.6495,-72.9943 19.415,0.2707 19.4151,0.2706 29.9253,72 c 16.459,39.6 29.93,73.2375 29.9356,74.75 l 0.01,2.75 h -21.8465 -21.8466 l -5.5912,-14.25 -5.5912,-14.25 -25.4452,-0.2666 -25.4451,-0.2667 -5.3671,14.5072 -5.3671,14.5072 -21.75,0.01 c -21.1807,0.01 -21.75,-0.044 -21.75,-2.017 z m 93.0006,-60.7236 c 0,-1.5198 -12.5207,-35.2429 -13.0876,-35.2464 -0.3228,0 -2.4366,5.0589 -4.6972,11.2464 -2.2607,6.1875 -5.2551,14.2875 -6.6544,18 l -2.5442,6.75 h 13.4914 c 7.4203,0 13.4917,-0.3375 13.492,-0.75 z m 83.9994,-12.3504 v -75.1004 l 37.25,0.4473 c 34.07293,0.4092 37.91743,0.6291 45.07453,2.5786 22.9283,6.2451 33.7104,20.171 33.6599,43.4741 -0.039,18.0008 -7.3851,30.8028 -21.8942,38.1551 -2.7996,1.4187 -5.0902,2.7837 -5.0902,3.0333 0,0.2497 7.875,13.3884 17.5,29.1971 9.625,15.8087 17.5,29.7801 17.5,31.0476 v 2.3046 l -23.1306,-0.2685 -23.1305,-0.2684 -15.6195,-28.7276 c -15.49493,-28.4987 -15.64533,-28.7278 -18.86943,-28.75 l -3.25,-0.022 v 29 29 h -20 -20 z m 62.20083,-14.0299 c 4.0806,-0.8703 6.2765,-2.1049 9.5492,-5.3684 4.87,-4.8564 5.5435,-8.8678 2.3643,-14.0813 -3.2672,-5.3578 -7.954,-6.8771 -22.36433,-7.2495 l -12.75,-0.3294 v 14.0794 14.0795 h 8.9508 c 4.9229,0 11.33543,-0.5086 14.25003,-1.1303 z m 83.7992,14.1303 v -75 h 20 20 v 75 75 h -20 -20 z m 75,0 v -75 h 51 51 v 17.5 17.5 h -31.5 -31.5 v 11 11 h 30 30 v 16.5 16.5 h -30 -30 v 12.5 12.5 h 33.5 33.5 v 17.5 17.5 h -53 -53 z m -140.5,-251.6762 c -20.9912,-2.6343 -40.35333,-10.9473 -57.15363,-24.5385 -12.1103,-9.7969 -22.2047,-25.142 -26.5009,-40.2853 -1.8883,-6.6558 -2.2607,-10.3524 -2.2164,-22 0.046,-12.2287 0.3759,-14.9798 2.6039,-21.744 1.4029,-4.2592 3.9622,-9.9435 5.6873,-12.6318 7.1538,-11.1483 21.0467,-20.5932 34.3257,-23.3359 3.1647,-0.6537 5.754,-1.5434 5.754,-1.9773 0,-0.4338 -0.9776,-4.2813 -2.1725,-8.5499 -3.0651,-10.9499 -3.0907,-26.1256 -0.061,-35.8812 5.5625,-17.9079 24.79083,-36.0893 44.20143,-41.7945 12.8286,-3.7707 30.0168,-2.9755 40.7067,1.8832 6.7691,3.0766 13.857,9.7006 17.1112,15.9912 2.2698,4.3878 2.6086,6.2697 2.6174,14.5402 0.01,8.324 -0.3424,10.275 -2.8386,15.7618 -1.6204,3.5616 -4.5377,7.7876 -6.7654,9.8002 -3.5729,3.2278 -4.3724,3.5121 -9.1082,3.2382 l -5.191,-0.3002 0.1141,-6 c 0.063,-3.3 0.8474,-8.4495 1.7436,-11.4434 2.837,-9.4767 -0.9416,-16.6938 -11.5035,-21.9716 -10.4147,-5.2043 -22.4066,-3.6191 -34.8542,4.6074 -20.7308,13.7008 -29.77113,37.1148 -20.9821,54.3427 2.6318,5.1587 3.5737,5.6641 12.5681,6.7443 4.4473,0.5341 9.7,1.737 11.6727,2.6731 9.4787,4.4979 8.9071,22.3001 -0.7743,24.1164 -7.8254,1.468 -11.6914,0.019 -22.8934,-8.5825 -6.04723,-4.6432 -10.56943,-5.6483 -16.03003,-3.5629 -6.7551,2.5798 -13.9626,9.6156 -17.7673,17.3439 -2.8482,5.7856 -3.2588,7.6053 -3.2002,14.1848 0.1276,14.338 7.6955,29.4011 21.966,43.7216 13.5637,13.6112 28.19793,21.841 47.13353,26.5066 11.6744,2.8764 33.8178,3.0938 46.1031,0.4526 21.5549,-4.634 36.6852,-12.2771 50.4566,-25.4884 10.1968,-9.782 14.7691,-17.8862 16.7253,-29.6446 2.5561,-15.364 -8.166,-33.4138 -24.4395,-41.1421 -10.1998,-4.8439 -20.7117,-6.2304 -31.3485,-4.1348 -14.1989,2.7974 -26.8063,10.6739 -32.1994,20.1169 -3.91,6.8462 -4.7054,12.4997 -2.552,18.1383 1.8447,4.8302 8.4898,11.5217 11.4418,11.5217 2.9985,0 3.8403,-1.9968 4.3494,-10.3161 0.6833,-11.1667 5.1717,-16.5357 14.5791,-17.4396 6.2714,-0.6026 11.0607,0.9669 14.7762,4.8423 2.7506,2.869 2.9324,3.5862 3.2256,12.7268 0.3031,9.4533 0.2309,9.8168 -3,15.0934 -4.6411,7.5797 -11.0674,11.0942 -21.6065,11.8166 -25.8725,1.7734 -41.8244,-17.3318 -37.2274,-44.5862 1.534,-9.0944 6.3606,-18.8894 12.9416,-26.2636 12.7834,-14.3242 28.3561,-19.0625 66.8272,-20.3335 27.3933,-0.9051 41.0622,-3.3875 53.6597,-9.7454 18.6637,-9.4194 25.8984,-31.4252 15.4951,-47.1314 -5.4362,-8.2071 -16.8012,-13.634 -24.2472,-11.578 -5.7629,1.5912 -6.1817,3.0085 -2.7079,9.1638 3.9945,7.0778 4.3451,16.5591 0.8047,21.761 -3.8771,5.6967 -6.8628,7.2378 -14.934,7.7081 -9.563,0.5572 -15.0678,-2.0221 -18.6067,-8.7182 -2.0715,-3.9196 -2.3256,-5.532 -1.9696,-12.5 0.4769,-9.3374 2.0479,-12.9104 8.3839,-19.0683 8.4381,-8.2008 22.2034,-12.3166 37.0339,-11.0731 10.3393,0.867 17.3517,3.8296 24.3073,10.2693 10.4515,9.6762 14.3212,19.0409 14.4033,34.8559 0.062,11.899 -1.4238,18.7239 -5.9941,27.5377 -6.9635,13.4292 -18.2272,22.9497 -32.4778,27.4514 -6.1437,1.9408 -26.7725,5.5271 -31.7926,5.5271 -0.4367,0 0.9054,1.7863 2.9823,3.9696 5.7401,6.0341 9.7274,12.3047 12.5712,19.77 3.5155,9.2288 4.3628,25.5783 1.8995,36.6506 -5.0031,22.488 -24.6653,45.5799 -49.0566,57.6135 -18.2659,9.0115 -34.8682,12.0593 -64.5,11.8406 -10.725,-0.079 -20.85,-0.3134 -22.5,-0.5205 z m -1438.90738,-97.0882 c -15.89904,-51.5546 -30.54295,-98.2555 -32.54202,-103.7797 -5.69493,-15.7373 -9.81006,-19.7522 -21.7693,-21.2386 l -5.78133,-0.7186 -0.29772,-6.2494 -0.29771,-6.2493 h 44.59543 44.59543 l -0.29771,6.25 -0.29772,6.25 -6.28263,0.6929 c -7.79213,0.8595 -9.37184,1.3541 -12.70959,3.9796 -4.2205,3.3198 -4.67545,5.8519 -2.54682,14.1748 2.72841,10.668 41.12806,136.0111 41.93761,136.8917 0.37369,0.4064 13.02892,-37.2811 28.12275,-83.75 l 27.44331,-84.489 h 7.12181 7.12181 l 23.29084,63.75 c 12.80996,35.0625 26.70642,73.0875 30.88102,84.5 4.1746,11.4125 7.82186,20.7492 8.10503,20.7482 0.58898,0 32.19687,-109.5913 35.76372,-123.9982 2.80793,-11.3416 2.66671,-19.6161 -0.40559,-23.7635 -2.85312,-3.8515 -7.93518,-7.0868 -12.20502,-7.7698 -8.63599,-1.3814 -8.13825,-0.9236 -8.13825,-7.4858 v -5.9809 h 33.04772 33.04771 l -0.29771,6.2259 -0.29772,6.226 -4.1736,0.7088 c -11.80511,2.005 -17.46051,9.0107 -25.29904,31.3393 -2.7188,7.7446 -55.02736,185.4649 -55.02736,186.9574 0,0.2984 -2.87614,0.5426 -6.39142,0.5426 h -6.39142 l -1.45985,-3.75 c -0.80291,-2.0625 -15.35679,-41.4189 -32.34196,-87.4587 -16.98516,-46.0398 -31.16524,-83.1648 -31.51127,-82.5 -0.34604,0.6648 -13.14337,40.0212 -28.43851,87.4587 l -27.80935,86.25 -6.57811,-0.014 -6.57811,-0.014 -28.90735,-93.7357 z m 257.40735,88.4054 v -5.3591 l 8.43186,-0.526 c 10.53598,-0.6573 15.18571,-2.7894 18.00511,-8.2559 2.02942,-3.9348 2.06303,-5.2056 2.06303,-78 0,-67.0113 -0.15783,-74.3479 -1.67122,-77.6836 -2.38117,-5.2484 -6.48635,-7.0249 -17.57332,-7.6048 l -9.25546,-0.4842 v -5.8637 -5.8637 h 45.5 45.499999 v 5.8637 5.8637 l -9.30144,0.4866 c -11.21908,0.5868 -14.55575,2.0003 -17.19856,7.286 -1.94631,3.8926 -2,6 -2,78.5 0,73.1302 0.0374,74.5637 2.03538,77.9646 3.13252,5.3322 7.04733,7.0735 17.4124,7.745 l 9.05222,0.5864 v 5.352 5.352 h -45.499999 -45.5 z m 101.999999,0.01 v -5.352 l 9.05222,-0.5864 c 15.79941,-1.0236 18.80953,-4.4131 20.03369,-22.5588 1.02795,-15.2371 1.02901,-113.4552 0.001,-127.7122 -1.29602,-17.9805 -3.53281,-20.4755 -19.0256,-21.2215 l -10.06131,-0.4875 v -5.8663 -5.8663 H -6.2019306 41.798069 v 5.8767 5.8767 l -11.75,0.4408 c -13.63123,0.5112 -17.02492,1.7945 -19.86516,7.5117 -1.7960896,3.6154 -1.8848396,7.3336 -1.8848396,78.9704 0,74.3813 0.0218,75.2063 2.0645296,78.0001 4.06356,5.5576 8.26842,6.7116 26.06337,7.1527 17.96613,0.4454 30.29356,-0.8161 37.01046,-3.7873 10.06327,-4.4514 19.18771,-17.4911 25.39509,-36.2918 l 3.219121,-9.75 h 5.76012 5.76011 l -0.40881,15.25 c -0.22484,8.3875 -0.6711,22.1125 -0.99168,30.5 l -0.58288,15.25 h -82.894711 -82.89472 v -5.352 z m 173.000001,-0.01 v -5.3613 l 8.93644,-0.5095 c 9.61371,-0.5482 13.81628,-2.2039 17.23411,-6.79 3.42555,-4.5964 3.9745,-17.6747 3.64369,-86.8076 -0.30318,-63.3592 -0.38463,-65.8088 -2.31424,-69.6058 -3.31952,-6.5319 -5.95727,-7.7946 -17.43831,-8.3474 l -10.06169,-0.4868 v -5.8663 -5.8663 h 48 48 v 5.8767 5.8767 l -11.87023,0.4233 c -12.63958,0.4506 -15.49828,1.4036 -18.65312,6.2185 -3.03494,4.632 -3.59737,19.594 -3.28457,87.3778 0.29959,64.9222 0.36277,66.8216 2.33576,70.227 3.51773,6.0715 7.62689,7.3062 25.98867,7.8087 19.1881,0.5251 30.92214,-0.8197 38.2079,-4.3787 10.18298,-4.9743 18.66662,-17.4903 24.86262,-36.68 l 2.82521,-8.75 h 5.78353 5.78354 l -0.53631,26.25 c -0.29497,14.4375 -0.76789,28.1625 -1.05093,30.5 l -0.51462,4.25 H 201.7368 118.79807 v -5.3613 z m 173,0 v -5.3591 l 8.43186,-0.526 c 10.64081,-0.6639 15.34743,-2.8145 18.06814,-8.2559 1.94631,-3.8926 2,-6 2,-78.5 0,-73.3065 -0.0329,-74.5561 -2.05045,-78 -2.83061,-4.8317 -6.34063,-6.2207 -17.14811,-6.786 l -9.30144,-0.4866 v -5.8637 -5.8637 h 45.5 45.5 v 5.8637 5.8637 l -9.25546,0.4842 c -11.08697,0.5799 -15.19215,2.3564 -17.57332,7.6048 -1.51339,3.3357 -1.67122,10.6723 -1.67122,77.6836 0,72 0.054,74.1081 2,78 2.72071,5.4414 7.42733,7.592 18.06814,8.2559 l 8.43186,0.526 v 5.3591 5.359 h -45.5 -45.5 z m 100,-0.07 v -5.4291 l 5.3138,-1.5447 c 10.7383,-3.1218 16.528,-9.7627 24.06,-27.5972 1.9744,-4.675 17.5063,-41.8 34.5154,-82.5 l 30.9257,-74 5.3985,-0.2942 5.3986,-0.2941 33.3326,79.2941 c 39.5543,94.0949 40.5415,96.2821 45.3626,100.5013 3.2381,2.8338 11.6891,6.2929 15.3743,6.2929 0.9315,0 1.3185,1.6143 1.3185,5.5 v 5.5 h -40 -40 v -5.3518 -5.3518 l 7.9872,-0.6159 c 8.673,-0.6688 13.5179,-2.546 14.492,-5.6149 0.5585,-1.7597 -3.4593,-12.3844 -17.2307,-45.5656 l -2.9053,-7 -33.5852,-0.2632 -33.5852,-0.2632 -5.9788,15.2632 c -6.1357,15.6637 -8.9001,23.7478 -9.3226,27.2632 -0.8896,7.403 4.9244,13.7598 14.3692,15.7106 l 5.7594,1.1896 v 5.2999 5.2999 h -30.5 -30.5 z m 118.1658,-77.321 c -0.4975,-0.9625 -6.858,-16.15 -14.1346,-33.75 -7.2765,-17.6 -13.548,-32.3402 -13.9365,-32.7559 -0.5122,-0.5481 -19.9586,44.77 -28.928,67.4143 -0.1834,0.4629 12.77,0.8416 28.7852,0.8416 27.4098,0 29.0654,-0.1027 28.2139,-1.75 z m 92.8342,77.3801 v -5.3699 l 5.75,-1.1403 c 7.6923,-1.5255 15.6205,-6.2115 18.904,-11.1732 5.3667,-8.1097 5.5435,-10.0958 6.0498,-67.9467 0.4807,-54.9245 -0.3332,-79.4157 -2.807,-84.4678 -2.6979,-5.5094 -5.7805,-6.8108 -17.3524,-7.3254 l -10.5444,-0.469 v -5.8689 -5.8689 l 31.25,0.01 31.25,0.01 33.383,75.4687 c 18.3606,41.5078 33.6622,75.2961 34.0036,75.0851 0.3414,-0.211 15.4691,-34.1667 33.6171,-75.4572 l 32.9963,-75.0736 31.75,-0.02 31.75,-0.019 v 5.8742 5.8742 l -11.25,0.4483 c -13.962,0.5565 -16.8161,1.8111 -19.4092,8.532 -1.7257,4.4729 -1.8408,9.2122 -1.8408,75.7713 0,39.05 0.3597,72.6972 0.7993,74.7715 1.917,9.0448 8.9352,12.7286 24.2499,12.7286 h 7.4508 v 5.5 5.5 h -48 -48 v -5.3637 -5.3638 l 9.4111,-0.4922 c 11.6735,-0.6106 15.0877,-2.3183 18.5889,-9.2971 l 2.5,-4.9832 0.2657,-66.5001 c 0.1538,-38.469 -0.1041,-65.8677 -0.6116,-65 -0.4826,0.825 -16.3153,36.507 -35.1839,79.2934 l -34.3065,77.7934 -6.0438,-0.2933 -6.0438,-0.2934 -35.0381,-78.7476 -35.038,-78.7474 -0.2701,53.7474 c -0.2901,57.7186 0.3477,71.5628 3.5869,77.8502 4.0789,7.9173 12.4061,13.4587 22.4332,14.9283 l 4.75,0.6962 v 5.3864 5.3865 h -36.5 -36.5 z m 673.00003,-0.611 c 0,-6.5514 -0.4712,-6.1119 8,-7.4614 9.1493,-1.4575 20.2466,-9.3325 24.3597,-17.2863 3.4926,-6.754 3.8321,-13.1261 4.3313,-81.2714 0.5515,-75.2931 -0.1021,-92.4007 -3.7802,-98.9449 -3.279,-5.8342 -7.1426,-7.2684 -21.1326,-7.8446 l -11.7782,-0.4851 v -6.3749 -6.3749 l 37.107,0.2622 37.1071,0.2622 40.1429,90.6874 c 22.0787,49.8781 40.431,90.3781 40.783,90 0.3521,-0.3781 17.9674,-40.0624 39.1452,-88.1874 21.1778,-48.125 39.0745,-88.7375 39.7705,-90.25 l 1.2653,-2.75 h 37.3395 37.3395 v 6.3817 6.3818 l -12.75,0.4058 c -15.9845,0.5089 -19.5557,1.942 -23.25,9.3307 l -2.5,5 v 86 c 0,47.3 0.3703,88.1725 0.8229,90.8279 1.0196,5.9814 6.2319,12.1647 11.5256,13.6726 2.0083,0.5721 8.714,1.3249 14.9015,1.6728 l 11.25,0.6326 v 5.8471 5.847 h -57 -57 v -5.848 -5.8481 l 10.5109,-0.6431 c 15.0916,-0.9234 19.9778,-3.3089 23.8843,-11.6608 2.0789,-4.4446 2.1079,-5.5037 2.3554,-86 l 0.2506,-81.5 -13.7666,31 c -7.5716,17.05 -26.5844,60.1366 -42.2506,95.748 l -28.484,64.7482 -6.8246,-0.2481 -6.8246,-0.2481 -42.1754,-94.7854 -42.1754,-94.7854 -0.2853,70.2854 c -0.1804,44.4333 0.096,73.1959 0.7505,78.1985 1.2196,9.3165 3.9458,14.5781 10.5782,20.4162 4.4771,3.9409 14.3487,8.1707 19.069,8.1707 4.7121,0 5.3876,0.8911 5.3876,7.107 v 5.893 h -43 -43 z m 318,0.6449 v -5.3361 l 5.7659,-1.6031 c 10.8761,-3.0238 16.364,-9.1311 23.728,-26.4063 1.8331,-4.3002 13.7738,-32.7935 26.5349,-63.3185 12.7611,-30.525 26.8795,-64.275 31.3743,-75 l 8.1724,-19.5 5.4623,-0.272 5.4622,-0.272 25.9097,61.772 c 44.4922,106.0749 46.6964,111.09 50.956,115.9402 4.0225,4.5802 7.5295,6.5302 13.8843,7.7202 l 3.75,0.7022 v 5.4547 5.4547 h -39.5 -39.5 v -5.3533 -5.3532 l 7.6059,-0.643 c 8.2991,-0.7015 11.9758,-2.0587 14.0127,-5.1726 1.3833,-2.1148 -0.9999,-8.7863 -15.0895,-42.2411 l -4.7435,-11.2632 -33.4871,0.2632 -33.4871,0.2632 -3.4927,8.5 c -6.7104,16.3306 -11.4798,30.5326 -11.6464,34.6796 -0.289,7.1939 6.4859,13.7419 15.4482,14.9308 l 4.8795,0.6473 v 5.3711 5.3712 h -31 -31 z m 118.5923,-77.414 c -0.342,-0.9625 -6.7977,-16.699 -14.3461,-34.97 -9.114,-22.0606 -13.9478,-32.6422 -14.3898,-31.5 -0.366,0.946 -6.7834,16.474 -14.2609,34.5068 -7.4775,18.0328 -13.5955,32.9953 -13.5955,33.25 0,0.2547 12.8731,0.4632 28.607,0.4632 26.8149,0 28.568,-0.1097 27.9853,-1.75 z m 94.4077,77.3969 v -5.3531 l 9.5227,-0.5681 c 10.8792,-0.649 14.7465,-2.3219 17.9419,-7.7611 1.9983,-3.4015 2.0354,-4.8315 2.0354,-78.4646 0,-73.8106 -0.032,-75.0556 -2.0505,-78.5 -2.8203,-4.8142 -6.4847,-6.3092 -16.6995,-6.8131 l -8.75,-0.4316 v -5.7305 -5.7306 l 12.25,-0.655 c 28.5933,-1.5288 75.3011,-1.9164 85.6154,-0.7104 29.3195,3.4282 47.1946,13.3469 55.3702,30.724 2.8652,6.09 3.2632,8.0224 3.5993,17.4751 0.5802,16.3137 -2.7416,25.493 -12.9022,35.6537 -6.9284,6.9284 -18.8909,12.926 -31.2413,15.6634 l -2.8086,0.6225 8.155,8.7162 c 4.4853,4.7939 13.6242,15.9104 20.3086,24.7033 30.0859,39.5755 40.3347,48.2184 60.46,50.9864 l 5.1936,0.7143 v 5.4061 5.4062 h -28.3514 -28.3514 l -6.3136,-6.25 c -8.1476,-8.0655 -17.8296,-20.2022 -32.5083,-40.75 -13.2047,-18.4845 -24.3999,-32.6706 -30.1386,-38.1905 -4.493,-4.3217 -7.9459,-5.8095 -13.4827,-5.8095 h -4.0159 l 0.331,33.75 c 0.3115,31.7761 0.4516,33.9839 2.3939,37.75 3.0365,5.8873 7.5357,7.7436 20.1257,8.3036 l 10.3113,0.4586 v 5.3689 5.3689 h -48 -48 z m 94.8344,-100.1775 c 18.5496,-4.219 28.1656,-17.1821 28.1656,-37.9694 0,-13.677 -5.2876,-26.8039 -13.24,-32.8695 -6.9601,-5.3087 -21.7139,-8.6305 -38.3324,-8.6305 h -8.4276 v 41.1543 41.1543 l 12.4501,-0.631 c 6.8475,-0.347 15.5704,-1.3407 19.3843,-2.2082 z m 137.1656,100.1749 v -5.3556 l 7.5294,-0.5695 c 8.1341,-0.6151 12.4872,-2.5094 15.7128,-6.8372 2.3926,-3.2103 3.6503,-16.2853 3.7142,-38.6136 l 0.044,-15.2316 -27.75,-45.5473 c -15.2625,-25.0511 -30.225,-49.0218 -33.25,-53.2685 -6.0881,-8.5466 -9.6592,-10.9196 -17.9019,-11.8958 l -5.0981,-0.6038 v -5.8607 -5.8607 h 41 41 v 5.8554 5.8553 l -6.4718,0.6044 c -6.6723,0.6231 -11.1721,2.346 -13.5219,5.1773 -1.1453,1.38 -1.0374,2.2638 0.7175,5.8759 1.7813,3.6666 43.435,73.041 46.7605,77.8798 1.038,1.5104 3.7455,-2.5378 19.911,-29.7711 20.087,-33.8397 24.6027,-42.4152 24.6039,-46.7242 0,-4.156 -6.0138,-10.2673 -11.4538,-11.6371 -2.4375,-0.6137 -5.8072,-1.1157 -7.4886,-1.1157 h -3.0572 v -6 -6 h 33.5 33.5 v 5.8812 5.8813 l -4.75,1.1847 c -6.6623,1.6615 -11.9611,4.994 -17.8188,11.2066 -6.9608,7.3824 -9.8917,11.8952 -36.8965,56.8095 l -23.7046,39.4256 0.335,25.5555 c 0.3077,23.4791 0.5025,25.8806 2.3979,29.5556 2.6287,5.0966 6.9358,7.2536 16.2048,8.115 l 7.2322,0.6722 v 5.3564 5.3564 h -42.5 -42.5 z M 767.90727,915.46413 c -2.7604,-2.76038 -2.8158,-8.40253 -0.1092,-11.10918 1.3987,-1.39867 3.3333,-2 6.4346,-2 5.6629,0 16.8477,-2.32473 27.0654,-5.62548 11.2865,-3.64604 33.5,-12.50246 33.5,-13.35632 0,-0.39295 -1.7426,-1.50025 -3.8724,-2.46067 l -3.8724,-1.74621 -12.3776,4.02562 c -19.8563,6.45796 -31.0759,8.44433 -47.8776,8.47649 -19.4596,0.0372 -27.2126,-2.57218 -33.0788,-11.13343 -2.8434,-4.14962 -3.8831,-15.73542 -1.9404,-21.62197 4.3654,-13.22728 23.5952,-19.55481 45.6092,-15.00769 9.3133,1.92371 23.2397,6.73584 38.8746,13.4327 l 11.9646,5.12477 4.2854,-1.63661 c 2.357,-0.90014 4.2818,-1.9369 4.2774,-2.30391 0,-0.36701 -5.7419,-3.78152 -12.75,-7.5878 -21.6983,-11.78493 -38.6099,-22.18614 -69.5785,-42.79318 l -29.8364,-19.85373 -4.964,7.0684 c -13.9124,19.8106 -30.8944,32.87326 -50.9062,39.15738 -6.3388,1.99052 -9.5561,2.34085 -21.4569,2.33638 -12.3671,-0.005 -14.6816,-0.27953 -19.8437,-2.35689 -16.1892,-6.51496 -26.3286,-21.57457 -27.4009,-40.69748 -0.888,-15.83731 4.6876,-27.71931 17.5537,-37.40824 21.2837,-16.02776 50.4978,-16.9317 80.9989,-2.50626 l 9.3079,4.40219 2.9864,-6.65606 c 4.2615,-9.49819 11.1678,-28.85387 15.4307,-43.24679 4.4264,-14.94468 11.4313,-45.32031 11.452,-49.65999 0.015,-3.12356 -11.0622,-32.05856 -21.004,-54.86522 -7.4498,-17.08996 -22.498,-48.08343 -23.7093,-48.83208 -2.013,-1.24412 -13.1261,5.3923 -18.0482,10.77795 -8.5763,9.38382 -10.1099,19.75295 -4.96,33.53655 1.4582,3.90303 3.8428,7.29891 8.149,11.60509 7.1177,7.11769 13.5242,9.95912 25.9748,11.52028 4.4268,0.55508 8.6257,1.48801 9.3307,2.07317 1.6211,1.34539 1.6823,10.01872 0.082,11.61904 -2.8442,2.8442 -25.6669,0.55663 -36.8,-3.68855 -11.7503,-4.48049 -21.2344,-14.71218 -25.0871,-27.0645 -2.9385,-9.42149 -3.6571,-25.66146 -1.5053,-34.0223 2.9598,-11.50046 10.007,-20.68693 20.7339,-27.02773 4.1913,-2.47758 4.7051,-3.01955 2.3585,-2.48824 -18.2736,4.13754 -29.5017,5.49243 -45.4738,5.4873 -34.666,-0.0111 -59.6547,-10.78106 -70.08,-30.20398 -3.0901,-5.75694 -3.4117,-7.17855 -3.7817,-16.71727 -0.6634,-17.10376 2.6626,-27.03224 12.2759,-36.64555 5.9063,-5.90633 14.161,-10.456 23.6396,-13.02918 8.6091,-2.33716 26.9964,-2.33062 35.92,0.0128 9.3093,2.44469 23.2221,9.45768 32.5042,16.38431 10.0365,7.48957 27.738,25.73865 37.2597,38.41218 l 7.2639,9.66838 5.4855,-2.42594 c 8.0412,-3.55619 19.0164,-9.13538 26.9867,-13.71848 9.206,-5.29366 28.5,-17.80539 28.5,-18.4816 0,-0.29213 -0.7429,-1.07439 -1.651,-1.73836 -1.3643,-0.99762 -2.7957,-0.53826 -8.2442,2.64565 -14.197,8.29623 -25.7255,11.28417 -41.0331,10.63488 -18.5289,-0.78593 -28.0717,-7.30571 -28.0717,-19.17906 0,-13.1364 8.7576,-19.26183 29.0753,-20.33656 12.8096,-0.67758 24.0434,0.81552 36.7708,4.88728 l 9.3462,2.99001 5.3885,-3.57774 c 6.3495,-4.21589 12.6237,-4.93276 14.384,-1.64349 1.8954,3.5415 1.1833,7.12494 -2.0081,10.10618 -2.886,2.69595 -2.9435,2.89628 -1.1116,3.87665 1.569,0.83971 2.7861,0.38133 6.4833,-2.44165 3.5883,-2.73987 5.4744,-3.47544 8.9116,-3.47544 5.3333,0 6.76,1.29311 6.76,6.1272 0,3.04731 -0.6419,4.25632 -3.5191,6.62793 l -3.5191,2.90075 9.9694,8.23792 c 12.4741,10.30757 29.4007,27.84924 40.8174,42.30063 4.8133,6.09265 9.667,12.18646 10.786,13.5418 l 2.0346,2.46426 5.9654,-7.83324 c 14.8771,-19.53529 36.0147,-41.73713 50.6789,-53.23058 l 6.7135,-5.26187 -3.4635,-3.04099 c -2.6431,-2.32067 -3.4635,-3.82614 -3.4635,-6.35561 0,-5.7265 0.7181,-6.4782 6.1887,-6.4782 4.2234,0 5.6325,0.53897 9.33,3.56888 3.7073,3.03784 4.6655,3.40289 6.4397,2.45339 2.0426,-1.09315 2.0238,-1.16636 -0.9371,-3.65777 -2.3623,-1.98777 -3.0213,-3.35175 -3.0213,-6.25339 0,-2.04111 0.54,-4.25111 1.2,-4.91111 2.3037,-2.30366 8.0291,-1.34289 14.015,2.35185 l 5.7544,3.55184 9.2653,-2.95286 c 13.1685,-4.19682 22.9082,-5.53156 35.5365,-4.86995 13.73823,0.71977 20.20513,2.69537 25.21183,7.70214 2.9313,2.93127 4.0393,4.98274 4.5575,8.43822 1.4695,9.79929 -1.7389,15.57169 -11.2378,20.21911 -4.839,2.3675 -7.1233,2.7982 -16.70413,3.1496 -14.389,0.52775 -21.7769,-1.178 -36.3811,-8.39978 -10.5187,-5.20152 -14.9639,-6.19958 -13.9835,-3.13964 0.9979,3.1142 41.9353,26.88895 56.95253,33.07561 l 3.6864,1.51871 6.925,-9.17242 c 22.8252,-30.23274 45.5911,-48.34342 68.9106,-54.8196 9.2672,-2.57362 26.6798,-3.05005 35.2915,-0.96561 8.6141,2.08502 19.2288,7.59494 24.7123,12.82774 9.9725,9.51668 13.744,20.08561 13.1259,36.78256 -0.3325,8.98275 -0.7399,10.86051 -3.6305,16.73207 -7.2491,14.72507 -25.0619,25.4676 -48.5445,29.27621 -15.7832,2.55985 -45.345,1.41063 -60.3333,-2.34546 -9.7187,-2.43552 -10.0887,-2.38284 -4.8299,0.68756 6.8625,4.00674 14.9763,12.38232 18.0181,18.59955 3.4338,7.0184 4.794,16.19925 3.9852,26.89934 -2.3367,30.91752 -18.6181,45.58494 -52.5903,47.37712 l -10.67873,0.56335 -1.7448,-2.663 c -1.7388,-2.65369 -1.608,-8.91386 0.2242,-10.73186 0.4325,-0.42911 4.83633,-1.27463 9.78633,-1.87893 20.6108,-2.51616 33.2998,-13.71541 36.5252,-32.23683 1.8037,-10.3574 -1.3186,-19.10527 -9.5158,-26.66118 -4.0846,-3.76505 -15.0718,-9.93879 -15.9602,-8.96809 -0.1775,0.19395 -3.4677,6.65263 -7.3116,14.35263 -9.2829,18.59525 -20.54673,44.13026 -30.18383,68.42604 l -7.8672,19.83393 1.3287,6.87002 c 4.0767,21.0783 11.7618,49.75441 17.8131,66.46784 4.7533,13.12832 10.74223,26.90217 11.69713,26.90217 0.4334,0 3.8675,-1.39976 7.6313,-3.11059 30.863,-14.02879 57.236,-14.16379 78.8432,-0.40357 7.421,4.72598 15.9312,14.43293 18.6122,21.22958 3.2342,8.19933 3.2744,24.13361 0.082,32.78458 -4.917,13.32686 -15.3595,23.61734 -27.8955,27.48931 -12.2064,3.77018 -32.8446,2.14759 -46.7971,-3.67922 -14.3211,-5.98073 -31.5137,-20.63455 -42.82233,-36.49887 l -4.768,-6.68879 -11.7059,7.6929 c -6.4382,4.23109 -20.9309,13.83007 -32.2059,21.33106 -17.3444,11.53886 -41.8868,26.16606 -64.1018,38.20462 l -5.2611,2.85102 4.6161,1.99817 4.6161,1.99818 14.3817,-5.99341 c 26.9125,-11.21545 41.4813,-14.90762 54.7777,-13.88228 14.4247,1.11236 25.4638,7.58618 27.9008,16.36238 2.8314,10.19625 0.2951,20.51132 -6.4002,26.0302 -12.4837,10.29005 -44.1611,9.18916 -79.3777,-2.75863 -9.2941,-3.15315 -9.3712,-3.16137 -13.25,-1.41225 -2.1459,0.96765 -3.9016,2.10557 -3.9016,2.52872 0,0.93474 23.5984,10.33018 34.0012,13.53721 9.9675,3.07284 21.1999,5.38968 26.1299,5.38968 6.5702,0 7.8689,1.23785 7.8689,7.5 0,7.13348 -1.4637,7.9795 -12.1866,7.04413 -15.4677,-1.34927 -32.8206,-6.52938 -60.9282,-18.18799 l -15.6148,-6.47679 -12.2885,5.16884 c -29.4947,12.40619 -48.5585,18.19296 -64.1227,19.46434 -7.9698,0.65102 -8.8046,0.54204 -10.75,-1.40335 z m 14.0303,-38.66179 c 9.6386,-1.78997 23.0089,-5.31163 24.1189,-6.35277 1.7401,-1.63219 -33.8741,-15.25829 -39.8849,-15.26007 -8.0408,-0.002 -17.2785,7.41003 -15.7802,12.6621 2.756,9.66081 12.6327,12.46315 31.5462,8.95074 z m 170.7476,-0.38978 c 9.8193,-5.00945 9.5818,-14.23177 -0.4922,-19.1085 -7.71,-3.73235 -11.7406,-2.95302 -35.1254,6.7916 -7.2768,3.03229 -13.019,5.85555 -12.7605,6.27391 0.2586,0.41836 4.1873,1.76847 8.7306,3.00025 19.4291,5.26768 33.2127,6.32551 39.6475,3.04274 z m -91.9796,-3.95666 3.4075,-1.81522 -4.6767,-1.78607 c -4.5037,-1.71997 -4.8268,-1.71839 -8.7324,0.0428 l -4.0556,1.82882 3.3249,1.77247 c 4.2031,2.24066 6.4628,2.23166 10.7323,-0.0428 z m 6.9684,-28.28009 c 27.9263,-14.84501 47.7932,-27.29 77.0876,-48.28907 12.3475,-8.85109 30.3821,-21.37285 31.7809,-22.06619 0.1345,-0.0666 -2.4072,-5.93616 -5.6483,-13.04338 -5.8502,-12.82892 -13.9832,-34.23266 -16.3018,-42.90148 -0.665,-2.48641 -1.4533,-4.5199 -1.7517,-4.51886 -0.2984,0.001 -1.2633,2.36353 -2.1441,5.25 -0.8809,2.88646 -3.9467,12.89812 -6.8131,22.24812 -2.8663,9.35 -6.7537,22.85 -8.6387,30 -3.6426,13.81699 -4.7226,15.5 -9.9467,15.5 -5.6722,0 -6.5673,-1.54435 -8.5923,-14.82325 -2.4229,-15.88883 -6.9692,-35.61817 -12.9376,-56.14424 -5.1138,-17.58751 -6.7907,-22.54661 -7.4124,-21.9212 -0.2126,0.21378 -2.4841,7.13869 -5.048,15.38869 -9.9279,31.94588 -21.2778,81.76962 -26.8211,117.73904 -1.334,8.65647 -2.9898,16.41897 -3.6795,17.25 -1.6572,1.99678 -9.3483,2.01216 -10.9999,0.022 -0.6797,-0.81893 -2.9527,-11.73143 -5.0511,-24.25 -4.426,-26.40382 -9.3017,-49.77204 -15.3985,-73.80213 -5.393,-21.25627 -14.6653,-52.45891 -15.5888,-52.45891 -0.3807,0 -1.4535,2.5875 -2.3842,5.75 -10.6993,36.35874 -15.1206,54.58602 -18.0104,74.25 -1.0931,7.438 -2.0411,10.86452 -3.2508,11.75 -2.3214,1.69928 -8.8057,1.58112 -10.2733,-0.1872 -0.656,-0.79046 -3.2018,-8.77796 -5.6573,-17.75 -5.3534,-19.56101 -15.3179,-52.01561 -16.2903,-53.05819 -0.3824,-0.40996 -1.9622,3.19004 -3.5107,8 -4.837,15.02445 -9.6167,27.3098 -15.405,39.59531 -4.5632,9.68521 -5.3187,11.99913 -4.1359,12.66666 1.7434,0.98395 19.1128,13.14055 43.0593,30.13672 9.6868,6.8752 23.7839,16.20703 31.327,20.73741 14.7035,8.83097 44.4815,25.10929 45.9325,25.10929 0.484,0 6.1109,-2.78061 12.5042,-6.17914 z m -211.8759,-26.94555 c 7.5238,-2.57746 17.6312,-9.67986 25.1915,-17.70184 6.3029,-6.68768 17.8209,-22.70161 17.8128,-24.76578 -0.01,-1.33743 -12.9136,-7.48081 -22.7215,-10.8137 -16.3048,-5.54065 -27.2429,-5.69625 -37.8962,-0.53911 -11.1029,5.37484 -19.8268,17.44239 -19.8032,27.39325 0.022,9.41161 7.4313,21.47496 15.8219,25.76161 8.1239,4.15038 11.1501,4.24365 21.5947,0.66557 z m 420.36423,-0.70363 c 8.9695,-4.81989 15.9215,-16.10136 15.9215,-25.83671 0,-10.80547 -8.2003,-21.55623 -21.1061,-27.67045 -6.0533,-2.8678 -7.5235,-3.1539 -15.6796,-3.05123 -6.861,0.0864 -11.0034,0.76377 -17.4294,2.85019 -9.6295,3.12652 -23.9912,9.19709 -25.7704,10.89294 -1.9359,1.84507 8.6415,16.75413 19.6203,27.65526 10.2225,10.15009 18.1678,15.07657 28.3068,17.55158 6.3584,1.55215 9.727,1.05292 16.1369,-2.39158 z m -204.33243,-153.82098 7.9326,-16.14931 -5.88,-13.35069 c -7.9616,-18.077 -15.7075,-34.4745 -17.482,-37.00796 -1.3901,-1.98467 -1.7037,-1.60355 -6.4062,7.78521 -2.7195,5.42963 -8.2072,17.22435 -12.1949,26.2105 l -7.2504,16.33845 9.9985,20.66155 c 5.4992,11.36385 11.0378,23.24845 12.308,26.41021 l 2.3095,5.74866 4.3662,-10.24866 c 2.4014,-5.63676 7.9358,-17.51585 12.2987,-26.39796 z m -76.0503,-15.67216 c 0.018,-1.81415 -10.941,-24.01791 -15.1424,-30.67854 l -2.2078,-3.5 -1.754,11 c -0.9647,6.05 -2.2991,14.6 -2.9655,19 l -1.2115,8 4.7546,12 c 2.615,6.6 4.9794,12.37049 5.2542,12.82331 0.6318,1.04125 13.2474,-26.18603 13.2724,-28.64477 z m 137.5118,15.67641 4.7736,-12.14506 -2.6397,-15.85494 c -1.4519,-8.72022 -2.637,-16.84089 -2.6335,-18.04593 0.015,-5.20338 -2.2324,-2.25739 -10.329,13.53982 l -8.6093,16.79753 6.7048,14.64437 c 3.6876,8.0544 6.987,14.32146 7.3321,13.92681 0.3451,-0.39465 2.7756,-6.18282 5.401,-12.8626 z m -28.9864,-54.85495 c 24.2188,-34.9309 56.3177,-61.61614 83.0421,-69.03655 5.2089,-1.44632 6.4167,-2.25149 8.6961,-5.79704 l 2.647,-4.11744 -15.6961,-8.06813 c -17.024,-8.75078 -24.2097,-13.01537 -39.9253,-23.69511 l -10.2292,-6.95144 -2.7878,1.98508 c -1.5333,1.0918 -7.9627,7.31658 -14.2876,13.83286 -12.4571,12.83409 -27.545,32.27822 -38.8535,50.0715 l -7.1332,11.22372 4.4221,6.89891 c 5.3655,8.37071 19.7151,33.21193 22.1897,38.41365 0.9838,2.06801 2.0753,3.41801 2.4256,3 0.3502,-0.418 2.8208,-3.91001 5.4901,-7.76001 z m -88.6289,1.74172 c 3.3294,-6.59552 13.7943,-24.61822 19.9453,-34.34978 2.2972,-3.63444 4.1767,-7.26701 4.1767,-8.07239 0,-2.21716 -18.649,-30.02035 -28.0814,-41.86552 -8.9042,-11.18203 -23.9884,-27.24859 -30.2251,-32.19347 l -3.8064,-3.01807 -8.6936,5.98911 c -14.7441,10.15746 -25.0668,16.33151 -41.3426,24.72727 l -15.6491,8.07247 2.4928,4.22101 c 2.0001,3.38679 3.3142,4.42642 6.6491,5.26034 27.5507,6.88934 58.4447,31.96634 84.0119,68.19353 3.3794,4.78843 6.4754,8.72593 6.88,8.75 0.4046,0.0241 2.0437,-2.54745 3.6424,-5.7145 z m -67.9356,-30.30463 c 0.047,-3.73668 -0.4404,-5.02282 -2.6924,-7.10278 -2.7163,-2.50871 -11.7005,-8.83431 -12.5474,-8.83431 -0.2403,0 2.7658,6.27678 6.6802,13.94841 7.108,13.9304 7.1181,13.94364 7.8096,10.25 0.3808,-2.03413 0.7183,-5.75172 0.75,-8.26132 z m 229.7501,-15.57792 c -0.2354,-0.23545 -3.632,1.94992 -7.5479,4.85637 l -7.1199,5.28446 v 6.5 c 0,12.89275 0.6014,12.71442 8.1943,-2.44042 3.7952,-7.57478 6.7076,-13.96497 6.4722,-14.20041 z m -317.1716,-35.40909 c 5.8301,-1.12509 11.7149,-2.46941 13.0772,-2.98738 l 2.477,-0.94175 -5.0866,-7.53794 c -22.4586,-33.28221 -45.5274,-51.75176 -64.5282,-51.66322 -13.8897,0.0647 -25.2787,8.30129 -30.5079,22.06339 -3.9782,10.46982 -1.85,18.22005 7.3893,26.90872 16.0338,15.07839 44.9363,20.38042 77.1792,14.15818 z m 438.45483,0.0235 c 16.6832,-4.03732 31.2154,-13.53962 36.0824,-23.59362 5.4015,-11.15799 -2.6138,-29.0672 -16.0582,-35.87997 -12.4383,-6.30296 -24.8165,-4.68303 -39.7582,5.20313 -11.8386,7.83302 -26.6822,23.97457 -39.0841,42.50174 -2.8367,4.23766 -5.1576,7.8915 -5.1576,8.11965 0,0.61413 19.9315,4.70605 27.7399,5.69497 9.8573,1.24842 26.5075,0.30834 36.2358,-2.0459 z M 732.42577,475.18537 c 4.4702,-1.61206 8.9127,-3.50504 9.8721,-4.20661 1.5371,-1.12394 1.0464,-1.48455 -4.1276,-3.03315 -7.552,-2.26034 -23.5303,-3.18263 -29.0767,-1.67837 -4.5794,1.242 -10.6423,5.71752 -9.7348,7.18599 0.9458,1.53028 6.348,3.98216 10.7657,4.8862 5.9344,1.21441 12.9318,0.22478 22.3013,-3.15406 z m 274.12233,1.14073 c 4.6579,-2.03707 5.2718,-3.7364 2.3162,-6.41122 -5.3133,-4.80848 -21.06293,-6.04026 -33.95483,-2.65561 -3.9893,1.04737 -7.5174,2.16839 -7.8402,2.49116 -0.8605,0.86053 11.9265,6.44776 18.5372,8.09975 6.7828,1.69498 14.93813,1.10146 20.94163,-1.52408 z M 795.80037,460.85774 c -1.4575,-1.75618 -0.9002,-8.17639 1.4197,-16.35565 l 1.5183,-5.35288 -5.7201,-6.38826 c -7.2232,-8.06677 -12.8424,-17.2772 -15.0145,-24.61004 -1.6064,-5.42286 -1.8626,-5.71865 -5.1977,-6 -3.3739,-0.28463 -3.52,-0.46277 -3.8211,-4.66034 -0.1722,-2.40043 -0.01,-5.10043 0.3712,-6 0.3764,-0.89958 0.5956,-4.0313 0.4872,-6.95937 -0.1716,-4.63481 0.072,-5.39402 1.8788,-5.86663 1.6839,-0.44035 2.0759,-1.33287 2.0759,-4.72623 0,-4.89419 1.3342,-6.58337 5.2,-6.58337 2.501,0 2.8,-0.35238 2.8,-3.3 0,-4.34365 1.5371,-5.7 6.4595,-5.7 2.9764,0 4.3926,-0.53358 5.3084,-2 0.9439,-1.51134 2.3321,-2 5.6816,-2 2.4378,0 4.7348,0.48921 5.1044,1.08713 0.4838,0.78284 0.9761,0.78284 1.759,0 1.8379,-1.83794 9.5121,-1.34022 10.7859,0.69954 0.8015,1.28336 2.0395,1.67884 4.3947,1.40388 3.7843,-0.4418 7.5065,1.21665 7.5065,3.34463 0,1.02944 1.1295,1.46482 3.8,1.46482 4.7758,0 6.2,1.41069 6.2,6.14098 0,2.05754 0.45,4.0191 1,4.35902 0.625,0.38626 1,-1.67284 1,-5.49064 0,-5.98177 2.0205,-12.00938 4.0257,-12.00938 0.5359,0 0.9743,-2.22171 0.9743,-4.93713 v -4.93713 l -3.6001,0.58421 c -4.7236,0.76654 -5.3693,-0.40104 -5.3693,-9.70995 0,-9.22079 0.6293,-10.37526 5.3543,-9.82364 l 3.6151,0.42204 v -4.18257 c 0,-3.49215 0.3714,-4.2821 2.25,-4.78554 2.9697,-0.79585 9.7031,-0.78967 13.7143,0.0126 3.081,0.6162 3.2003,0.81733 2.875,4.84936 l -0.3393,4.2065 4.1037,-0.46292 c 3.6544,-0.41225 4.1729,-0.20417 4.7363,1.90063 0.348,1.29996 0.6327,4.83856 0.6327,7.86356 0,3.025 -0.2847,6.5636 -0.6327,7.86356 -0.5634,2.10489 -1.0818,2.31285 -4.7363,1.90021 l -4.1037,-0.46335 0.119,4.29973 c 0.085,3.06668 0.8735,5.1964 2.75,7.42651 2.2492,2.67302 2.631,4.06751 2.631,9.60908 0,4.06689 0.3726,6.252 1,5.86426 0.55,-0.33992 1,-2.56833 1,-4.95203 0,-4.74864 0.9141,-5.54797 6.3447,-5.54797 2.3397,0 3.4421,-0.59508 4.1682,-2.25 0.8133,-1.85376 1.7796,-2.25 5.4871,-2.25 3.0479,0 4.9057,-0.54193 5.7572,-1.67939 1.036,-1.3838 3.1031,-1.68226 11.7439,-1.69568 9.375,-0.0146 10.5971,0.18997 11.528,1.92939 0.791,1.47802 2.1059,1.94568 5.4709,1.94568 4.8404,0 6.5,1.64281 6.5,6.43426 0,2.15989 0.4552,2.56574 2.8776,2.56574 3.8158,0 5.3195,2.03457 4.9369,6.68021 -0.2472,3.00284 0.1132,4.04045 1.6855,4.85154 1.5655,0.80761 2.0624,2.21966 2.2872,6.5 0.158,3.00754 0.5436,7.38922 0.8569,9.73706 0.6704,5.02469 -0.7087,7.23119 -4.5199,7.23119 -2.3481,0 -2.8835,0.72396 -4.9817,6.73596 -2.705,7.7507 -8.7542,17.47406 -15.5276,24.95888 l -4.7011,5.19484 2.2406,8.54263 c 1.691,6.44736 2.0022,9.22019 1.2691,11.30516 l -0.9714,2.76253 -58.597,0.25794 c -51.3035,0.22583 -58.7533,0.0696 -59.8528,-1.25517 z m 24.9977,-16.00279 c 0,-3.22222 -0.2381,-3.5 -3,-3.5 -2.7619,0 -3,0.27778 -3,3.5 0,3.22222 0.2381,3.5 3,3.5 2.7619,0 3,-0.27778 3,-3.5 z m 19,0 c 0,-3.22222 -0.2381,-3.5 -3,-3.5 -2.7619,0 -3,0.27778 -3,3.5 0,3.22222 0.2381,3.5 3,3.5 2.7619,0 3,-0.27778 3,-3.5 z m 18,0 c 0,-3.22222 -0.2381,-3.5 -3,-3.5 -2.7619,0 -3,0.27778 -3,3.5 0,3.22222 0.2381,3.5 3,3.5 2.7619,0 3,-0.27778 3,-3.5 z m 19,0 c 0,-3.22222 -0.2381,-3.5 -3,-3.5 -2.7619,0 -3,0.27778 -3,3.5 0,3.22222 0.2381,3.5 3,3.5 2.7619,0 3,-0.27778 3,-3.5 z m 19,0 c 0,-3.22222 -0.2381,-3.5 -3,-3.5 -2.7619,0 -3,0.27778 -3,3.5 0,3.22222 0.2381,3.5 3,3.5 2.7619,0 3,-0.27778 3,-3.5 z m -55.7658,-20.47069 3.2658,-2.97068 -2.75,-0.0293 c -1.5125,-0.0161 -2.7676,-0.59181 -2.7891,-1.27931 -0.022,-0.6875 -0.6748,0.2125 -1.4518,2 -1.0755,2.47448 -2.0347,3.25 -4.0198,3.25 -1.4836,0 -2.341,0.431 -1.9893,1 1.2738,2.06105 6.4552,1.01208 9.7342,-1.97069 z m 40.9371,1.3157 c 1.0058,-0.91024 1.7932,-2.59774 1.7498,-3.75 -0.066,-1.74744 -0.2456,-1.63878 -1.0834,0.65499 -0.7712,2.1116 -1.6584,2.75 -3.8217,2.75 -2.4118,0 -2.9607,-0.53971 -3.8133,-3.75 -0.5478,-2.0625 -1.0425,-2.99101 -1.0993,-2.06336 -0.07,1.14421 -1.1486,1.78742 -3.3534,2 l -3.25,0.31336 3.9821,2.75 c 4.538,3.13384 8.0399,3.49258 10.6892,1.09501 z m -65.509,-4.59501 c -0.2774,-0.6875 -0.5044,-0.125 -0.5044,1.25 0,1.375 0.227,1.9375 0.5044,1.25 0.2774,-0.6875 0.2774,-1.8125 0,-2.5 z m 13.0208,1.0625 c -0.3192,-0.79773 -0.5562,-0.56078 -0.6042,0.60417 -0.043,1.05416 0.193,1.64479 0.5253,1.3125 0.3323,-0.3323 0.3678,-1.1948 0.079,-1.91667 z m 67,0 c -0.3192,-0.79773 -0.5562,-0.56078 -0.6042,0.60417 -0.043,1.05416 0.193,1.64479 0.5253,1.3125 0.3323,-0.3323 0.3678,-1.1948 0.079,-1.91667 z m -87.479,-13.55849 c 0.5725,-0.6897 2.055,-1.25401 3.2945,-1.25401 2.0102,0 2.3031,-0.59509 2.7105,-5.50769 1.1767,-14.19023 14.1874,-13.82796 15.5578,0.4332 0.4378,4.55697 0.7327,5.07449 2.8917,5.07449 1.3572,0 2.7081,0.76211 3.102,1.75 0.4849,1.21605 0.8967,0.37699 1.3496,-2.75 0.6023,-4.15897 0.3524,-4.89267 -3.2979,-9.68135 -7.6718,-10.06444 -22.5338,-19.11236 -29.5291,-17.97718 -4.0216,0.65262 -6.8127,2.84793 -9.0011,7.07984 -3.2808,6.34448 -0.8199,15.29535 6.9995,25.45886 l 4.2184,5.48291 0.3317,-3.42753 c 0.1824,-1.88513 0.8,-3.99183 1.3724,-4.68154 z m 105.9429,-6.75401 c 4.1574,-8.74804 3.4209,-16.06479 -2.114,-21 -5.6746,-5.05988 -18.7572,-0.63893 -29.5921,10 -8.3278,8.17717 -9.4207,10.08844 -8.5773,15 0.432,2.51505 0.9779,3.53595 1.4707,2.75 0.4311,-0.6875 1.8265,-1.25 3.1009,-1.25 2.0871,0 2.3625,-0.54679 2.7739,-5.50769 0.5713,-6.88932 3.6523,-10.74247 8.2275,-10.28937 4.1214,0.40816 7.5634,5.61657 7.5634,11.44494 0,3.95903 0.2226,4.35212 2.4648,4.35212 2.7827,0 4.5352,2.52296 4.5352,6.52887 0,2.57266 0.1202,2.51714 3.6478,-1.68426 2.0062,-2.38953 4.9309,-7.04461 6.4992,-10.34461 z m -57.647,8.5 c -0.4838,-0.78284 -1.0591,-0.84093 -1.7257,-0.17426 -0.55,0.55 -0.6735,1.52841 -0.2743,2.17426 0.4838,0.78284 1.0591,0.84093 1.7257,0.17426 0.55,-0.55 0.6735,-1.52841 0.2743,-2.17426 z m 11.1557,-20.81926 2.4496,-3.13012 -4.3026,1.95273 c -6.0292,2.73628 -15.5628,2.66984 -21.0841,-0.14693 -3.8686,-1.9736 -4.0871,-1.99343 -2.7548,-0.25 3.8236,5.00367 3.5226,4.8972 13.5675,4.79901 9.6052,-0.0939 9.6922,-0.11703 12.1244,-3.22469 z m -11.1557,-54.18074 c -0.4838,-0.78284 -1.0591,-0.84093 -1.7257,-0.17426 -0.55,0.55 -0.6735,1.52841 -0.2743,2.17426 0.4838,0.78284 1.0591,0.84093 1.7257,0.17427 0.55,-0.55 0.6735,-1.52842 0.2743,-2.17427 z"
       id="path22802" />
  </g>
</svg>
