<?xml version="1.0" encoding="UTF-8" standalone="no"?>
<!-- Created with Inkscape (http://www.inkscape.org/) -->

<svg
   version="1.1"
   id="svg22026"
   width="1056.1272"
   height="707"
   viewBox="0 0 1056.1272 707"
   sodipodi:docname="tec.jpeg"
   xmlns:inkscape="http://www.inkscape.org/namespaces/inkscape"
   xmlns:sodipodi="http://sodipodi.sourceforge.net/DTD/sodipodi-0.dtd"
   xmlns="http://www.w3.org/2000/svg"
   xmlns:svg="http://www.w3.org/2000/svg">
  <defs
     id="defs22030" />
  <sodipodi:namedview
     id="namedview22028"
     pagecolor="#ffffff"
     bordercolor="#000000"
     borderopacity="0.25"
     inkscape:showpageshadow="2"
     inkscape:pageopacity="0.0"
     inkscape:pagecheckerboard="0"
     inkscape:deskcolor="#d1d1d1"
     showgrid="false"
     inkscape:zoom="0.33522727"
     inkscape:cx="624.94915"
     inkscape:cy="332.61017"
     inkscape:window-width="1128"
     inkscape:window-height="730"
     inkscape:window-x="-6"
     inkscape:window-y="-6"
     inkscape:window-maximized="1"
     inkscape:current-layer="g22032" />
  <g
     inkscape:groupmode="layer"
     inkscape:label="Image"
     id="g22032"
     transform="translate(-113.53944,-255.22402)">
    <path
       style="fill:#ffffff;fill-opacity:1;stroke-width:0.666667"
       d="m 194.10279,697.78979 c -29.34595,-2.8319 -56.32837,-21.0249 -69.97894,-47.18354 -10.02471,-19.21041 -12.9027,-38.81355 -8.74369,-59.5568 6.3292,-31.56717 28.90774,-57.20858 59.5531,-67.63174 17.06043,-5.80262 39.73971,-5.80262 56.80014,0 22.36774,7.60776 41.39665,24.16775 52.02693,45.27668 10.52797,20.90575 12.09292,47.03728 4.16855,69.60627 -6.25299,17.80882 -18.87156,34.21641 -34.18101,44.44465 -13.2622,8.86048 -26.45916,13.58549 -42.08121,15.06666 -8.06788,0.76495 -9.42488,0.76323 -17.56387,-0.0222 z m 9.06724,-89.19009 -0.17004,-63.34835 -12.49804,5.46186 c -8.21485,3.59002 -12.49991,5.80455 -12.5035,6.46184 -0.003,0.55 5.56257,26.45062 12.36795,57.55694 6.80538,31.10632 12.27128,56.86333 12.14645,57.23781 -0.12482,0.37447 -7.10435,-13.30115 -15.51006,-30.39027 l -15.28311,-31.07114 h -13.58174 -13.58173 l 4.22189,4.65422 c 31.55388,34.78504 53.62951,58.3104 54.0586,57.60867 0.27686,-0.45278 0.42686,-29.32999 0.33333,-64.17158 z m 30.82996,32.58283 c 15.21667,-16.57667 27.76667,-30.40971 27.88889,-30.7401 0.12712,-0.34362 -5.36532,-0.60071 -12.83333,-0.60071 -7.18056,0 -13.05556,-0.23052 -13.05556,-0.51227 0,-0.28174 4.5,-9.61137 10,-20.7325 5.5,-11.12114 10,-20.29759 10,-20.39211 0,-0.65868 -25.5217,-11.10071 -25.96819,-10.62472 -0.50967,0.54335 -26.06345,114.39138 -26.0207,115.92827 0.0102,0.36666 0.53687,0.0247 1.17039,-0.7599 0.63351,-0.78462 13.60184,-14.9893 28.8185,-31.56596 z m 241.73843,33.93852 c -18.97647,-2.04271 -32.73774,-13.45823 -38.51052,-31.946 -1.3662,-4.37534 -1.56009,-6.33258 -1.552,-15.66666 0.0101,-11.6988 0.56192,-14.48635 4.6188,-23.33334 4.15781,-9.0671 13.1477,-17.36678 22.67003,-20.92955 10.81505,-4.04643 25.67853,-4.49039 36.36859,-1.08629 10.09938,3.216 19.41291,10.34658 24.21357,18.53828 4.52684,7.72448 7.24682,20.68774 6.16221,29.3687 l -0.47172,3.77553 h -31.01063 -31.01063 l 0.46652,2.83333 c 1.01015,6.13499 3.06534,9.29366 7.31735,11.24618 6.56928,3.01663 15.29406,0.31512 17.69394,-5.4787 l 0.80115,-1.93414 h 17.32665 17.32664 l -0.42912,2.5 c -0.23601,1.375 -1.66925,5.04628 -3.18497,8.1584 -3.84324,7.89104 -11.18855,15.20159 -19.20096,19.11011 -8.99351,4.38711 -18.85126,6.00064 -29.5949,4.84415 z m 20.64567,-58.11266 c -1.16185,-7.26719 -5.98836,-11.17856 -13.76125,-11.15203 -8.28653,0.0283 -12.89821,3.79447 -14.88016,12.15203 l -0.43476,1.83333 h 14.76457 14.76458 z m 82.28256,58.13742 c -10.65163,-1.1699 -22.18772,-6.53946 -28.03789,-13.05045 -8.86953,-9.87141 -13.19676,-22.85692 -12.40989,-37.24058 0.47349,-8.65515 1.64509,-13.41763 5.08736,-20.67973 5.35276,-11.29262 15.05405,-19.17817 28.02709,-22.7814 6.08879,-1.69115 22.6176,-1.67576 28.33333,0.0264 10.35869,3.0848 19.76129,9.89884 24.92041,18.05976 2.33148,3.68804 5.67927,12.03598 6.36112,15.86192 l 0.44556,2.5 -17.19688,-0.0273 -17.19688,-0.0273 -1.57886,-3.36376 c -4.61599,-9.8344 -18.67615,-8.24726 -22.35718,2.52373 -2.75111,8.04993 -1.91583,19.18418 1.85477,24.72443 2.57047,3.77683 5.69859,5.50358 9.97012,5.50358 5.54546,0 10.26597,-3.36252 11.46485,-8.16666 l 0.45752,-1.83334 h 17.26106 c 14.3193,0 17.26106,0.15846 17.26106,0.92978 0,0.51138 -0.6296,2.98638 -1.39912,5.5 -3.698,12.07961 -11.83294,22.02426 -21.96998,26.85744 -9.17802,4.37593 -18.51227,5.86812 -29.29757,4.68354 z m 218.33333,0.0178 c -14.70007,-1.99651 -25.6852,-12.11504 -31.10933,-28.65526 -1.8222,-5.5567 -2.11707,-7.51167 -2.4044,-15.94254 -0.61994,-18.19212 3.3418,-30.28607 13.13946,-40.11031 7.54687,-7.5674 16.84414,-11.0305 28.04047,-10.44465 10.20887,0.53417 17.78607,4.20734 23.00047,11.14988 l 2.66666,3.55044 0.19,-6.76808 0.19,-6.76807 h 16.31 16.31 v 46.66667 46.66666 h -16.33333 -16.33333 l -0.0353,-7.16666 c -0.034,-6.95234 -0.0687,-7.11682 -1.16466,-5.5 -4.0306,5.94636 -10.91187,10.98552 -17.13367,12.5471 -4.1098,1.03151 -10.9124,1.37525 -15.33333,0.77482 z m 24.1482,-30.35451 c 6.12667,-3.05307 8.96353,-8.49871 9.01847,-17.31187 0.0513,-8.24923 -2.95094,-13.88312 -9.16667,-17.20114 -2.04187,-1.08998 -3.83813,-1.4235 -7.66667,-1.4235 -3.82853,0 -5.6248,0.33352 -7.66666,1.4235 -5.76974,3.07994 -8.42354,7.6036 -8.86907,15.11812 -0.38853,6.55256 0.6762,11.44933 3.25067,14.95005 4.4136,6.00149 13.94626,8.00963 21.09993,4.44484 z m 95.51846,30.34164 c -11.33893,-1.25657 -22.428,-6.67905 -28.98846,-14.17525 -3.9,-4.45616 -7.8774,-12.1228 -9.7732,-18.83816 -2.00147,-7.08977 -2.16747,-20.96576 -0.33447,-27.96228 4.14947,-15.8382 14.18127,-26.81032 29.09613,-31.82351 6.03654,-2.02899 6.8176,-2.12892 16.66667,-2.13219 11.51987,-0.004 14.6472,0.63234 23.216,4.72258 5.8276,2.78174 13.35333,9.61966 16.70213,15.17567 2.32934,3.86463 4.99807,10.56418 6.02007,15.11277 l 0.58673,2.61135 h -17.5428 -17.54286 l -0.41834,-1.9047 c -1.06193,-4.83505 -7.46773,-8.65802 -13.21566,-7.88707 -8.44474,1.13268 -13.3868,12.4629 -11.16967,25.60766 1.45393,8.62 6.17333,13.51744 13.02593,13.51744 5.48587,0 9.60574,-2.8991 11.60954,-8.16962 l 0.69593,-1.83038 h 17.01647 17.01653 v 1.6877 c 0,2.4616 -2.43107,9.30938 -5.14013,14.47883 -2.53314,4.83359 -9.21567,12.11216 -13.7462,14.97215 -8.9734,5.66466 -21.49334,8.19864 -33.78034,6.83701 z m 207.01156,-0.007 c -11.1834,-1.25989 -20.1001,-5.10989 -26.5934,-11.48238 -5.1832,-5.08679 -8.3746,-11.10955 -10.0604,-18.98612 l -0.4637,-2.16667 h 15.7405 c 14.4155,0 15.7696,0.0982 16.0848,1.16667 1.7702,6.00077 5.972,8.83333 13.1034,8.83333 4.2098,0 4.7835,-0.17036 6.5618,-1.94872 3.5937,-3.59368 1.8611,-7.65969 -4.2331,-9.93404 -1.9166,-0.71529 -7.2348,-2.11834 -11.8181,-3.11788 -16.0728,-3.5052 -22.2696,-6.12605 -27.9754,-11.83186 -7.1036,-7.10356 -8.5966,-19.44952 -3.558,-29.42129 3.5301,-6.98626 11.6505,-12.70207 21.5334,-15.15697 4.8714,-1.21006 21.7759,-1.2132 26.6666,-0.005 5.54,1.36864 13.9518,5.54628 17.4571,8.66988 5.6825,5.0637 10.7235,13.57096 12.1942,20.57916 l 0.4547,2.16666 h -15.2535 -15.2535 l -1.4349,-2.95361 c -2.0087,-4.13449 -6.0451,-6.43449 -11.4261,-6.51078 -6.2128,-0.0881 -9.2318,2.82227 -7.6671,7.39135 0.8915,2.60302 4.9981,4.2713 19.6828,7.99576 7.5818,1.92297 14.9489,4.22711 17.5133,5.4774 5.6841,2.77148 10.641,7.53468 12.9348,12.42925 1.5959,3.4056 1.7982,4.62597 1.7982,10.84769 0,6.57458 -0.1359,7.28679 -2.187,11.45655 -6.1494,12.5014 -22.9905,18.84605 -43.8014,16.50156 z M 637.33332,616.27387 v -58.9012 l 5.5,-0.42814 c 3.025,-0.23548 12.025,-0.42995 20,-0.43215 l 14.5,-0.004 v 22 22 h 16.33333 16.33333 v -21.56786 -21.56786 l 5.5,-0.42814 c 3.025,-0.23548 12.025,-0.42995 20,-0.43215 l 14.5,-0.004 v 58.90118 58.9012 l -5.5,0.42814 c -3.025,0.23548 -12.025,0.42995 -20,0.43215 l -14.5,0.004 v -23.66665 -23.66667 h -16.33333 -16.33333 v 23.23452 23.23453 l -5.5,0.42814 c -3.025,0.23548 -12.025,0.42995 -20,0.43215 l -14.5,0.004 z m -272.66666,12.23452 v -46 h -15.66667 -15.66667 v -13 -13 h 48 48 v 12.98793 12.98793 l -15.83333,0.17874 -15.83333,0.17873 -0.17126,45.83333 -0.17126,45.83334 H 380.9954 364.66666 Z m 617.99998,-15.65502 v -61.67832 h 16.66033 16.66033 l 0.173,32.49625 0.173,32.49624 12.3209,-17.49624 12.321,-17.49625 h 19.1654 19.1654 l -13.3326,17.16667 c -7.3329,9.44167 -15.4575,19.92963 -18.0548,23.3066 l -4.7221,6.13993 18.4017,22.99796 c 10.121,12.64888 18.4018,23.16092 18.4018,23.36007 0,0.19916 -8.775,0.35832 -19.5,0.35369 l -19.5,-0.008 -12.3334,-18.80425 -12.3333,-18.80425 -0.3333,18.646 -0.3334,18.646 -16.49996,0.17832 -16.5,0.17831 v -61.67871 z"
       id="path22155"
       sodipodi:nodetypes="sssssssssssscssssscccssssssssssssssssssssscccssscccssssssscccssssssssscccssssscsssssscsssssccccccccccssccssssssssssssssssscccssssscccssssssscsssssssssssscccssssssssssccsscccccccsscccsscccccccsscccccccccccccccccccccccccccccsscsscccccccccc" />
  </g>
</svg>
